<?xml version="1.0" encoding="utf-8"?>
<!-- Generator: Adobe Illustrator 17.1.0, SVG Export Plug-In . SVG Version: 6.00 Build 0)  -->
<!DOCTYPE svg PUBLIC "-//W3C//DTD SVG 1.1//EN" "http://www.w3.org/Graphics/SVG/1.1/DTD/svg11.dtd">
<svg version="1.1" id="Layer_1" xmlns="http://www.w3.org/2000/svg" xmlns:xlink="http://www.w3.org/1999/xlink" x="0px" y="0px"
	 viewBox="0 0 612 792" enable-background="new 0 0 612 792" xml:space="preserve">
<linearGradient id="SVGID_1_" gradientUnits="userSpaceOnUse" x1="162.2" y1="400.35" x2="447.8" y2="400.35" gradientTransform="matrix(1 0 0 -1 0 792)">
	<stop  offset="7.142857e-02" style="stop-color:#ABABAB"/>
	<stop  offset="0.1715" style="stop-color:#C6C6C6"/>
	<stop  offset="0.3012" style="stop-color:#E5E5E4"/>
	<stop  offset="0.4119" style="stop-color:#F6F7F7"/>
	<stop  offset="0.4898" style="stop-color:#FFFFFF"/>
	<stop  offset="0.5743" style="stop-color:#F6F7F7"/>
	<stop  offset="0.6957" style="stop-color:#E4E4E4"/>
	<stop  offset="0.8388" style="stop-color:#C6C5C5"/>
	<stop  offset="0.9439" style="stop-color:#ABABAB"/>
</linearGradient>
<path fill="url(#SVGID_1_)" d="M443.9,117.9v-6.3c-0.5-5.8-7.2-6.1-18-7.3h0.1c-1-7.2-38.7-13.1-89.7-14.9V84h-62.5v5.4
	c-49.7,1.7-86.7,7.5-89.5,14.4c-11.6,0-18-0.1-18,7.8v6.3h-3.9l-0.2,373.2h3.9v6.3c0.5,5.8,7.2,6.1,18,7.3H184
	c1,7.2,36.3,12.8,87.3,14.6v5.3l4.7-0.2l11,18V597h-53.3v-3h-2.4v-7.1h-1c-0.6-1.6-2.2-2.8-4-2.8c-1.9,0-3.4,1.2-4,2.8h-1v7.1h-1.8
	v3H212v17.4h7.5v14.3h1.8v4h1.9V650h6.2v-17.3h1.9v-4h2.4v-14.3h138.4v14.3h1.9v1.9h1.9v68.7h6.2v-68.7h1.9v-1.9h2.4v-14.3h6.1V597
	h-6.1v-3H384v-7.1h-1c-0.6-1.6-2.2-2.8-4-2.8s-3.4,1.2-4,2.8h-1v7.1h-1.9v3h-52.7v-53.5l12.7-18.4h4.1v-5.4
	c49.7-1.7,86.7-7.5,89.5-14.4c11.6,0,18,0.1,18-7.8v-6.3h3.9l0.2-373.2L443.9,117.9L443.9,117.9z"/>
</svg>
