<?xml version="1.0" encoding="utf-8"?>
<!-- Generator: Adobe Illustrator 17.1.0, SVG Export Plug-In . SVG Version: 6.00 Build 0)  -->
<!DOCTYPE svg PUBLIC "-//W3C//DTD SVG 1.1//EN" "http://www.w3.org/Graphics/SVG/1.1/DTD/svg11.dtd">
<svg version="1.1" id="Layer_1" xmlns="http://www.w3.org/2000/svg" xmlns:xlink="http://www.w3.org/1999/xlink" x="0px" y="0px"
	 viewBox="0 0 612 792" enable-background="new 0 0 612 792" xml:space="preserve">
<linearGradient id="SVGID_1_" gradientUnits="userSpaceOnUse" x1="238.5" y1="395.45" x2="397.6" y2="395.45" gradientTransform="matrix(1 0 0 -1 0 792)">
	<stop  offset="8.163265e-02" style="stop-color:#A99480"/>
	<stop  offset="0.3776" style="stop-color:#CAB9A6"/>
	<stop  offset="0.5006" style="stop-color:#BFAD99"/>
	<stop  offset="0.7371" style="stop-color:#AF9B87"/>
	<stop  offset="0.9031" style="stop-color:#A99480"/>
</linearGradient>
<path fill="url(#SVGID_1_)" d="M385.8,348.5c-11.8-17.7-26.5-36.9-26.5-47.9c0-11.1,2.2-41.3-4.4-92.1c-3.5-26.8-5.8-55.7-7.1-77
	c2-0.7,3.4-2.6,3.4-4.8c0-2.4-1.7-4.4-4-4.9c-0.8-13.6-1.1-22.3-1.1-22.3v-0.1c2.5-0.4,4.4-2.4,4.4-5c0-2.8-2.3-5.2-5.2-5.2H290
	c-2.8,0-5.2,2.3-5.2,5.2s2.3,5.2,5.2,5.2c0,0-0.3,8.7-1.1,22.3c-2.3,0.5-4,2.5-4,4.9c0,2.2,1.4,4.1,3.4,4.8
	c-1.4,21.3-3.6,50.2-7.1,77c-6.6,50.9-4.4,81.1-4.4,92.1c0,11.1-14.7,30.2-26.5,47.9c-11.8,17.7-11.8,22.9-11.8,22.9
	s0,305.9,0,318.4s9.6,14,9.6,14H388c0,0,9.6-1.5,9.6-14s0-318.4,0-318.4S397.6,366.2,385.8,348.5z M388.5,678.8
	c0,12.3-8.4,13.7-8.4,13.7h-0.7c-12.3-3.7-33.7-6.2-58.1-6.2s-45.9,2.5-58.1,6.2h-5.1c0,0-8.4-1.4-8.4-13.7s0-312.2,0-312.2
	s0,2.3,10.3-15s25.1-36.4,25.1-47.3c0-10.8-1.9-47.8,3.9-97.7c0.4-3.8,0.8-7.5,1.2-11.4h57.7c0.4,3.9,0.8,7.8,1.3,11.7
	c5.8,49.9,3.9,86.9,3.9,97.7s15,29.6,25.3,47c10.3,17.3,10.3,15,10.3,15S388.5,666.5,388.5,678.8z"/>
<path fill="#FFFFFF" d="M1,72v720l610,1V73L1,72z M397.6,689.9c0,12.5-9.6,14-9.6,14H248.1c0,0-9.6-1.5-9.6-14s0-318.4,0-318.4
	s0-5.2,11.8-22.9s26.5-36.8,26.5-47.9c0-11-2.2-41.2,4.4-92.1c3.5-26.8,5.7-55.7,7.1-77c-2-0.7-3.4-2.6-3.4-4.8c0-2.4,1.7-4.4,4-4.9
	c0.8-13.6,1.1-22.3,1.1-22.3c-2.9,0-5.2-2.3-5.2-5.2c0-2.9,2.4-5.2,5.2-5.2h55.3c2.9,0,5.2,2.4,5.2,5.2c0,2.6-1.9,4.6-4.4,5v0.1
	c0,0,0.3,8.7,1.1,22.3c2.3,0.5,4,2.5,4,4.9c0,2.2-1.4,4.1-3.4,4.8c1.3,21.3,3.6,50.2,7.1,77c6.6,50.8,4.4,81,4.4,92.1
	c0,11,14.7,30.2,26.5,47.9c11.8,17.7,11.8,23,11.8,23S397.6,677.4,397.6,689.9z"/>
</svg>
