<?xml version="1.0" encoding="utf-8"?>
<!-- Generator: Adobe Illustrator 17.1.0, SVG Export Plug-In . SVG Version: 6.00 Build 0)  -->
<!DOCTYPE svg PUBLIC "-//W3C//DTD SVG 1.1//EN" "http://www.w3.org/Graphics/SVG/1.1/DTD/svg11.dtd">
<svg version="1.1" id="Layer_1" xmlns="http://www.w3.org/2000/svg" xmlns:xlink="http://www.w3.org/1999/xlink" x="0px" y="0px"
	 viewBox="0 0 612 792" enable-background="new 0 0 612 792" xml:space="preserve">
<linearGradient id="SVGID_1_" gradientUnits="userSpaceOnUse" x1="237.9" y1="395.15" x2="395.8" y2="395.15" gradientTransform="matrix(1 0 0 -1 0 792)">
	<stop  offset="8.163265e-02" style="stop-color:#A99480"/>
	<stop  offset="0.3776" style="stop-color:#CAB9A6"/>
	<stop  offset="0.5006" style="stop-color:#BFAD99"/>
	<stop  offset="0.7371" style="stop-color:#AF9B87"/>
	<stop  offset="0.9031" style="stop-color:#A99480"/>
</linearGradient>
<path fill="url(#SVGID_1_)" d="M384.1,349.2c-11.7-17.6-26.3-36.7-26.3-47.7s2.2-41.1-4.4-91.7c-3.5-26.7-5.7-55.4-7.1-76.6
	c2-0.7,3.4-2.6,3.4-4.8c0-2.4-1.7-4.4-4-4.9c-0.8-13.6-1.1-22.2-1.1-22.2v-0.1c2.5-0.4,4.4-2.4,4.4-5c0-2.8-2.3-5.1-5.1-5.1h-54.8
	c-2.8,0-5.1,2.3-5.1,5.1s2.3,5.1,5.1,5.1c0,0-0.3,8.7-1.1,22.2c-2.3,0.5-4,2.5-4,4.9c0,2.2,1.4,4.1,3.4,4.8
	c-1.4,21.2-3.6,49.9-7.1,76.6c-6.6,50.6-4.4,80.7-4.4,91.7s-14.6,30.1-26.3,47.7s-11.7,22.7-11.7,22.7s0,304.4,0,316.8
	c0,12.5,9.5,13.9,9.5,13.9h138.9c0,0,9.5-1.5,9.5-13.9c0-12.5,0-316.8,0-316.8S395.8,366.8,384.1,349.2z"/>
<linearGradient id="SVGID_2_" gradientUnits="userSpaceOnUse" x1="247.4944" y1="104.0447" x2="416.9506" y2="569.6217" gradientTransform="matrix(1 0 0 -1 0 792)">
	<stop  offset="0" style="stop-color:#CD972E"/>
	<stop  offset="0.4856" style="stop-color:#ECA024"/>
	<stop  offset="1" style="stop-color:#FFD87E"/>
</linearGradient>
<path fill="url(#SVGID_2_)" d="M376.6,352.2c-10.2-17.3-25.1-36-25.1-46.7c0-10.8,1.9-47.6-3.8-97.2c-0.4-3.8-0.9-7.7-1.3-11.6
	h-57.2c-0.4,3.8-0.8,7.6-1.2,11.3c-5.7,49.6-3.8,86.4-3.8,97.2c0,10.8-14.7,29.8-24.9,47c-10.2,17.3-10.2,15-10.2,15
	s0,298.4,0,310.6c0,12.2,8.3,13.7,8.3,13.7h5.1c12.2-3.7,33.4-6.1,57.7-6.1c24.2,0,45.5,2.5,57.7,6.1h0.7c0,0,8.3-1.4,8.3-13.7
	c0-12.2,0-310.6,0-310.6S386.8,369.5,376.6,352.2z"/>
</svg>
