<?xml version="1.0" encoding="utf-8"?>
<!-- Generator: Adobe Illustrator 17.1.0, SVG Export Plug-In . SVG Version: 6.00 Build 0)  -->
<!DOCTYPE svg PUBLIC "-//W3C//DTD SVG 1.1//EN" "http://www.w3.org/Graphics/SVG/1.1/DTD/svg11.dtd">
<svg version="1.1" id="Layer_1" xmlns="http://www.w3.org/2000/svg" xmlns:xlink="http://www.w3.org/1999/xlink" x="0px" y="0px"
	 viewBox="0 0 1200 1200" enable-background="new 0 0 1200 1200" xml:space="preserve">
<linearGradient id="SVGID_1_" gradientUnits="userSpaceOnUse" x1="550.6537" y1="109.7917" x2="683.9847" y2="109.7917">
	<stop  offset="4.081633e-02" style="stop-color:#BFBFBF"/>
	<stop  offset="0.398" style="stop-color:#E6E6E6"/>
	<stop  offset="0.9439" style="stop-color:#BFBFBF"/>
</linearGradient>
<rect x="550.7" y="70.2" fill="url(#SVGID_1_)" width="133.3" height="79.3"/>
<linearGradient id="SVGID_2_" gradientUnits="userSpaceOnUse" x1="265.974" y1="196.2767" x2="950.6467" y2="196.2767">
	<stop  offset="4.081633e-02" style="stop-color:#BFBFBF"/>
	<stop  offset="0.398" style="stop-color:#E6E6E6"/>
	<stop  offset="0.9439" style="stop-color:#BFBFBF"/>
</linearGradient>
<ellipse fill="url(#SVGID_2_)" cx="608.3" cy="196.3" rx="342.3" ry="86.5"/>
<linearGradient id="SVGID_3_" gradientUnits="userSpaceOnUse" x1="240.7493" y1="670.1422" x2="979.475" y2="670.1422">
	<stop  offset="1.020408e-02" style="stop-color:#A6A6A6"/>
	<stop  offset="0.4133" style="stop-color:#CCCCCC"/>
	<stop  offset="1" style="stop-color:#A6A6A6"/>
</linearGradient>
<rect x="240.7" y="189.1" fill="url(#SVGID_3_)" width="738.7" height="962.1"/>
<linearGradient id="SVGID_4_" gradientUnits="userSpaceOnUse" x1="219.128" y1="1146.5223" x2="1004.6998" y2="1146.5223">
	<stop  offset="4.081633e-02" style="stop-color:#BFBFBF"/>
	<stop  offset="0.398" style="stop-color:#E6E6E6"/>
	<stop  offset="0.9439" style="stop-color:#BFBFBF"/>
</linearGradient>
<path fill="url(#SVGID_4_)" d="M1004.7,1165.6c0,27.1-5.1,36-31.1,36H246.8c-26,0-27.7-9-27.7-36v-25.2c0-27.1,1.7-49,27.7-49h726.7
	c26,0,31.1,21.9,31.1,49V1165.6z"/>
<linearGradient id="SVGID_5_" gradientUnits="userSpaceOnUse" x1="226.3351" y1="435.9121" x2="1001.0963" y2="435.9121">
	<stop  offset="4.081633e-02" style="stop-color:#BFBFBF"/>
	<stop  offset="0.398" style="stop-color:#E6E6E6"/>
	<stop  offset="0.9439" style="stop-color:#BFBFBF"/>
</linearGradient>
<path fill="url(#SVGID_5_)" d="M1001.1,596.3c0,27.1-5.1,49-30.7,49H253.6c-25.6,0-27.3-21.9-27.3-49V275.6c0-27.1,1.7-49,27.3-49
	h716.7c25.6,0,30.7,21.9,30.7,49V596.3z"/>
<linearGradient id="SVGID_6_" gradientUnits="userSpaceOnUse" x1="226.3351" y1="868.3369" x2="1001.0963" y2="868.3369">
	<stop  offset="4.081633e-02" style="stop-color:#BFBFBF"/>
	<stop  offset="0.398" style="stop-color:#E6E6E6"/>
	<stop  offset="0.9439" style="stop-color:#BFBFBF"/>
</linearGradient>
<path fill="url(#SVGID_6_)" d="M1001.1,1028.7c0,27.1-5.1,49-30.7,49H253.6c-25.6,0-27.3-21.9-27.3-49V708c0-27.1,1.7-49,27.3-49
	h716.7c25.6,0,30.7,21.9,30.7,49V1028.7z"/>
<linearGradient id="SVGID_7_" gradientUnits="userSpaceOnUse" x1="204.7139" y1="811.3931" x2="1022.7175" y2="811.3931">
	<stop  offset="6.122449e-02" style="stop-color:#CCCCCC"/>
	<stop  offset="0.398" style="stop-color:#FFFFFF"/>
	<stop  offset="0.9337" style="stop-color:#B3B3B3"/>
</linearGradient>
<path fill="url(#SVGID_7_)" d="M1022.7,817.3c0,13.9-21.9,18.9-49,18.9h-720c-27.1,0-49-5-49-18.9v-11.9c0-13.9,21.9-18.9,49-18.9
	h720c27.1,0,49,5,49,18.9V817.3z"/>
<linearGradient id="SVGID_8_" gradientUnits="userSpaceOnUse" x1="204.7139" y1="469.0567" x2="1022.7175" y2="469.0567">
	<stop  offset="6.122449e-02" style="stop-color:#CCCCCC"/>
	<stop  offset="0.398" style="stop-color:#FFFFFF"/>
	<stop  offset="0.9337" style="stop-color:#B3B3B3"/>
</linearGradient>
<path fill="url(#SVGID_8_)" d="M1022.7,475c0,13.9-21.9,18.9-49,18.9h-720c-27.1,0-49-5-49-18.9v-11.9c0-13.9,21.9-18.9,49-18.9h720
	c27.1,0,49,5,49,18.9V475z"/>
<linearGradient id="SVGID_9_" gradientUnits="userSpaceOnUse" x1="219.128" y1="102.5846" x2="1004.6997" y2="102.5846">
	<stop  offset="4.081633e-02" style="stop-color:#BFBFBF"/>
	<stop  offset="0.398" style="stop-color:#E6E6E6"/>
	<stop  offset="0.9439" style="stop-color:#BFBFBF"/>
</linearGradient>
<path fill="url(#SVGID_9_)" d="M973.6-0.5H246.8c-26,0-27.7,21.9-27.7,49v108.1c0,27.1,1.7,49,27.7,49h726.7c26,0,31.1-21.9,31.1-49
	V48.5C1004.7,21.5,999.6-0.5,973.6-0.5z M693,135H530.8c-24.9,0-45-20.2-45-45c0-24.9,20.2-45,45-45H693c24.9,0,45,20.2,45,45
	C738,114.8,717.9,135,693,135z"/>
</svg>
