<?xml version="1.0" encoding="utf-8"?>
<!-- Generator: Adobe Illustrator 17.1.0, SVG Export Plug-In . SVG Version: 6.00 Build 0)  -->
<!DOCTYPE svg PUBLIC "-//W3C//DTD SVG 1.1//EN" "http://www.w3.org/Graphics/SVG/1.1/DTD/svg11.dtd">
<svg version="1.1" id="Layer_12" xmlns="http://www.w3.org/2000/svg" xmlns:xlink="http://www.w3.org/1999/xlink" x="0px" y="0px"
	 viewBox="0 0 1200 1200" enable-background="new 0 0 1200 1200" xml:space="preserve">
<linearGradient id="SVGID_1_" gradientUnits="userSpaceOnUse" x1="886.0601" y1="-82.4552" x2="891.7173" y2="-66.9121" gradientTransform="matrix(0.51 0 0 -0.51 144.55 803.47)">
	<stop  offset="4.591837e-02" style="stop-color:#EEA326"/>
	<stop  offset="0.5" style="stop-color:#FFD97E"/>
	<stop  offset="0.9439" style="stop-color:#FFF1C6"/>
</linearGradient>
<path fill="url(#SVGID_1_)" d="M597,840.3c-1.8,1.7-3,3.5-2.6,4.2c0.5,0.7,2.5-0.2,4.4-1.9c1.9-1.7,3.1-3.5,2.6-4.2
	C601,837.7,598.9,838.6,597,840.3z"/>
<linearGradient id="SVGID_2_" gradientUnits="userSpaceOnUse" x1="932.1152" y1="-80.7593" x2="939.4554" y2="-60.5923" gradientTransform="matrix(0.51 0 0 -0.51 144.55 803.47)">
	<stop  offset="4.591837e-02" style="stop-color:#EEA326"/>
	<stop  offset="0.5" style="stop-color:#FFD97E"/>
	<stop  offset="0.9439" style="stop-color:#FFF1C6"/>
</linearGradient>
<path fill="url(#SVGID_2_)" d="M622.4,836.6c-0.3,0.2-0.6,0.3-0.8,0.5c0.1-1.2-0.1-2-0.5-2.1c-0.6-0.3-2,1.7-2.7,4.1
	c-0.3,0.8-0.4,1.6-0.5,2.3c-0.9,0.6-1.4,1.3-1.2,1.8c0.1,0.3,0.6,0.4,1.3,0.4c0.1,0.2,0.2,0.4,0.4,0.4c0.3,0.1,0.6-0.1,0.9-0.5
	c0.6-0.1,1.3-0.3,2-0.6c2.2-0.9,3.9-2.2,3.7-3c-0.2-0.4-0.8-0.5-1.8-0.4c0.2-0.1,0.3-0.2,0.4-0.2c2.1-1.2,3.7-2.8,3.4-3.4
	C626.7,834.9,624.7,835.4,622.4,836.6z"/>
<linearGradient id="SVGID_3_" gradientUnits="userSpaceOnUse" x1="904.2655" y1="-117.8186" x2="918.1069" y2="-79.7898" gradientTransform="matrix(0.51 0 0 -0.51 144.55 803.47)">
	<stop  offset="4.591837e-02" style="stop-color:#EEA326"/>
	<stop  offset="0.5" style="stop-color:#FFD97E"/>
	<stop  offset="0.9439" style="stop-color:#FFF1C6"/>
</linearGradient>
<path fill="url(#SVGID_3_)" d="M610.6,858.4c0-0.1-0.1-0.1-0.1-0.1c0.1-0.1,0.3-0.1,0.4-0.2c2.1-1.1,3.5-2.7,3.4-3.4
	c-0.2-0.4-0.7-0.5-1.4-0.4c0.4-0.8,0.6-1.9,0.8-3.1c0.1-0.9,0.2-1.7,0.2-2.3c0.7-2.1,1-4.1,0.2-4.3c-0.8-0.3-2.2,1.3-3.1,3.7
	c-0.9,2.4-1.2,4.7-0.4,5c0.1,0.1,0.2,0.1,0.3,0c0.1,0.7,0.2,1.2,0.3,1.6c-0.4,0.2-0.8,0.4-1.3,0.6c-0.6,0.3-1,0.6-1.5,0.9
	c0.2-0.5,0.3-1,0.4-1.6c0.3-1.7,0.3-3.3,0.1-4.2c0-0.1,0.1-0.3,0.1-0.4c0.3-2.5-0.2-4.9-0.9-4.9c-0.7-0.1-1.7,1.8-2,4.5
	c-0.2,1.5-0.1,2.8,0.1,3.7c-0.1,0.2-0.1,0.3-0.1,0.5c-0.5,2.2-0.4,3.9,0.2,4.7c-0.1,0-0.1,0.1-0.2,0.1c-2.2,1-3.9,2.3-3.6,3.1
	c0.3,0.7,2.4,0.7,4.7-0.3C609.3,860.5,610.9,859.1,610.6,858.4z"/>
<linearGradient id="SVGID_4_" gradientUnits="userSpaceOnUse" x1="923.3145" y1="-99.7292" x2="929.7266" y2="-82.1121" gradientTransform="matrix(0.51 0 0 -0.51 144.55 803.47)">
	<stop  offset="4.591837e-02" style="stop-color:#EEA326"/>
	<stop  offset="0.5" style="stop-color:#FFD97E"/>
	<stop  offset="0.9439" style="stop-color:#FFF1C6"/>
</linearGradient>
<path fill="url(#SVGID_4_)" d="M615.7,849.1c-0.9,2.4-1.1,4.7-0.4,5c0.8,0.3,2.2-1.3,3.1-3.7c0.9-2.2,1.1-4.5,0.4-5
	C618.1,845.1,616.7,846.7,615.7,849.1z"/>
<linearGradient id="SVGID_5_" gradientUnits="userSpaceOnUse" x1="920.3025" y1="-113.2946" x2="925.1384" y2="-100.008" gradientTransform="matrix(0.51 0 0 -0.51 144.55 803.47)">
	<stop  offset="4.591837e-02" style="stop-color:#EEA326"/>
	<stop  offset="0.5" style="stop-color:#FFD97E"/>
	<stop  offset="0.9439" style="stop-color:#FFF1C6"/>
</linearGradient>
<path fill="url(#SVGID_5_)" d="M614.6,856.5c-2.2,1.2-3.7,2.8-3.4,3.4c0.4,0.9,2.3,0.4,4.6-0.8c2.2-1.3,3.6-2.9,3.4-3.4
	C618.8,854.8,616.9,855.4,614.6,856.5z"/>
<linearGradient id="SVGID_6_" gradientUnits="userSpaceOnUse" x1="916.3423" y1="-131.0908" x2="921.1782" y2="-117.8045" gradientTransform="matrix(0.51 0 0 -0.51 144.55 803.47)">
	<stop  offset="4.591837e-02" style="stop-color:#EEA326"/>
	<stop  offset="0.5" style="stop-color:#FFD97E"/>
	<stop  offset="0.9439" style="stop-color:#FFF1C6"/>
</linearGradient>
<path fill="url(#SVGID_6_)" d="M612.5,865.6c-2.2,1.2-3.7,2.8-3.4,3.4c0.4,0.9,2.3,0.4,4.6-0.8c2-1.1,3.7-2.7,3.4-3.4
	C616.8,863.9,614.8,864.4,612.5,865.6z"/>
<linearGradient id="SVGID_7_" gradientUnits="userSpaceOnUse" x1="887.9528" y1="-93.7258" x2="893.9731" y2="-77.1852" gradientTransform="matrix(0.51 0 0 -0.51 144.55 803.47)">
	<stop  offset="4.591837e-02" style="stop-color:#EEA326"/>
	<stop  offset="0.5" style="stop-color:#FFD97E"/>
	<stop  offset="0.9439" style="stop-color:#FFF1C6"/>
</linearGradient>
<path fill="url(#SVGID_7_)" d="M602.8,848.4c0-0.8-1.4-1.1-3.4-1c1.7-1.6,2.8-3.3,2.3-4c-0.5-0.7-2.5,0.2-4.4,1.9
	c-1.1,1-2,2.1-2.4,3c-0.7,0.3-1.1,0.7-1,1.1c0,1,2,1.2,4.5,1C601,849.8,602.8,848.9,602.8,848.4z"/>
<linearGradient id="SVGID_8_" gradientUnits="userSpaceOnUse" x1="881.8221" y1="-46.7961" x2="888.0872" y2="-29.583" gradientTransform="matrix(0.51 0 0 -0.51 144.55 803.47)">
	<stop  offset="4.591837e-02" style="stop-color:#EEA326"/>
	<stop  offset="0.5" style="stop-color:#FFD97E"/>
	<stop  offset="0.9439" style="stop-color:#FFF1C6"/>
</linearGradient>
<path fill="url(#SVGID_8_)" d="M595,827.5c0.8,0.3,1.8-1.6,2.2-4.2c0.5-2.5,0.3-4.7-0.5-5s-1.8,1.6-2.2,4.2
	C594.1,825,594.3,827.2,595,827.5z"/>
<linearGradient id="SVGID_9_" gradientUnits="userSpaceOnUse" x1="894.1165" y1="-71.0964" x2="897.4363" y2="-61.9753" gradientTransform="matrix(0.51 0 0 -0.51 144.55 803.47)">
	<stop  offset="4.591837e-02" style="stop-color:#EEA326"/>
	<stop  offset="0.5" style="stop-color:#FFD97E"/>
	<stop  offset="0.9439" style="stop-color:#FFF1C6"/>
</linearGradient>
<path fill="url(#SVGID_9_)" d="M607.7,839.7c0.2-0.8-1.2-2.4-3.5-3.5c-0.3-0.2-0.6-0.3-0.8-0.4c-0.3-0.8-2.2-0.9-4.5-0.7
	c-2.5,0.2-4.5,1.1-4.4,1.9c0,1,2,1.2,4.5,1c0.7-0.1,1.3-0.2,1.9-0.4c0.6,0.5,1.3,0.9,2.1,1.3C605.3,840.1,607.5,840.5,607.7,839.7z"
	/>
<linearGradient id="SVGID_10_" gradientUnits="userSpaceOnUse" x1="910.2835" y1="-78.8891" x2="920.9579" y2="-49.5615" gradientTransform="matrix(0.51 0 0 -0.51 144.55 803.47)">
	<stop  offset="4.591837e-02" style="stop-color:#EEA326"/>
	<stop  offset="0.5" style="stop-color:#FFD97E"/>
	<stop  offset="0.9439" style="stop-color:#FFF1C6"/>
</linearGradient>
<path fill="url(#SVGID_10_)" d="M609,832.7c-0.6-0.1-1,0.1-1.2,0.3c-0.2,0.7,0.9,2.1,2.8,3.2c-0.5,0.6-0.9,1.4-1.2,2.4
	c-0.9,2.4-1.1,4.7-0.4,5c0.8,0.3,2.2-1.3,3.1-3.7c0.4-0.9,0.6-1.8,0.7-2.5c1.7,0.7,3.1,0.8,3.2,0.2c0.2-0.8-1.2-2.4-3.5-3.5
	c-0.2-0.1-0.3-0.2-0.5-0.2c0.5-0.1,1-0.3,1.5-0.5c2.2-1,3.9-2.4,3.6-3.1c-0.3-0.7-2.4-0.7-4.7,0.3
	C610.7,830.9,609.4,831.9,609,832.7z"/>
<linearGradient id="SVGID_11_" gradientUnits="userSpaceOnUse" x1="926.4398" y1="-50.9364" x2="935.0986" y2="-27.1467" gradientTransform="matrix(0.51 0 0 -0.51 144.55 803.47)">
	<stop  offset="4.591837e-02" style="stop-color:#EEA326"/>
	<stop  offset="0.5" style="stop-color:#FFD97E"/>
	<stop  offset="0.9439" style="stop-color:#FFF1C6"/>
</linearGradient>
<path fill="url(#SVGID_11_)" d="M612.5,827.4c0.4,0.9,2.3,0.4,4.6-0.8c2.2-1.2,3.7-2.8,3.4-3.4c-0.1-0.2-0.2-0.3-0.4-0.4
	c0.4-0.1,0.8-0.2,1.3-0.3c-0.9,2.3-1.1,4.5-0.5,4.8c0.7,0.3,1.9-1.3,3.1-3.7c0.4-0.9,0.7-1.8,0.8-2.7c0.9-0.7,1.4-1.3,1.3-1.8
	c-0.1-0.3-0.7-0.4-1.4-0.4c-0.1-0.1-0.1-0.2-0.2-0.2c-0.2-0.1-0.5,0-0.9,0.3c-0.7,0.1-1.4,0.3-2.1,0.6c-2.2,0.9-4.1,2.1-3.7,3
	c0.1,0.2,0.4,0.3,0.8,0.4c-0.8,0.2-1.7,0.6-2.7,1.1C613.7,825.1,612.2,826.6,612.5,827.4z"/>
<linearGradient id="SVGID_12_" gradientUnits="userSpaceOnUse" x1="928.8723" y1="-64.6452" x2="938.0757" y2="-39.3591" gradientTransform="matrix(0.51 0 0 -0.51 144.55 803.47)">
	<stop  offset="4.591837e-02" style="stop-color:#EEA326"/>
	<stop  offset="0.5" style="stop-color:#FFD97E"/>
	<stop  offset="0.9439" style="stop-color:#FFF1C6"/>
</linearGradient>
<path fill="url(#SVGID_12_)" d="M619.1,834.5c0.4,0.6,2,0.1,3.8-1.1c0.3,0,0.6-0.3,1-0.8c1.6-1.5,2.8-3,2.3-3.6
	c-0.1-0.2-0.3-0.3-0.6-0.3c0.6-2.2,0.7-4.2-0.1-4.4c-0.6-0.3-2,1.7-2.7,4.1c0,0.1-0.1,0.2-0.1,0.3c-0.8,0.2-1.7,0.6-2.7,1.1
	c-0.6,0.4-1.1,0.7-1.6,1.1c-0.4,0.1-0.7,0.3-1.1,0.4c-2.3,0.8-3.9,2.2-3.6,3.1c0.3,0.7,2.4,0.7,4.7-0.3c0.2-0.1,0.4-0.2,0.6-0.3
	C619,834.1,619,834.3,619.1,834.5z"/>
<linearGradient id="SVGID_13_" gradientUnits="userSpaceOnUse" x1="947.5801" y1="198.1017" x2="953.9455" y2="215.5903" gradientTransform="matrix(0.51 0 0 -0.51 144.55 803.47)">
	<stop  offset="4.591837e-02" style="stop-color:#EEA326"/>
	<stop  offset="0.5" style="stop-color:#FFD97E"/>
	<stop  offset="0.9439" style="stop-color:#FFF1C6"/>
</linearGradient>
<path fill="url(#SVGID_13_)" d="M630.8,698.3c0.7-2.3,0.9-4.7,0.1-4.9c-0.6-0.3-2,1.7-2.7,4.1c-0.7,2.4-0.9,4.7-0.1,4.9
	C628.7,702.6,630.1,700.7,630.8,698.3z"/>
<linearGradient id="SVGID_14_" gradientUnits="userSpaceOnUse" x1="951.3804" y1="127.7385" x2="955.6976" y2="139.6001" gradientTransform="matrix(0.51 0 0 -0.51 144.55 803.47)">
	<stop  offset="4.591837e-02" style="stop-color:#EEA326"/>
	<stop  offset="0.5" style="stop-color:#FFD97E"/>
	<stop  offset="0.9439" style="stop-color:#FFF1C6"/>
</linearGradient>
<path fill="url(#SVGID_14_)" d="M630.3,733.8c-2.3,1-3.9,2.3-3.6,3.1c0.3,0.7,2.4,0.7,4.7-0.3c2.2-1,3.9-2.4,3.6-3.1
	C634.7,732.9,632.6,732.9,630.3,733.8z"/>
<linearGradient id="SVGID_15_" gradientUnits="userSpaceOnUse" x1="927.9718" y1="6.2998" x2="935.7774" y2="27.7455" gradientTransform="matrix(0.51 0 0 -0.51 144.55 803.47)">
	<stop  offset="4.591837e-02" style="stop-color:#EEA326"/>
	<stop  offset="0.5" style="stop-color:#FFD97E"/>
	<stop  offset="0.9439" style="stop-color:#FFF1C6"/>
</linearGradient>
<path fill="url(#SVGID_15_)" d="M621.1,789.1c-0.6-0.3-2,1.7-2.7,4.1c-0.3,0.9-0.5,1.8-0.5,2.6c-1.9,1.2-3.2,2.6-2.8,3.2
	c0.3,0.6,2.4,0.3,4.6-1c2.3-1.2,3.8-2.6,3.2-3.5c-0.2-0.4-0.9-0.4-2-0.2c0.1-0.2,0.1-0.3,0.2-0.5C621.8,791.6,622,789.3,621.1,789.1
	z"/>
<linearGradient id="SVGID_16_" gradientUnits="userSpaceOnUse" x1="946.6117" y1="61.8307" x2="951.4476" y2="75.1172" gradientTransform="matrix(0.51 0 0 -0.51 144.55 803.47)">
	<stop  offset="4.591837e-02" style="stop-color:#EEA326"/>
	<stop  offset="0.5" style="stop-color:#FFD97E"/>
	<stop  offset="0.9439" style="stop-color:#FFF1C6"/>
</linearGradient>
<path fill="url(#SVGID_16_)" d="M628,767.2c-2.2,1.2-3.7,2.8-3.4,3.4c0.4,0.9,2.3,0.4,4.6-0.8c2.2-1.3,3.6-2.9,3.4-3.4
	C632.2,765.5,630.2,766,628,767.2z"/>
<linearGradient id="SVGID_17_" gradientUnits="userSpaceOnUse" x1="884.6588" y1="109.73" x2="891.0232" y2="127.2159" gradientTransform="matrix(0.51 0 0 -0.51 144.55 803.47)">
	<stop  offset="4.591837e-02" style="stop-color:#EEA326"/>
	<stop  offset="0.5" style="stop-color:#FFD97E"/>
	<stop  offset="0.9439" style="stop-color:#FFF1C6"/>
</linearGradient>
<path fill="url(#SVGID_17_)" d="M596,747.4c0.6,0.3,2-1.7,2.7-4.1c0.9-2.4,0.9-4.6,0.1-4.9c-0.6-0.3-2,1.7-2.7,4.1
	C595.4,744.9,595.2,747.2,596,747.4z"/>
<linearGradient id="SVGID_18_" gradientUnits="userSpaceOnUse" x1="889.2639" y1="-4.8389" x2="894.0563" y2="8.3281" gradientTransform="matrix(0.51 0 0 -0.51 144.55 803.47)">
	<stop  offset="4.591837e-02" style="stop-color:#EEA326"/>
	<stop  offset="0.5" style="stop-color:#FFD97E"/>
	<stop  offset="0.9439" style="stop-color:#FFF1C6"/>
</linearGradient>
<path fill="url(#SVGID_18_)" d="M600,803.8c2.1-1.3,3.5-2.9,3.2-3.5c-0.3-0.6-2.4-0.3-4.6,1c-2.1,1.2-3.6,2.8-3.2,3.5
	C595.7,805.3,597.8,805.1,600,803.8z"/>
<linearGradient id="SVGID_19_" gradientUnits="userSpaceOnUse" x1="891.1768" y1="258.4294" x2="897.4939" y2="275.7856" gradientTransform="matrix(0.51 0 0 -0.51 144.55 803.47)">
	<stop  offset="4.591837e-02" style="stop-color:#EEA326"/>
	<stop  offset="0.5" style="stop-color:#FFD97E"/>
	<stop  offset="0.9439" style="stop-color:#FFF1C6"/>
</linearGradient>
<path fill="url(#SVGID_19_)" d="M599.6,671.7c0.8,0.3,1.8-1.6,2.4-4.1c0.6-2.5,0.5-4.7-0.3-5s-1.8,1.6-2.4,4.1
	S598.9,671.5,599.6,671.7z"/>
<linearGradient id="SVGID_20_" gradientUnits="userSpaceOnUse" x1="896.3483" y1="187.344" x2="901.0214" y2="200.1835" gradientTransform="matrix(0.51 0 0 -0.51 144.55 803.47)">
	<stop  offset="4.591837e-02" style="stop-color:#EEA326"/>
	<stop  offset="0.5" style="stop-color:#FFD97E"/>
	<stop  offset="0.9439" style="stop-color:#FFF1C6"/>
</linearGradient>
<path fill="url(#SVGID_20_)" d="M603.6,705.9c2.2-1.2,3.6-2.8,3.4-3.4c-0.2-0.6-2.3-0.4-4.6,0.7c-2.2,1.1-3.8,2.7-3.4,3.4
	C599.2,707.3,601.3,707,603.6,705.9z"/>
<linearGradient id="SVGID_21_" gradientUnits="userSpaceOnUse" x1="903.0818" y1="674.6949" x2="909.4596" y2="692.2177" gradientTransform="matrix(0.51 0 0 -0.51 144.55 803.47)">
	<stop  offset="4.591837e-02" style="stop-color:#EEA326"/>
	<stop  offset="0.5" style="stop-color:#FFD97E"/>
	<stop  offset="0.9439" style="stop-color:#FFF1C6"/>
</linearGradient>
<path fill="url(#SVGID_21_)" d="M608.1,455.5c0.9-2.5,1-4.7,0.2-5c-0.7-0.4-2,1.4-2.9,3.8c-0.9,2.4-1,4.6-0.2,5
	C606,459.6,607.2,457.9,608.1,455.5z"/>
<linearGradient id="SVGID_22_" gradientUnits="userSpaceOnUse" x1="885.9025" y1="447.9875" x2="892.1161" y2="465.0591" gradientTransform="matrix(0.51 0 0 -0.51 144.55 803.47)">
	<stop  offset="4.591837e-02" style="stop-color:#EEA326"/>
	<stop  offset="0.5" style="stop-color:#FFD97E"/>
	<stop  offset="0.9439" style="stop-color:#FFF1C6"/>
</linearGradient>
<path fill="url(#SVGID_22_)" d="M597.2,575.2c0.7,0.3,1.8-1.8,2.1-4.3c0.4-2.5,0.1-4.6-0.7-4.9s-1.8,1.8-2.1,4.3
	C596.2,572.7,596.5,574.9,597.2,575.2z"/>
<linearGradient id="SVGID_23_" gradientUnits="userSpaceOnUse" x1="917.9563" y1="815.8232" x2="924.348" y2="833.3842" gradientTransform="matrix(0.51 0 0 -0.51 144.55 803.47)">
	<stop  offset="4.591837e-02" style="stop-color:#EEA326"/>
	<stop  offset="0.5" style="stop-color:#FFD97E"/>
	<stop  offset="0.9439" style="stop-color:#FFF1C6"/>
</linearGradient>
<path fill="url(#SVGID_23_)" d="M612.9,387.3c0.6,0.3,2-1.6,2.8-4c0.9-2.4,0.9-4.7,0.1-4.9c-0.6-0.3-2,1.6-2.8,4
	C612.3,384.8,612.1,387.1,612.9,387.3z"/>
<linearGradient id="SVGID_24_" gradientUnits="userSpaceOnUse" x1="766.4239" y1="-23.8972" x2="1140.8215" y2="1004.7521" gradientTransform="matrix(0.51 0 0 -0.51 144.55 803.47)">
	<stop  offset="4.591837e-02" style="stop-color:#EEA326"/>
	<stop  offset="0.5" style="stop-color:#FFD97E"/>
	<stop  offset="0.9439" style="stop-color:#FFF1C6"/>
</linearGradient>
<path fill="url(#SVGID_24_)" d="M674.8,293.9c0.8-5.4,1.7-22.6-0.6-23.5c6,2.6-13.4,13.6-14,13.6c0.3-2,0-2.8-1.1-3.4
	c6,3.2-13,10-10.2,5.4c2.4-5.9-13.3,46.3-20,44.2c3,1.3,2.2-6,3.8-6.4c11.6,11.6-17.3,4.2-8.9,6.3c-2-0.5-5.8,21.9-3.8,22.4
	c0,0,2.5-2.4,3-2.9c4.7,4.7-9.6,8.1-9.2,9.2c2.8,0.2,5.2-0.7,7.2-2.6c1.5,4.4,2.4,9.2,2.6,11.6c-0.4-1.7-4.3-1.1-5.7-0.7
	c0.8-2.2,0.8-4.5,0-6.8c-1.3-0.4-3.8,13.3-4.1,13c2.4-1.2,3.4-0.4,2.8,2.6c-2.5-1.1,7-8.4,7-7.8c0.1,1-10,27.2-8.7,27.7
	c-2.3-0.6,7.9-3.2,7.3-3.2c-0.4,0.5-12,8.7-10,3.8c2.4-9.5,1.5,24-1.9,13.9c1,3.9,0.2,17.1,5,25.9c-0.1-0.3-10.1,3.7-10,2.9
	c0.2-1.2,8.9,6,8.7,6.1c-1.5,4.5-0.8-6.3-4.2,0.5c1.1,1,1.3,2.1,0.6,3.2c-0.4-1.3,0.8,23.1-4.6,17.6c2.6-0.8,4.6-2.5,5.8-4.8
	c0.2,1.5,1.6,3.3,2,4.9c-1.2,0.4-9.7,1.3-9.7,2c-0.5,2.8,10.5-2.5,7.9,6.7c-4.6-3.1,0.3-0.4-1.1-4.3c-3.7,0-6.3,1.7-7.9,5
	c2.1-1.6,3.7-1.6,4.8,0.1c-2.3,1-4.1,2.6-5.3,4.9c0.7,1.8,7.1-3.6,8.4-2.9c0,2.8-9.5,12.7-10.7,12.1c3.6,1.2,6.6,9-0.9,15.4
	c1.3,3.4,3.8,5.2,7.4,5.5c0.2-0.5-2.6-15.5-2.4-14.9c1.7,0.3,3.4,0.1,5-0.6c-1.4,10.1,2,21.4-7.6,17.7c-1.9-1.1-4.5,8-4.2,8.7
	c2,6.9,19.7,37.5,10.6,46.5c-2.5,0-7.3-3.9-6.1-3.9c-1.8,3.1-1.8,6.3,0,9.4c-2.1-0.4,9.9-0.8,6.8-0.5c-14.5,11.3-1.7,5.1,0.1,14
	c-2.3,4-6.3-2.8-7.6,0.1c0.2-0.6,0.2,14.1,0.6,14.9c0.9,2,5.3-1.1,6-0.7c-0.4-0.5-7.6,3.4-6.7,5.4c0.6,1.6,7.6-2.5,8.3-2.1
	c-2,2-10.9,13.5-7,14.8c-2.5-0.8,7-7.9,6.2-7.1c0,9.7-8.2,59.5-4.3,60.5c1.7-1.4,2.6-3.2,3-5.2c3.6,7.3-8.2,11.3-8.2,13
	c-0.2,3.1,6.4,0.2,7.1,1c-0.9,0.9-9.2,3.6-7.5,6.6c2.1-0.2,3.9-1.1,5.4-2.5c0.1,0.6-5.3,50.5-6.1,50.2c0.8-0.5,1-0.4,0.8,0.4
	c1,2.5,9.4-3.1,8.7-6.9c0.4,0.2,0.7,1.1,0.9,1.1c-2.3,9.3-14.4,19.1-10.6,27.2c1,2.6,6.2-2.1,6.7-2.3c1.8,8.1-3.7,3.2-5.9,6.4
	c-0.4,0.5,8.2,14.4,6.8,14.1c6.3,2.4-0.1-3.1,2.4-1.5c0,1.2-6.9,7-6.6,7.6c0.2,0.7,9,7.4-1.6,7.4c4.6-4.3,0.8-4.5-1.2-5
	c1.3,0.5-4.3,5.7-4.3,7c0,2.9,5,1.1,6.7,0.5c0.5-0.9-5.2,12.3-5.2,3c0-3.7,6.6,3.3,6.4,3.2c-1.2-0.4,8.7-8,8.5-7.6
	c0,2.6-2.5,5.7,0.1,7c-3.6,3.5-1.1-0.8-3-1.4c4.4,1.5-7.2,12.7-6.1,10c-0.6,2.9,2.6,3.1,4.2,3.9c0.4-0.3-9.1,9.3-9.1,6.9
	c3,2,5.9,2,8.9,0c-0.7-0.6-0.6-0.9,0.4-0.8c-0.5,1.2-5.4,7.3-5.8,6.7c1.6,3.4,7.7-3.8,7.7-3.7c0,0.7-2.4,12.9-3.5,10.2
	c3.9,8.5,12.3-16.5,11.9-14.8c1,0.4,6.9,2.1,8.3,2.1c2.3-2.9,2.7-6.1,1.1-9.5c4.3,0.3-16.7,6.6-10.2,3.3c0.9-0.7,15.3-8.2,15-8.6
	c1.4,2.7-8.3-5.8-4.3-4c1.5,0.8-10.5,2.7-11.3,3.1c1.8-10.7,14.2-11.8,15.2-15.9c-1-0.9-1.1-1.9-0.4-2.9c0.8,1.7-2.9-7.2-1.1-3.6
	c0-0.1-13.2,0.2-5.6,4c-3.5,0.9-2,1-5.1-0.6c1-1,8.9-4.7,8.2-6.2c-0.5-0.2-0.6-0.6-0.4-1.1c1.4,3.6-9.1-0.8-8.9-0.6
	c3.7-0.7,17-12,13.2-17.2c-1.6-17.1-5,6.9-5.3,6.9c0,2.5-8.5,1.4-8.1,1.7c15.7-7.9,1.7-15.9,1.7-16.9c0.5-1,0.2-1.5-1-1.4
	c0.2-0.9,0.5-1.8,0.9-2.7c2.7,0.8,5.3,1.1,6,1.2c4.8,2-1.2-19,3-19c-0.7-0.3-4.9,8.9-5.1,9.5c-7.7,0,8.4-24.1,2.9-24.5
	c-3.5-0.3-0.6,7.6-2.9,8.3c0.2-0.7,5.9-37.7,8.8-32.1c-0.7-1.3-3.6-1.8-4.4-1.8c0.1-0.3,10.4-8,9.6-9.7c-1.4-3.5-7.9,3-8.3,3.1
	c0,0.7-2.6-24.4-1-24c-0.6,1.8-1.7,2.7-3.4,2.8c-2.4-11.3,6.1-29.2,8.7-33c1.2-3.7-10.5-102-3.1-98.3c0,0-4.5,9.8-7,11.1
	c-2.9-11.5,9.7-21.3,11.2-26.3c3.3-10.6-4.5-42.8-8-48.1c0.5-1,11.3-17.8,5.4-18.9c-3.1-0.6-1.6,4-5.7,2.7
	c-0.5-5,15.2-37.8,11.5-39.3c-2.5-1.4-4.3,11.9-5.6,12.5c-5.7-20.1,13.8-27.6,8.8-42.1c4.6-3.4,0.3,0.3,4.2,1.2
	c-8.1-1.4,6.8-7.9,6.8-8.1c0.5-3.8-2.3-4.2,0-11.7c0.2-0.6-3.7,3.3-4.5,4.3c0-0.7-0.2-1-0.7-1c-3.6-3.6,4-6.1,4.5-7.5
	c1.2-3.6-5.8-35.3,6.7-32.2c-5.9-2,20.9-27.2,18.8-22.3C675.2,301.2,675.3,294.4,674.8,293.9C674.9,293.2,675.8,294.9,674.8,293.9z"
	/>
</svg>
