<?xml version="1.0" encoding="utf-8"?>
<!-- Generator: Adobe Illustrator 17.1.0, SVG Export Plug-In . SVG Version: 6.00 Build 0)  -->
<!DOCTYPE svg PUBLIC "-//W3C//DTD SVG 1.1//EN" "http://www.w3.org/Graphics/SVG/1.1/DTD/svg11.dtd">
<svg version="1.1" id="Layer_6_copy" xmlns="http://www.w3.org/2000/svg" xmlns:xlink="http://www.w3.org/1999/xlink" x="0px"
	 y="0px" viewBox="0 0 1200 1200" enable-background="new 0 0 1200 1200" xml:space="preserve">
<linearGradient id="SVGID_1_" gradientUnits="userSpaceOnUse" x1="912.2472" y1="137.1891" x2="926.0886" y2="175.2178" gradientTransform="matrix(0.51 0 0 -0.51 144.55 803.47)">
	<stop  offset="4.591837e-02" style="stop-color:#EEA326"/>
	<stop  offset="0.5" style="stop-color:#FFD97E"/>
	<stop  offset="0.9439" style="stop-color:#FFF1C6"/>
</linearGradient>
<path fill="url(#SVGID_1_)" d="M614.7,728.3c0-0.1-0.1-0.1-0.1-0.1c0.1-0.1,0.3-0.1,0.4-0.2c2.1-1.1,3.5-2.7,3.4-3.4
	c-0.2-0.4-0.7-0.5-1.4-0.4c0.4-0.8,0.6-1.9,0.8-3.1c0.1-0.9,0.2-1.7,0.2-2.3c0.7-2.1,1-4.1,0.2-4.3s-2.2,1.3-3.1,3.7
	c-0.9,2.4-1.2,4.7-0.4,5c0.1,0.1,0.2,0.1,0.3,0c0.1,0.7,0.2,1.2,0.3,1.6c-0.4,0.2-0.8,0.4-1.3,0.6c-0.6,0.3-1,0.6-1.5,0.9
	c0.2-0.5,0.3-1,0.4-1.6c0.3-1.7,0.3-3.3,0.1-4.2c0-0.1,0.1-0.3,0.1-0.4c0.3-2.5-0.2-4.9-0.9-4.9c-0.7-0.1-1.7,1.8-2,4.5
	c-0.2,1.5-0.1,2.8,0.1,3.7c-0.1,0.2-0.1,0.3-0.1,0.5c-0.5,2.2-0.4,3.9,0.2,4.7c-0.1,0-0.1,0.1-0.2,0.1c-2.2,1-3.9,2.3-3.6,3.1
	c0.3,0.7,2.4,0.7,4.7-0.3C613.3,730.4,615,729,614.7,728.3z"/>
<linearGradient id="SVGID_2_" gradientUnits="userSpaceOnUse" x1="902.2726" y1="265.4258" x2="908.5436" y2="282.6552" gradientTransform="matrix(0.51 0 0 -0.51 144.55 803.47)">
	<stop  offset="4.591837e-02" style="stop-color:#EEA326"/>
	<stop  offset="0.5" style="stop-color:#FFD97E"/>
	<stop  offset="0.9439" style="stop-color:#FFF1C6"/>
</linearGradient>
<path fill="url(#SVGID_2_)" d="M605.5,668.2c0.8,0.3,1.8-1.6,2.2-4.2c0.5-2.6,0.3-4.8-0.5-5c-0.8-0.3-1.8,1.6-2.2,4.2
	C604.3,665.8,604.5,668,605.5,668.2z"/>
<linearGradient id="SVGID_3_" gradientUnits="userSpaceOnUse" x1="936.5264" y1="175.5989" x2="942.8918" y2="193.0876" gradientTransform="matrix(0.51 0 0 -0.51 144.55 803.47)">
	<stop  offset="4.591837e-02" style="stop-color:#EEA326"/>
	<stop  offset="0.5" style="stop-color:#FFD97E"/>
	<stop  offset="0.9439" style="stop-color:#FFF1C6"/>
</linearGradient>
<path fill="url(#SVGID_3_)" d="M625.2,704.9c-0.6-0.3-2,1.7-2.7,4.1c-0.7,2.3-0.9,4.7-0.1,4.9c0.6,0.3,2-1.7,2.7-4.1
	C625.8,707.3,626,705.1,625.2,704.9z"/>
<linearGradient id="SVGID_4_" gradientUnits="userSpaceOnUse" x1="931.264" y1="155.29" x2="937.6761" y2="172.9073" gradientTransform="matrix(0.51 0 0 -0.51 144.55 803.47)">
	<stop  offset="4.591837e-02" style="stop-color:#EEA326"/>
	<stop  offset="0.5" style="stop-color:#FFD97E"/>
	<stop  offset="0.9439" style="stop-color:#FFF1C6"/>
</linearGradient>
<path fill="url(#SVGID_4_)" d="M619.8,719.1c-0.9,2.4-1.1,4.7-0.4,5c0.8,0.3,2.2-1.3,3.1-3.7c0.9-2.2,1.1-4.5,0.4-5
	C622.1,715,620.7,716.6,619.8,719.1z"/>
<linearGradient id="SVGID_5_" gradientUnits="userSpaceOnUse" x1="928.3726" y1="141.6811" x2="933.2084" y2="154.9674" gradientTransform="matrix(0.51 0 0 -0.51 144.55 803.47)">
	<stop  offset="4.591837e-02" style="stop-color:#EEA326"/>
	<stop  offset="0.5" style="stop-color:#FFD97E"/>
	<stop  offset="0.9439" style="stop-color:#FFF1C6"/>
</linearGradient>
<path fill="url(#SVGID_5_)" d="M618.7,726.5c-2.2,1.2-3.7,2.8-3.4,3.4c0.4,0.9,2.3,0.4,4.6-0.8c2.2-1.3,3.6-2.9,3.4-3.4
	C622.9,724.7,620.9,725.3,618.7,726.5z"/>
<linearGradient id="SVGID_6_" gradientUnits="userSpaceOnUse" x1="946.0064" y1="378.7355" x2="952.3717" y2="396.2241" gradientTransform="matrix(0.51 0 0 -0.51 144.55 803.47)">
	<stop  offset="4.591837e-02" style="stop-color:#EEA326"/>
	<stop  offset="0.5" style="stop-color:#FFD97E"/>
	<stop  offset="0.9439" style="stop-color:#FFF1C6"/>
</linearGradient>
<path fill="url(#SVGID_6_)" d="M627.3,605.3c-0.7,2.3-0.9,4.7-0.1,4.9c0.6,0.3,2-1.7,2.7-4.1c0.7-2.4,0.9-4.7,0.1-4.9
	C629.4,601,628.1,603,627.3,605.3z"/>
<linearGradient id="SVGID_7_" gradientUnits="userSpaceOnUse" x1="924.2919" y1="123.9285" x2="929.1278" y2="137.2149" gradientTransform="matrix(0.51 0 0 -0.51 144.55 803.47)">
	<stop  offset="4.591837e-02" style="stop-color:#EEA326"/>
	<stop  offset="0.5" style="stop-color:#FFD97E"/>
	<stop  offset="0.9439" style="stop-color:#FFF1C6"/>
</linearGradient>
<path fill="url(#SVGID_7_)" d="M616.6,735.5c-2.2,1.2-3.7,2.8-3.4,3.4c0.4,0.9,2.3,0.4,4.6-0.8c2-1.1,3.7-2.7,3.4-3.4
	C620.8,733.8,618.9,734.3,616.6,735.5z"/>
<linearGradient id="SVGID_8_" gradientUnits="userSpaceOnUse" x1="918.3214" y1="176.0981" x2="928.9958" y2="205.4257" gradientTransform="matrix(0.51 0 0 -0.51 144.55 803.47)">
	<stop  offset="4.591837e-02" style="stop-color:#EEA326"/>
	<stop  offset="0.5" style="stop-color:#FFD97E"/>
	<stop  offset="0.9439" style="stop-color:#FFF1C6"/>
</linearGradient>
<path fill="url(#SVGID_8_)" d="M613.1,702.6c-0.6-0.1-1,0.1-1.2,0.3c-0.2,0.7,0.9,2.1,2.8,3.2c-0.5,0.6-0.9,1.4-1.2,2.4
	c-0.9,2.4-1.1,4.7-0.4,5c0.8,0.3,2.2-1.3,3.1-3.7c0.4-0.9,0.6-1.8,0.7-2.5c1.7,0.7,3.1,0.8,3.2,0.2c0.2-0.8-1.2-2.4-3.5-3.5
	c-0.2-0.1-0.3-0.2-0.5-0.2c0.5-0.1,1-0.3,1.5-0.5c2.2-1,3.9-2.4,3.6-3.1c-0.3-0.7-2.4-0.7-4.7,0.3
	C614.8,700.9,613.5,701.9,613.1,702.6z"/>
<linearGradient id="SVGID_9_" gradientUnits="userSpaceOnUse" x1="930.9092" y1="205.5497" x2="935.7451" y2="218.836" gradientTransform="matrix(0.51 0 0 -0.51 144.55 803.47)">
	<stop  offset="4.591837e-02" style="stop-color:#EEA326"/>
	<stop  offset="0.5" style="stop-color:#FFD97E"/>
	<stop  offset="0.9439" style="stop-color:#FFF1C6"/>
</linearGradient>
<path fill="url(#SVGID_9_)" d="M621.2,696.5c2.2-1.2,3.7-2.8,3.4-3.4c-0.4-0.9-2.3-0.4-4.6,0.8c-2.2,1.2-3.7,2.8-3.4,3.4
	C617,698.2,618.9,697.6,621.2,696.5z"/>
<linearGradient id="SVGID_10_" gradientUnits="userSpaceOnUse" x1="933.8253" y1="191.7205" x2="938.1426" y2="203.5823" gradientTransform="matrix(0.51 0 0 -0.51 144.55 803.47)">
	<stop  offset="4.591837e-02" style="stop-color:#EEA326"/>
	<stop  offset="0.5" style="stop-color:#FFD97E"/>
	<stop  offset="0.9439" style="stop-color:#FFF1C6"/>
</linearGradient>
<path fill="url(#SVGID_10_)" d="M621.4,701.2c-2.3,0.8-3.9,2.2-3.6,3.1c0.3,0.7,2.4,0.7,4.7-0.3c2.2-1,3.9-2.4,3.6-3.1
	C625.8,700.2,623.7,700.2,621.4,701.2z"/>
<linearGradient id="SVGID_11_" gradientUnits="userSpaceOnUse" x1="942.7659" y1="307.58" x2="947.0262" y2="319.2849" gradientTransform="matrix(0.51 0 0 -0.51 144.55 803.47)">
	<stop  offset="4.591837e-02" style="stop-color:#EEA326"/>
	<stop  offset="0.5" style="stop-color:#FFD97E"/>
	<stop  offset="0.9439" style="stop-color:#FFF1C6"/>
</linearGradient>
<path fill="url(#SVGID_11_)" d="M626,642.2c-2.2,0.9-4.1,2.1-3.7,3c0.3,0.6,2.3,0.5,4.6-0.3c2.2-0.9,3.9-2.2,3.7-3
	C630.4,641.3,628.3,641.4,626,642.2z"/>
<linearGradient id="SVGID_12_" gradientUnits="userSpaceOnUse" x1="962.2198" y1="597.8806" x2="968.5851" y2="615.3692" gradientTransform="matrix(0.51 0 0 -0.51 144.55 803.47)">
	<stop  offset="4.591837e-02" style="stop-color:#EEA326"/>
	<stop  offset="0.5" style="stop-color:#FFD97E"/>
	<stop  offset="0.9439" style="stop-color:#FFF1C6"/>
</linearGradient>
<path fill="url(#SVGID_12_)" d="M638.3,489.5c-0.6-0.3-2,1.7-2.7,4.1s-0.9,4.7-0.1,4.9c0.6,0.3,2-1.7,2.7-4.1
	C638.9,492.1,639.1,489.7,638.3,489.5z"/>
<linearGradient id="SVGID_13_" gradientUnits="userSpaceOnUse" x1="935.9213" y1="261.3191" x2="943.7269" y2="282.7648" gradientTransform="matrix(0.51 0 0 -0.51 144.55 803.47)">
	<stop  offset="4.591837e-02" style="stop-color:#EEA326"/>
	<stop  offset="0.5" style="stop-color:#FFD97E"/>
	<stop  offset="0.9439" style="stop-color:#FFF1C6"/>
</linearGradient>
<path fill="url(#SVGID_13_)" d="M625.2,659c-0.6-0.3-2,1.7-2.7,4.1c-0.3,0.9-0.5,1.8-0.5,2.6c-1.9,1.2-3.2,2.6-2.8,3.2
	c0.3,0.6,2.4,0.3,4.6-1c2.3-1.2,3.8-2.6,3.2-3.5c-0.2-0.4-0.9-0.4-2-0.2c0.1-0.2,0.1-0.3,0.2-0.5C625.9,661.5,626,659.2,625.2,659z"
	/>
<linearGradient id="SVGID_14_" gradientUnits="userSpaceOnUse" x1="899.814" y1="488.4647" x2="906.1783" y2="505.9506" gradientTransform="matrix(0.51 0 0 -0.51 144.55 803.47)">
	<stop  offset="4.591837e-02" style="stop-color:#EEA326"/>
	<stop  offset="0.5" style="stop-color:#FFD97E"/>
	<stop  offset="0.9439" style="stop-color:#FFF1C6"/>
</linearGradient>
<path fill="url(#SVGID_14_)" d="M603.7,554.3c0.6,0.3,2-1.7,2.7-4.1c0.9-2.4,0.9-4.6,0.1-4.9c-0.6-0.3-2,1.7-2.7,4.1
	C603.1,551.7,603,554.1,603.7,554.3z"/>
<linearGradient id="SVGID_15_" gradientUnits="userSpaceOnUse" x1="917.2641" y1="804.5649" x2="923.625" y2="822.0414" gradientTransform="matrix(0.51 0 0 -0.51 144.55 803.47)">
	<stop  offset="4.591837e-02" style="stop-color:#EEA326"/>
	<stop  offset="0.5" style="stop-color:#FFD97E"/>
	<stop  offset="0.9439" style="stop-color:#FFF1C6"/>
</linearGradient>
<path fill="url(#SVGID_15_)" d="M612.7,393.1c0.7,0.3,1.9-1.5,2.7-3.9c0.7-2.6,0.7-4.7-0.1-5c-0.7-0.3-1.9,1.5-2.7,3.9
	C611.9,390.5,611.9,392.7,612.7,393.1z"/>
<linearGradient id="SVGID_16_" gradientUnits="userSpaceOnUse" x1="922.9715" y1="847.1918" x2="929.3666" y2="864.7621" gradientTransform="matrix(0.51 0 0 -0.51 144.55 803.47)">
	<stop  offset="4.591837e-02" style="stop-color:#EEA326"/>
	<stop  offset="0.5" style="stop-color:#FFD97E"/>
	<stop  offset="0.9439" style="stop-color:#FFF1C6"/>
</linearGradient>
<path fill="url(#SVGID_16_)" d="M615.1,371.2c0.6,0.3,2.1-1.5,3.1-3.8c1.1-2.3,1.3-4.6,0.5-4.9c-0.6-0.3-2.1,1.5-3.1,3.8
	C614.7,368.6,614.3,370.8,615.1,371.2z"/>
<linearGradient id="SVGID_17_" gradientUnits="userSpaceOnUse" x1="943.9554" y1="942.3461" x2="950.3505" y2="959.9164" gradientTransform="matrix(0.51 0 0 -0.51 144.55 803.47)">
	<stop  offset="4.591837e-02" style="stop-color:#EEA326"/>
	<stop  offset="0.5" style="stop-color:#FFD97E"/>
	<stop  offset="0.9439" style="stop-color:#FFF1C6"/>
</linearGradient>
<path fill="url(#SVGID_17_)" d="M625.8,322.6c0.6,0.3,2.1-1.5,3.1-3.8c1.1-2.3,1.3-4.6,0.5-4.9c-0.6-0.3-2.1,1.5-3.1,3.8
	C625.4,320,625.1,322.3,625.8,322.6z"/>
<linearGradient id="SVGID_18_" gradientUnits="userSpaceOnUse" x1="811.6008" y1="223.5127" x2="1100.6218" y2="1017.5916" gradientTransform="matrix(0.51 0 0 -0.51 144.55 803.47)">
	<stop  offset="4.591837e-02" style="stop-color:#EEA326"/>
	<stop  offset="0.5" style="stop-color:#FFD97E"/>
	<stop  offset="0.9439" style="stop-color:#FFF1C6"/>
</linearGradient>
<path fill="url(#SVGID_18_)" d="M674.5,295.1c0.8-5.4,1.7-22.6-0.6-23.5c6,2.6-13.4,13.6-14,13.6c0.3-2,0-2.8-1.1-3.4
	c6,3.2-13,10-10.2,5.4c-1.7,4.3,3.8,20.9-12.1,24.1c0.9-2,1-4.1,0.4-6.4c-3.9-1.7-29.2,90.3-23.6,95.3c-11.3-11.3,10.8-0.1,5-0.8
	c1.4-2.2,2-4.5,1.6-7c0.7,0.3,0.9,1.4,1.9,1.3c0.9-0.9-10.8,13.4-10.5,8.7c1.6,1.1,3.4,1.5,5.2,1.3c-0.7,1.3-7.1,3.9-5.9,6.1
	c3.5,7.7,1.1-9.7-1,4.7c0.2-1.7,4.2,31.7,4.2,31.7c-1,1.3-4.9,32.7-6.1,32.3c2.2-2.3,3.1-5,2.8-8.1c8,4.6-7,10.8-1.9,15.3
	c1.6-0.7,2.9-1.7,3.9-3.1c0,3.3-5.7,5.3-5.7,5.3c0.6-11.4,5.6,18.1-0.5,7.6c-0.2-0.4,0,9.9,5,9.9c-1.1,3.2-6.5,4.1,0.1,4.1
	c-1.8,0.7-3.3,2-4.3,3.8c-1.2-4.1,4.3,0.7,4.2,0.7c-1.3,3.2-7.4,62.2-7.4,62.2c0.4-2.4,1.3-3.2,2.8-2.5c-1.3,11.3-2.5,22.8-2.5,27.9
	c0-3.7,3,14.3,0.4,9.6c0.1,0.2,7.6,2.9,7.2,3.7c-0.3,2-2,3-3.2,4.2c-0.2-0.1-0.4-0.1-0.6-0.1c0.6-2,0.5-4-0.3-6
	c-1.1,2-1.8,1.9-2.1-0.1c1.1,0.4-2.9,14.7-0.7,16.3c0.9,0.7,4.6-4.7,4.6,0.4c-1,0-6.5,0.1-6.3,1.9c0,1.8-1.2,8.9-0.7,12.4
	c0-1.4,6.3,1.6,6.5,1.9c-1.8-0.1-3.4,0.5-5,1.5c0,0,3.7,1.1,4.9,1.7c-1.2,0-4.4,8-4.5,7.9c-2.5-5.7,14.8,9.4,7.6,6.1
	c0.6,0.3,0.3,3.3,2.3,4.3c-2.1,0.7-8.6,0.1-9.9,1.9c-1.5,5.7,2.5,2.1,0.8,6.6c-0.6,2.9,2.6,3.1,4.2,3.9c-1.2,0.9-5.5,4.1-4.4,6
	c0.8,1.7,6,4.5,6.6,3c0,0.8-2.4,12.9-3.5,10.3c2.6,5.6,24.1-25.6,11.1-18.9c0.2-0.1,8-10.5,8.6-9.2c-0.4-1-7-1.2-9.1-0.2
	c0.5-3.1,7.7-15.9,7.7-16c-2.4-4.7,0.3-7.1-5.7-10.7c2.2-0.4,4-1.6,5.4-3.5c-2.5-0.4-4.7,0-6.7,1.3c0.3-2.5,12.8-10.8,12.6-11
	c-1.1,0.5-1.6,0.4-1.5-0.2c-1-2.2-9,3.9-9.2,5.4c-1-0.3-1-0.6,0.1-0.9c0.5-2,13.4-12.8,9-14.7c4.4,1.9-4.9,4.4-4.9,4.4
	c0-0.4,3.7-12.5,4.8-10.1c-0.7-0.7-0.2-1.5,1.6-2.3c-0.9-2.4-9.4,4.6-10.7,4.7c0.4-0.9,9.3-22.9,9.7-21.4c-1.4,0.2-1.8-0.1-1.5-1.1
	c0.6,1.3-5.4-0.4-5.6-0.4c10.7-4.1-3.8-1.7,4.8-1c-1.6-0.1,5.6-10.4,6.3-9.1c-1.6-0.2-3.1,0-4.4,0.7c-0.8-2.6,5.2-4.3,4.1-6.5
	c1.4,2.7-8.3-5.8-4.3-4c-1.7,1.3-2.9,2.9-3.5,4.8c-0.2-3,5-12.9,4.9-13c-0.7-1.7,4.9-24.8,3.2-28.3c-2.6,1.9-4.3,1.7-5-0.3
	c5.7-1.9,3.8-6.4,2.1-8.8c0.7,0,2.6-8.2,0.3-8.2c0,0-3.7,6.6-5.1,7c-1.1-5.3,11.3-25,11.3-25.1c-0.7-0.7-0.2-1.5,1.6-2.3
	c-2.8-0.2-5.2,0.7-7.2,2.6c0-3.6,4.9-19.7,5.1-19.2c-0.5-0.2-0.6-0.6-0.4-1.1c0.3,0.8-9.4-7.9-0.2-10.6c-0.7,0.8-3.8,8.9-0.5,9.2
	c-1.6-0.1,5.6-10.5,6.3-9.1c-2.7,1.9-4.4,1.8-5-0.3c0.3-0.1,5.4-4,4.7-5.4c-1.2-2.4-5.9,0.5-7.8,0.9c0.2-0.9,4.8-13.5,5-13
	c-1.2-2.8,5.1-24.2,3-28.3c-2.6,1.9-4.3,1.7-5-0.3c1.1-0.4,6.3-15.2,2.6-16.8c-1.2-0.8-2,0.1-2.6,2.8c4.7-19.5,7.8-49.5,6.4-63
	c1.5,1,3.1,1.6,5,1.6c-1.7,4.2,2.9-14.2,4.8-9c-5.5-13.3,0.4,11.1,2.5-2.5c0.2-1.7-1.1-10.5-4.7-8.6c0-1.1,0.7-2,1-3.1
	c0-0.1,12.1-3.2,11.8-2.3c-2.4,6.7,1-12.4,0-6.6c1.4-9.7,7.3-10.7,9.8-16.5C674.9,302.1,674.9,295.5,674.5,295.1
	C674.6,294.4,675.5,296.1,674.5,295.1z"/>
<linearGradient id="SVGID_19_" gradientUnits="userSpaceOnUse" x1="927.6412" y1="283.7241" x2="929.7981" y2="289.6499" gradientTransform="matrix(0.51 0 0 -0.51 144.55 803.47)">
	<stop  offset="4.591837e-02" style="stop-color:#EEA326"/>
	<stop  offset="0.5" style="stop-color:#FFD97E"/>
	<stop  offset="0.9439" style="stop-color:#FFF1C6"/>
</linearGradient>
<path fill="url(#SVGID_19_)" d="M617,658.1c0-0.3,0.1-0.5,0.1-0.7c0.2-0.1,0.4-0.2,0.6-0.2c0.8-0.3,1.4-0.7,2-1.1
	c0,0.1-0.1,0.1-0.1,0.1c-1.3,0.8-2,1.6-1.7,2.2c0.1,0.2,0.4,0.4,0.7,0.4c0,0.1-0.1,0.2-0.1,0.2C618.1,658.7,617.6,658.4,617,658.1z"
	/>
<linearGradient id="SVGID_20_" gradientUnits="userSpaceOnUse" x1="918.3255" y1="251.7156" x2="920.1944" y2="256.8503" gradientTransform="matrix(0.51 0 0 -0.51 144.55 803.47)">
	<stop  offset="4.591837e-02" style="stop-color:#EEA326"/>
	<stop  offset="0.5" style="stop-color:#FFD97E"/>
	<stop  offset="0.9439" style="stop-color:#FFF1C6"/>
</linearGradient>
<path fill="url(#SVGID_20_)" d="M613.8,672.5c0,0.4,0.1,0.8,0.2,1.1c-0.1,0.3-0.1,0.6-0.2,0.9c-0.4,0.2-0.7,0.4-1,0.5
	c0-0.1-0.1-0.2-0.1-0.3c0-0.2,0.1-0.3,0.1-0.5c0.1-0.4,0.1-0.8,0.1-1.2C613.3,672.9,613.6,672.7,613.8,672.5z"/>
<linearGradient id="SVGID_21_" gradientUnits="userSpaceOnUse" x1="918.9095" y1="219.9019" x2="925.2141" y2="237.2237" gradientTransform="matrix(0.51 0 0 -0.51 144.55 803.47)">
	<stop  offset="4.591837e-02" style="stop-color:#EEA326"/>
	<stop  offset="0.5" style="stop-color:#FFD97E"/>
	<stop  offset="0.9439" style="stop-color:#FFF1C6"/>
</linearGradient>
<path fill="url(#SVGID_21_)" d="M614,683.8c0.5-0.5,0.8-0.9,0.8-1.2c0.3-0.1,0.7-0.2,1.1-0.3c0.1,0.1,0.1,0.1,0.2,0.2
	c-0.6,0.6-0.9,1.2-0.7,1.5c0.2,0.5,0.8,0.6,1.6,0.4c-0.3,0.5-0.5,0.9-0.7,1.5c-0.7,1.8-1,3.7-0.8,4.5c-0.6,0.4-1,0.8-1.4,1.1
	c0.2-1.3,0.2-2.4,0.1-3.2c0.1-0.2,0.1-0.4,0.1-0.5C614.3,686.1,614.2,684.7,614,683.8z"/>
<linearGradient id="SVGID_22_" gradientUnits="userSpaceOnUse" x1="919.9407" y1="214.3277" x2="920.4577" y2="215.7482" gradientTransform="matrix(0.51 0 0 -0.51 144.55 803.47)">
	<stop  offset="4.591837e-02" style="stop-color:#EEA326"/>
	<stop  offset="0.5" style="stop-color:#FFD97E"/>
	<stop  offset="0.9439" style="stop-color:#FFF1C6"/>
</linearGradient>
<path fill="url(#SVGID_22_)" d="M613.7,693.5c0.2,0.1,0.4,0.1,0.6,0.1c-0.3,0.2-0.6,0.4-0.8,0.5
	C613.5,693.9,613.6,693.7,613.7,693.5z"/>
<linearGradient id="SVGID_23_" gradientUnits="userSpaceOnUse" x1="924.1974" y1="291.8003" x2="925.6933" y2="295.9101" gradientTransform="matrix(0.51 0 0 -0.51 144.55 803.47)">
	<stop  offset="4.591837e-02" style="stop-color:#EEA326"/>
	<stop  offset="0.5" style="stop-color:#FFD97E"/>
	<stop  offset="0.9439" style="stop-color:#FFF1C6"/>
</linearGradient>
<path fill="url(#SVGID_23_)" d="M616.5,654.3L616.5,654.3c-0.1-0.1-0.2-0.1-0.3-0.1c-0.2,0-0.4,0.1-0.6,0.3c0.2-0.3,0.2-0.5,0.2-0.6
	c-0.1-0.2-0.3-0.3-0.6-0.4c0.6-0.2,1.3-0.5,2-0.8l0,0c-0.2,0.4-0.2,0.8-0.1,1c0,0.1,0.1,0.1,0.1,0.1c0,0.1,0,0.2,0.1,0.2
	C617,654.1,616.8,654.2,616.5,654.3z"/>
<linearGradient id="SVGID_24_" gradientUnits="userSpaceOnUse" x1="918.2708" y1="326.5769" x2="919.4402" y2="329.7898" gradientTransform="matrix(0.51 0 0 -0.51 144.55 803.47)">
	<stop  offset="4.591837e-02" style="stop-color:#EEA326"/>
	<stop  offset="0.5" style="stop-color:#FFD97E"/>
	<stop  offset="0.9439" style="stop-color:#FFF1C6"/>
</linearGradient>
<path fill="url(#SVGID_24_)" d="M612.9,636.8c-0.1-0.2-0.4-0.4-0.8-0.4c0.6-0.2,1.3-0.5,2.1-0.8v0.1c-0.4,0.1-0.8,0.6-1.1,1.2l0,0
	c-0.1,0.1-0.1,0.1-0.2,0.1C612.9,636.9,612.9,636.9,612.9,636.8z"/>
<linearGradient id="SVGID_25_" gradientUnits="userSpaceOnUse" x1="929.9435" y1="396.7877" x2="929.9936" y2="396.9254" gradientTransform="matrix(0.51 0 0 -0.51 144.55 803.47)">
	<stop  offset="4.591837e-02" style="stop-color:#EEA326"/>
	<stop  offset="0.5" style="stop-color:#FFD97E"/>
	<stop  offset="0.9439" style="stop-color:#FFF1C6"/>
</linearGradient>
<path fill="url(#SVGID_25_)" d="M618.8,601c0.1,0.1,0.1,0.1,0.2,0.1C618.9,601.1,618.8,601.1,618.8,601
	C618.8,601.1,618.8,601.1,618.8,601z"/>
<linearGradient id="SVGID_26_" gradientUnits="userSpaceOnUse" x1="926.5245" y1="374.257" x2="926.7014" y2="374.743" gradientTransform="matrix(0.51 0 0 -0.51 144.55 803.47)">
	<stop  offset="4.591837e-02" style="stop-color:#EEA326"/>
	<stop  offset="0.5" style="stop-color:#FFD97E"/>
	<stop  offset="0.9439" style="stop-color:#FFF1C6"/>
</linearGradient>
<path fill="url(#SVGID_26_)" d="M617,612.6c0-0.1,0-0.2,0-0.2c0,0,0-0.1,0.1-0.1c0,0.1,0.1,0.2,0.1,0.3
	C617.1,612.6,617.1,612.6,617,612.6z"/>
<linearGradient id="SVGID_27_" gradientUnits="userSpaceOnUse" x1="930.8401" y1="396.2284" x2="930.9027" y2="396.4004" gradientTransform="matrix(0.51 0 0 -0.51 144.55 803.47)">
	<stop  offset="4.591837e-02" style="stop-color:#EEA326"/>
	<stop  offset="0.5" style="stop-color:#FFD97E"/>
	<stop  offset="0.9439" style="stop-color:#FFF1C6"/>
</linearGradient>
<path fill="url(#SVGID_27_)" d="M619.3,601.4C619.3,601.4,619.3,601.4,619.3,601.4l-0.1-0.1C619.3,601.3,619.3,601.4,619.3,601.4
	L619.3,601.4z"/>
<linearGradient id="SVGID_28_" gradientUnits="userSpaceOnUse" x1="927.4249" y1="371.2004" x2="928.3692" y2="373.7947" gradientTransform="matrix(0.51 0 0 -0.51 144.55 803.47)">
	<stop  offset="4.591837e-02" style="stop-color:#EEA326"/>
	<stop  offset="0.5" style="stop-color:#FFD97E"/>
	<stop  offset="0.9439" style="stop-color:#FFF1C6"/>
</linearGradient>
<path fill="url(#SVGID_28_)" d="M617.6,612.9c0.2,0,0.3,0,0.5-0.1c-0.1,0.5,0,0.9,0,1.2c-0.2,0-0.5,0-0.7,0
	C617.6,613.6,617.7,613.2,617.6,612.9z"/>
<linearGradient id="SVGID_29_" gradientUnits="userSpaceOnUse" x1="922.3661" y1="716.5967" x2="922.6458" y2="717.3651" gradientTransform="matrix(0.51 0 0 -0.51 144.55 803.47)">
	<stop  offset="4.591837e-02" style="stop-color:#EEA326"/>
	<stop  offset="0.5" style="stop-color:#FFD97E"/>
	<stop  offset="0.9439" style="stop-color:#FFF1C6"/>
</linearGradient>
<path fill="url(#SVGID_29_)" d="M615.2,437.7c-0.1,0.1-0.2,0.2-0.2,0.3c0-0.1,0-0.3-0.1-0.4c0-0.1,0-0.1,0.1-0.1
	C615.1,437.6,615.1,437.7,615.2,437.7z"/>
<linearGradient id="SVGID_30_" gradientUnits="userSpaceOnUse" x1="916.1569" y1="354.6259" x2="917.1868" y2="357.4556" gradientTransform="matrix(0.51 0 0 -0.51 144.55 803.47)">
	<stop  offset="4.591837e-02" style="stop-color:#EEA326"/>
	<stop  offset="0.5" style="stop-color:#FFD97E"/>
	<stop  offset="0.9439" style="stop-color:#FFF1C6"/>
</linearGradient>
<path fill="url(#SVGID_30_)" d="M612.3,621.4c0.1,0.3,0.1,0.7,0.2,1l-0.1,0.1c-0.1,0.1-0.3,0.2-0.4,0.2c-0.1-0.1-0.1-0.1-0.2-0.1
	c0-0.6-0.1-1-0.2-1.4c0.2,0,0.4,0,0.5-0.1C612.2,621.2,612.2,621.3,612.3,621.4z"/>
<linearGradient id="SVGID_31_" gradientUnits="userSpaceOnUse" x1="923.5116" y1="306.7518" x2="924.949" y2="310.7009" gradientTransform="matrix(0.51 0 0 -0.51 144.55 803.47)">
	<stop  offset="4.591837e-02" style="stop-color:#EEA326"/>
	<stop  offset="0.5" style="stop-color:#FFD97E"/>
	<stop  offset="0.9439" style="stop-color:#FFF1C6"/>
</linearGradient>
<path fill="url(#SVGID_31_)" d="M616,646.7c-0.3,0-0.6,0-1,0.1c0.1-0.4,0.2-0.7,0.3-1.1c0.1-0.2,0.2-0.5,0.3-0.7
	c0.2,0,0.3,0,0.4-0.1c0.1,0,0.2,0,0.2,0c0.1,0.7,0.2,1.2,0.3,1.6C616.3,646.6,616.1,646.6,616,646.7z"/>
<linearGradient id="SVGID_32_" gradientUnits="userSpaceOnUse" x1="919.8677" y1="725.7056" x2="920.4695" y2="727.3594" gradientTransform="matrix(0.51 0 0 -0.51 144.55 803.47)">
	<stop  offset="4.591837e-02" style="stop-color:#EEA326"/>
	<stop  offset="0.5" style="stop-color:#FFD97E"/>
	<stop  offset="0.9439" style="stop-color:#FFF1C6"/>
</linearGradient>
<path fill="url(#SVGID_32_)" d="M613.7,432.4c0.1,0.2,0.2,0.2,0.3,0.3s0.2,0.1,0.3,0c-0.3,0.2-0.6,0.4-0.7,0.7
	C613.6,433,613.7,432.7,613.7,432.4z"/>
<linearGradient id="SVGID_33_" gradientUnits="userSpaceOnUse" x1="918.871" y1="608.203" x2="920.7674" y2="613.4131" gradientTransform="matrix(0.51 0 0 -0.51 144.55 803.47)">
	<stop  offset="4.591837e-02" style="stop-color:#EEA326"/>
	<stop  offset="0.5" style="stop-color:#FFD97E"/>
	<stop  offset="0.9439" style="stop-color:#FFF1C6"/>
</linearGradient>
<path fill="url(#SVGID_33_)" d="M613.2,490.7c0.3,0.3,0.9,0.3,1.6,0.2c-0.4,0.9-0.6,1.8-0.7,2.5c-0.5-0.2-0.8-0.2-1.2-0.2
	c0.1-0.5,0-0.9-0.1-1.3c0.1-0.2,0.1-0.3,0.1-0.5c0-0.1,0.1-0.2,0.1-0.4C613.1,490.9,613.2,490.8,613.2,490.7z"/>
<linearGradient id="SVGID_34_" gradientUnits="userSpaceOnUse" x1="916.7565" y1="589.7872" x2="917.7297" y2="592.4611" gradientTransform="matrix(0.51 0 0 -0.51 144.55 803.47)">
	<stop  offset="4.591837e-02" style="stop-color:#EEA326"/>
	<stop  offset="0.5" style="stop-color:#FFD97E"/>
	<stop  offset="0.9439" style="stop-color:#FFF1C6"/>
</linearGradient>
<path fill="url(#SVGID_34_)" d="M612.7,501.3c0,0.1,0.1,0.1,0.1,0.1c-0.3,0.2-0.6,0.6-0.8,1.2h-0.1c0.2-0.3,0.3-0.7,0.4-1
	C612.5,501.5,612.6,501.4,612.7,501.3z"/>
<linearGradient id="SVGID_35_" gradientUnits="userSpaceOnUse" x1="910.2129" y1="399.6053" x2="910.4694" y2="400.3101" gradientTransform="matrix(0.51 0 0 -0.51 144.55 803.47)">
	<stop  offset="4.591837e-02" style="stop-color:#EEA326"/>
	<stop  offset="0.5" style="stop-color:#FFD97E"/>
	<stop  offset="0.9439" style="stop-color:#FFF1C6"/>
</linearGradient>
<path fill="url(#SVGID_35_)" d="M608.9,599.3c0,0.1,0,0.2,0.1,0.3c0,0.1-0.1,0.1-0.1,0.1c-0.1-0.1-0.2-0.2-0.2-0.2
	C608.7,599.4,608.8,599.4,608.9,599.3z"/>
<linearGradient id="SVGID_36_" gradientUnits="userSpaceOnUse" x1="924.5643" y1="320.2729" x2="926.523" y2="325.6543" gradientTransform="matrix(0.51 0 0 -0.51 144.55 803.47)">
	<stop  offset="4.591837e-02" style="stop-color:#EEA326"/>
	<stop  offset="0.5" style="stop-color:#FFD97E"/>
	<stop  offset="0.9439" style="stop-color:#FFF1C6"/>
</linearGradient>
<path fill="url(#SVGID_36_)" d="M616.3,639.9c-0.1,0.1-0.1,0.2-0.1,0.2c-0.1-0.2-0.3-0.4-0.5-0.5c0.5-0.4,1-1.1,1.6-2.1
	c0.1,0.1,0.1,0.1,0.2,0.1C617,638.2,616.6,639,616.3,639.9z"/>
<linearGradient id="SVGID_37_" gradientUnits="userSpaceOnUse" x1="934.0193" y1="350.5864" x2="935.6897" y2="355.1758" gradientTransform="matrix(0.51 0 0 -0.51 144.55 803.47)">
	<stop  offset="4.591837e-02" style="stop-color:#EEA326"/>
	<stop  offset="0.5" style="stop-color:#FFD97E"/>
	<stop  offset="0.9439" style="stop-color:#FFF1C6"/>
</linearGradient>
<path fill="url(#SVGID_37_)" d="M622.2,623.6c-0.1,0.2-0.1,0.3-0.2,0.5c-0.5-0.1-1.1,0.1-1.9,0.3c0-0.3,0.1-0.5,0.1-0.8
	c0.1-0.1,0.1-0.2,0.2-0.3c0.6-0.1,1.4-0.3,2.3-0.6C622.5,622.9,622.4,623.2,622.2,623.6z"/>
<linearGradient id="SVGID_38_" gradientUnits="userSpaceOnUse" x1="935.0081" y1="816.5036" x2="935.3973" y2="817.573" gradientTransform="matrix(0.51 0 0 -0.51 144.55 803.47)">
	<stop  offset="4.591837e-02" style="stop-color:#EEA326"/>
	<stop  offset="0.5" style="stop-color:#FFD97E"/>
	<stop  offset="0.9439" style="stop-color:#FFF1C6"/>
</linearGradient>
<path fill="url(#SVGID_38_)" d="M621.4,386.4L621.4,386.4c0.1,0.1,0.3,0.3,0.4,0.4c-0.2,0.1-0.3,0.2-0.5,0.2
	C621.4,386.8,621.4,386.6,621.4,386.4z"/>
<linearGradient id="SVGID_39_" gradientUnits="userSpaceOnUse" x1="919.0558" y1="722.6472" x2="919.3807" y2="723.5397" gradientTransform="matrix(0.51 0 0 -0.51 144.55 803.47)">
	<stop  offset="4.591837e-02" style="stop-color:#EEA326"/>
	<stop  offset="0.5" style="stop-color:#FFD97E"/>
	<stop  offset="0.9439" style="stop-color:#FFF1C6"/>
</linearGradient>
<path fill="url(#SVGID_39_)" d="M613.4,434.4c0.1,0.1,0.1,0.1,0.1,0.1c-0.1,0.1-0.2,0.2-0.3,0.4
	C613.3,434.7,613.3,434.6,613.4,434.4z"/>
<linearGradient id="SVGID_40_" gradientUnits="userSpaceOnUse" x1="916.6415" y1="689.5089" x2="917.4082" y2="691.6155" gradientTransform="matrix(0.51 0 0 -0.51 144.55 803.47)">
	<stop  offset="4.591837e-02" style="stop-color:#EEA326"/>
	<stop  offset="0.5" style="stop-color:#FFD97E"/>
	<stop  offset="0.9439" style="stop-color:#FFF1C6"/>
</linearGradient>
<path fill="url(#SVGID_40_)" d="M612.1,450.7c0.1,0,0.1,0,0.1,0c0.1,0.1,0.1,0.1,0.2,0.1c0.1,0.1,0.2,0.2,0.4,0.2
	c-0.1,0.2-0.2,0.3-0.2,0.4c0,0.1-0.1,0.1-0.1,0.1c-0.2,0.1-0.4,0.2-0.6,0.3C611.9,451.4,612,451,612.1,450.7z"/>
<linearGradient id="SVGID_41_" gradientUnits="userSpaceOnUse" x1="909.0184" y1="436.9814" x2="909.2919" y2="437.7328" gradientTransform="matrix(0.51 0 0 -0.51 144.55 803.47)">
	<stop  offset="4.591837e-02" style="stop-color:#EEA326"/>
	<stop  offset="0.5" style="stop-color:#FFD97E"/>
	<stop  offset="0.9439" style="stop-color:#FFF1C6"/>
</linearGradient>
<path fill="url(#SVGID_41_)" d="M608.3,580.2c0,0.1,0.1,0.2,0.1,0.2c-0.1,0.1-0.2,0.1-0.3,0.2c0.1-0.1,0.1-0.1,0.1-0.2
	C608.2,580.3,608.2,580.3,608.3,580.2z"/>
<linearGradient id="SVGID_42_" gradientUnits="userSpaceOnUse" x1="908.2087" y1="414.3801" x2="910.2839" y2="420.0815" gradientTransform="matrix(0.51 0 0 -0.51 144.55 803.47)">
	<stop  offset="4.591837e-02" style="stop-color:#EEA326"/>
	<stop  offset="0.5" style="stop-color:#FFD97E"/>
	<stop  offset="0.9439" style="stop-color:#FFF1C6"/>
</linearGradient>
<path fill="url(#SVGID_42_)" d="M606.9,591.7c0.1-0.1,0.2-0.2,0.3-0.2c0.7-0.7,1.3-1.3,1.8-1.9c0.2-0.1,0.3-0.1,0.4-0.2
	c-0.6,0.6-0.8,1.1-0.7,1.5c0,0,0,0.1,0.1,0.1c-0.1,0.1-0.1,0.1-0.1,0.2c-0.1,0.3-0.1,0.6,0.2,1c-0.8-0.2-1.4-0.3-1.8-0.3
	C606.9,591.8,606.9,591.7,606.9,591.7z"/>
<linearGradient id="SVGID_43_" gradientUnits="userSpaceOnUse" x1="908.1176" y1="316.3696" x2="908.1324" y2="316.4105" gradientTransform="matrix(0.51 0 0 -0.51 144.55 803.47)">
	<stop  offset="4.591837e-02" style="stop-color:#EEA326"/>
	<stop  offset="0.5" style="stop-color:#FFD97E"/>
	<stop  offset="0.9439" style="stop-color:#FFF1C6"/>
</linearGradient>
<path fill="url(#SVGID_43_)" d="M607.7,642.1L607.7,642.1C607.7,642.1,607.7,642.1,607.7,642.1C607.7,642.1,607.7,642.1,607.7,642.1
	z"/>
<linearGradient id="SVGID_44_" gradientUnits="userSpaceOnUse" x1="930.8662" y1="306.3078" x2="930.8948" y2="306.3863" gradientTransform="matrix(0.51 0 0 -0.51 144.55 803.47)">
	<stop  offset="4.591837e-02" style="stop-color:#EEA326"/>
	<stop  offset="0.5" style="stop-color:#FFD97E"/>
	<stop  offset="0.9439" style="stop-color:#FFF1C6"/>
</linearGradient>
<path fill="url(#SVGID_44_)" d="M619.3,647.3L619.3,647.3L619.3,647.3C619.3,647.2,619.3,647.2,619.3,647.3
	C619.3,647.2,619.3,647.2,619.3,647.3C619.3,647.2,619.3,647.3,619.3,647.3z"/>
<linearGradient id="SVGID_45_" gradientUnits="userSpaceOnUse" x1="930.3073" y1="364.9257" x2="930.3557" y2="365.0585" gradientTransform="matrix(0.51 0 0 -0.51 144.55 803.47)">
	<stop  offset="4.591837e-02" style="stop-color:#EEA326"/>
	<stop  offset="0.5" style="stop-color:#FFD97E"/>
	<stop  offset="0.9439" style="stop-color:#FFF1C6"/>
</linearGradient>
<path fill="url(#SVGID_45_)" d="M619,617.3L619,617.3C619,617.3,619,617.3,619,617.3C619,617.4,619,617.4,619,617.3z"/>
<linearGradient id="SVGID_46_" gradientUnits="userSpaceOnUse" x1="946.4258" y1="533.639" x2="946.5591" y2="534.0054" gradientTransform="matrix(0.51 0 0 -0.51 144.55 803.47)">
	<stop  offset="4.591837e-02" style="stop-color:#EEA326"/>
	<stop  offset="0.5" style="stop-color:#FFD97E"/>
	<stop  offset="0.9439" style="stop-color:#FFF1C6"/>
</linearGradient>
<path fill="url(#SVGID_46_)" d="M627.3,531.3c-0.1,0-0.1,0-0.1,0.1c0-0.1,0-0.1,0-0.1c0.1,0,0.1-0.1,0.1-0.1
	C627.3,531.2,627.3,531.2,627.3,531.3z"/>
<linearGradient id="SVGID_47_" gradientUnits="userSpaceOnUse" x1="996.2336" y1="917.8746" x2="997.0618" y2="920.15" gradientTransform="matrix(0.51 0 0 -0.51 144.55 803.47)">
	<stop  offset="4.591837e-02" style="stop-color:#EEA326"/>
	<stop  offset="0.5" style="stop-color:#FFD97E"/>
	<stop  offset="0.9439" style="stop-color:#FFF1C6"/>
</linearGradient>
<path fill="url(#SVGID_47_)" d="M652.7,335.3c0-0.3,0-0.5,0-0.8c0.2-0.1,0.4-0.2,0.6-0.4C653.1,334.6,652.9,335,652.7,335.3z"/>
<linearGradient id="SVGID_48_" gradientUnits="userSpaceOnUse" x1="932.6282" y1="847.7084" x2="932.9003" y2="848.4558" gradientTransform="matrix(0.51 0 0 -0.51 144.55 803.47)">
	<stop  offset="4.591837e-02" style="stop-color:#EEA326"/>
	<stop  offset="0.5" style="stop-color:#FFD97E"/>
	<stop  offset="0.9439" style="stop-color:#FFF1C6"/>
</linearGradient>
<path fill="url(#SVGID_48_)" d="M620.3,370.8L620.3,370.8c0.1,0.1,0.1,0.2,0.1,0.3l-0.1,0.1c-0.1-0.1-0.2-0.2-0.2-0.2
	C620.2,370.9,620.2,370.8,620.3,370.8z"/>
<linearGradient id="SVGID_49_" gradientUnits="userSpaceOnUse" x1="910.4359" y1="536.478" x2="910.45" y2="536.5168" gradientTransform="matrix(0.51 0 0 -0.51 144.55 803.47)">
	<stop  offset="4.591837e-02" style="stop-color:#EEA326"/>
	<stop  offset="0.5" style="stop-color:#FFD97E"/>
	<stop  offset="0.9439" style="stop-color:#FFF1C6"/>
</linearGradient>
<path fill="url(#SVGID_49_)" d="M608.9,529.9L608.9,529.9C608.9,529.9,608.8,529.9,608.9,529.9C608.8,529.9,608.9,529.9,608.9,529.9
	z"/>
<linearGradient id="SVGID_50_" gradientUnits="userSpaceOnUse" x1="910.3256" y1="489.5959" x2="910.5397" y2="490.1842" gradientTransform="matrix(0.51 0 0 -0.51 144.55 803.47)">
	<stop  offset="4.591837e-02" style="stop-color:#EEA326"/>
	<stop  offset="0.5" style="stop-color:#FFD97E"/>
	<stop  offset="0.9439" style="stop-color:#FFF1C6"/>
</linearGradient>
<path fill="url(#SVGID_50_)" d="M608.9,553.5c0,0.1,0,0.2,0.1,0.3c0,0,0,0,0,0.1c-0.1-0.1-0.2-0.2-0.2-0.2
	C608.7,553.6,608.8,553.5,608.9,553.5z"/>
<linearGradient id="SVGID_51_" gradientUnits="userSpaceOnUse" x1="912.563" y1="361.7543" x2="912.8425" y2="362.5223" gradientTransform="matrix(0.51 0 0 -0.51 144.55 803.47)">
	<stop  offset="4.591837e-02" style="stop-color:#EEA326"/>
	<stop  offset="0.5" style="stop-color:#FFD97E"/>
	<stop  offset="0.9439" style="stop-color:#FFF1C6"/>
</linearGradient>
<path fill="url(#SVGID_51_)" d="M610.3,618.6c-0.1,0.1-0.2,0.2-0.3,0.4c-0.1-0.2-0.1-0.3-0.2-0.4C610,618.6,610.2,618.6,610.3,618.6
	z"/>
<linearGradient id="SVGID_52_" gradientUnits="userSpaceOnUse" x1="913.0734" y1="308.0951" x2="914.3976" y2="311.7332" gradientTransform="matrix(0.51 0 0 -0.51 144.55 803.47)">
	<stop  offset="4.591837e-02" style="stop-color:#EEA326"/>
	<stop  offset="0.5" style="stop-color:#FFD97E"/>
	<stop  offset="0.9439" style="stop-color:#FFF1C6"/>
</linearGradient>
<path fill="url(#SVGID_52_)" d="M610.7,644.4c0.1,0,0.1,0.1,0.1,0.1c0.2,0.1,0.4,0.2,0.5,0.3c0,0.2,0,0.3,0,0.5
	c0,0.1-0.1,0.2-0.1,0.3c-0.1,0.3-0.1,0.7-0.2,1c-0.5-0.2-1-0.3-1.6-0.4C609.8,645.7,610.3,645.2,610.7,644.4z"/>
<linearGradient id="SVGID_53_" gradientUnits="userSpaceOnUse" x1="927.8312" y1="246.7696" x2="930.8575" y2="255.0843" gradientTransform="matrix(0.51 0 0 -0.51 144.55 803.47)">
	<stop  offset="4.591837e-02" style="stop-color:#EEA326"/>
	<stop  offset="0.5" style="stop-color:#FFD97E"/>
	<stop  offset="0.9439" style="stop-color:#FFF1C6"/>
</linearGradient>
<path fill="url(#SVGID_53_)" d="M619.7,673.5c-0.2,0.7-0.4,1.3-0.5,1.9c-0.3,0.1-0.5,0.3-0.8,0.4c-0.1,0.6-0.1,1.2-0.1,1.6
	c-0.1,0.1-0.2,0.1-0.3,0.2c-0.2-0.2-0.4-0.3-0.6-0.3c0.1-0.4,0.2-0.8,0.3-1.2c0.3-0.2,0.5-0.3,0.8-0.4c0-0.2,0.1-0.4,0.1-0.6
	c0.5-0.5,0.8-0.9,0.6-1.2c0-0.1-0.1-0.1-0.1-0.1c0.1-0.1,0.2-0.1,0.2-0.1C619.4,673.7,619.5,673.6,619.7,673.5z"/>
<linearGradient id="SVGID_54_" gradientUnits="userSpaceOnUse" x1="926.3092" y1="270.2363" x2="929.1198" y2="277.9585" gradientTransform="matrix(0.51 0 0 -0.51 144.55 803.47)">
	<stop  offset="4.591837e-02" style="stop-color:#EEA326"/>
	<stop  offset="0.5" style="stop-color:#FFD97E"/>
	<stop  offset="0.9439" style="stop-color:#FFF1C6"/>
</linearGradient>
<path fill="url(#SVGID_54_)" d="M617.5,664.6c-0.4,0.2-0.8,0.5-1.1,0.7c-0.1,0-0.2,0-0.3,0c0.2-0.6,0.4-1.2,0.5-1.8
	c0.2-0.8,0.4-1.5,0.4-2.1c0.5,0.2,0.9,0.3,1.3,0.4c0.1,0.2,0.2,0.4,0.3,0.5c0.1,0.1,0.2,0.1,0.3,0c0,0.7,0.1,1.2,0.2,1.7
	C618.6,664,618,664.2,617.5,664.6z"/>
<linearGradient id="SVGID_55_" gradientUnits="userSpaceOnUse" x1="942.7376" y1="342.7095" x2="943.814" y2="345.6669" gradientTransform="matrix(0.51 0 0 -0.51 144.55 803.47)">
	<stop  offset="4.591837e-02" style="stop-color:#EEA326"/>
	<stop  offset="0.5" style="stop-color:#FFD97E"/>
	<stop  offset="0.9439" style="stop-color:#FFF1C6"/>
</linearGradient>
<path fill="url(#SVGID_55_)" d="M626.2,628.5c-0.4-0.1-0.9-0.2-1.5-0.1c0.6-0.4,1.1-0.7,1.6-1.1
	C626.2,627.8,626.2,628.2,626.2,628.5z"/>
<linearGradient id="SVGID_56_" gradientUnits="userSpaceOnUse" x1="937.3979" y1="360.8511" x2="938.0303" y2="362.5883" gradientTransform="matrix(0.51 0 0 -0.51 144.55 803.47)">
	<stop  offset="4.591837e-02" style="stop-color:#EEA326"/>
	<stop  offset="0.5" style="stop-color:#FFD97E"/>
	<stop  offset="0.9439" style="stop-color:#FFF1C6"/>
</linearGradient>
<path fill="url(#SVGID_56_)" d="M623.8,618.9c-0.4,0.2-0.8,0.4-1.2,0.6c-0.2-0.2-0.5-0.4-0.7-0.6c0.1-0.1,0.1-0.1,0.1-0.2
	C622.4,618.9,623,619,623.8,618.9z"/>
<linearGradient id="SVGID_57_" gradientUnits="userSpaceOnUse" x1="946.0828" y1="426.3237" x2="947.5581" y2="430.377" gradientTransform="matrix(0.51 0 0 -0.51 144.55 803.47)">
	<stop  offset="4.591837e-02" style="stop-color:#EEA326"/>
	<stop  offset="0.5" style="stop-color:#FFD97E"/>
	<stop  offset="0.9439" style="stop-color:#FFF1C6"/>
</linearGradient>
<path fill="url(#SVGID_57_)" d="M628.8,584.8c-0.7,0.1-1.6,0.4-2.5,0.9c0-0.4-0.1-0.8-0.1-1.1c0.6,0.2,1.7,0.1,3-0.2
	C629,584.5,628.9,584.7,628.8,584.8z"/>
<linearGradient id="SVGID_58_" gradientUnits="userSpaceOnUse" x1="983.9782" y1="894.3085" x2="984.7816" y2="896.5157" gradientTransform="matrix(0.51 0 0 -0.51 144.55 803.47)">
	<stop  offset="4.591837e-02" style="stop-color:#EEA326"/>
	<stop  offset="0.5" style="stop-color:#FFD97E"/>
	<stop  offset="0.9439" style="stop-color:#FFF1C6"/>
</linearGradient>
<path fill="url(#SVGID_58_)" d="M646.7,347.4c-0.3-0.2-0.6-0.4-0.9-0.5c0,0,0.1,0,0.1-0.1c0.3-0.2,0.6-0.4,0.9-0.6
	c0,0.5,0.1,1,0.2,1.3C646.9,347.5,646.8,347.5,646.7,347.4z"/>
<linearGradient id="SVGID_59_" gradientUnits="userSpaceOnUse" x1="970.3366" y1="975.6579" x2="976.697" y2="993.1329" gradientTransform="matrix(0.51 0 0 -0.51 144.55 803.47)">
	<stop  offset="4.591837e-02" style="stop-color:#EEA326"/>
	<stop  offset="0.5" style="stop-color:#FFD97E"/>
	<stop  offset="0.9439" style="stop-color:#FFF1C6"/>
</linearGradient>
<path fill="url(#SVGID_59_)" d="M638.9,305.5c0.7,0.3,2.3-1.2,3.4-3.5c1.3-2.3,1.7-4.6,0.9-4.9c-0.7-0.3-2.3,1.2-3.4,3.5
	C638.7,302.9,638.1,305.2,638.9,305.5z"/>
</svg>
