<?xml version="1.0" encoding="utf-8"?>
<!-- Generator: Adobe Illustrator 17.1.0, SVG Export Plug-In . SVG Version: 6.00 Build 0)  -->
<!DOCTYPE svg PUBLIC "-//W3C//DTD SVG 1.1//EN" "http://www.w3.org/Graphics/SVG/1.1/DTD/svg11.dtd">
<svg version="1.1" id="Layer_5_copy_2" xmlns="http://www.w3.org/2000/svg" xmlns:xlink="http://www.w3.org/1999/xlink" x="0px"
	 y="0px" viewBox="0 0 1200 1200" enable-background="new 0 0 1200 1200" xml:space="preserve">
<linearGradient id="SVGID_1_" gradientUnits="userSpaceOnUse" x1="914.1066" y1="146.0728" x2="925.2242" y2="176.6183" gradientTransform="matrix(0.51 0 0 -0.51 144.55 803.47)">
	<stop  offset="4.591837e-02" style="stop-color:#EEA326"/>
	<stop  offset="0.5" style="stop-color:#FFD97E"/>
	<stop  offset="0.9439" style="stop-color:#FFF1C6"/>
</linearGradient>
<path fill="url(#SVGID_1_)" d="M617.9,723.9c-0.2-0.4-0.7-0.5-1.4-0.4c0.4-0.8,0.6-1.9,0.8-3.1c0.1-0.9,0.2-1.7,0.2-2.3
	c0.7-2.1,1-4.1,0.2-4.3c-0.8-0.3-2.2,1.3-3.1,3.7c-0.9,2.4-1.2,4.7-0.4,5c0.1,0.1,0.2,0.1,0.3,0c0.1,0.7,0.2,1.2,0.3,1.6
	c-0.4,0.2-0.8,0.4-1.3,0.6c-0.6,0.3-1,0.6-1.5,0.9c0.2-0.5,0.3-1,0.4-1.6c0.3-1.7,0.3-3.3,0.1-4.2c0-0.1,0.1-0.3,0.1-0.4
	c0.3-2.5-0.2-4.9-0.9-4.9c-0.7-0.1-1.7,1.8-2,4.5c-0.2,1.5-0.1,2.8,0.1,3.7c-0.1,0.2-0.1,0.3-0.1,0.5c-0.5,2.5-0.3,4.5,0.5,4.9v0.1
	c0.4,0.9,2.3,0.4,4.6-0.8C616.6,726.3,618.1,724.7,617.9,723.9z"/>
<linearGradient id="SVGID_2_" gradientUnits="userSpaceOnUse" x1="923.3942" y1="125.3177" x2="928.23" y2="138.604" gradientTransform="matrix(0.51 0 0 -0.51 144.55 803.47)">
	<stop  offset="4.591837e-02" style="stop-color:#EEA326"/>
	<stop  offset="0.5" style="stop-color:#FFD97E"/>
	<stop  offset="0.9439" style="stop-color:#FFF1C6"/>
</linearGradient>
<path fill="url(#SVGID_2_)" d="M616.1,734.8c-2.2,1.2-3.7,2.8-3.4,3.4c0.4,0.9,2.3,0.4,4.6-0.8c2-1.1,3.7-2.7,3.4-3.4
	C620.4,733.1,618.4,733.6,616.1,734.8z"/>
<linearGradient id="SVGID_3_" gradientUnits="userSpaceOnUse" x1="917.3353" y1="177.5195" x2="928.0097" y2="206.847" gradientTransform="matrix(0.51 0 0 -0.51 144.55 803.47)">
	<stop  offset="4.591837e-02" style="stop-color:#EEA326"/>
	<stop  offset="0.5" style="stop-color:#FFD97E"/>
	<stop  offset="0.9439" style="stop-color:#FFF1C6"/>
</linearGradient>
<path fill="url(#SVGID_3_)" d="M620.7,699.2c-0.3-0.7-2.4-0.7-4.7,0.3c-1.7,0.8-3,1.7-3.5,2.4c-0.6-0.1-1,0.1-1.2,0.3
	c-0.2,0.7,0.9,2.1,2.8,3.2c-0.5,0.6-0.9,1.4-1.2,2.4c-0.9,2.4-1.1,4.7-0.4,5c0.8,0.3,2.2-1.3,3.1-3.7c0.4-0.9,0.6-1.8,0.7-2.5
	c1.7,0.7,3.1,0.8,3.2,0.2c0.2-0.8-1.2-2.4-3.5-3.5c-0.2-0.1-0.3-0.2-0.5-0.2c0.5-0.1,1-0.3,1.5-0.5
	C619.4,701.3,621,699.8,620.7,699.2z"/>
<linearGradient id="SVGID_4_" gradientUnits="userSpaceOnUse" x1="941.8682" y1="308.9691" x2="946.1284" y2="320.674" gradientTransform="matrix(0.51 0 0 -0.51 144.55 803.47)">
	<stop  offset="4.591837e-02" style="stop-color:#EEA326"/>
	<stop  offset="0.5" style="stop-color:#FFD97E"/>
	<stop  offset="0.9439" style="stop-color:#FFF1C6"/>
</linearGradient>
<path fill="url(#SVGID_4_)" d="M625.6,641.5c-2.2,0.9-4.1,2.1-3.7,3c0.3,0.6,2.3,0.5,4.6-0.3c2.2-0.9,3.9-2.2,3.7-3
	C630,640.6,627.9,640.7,625.6,641.5z"/>
<linearGradient id="SVGID_5_" gradientUnits="userSpaceOnUse" x1="898.9174" y1="489.8533" x2="905.2818" y2="507.3394" gradientTransform="matrix(0.51 0 0 -0.51 144.55 803.47)">
	<stop  offset="4.591837e-02" style="stop-color:#EEA326"/>
	<stop  offset="0.5" style="stop-color:#FFD97E"/>
	<stop  offset="0.9439" style="stop-color:#FFF1C6"/>
</linearGradient>
<path fill="url(#SVGID_5_)" d="M606,549.5c0.9-2.4,0.9-4.6,0.1-4.9c-0.6-0.3-2,1.7-2.7,4.1c-0.7,2.3-0.9,4.7-0.1,4.9
	C603.9,553.8,605.3,551.9,606,549.5z"/>
<linearGradient id="SVGID_6_" gradientUnits="userSpaceOnUse" x1="916.3663" y1="805.9542" x2="922.7272" y2="823.4306" gradientTransform="matrix(0.51 0 0 -0.51 144.55 803.47)">
	<stop  offset="4.591837e-02" style="stop-color:#EEA326"/>
	<stop  offset="0.5" style="stop-color:#FFD97E"/>
	<stop  offset="0.9439" style="stop-color:#FFF1C6"/>
</linearGradient>
<path fill="url(#SVGID_6_)" d="M612.3,392.4c0.7,0.3,1.9-1.5,2.7-3.9c0.7-2.5,0.7-4.7-0.1-5c-0.7-0.3-1.9,1.5-2.7,3.9
	C611.4,389.8,611.4,392,612.3,392.4z"/>
<linearGradient id="SVGID_7_" gradientUnits="userSpaceOnUse" x1="922.0737" y1="848.5809" x2="928.4688" y2="866.1513" gradientTransform="matrix(0.51 0 0 -0.51 144.55 803.47)">
	<stop  offset="4.591837e-02" style="stop-color:#EEA326"/>
	<stop  offset="0.5" style="stop-color:#FFD97E"/>
	<stop  offset="0.9439" style="stop-color:#FFF1C6"/>
</linearGradient>
<path fill="url(#SVGID_7_)" d="M614.7,370.5c0.6,0.3,2.1-1.5,3.1-3.8c1.1-2.3,1.3-4.6,0.5-4.9c-0.6-0.3-2.1,1.5-3.1,3.8
	C614.2,367.9,613.9,370.1,614.7,370.5z"/>
<linearGradient id="SVGID_8_" gradientUnits="userSpaceOnUse" x1="943.0576" y1="943.7352" x2="949.4527" y2="961.3056" gradientTransform="matrix(0.51 0 0 -0.51 144.55 803.47)">
	<stop  offset="4.591837e-02" style="stop-color:#EEA326"/>
	<stop  offset="0.5" style="stop-color:#FFD97E"/>
	<stop  offset="0.9439" style="stop-color:#FFF1C6"/>
</linearGradient>
<path fill="url(#SVGID_8_)" d="M625.4,321.9c0.6,0.3,2.1-1.5,3.1-3.8c1.1-2.3,1.3-4.6,0.5-4.9c-0.6-0.3-2.1,1.5-3.1,3.8
	C624.9,319.3,624.6,321.6,625.4,321.9z"/>
<linearGradient id="SVGID_9_" gradientUnits="userSpaceOnUse" x1="813.837" y1="232.3962" x2="1100.0905" y2="1018.8712" gradientTransform="matrix(0.51 0 0 -0.51 144.55 803.47)">
	<stop  offset="4.591837e-02" style="stop-color:#EEA326"/>
	<stop  offset="0.5" style="stop-color:#FFD97E"/>
	<stop  offset="0.9439" style="stop-color:#FFF1C6"/>
</linearGradient>
<path fill="url(#SVGID_9_)" d="M674.1,294.4c0.8-5.4,1.7-22.6-0.6-23.5c6,2.6-13.4,13.6-14,13.6c0.3-2,0-2.8-1.1-3.4
	c6,3.2-13,10-10.2,5.4c-1.7,4.3,3.8,20.9-12.1,24.1c0.9-2,1-4.1,0.4-6.4c-3.9-1.7-29.2,90.3-23.6,95.3c-11.3-11.3,10.8-0.1,5-0.8
	c1.4-2.2,2-4.5,1.6-7c0.7,0.3,0.9,1.4,1.9,1.3c0.9-0.9-10.8,13.4-10.5,8.7c1.6,1.1,3.4,1.5,5.2,1.3c-0.7,1.3-7.1,3.9-5.9,6.1
	c3.5,7.7,1.1-9.7-1,4.7c0.2-1.7,4.2,31.7,4.2,31.7c-1.3,4.6-0.9-6.2-4.2,0.5c1.1,1,1.3,2.1,0.6,3.2c0.2,0.5,7.5,26,8.6,27
	c-1.9,8.4-13.1,19.2-13.1,23.3c1,0.5,1.1,1.2,0.2,1.9c3.4,9-2.1,16.6-0.7,24.8c1.3,6-3.6,30,0.4,37.8c0.7,1.7,6.7-1,8-1
	c1.3-0.8-9.5,33.8-9.5,37.5c0-3.7,3,14.3,0.4,9.6c0.1,0.2,7.6,2.9,7.2,3.7c0-0.3-5.8,27.3-6.6,25.1c0.5,0.9,9.9,14.2,12.6,12.7
	c0.1-0.2-0.2,1.1,0.1,1.3c-0.3,0.1-11.5,6.4-5.5,9.2c5.3,2.9-9.8,23.5,0.1,33.3c1.2,3.2,10.1-6.1,9.5-7.5c1.2,2.7-8.9-9.1-1.9-6.8
	c-2.4-0.8-4.2,8.4-5.4,9.4c0.2-1.3,4.2-19.1,7.2-14.9c-1.4-1.4-1.3-23.1-1.9-23.1c7.1-3.3,6.2-6.2,1.1-9.3c2.2-0.4,4-1.6,5.4-3.5
	c-2.5-0.4-4.7,0-6.7,1.3c0.3-2.5,12.8-10.8,12.6-11c-1.1,0.5-1.6,0.4-1.5-0.2c-1-2.2-9,3.9-9.2,5.4c-1-0.3-1-0.6,0.1-0.9
	c0.5-2,13.4-12.8,9-14.7c4.4,1.9-4.9,4.4-4.9,4.4c0-0.4,3.7-12.5,4.8-10.1c-0.7-0.7-0.2-1.5,1.6-2.3c-0.9-2.4-9.4,4.6-10.7,4.7
	c8.2-16.4,1.4-32.9,1.4-46.8c1.2-4.6,14.6-28,12.6-31.9c-2.6,1.9-4.3,1.7-5-0.3c5.7-1.9,3.8-6.4,2.1-8.8c0.7,0,2.6-8.2,0.3-8.2
	c0,0-3.7,6.6-5.1,7c-1.1-5.3,11.3-25,11.3-25.1c-0.7-0.7-0.2-1.5,1.6-2.3c-2.8-0.2-5.2,0.7-7.2,2.6c0-2.5-1.6-8.3-3-7.9
	c0.7-6.6,1-21.1,7.4-23c-0.7,0.8-3.8,8.9-0.5,9.2c-1.6-0.1,5.6-10.5,6.3-9.1c-2.7,1.9-4.4,1.8-5-0.3c0.3-0.1,5.4-4,4.7-5.4
	c-1.2-2.4-5.9,0.5-7.8,0.9c0.2-0.9,4.8-13.5,5-13c-14-33.9,7.2-81.5,4.8-105.3c1.5,1,3.1,1.6,5,1.6c-1.7,4.2,2.9-14.2,4.8-9
	c-5.5-13.3,0.4,11.1,2.5-2.5c0.2-1.7-1.1-10.5-4.7-8.6c0-1.1,0.7-2,1-3.1c0-0.1,12.1-3.2,11.8-2.3c-2.4,6.7,1-12.4,0-6.6
	c1.4-9.7,7.3-10.7,9.8-16.5C675.2,301.3,674.9,295.2,674.1,294.4C674.2,293.7,675.1,295.4,674.1,294.4z"/>
<linearGradient id="SVGID_10_" gradientUnits="userSpaceOnUse" x1="919.0429" y1="215.7169" x2="919.5599" y2="217.1373" gradientTransform="matrix(0.51 0 0 -0.51 144.55 803.47)">
	<stop  offset="4.591837e-02" style="stop-color:#EEA326"/>
	<stop  offset="0.5" style="stop-color:#FFD97E"/>
	<stop  offset="0.9439" style="stop-color:#FFF1C6"/>
</linearGradient>
<path fill="url(#SVGID_10_)" d="M613.2,692.8c0.2,0.1,0.4,0.1,0.6,0.1c-0.3,0.2-0.6,0.4-0.8,0.5C613.1,693.2,613.1,693,613.2,692.8z
	"/>
<linearGradient id="SVGID_11_" gradientUnits="userSpaceOnUse" x1="917.373" y1="327.9661" x2="918.5424" y2="331.1789" gradientTransform="matrix(0.51 0 0 -0.51 144.55 803.47)">
	<stop  offset="4.591837e-02" style="stop-color:#EEA326"/>
	<stop  offset="0.5" style="stop-color:#FFD97E"/>
	<stop  offset="0.9439" style="stop-color:#FFF1C6"/>
</linearGradient>
<path fill="url(#SVGID_11_)" d="M612.5,636.1c-0.1-0.2-0.4-0.4-0.8-0.4c0.6-0.2,1.3-0.5,2.1-0.8v0.1c-0.4,0.1-0.8,0.6-1.1,1.2l0,0
	c-0.1,0.1-0.1,0.1-0.2,0.1C612.5,636.1,612.5,636.1,612.5,636.1z"/>
<linearGradient id="SVGID_12_" gradientUnits="userSpaceOnUse" x1="925.6267" y1="375.6462" x2="925.8036" y2="376.1321" gradientTransform="matrix(0.51 0 0 -0.51 144.55 803.47)">
	<stop  offset="4.591837e-02" style="stop-color:#EEA326"/>
	<stop  offset="0.5" style="stop-color:#FFD97E"/>
	<stop  offset="0.9439" style="stop-color:#FFF1C6"/>
</linearGradient>
<path fill="url(#SVGID_12_)" d="M616.7,611.9c-0.1,0-0.1,0-0.2,0c0-0.1,0-0.2,0-0.2c0,0,0-0.1,0.1-0.1
	C616.7,611.7,616.7,611.8,616.7,611.9z"/>
<linearGradient id="SVGID_13_" gradientUnits="userSpaceOnUse" x1="926.5272" y1="372.5895" x2="927.4714" y2="375.1839" gradientTransform="matrix(0.51 0 0 -0.51 144.55 803.47)">
	<stop  offset="4.591837e-02" style="stop-color:#EEA326"/>
	<stop  offset="0.5" style="stop-color:#FFD97E"/>
	<stop  offset="0.9439" style="stop-color:#FFF1C6"/>
</linearGradient>
<path fill="url(#SVGID_13_)" d="M617.6,613.3c-0.2,0-0.5,0-0.7,0c0.3-0.5,0.4-0.9,0.3-1.2c0.2,0,0.3,0,0.5-0.1
	C617.6,612.6,617.6,613,617.6,613.3z"/>
<linearGradient id="SVGID_14_" gradientUnits="userSpaceOnUse" x1="929.5145" y1="397.7423" x2="930.1661" y2="399.5323" gradientTransform="matrix(0.51 0 0 -0.51 144.55 803.47)">
	<stop  offset="4.591837e-02" style="stop-color:#EEA326"/>
	<stop  offset="0.5" style="stop-color:#FFD97E"/>
	<stop  offset="0.9439" style="stop-color:#FFF1C6"/>
</linearGradient>
<path fill="url(#SVGID_14_)" d="M618.9,600.7C618.9,600.7,618.9,600.7,618.9,600.7c-0.2-0.2-0.3-0.3-0.6-0.3
	c0.1-0.3,0.2-0.5,0.3-0.8c0.2,0.4,0.3,0.6,0.5,0.8C619,600.5,618.9,600.6,618.9,600.7z"/>
<linearGradient id="SVGID_15_" gradientUnits="userSpaceOnUse" x1="921.4683" y1="717.986" x2="921.7479" y2="718.7542" gradientTransform="matrix(0.51 0 0 -0.51 144.55 803.47)">
	<stop  offset="4.591837e-02" style="stop-color:#EEA326"/>
	<stop  offset="0.5" style="stop-color:#FFD97E"/>
	<stop  offset="0.9439" style="stop-color:#FFF1C6"/>
</linearGradient>
<path fill="url(#SVGID_15_)" d="M614.8,437c-0.1,0.1-0.2,0.2-0.2,0.3c0-0.1,0-0.3-0.1-0.4c0-0.1,0-0.1,0.1-0.1
	C614.6,436.9,614.7,437,614.8,437z"/>
<linearGradient id="SVGID_16_" gradientUnits="userSpaceOnUse" x1="918.9698" y1="727.0948" x2="919.5718" y2="728.7485" gradientTransform="matrix(0.51 0 0 -0.51 144.55 803.47)">
	<stop  offset="4.591837e-02" style="stop-color:#EEA326"/>
	<stop  offset="0.5" style="stop-color:#FFD97E"/>
	<stop  offset="0.9439" style="stop-color:#FFF1C6"/>
</linearGradient>
<path fill="url(#SVGID_16_)" d="M613.2,431.7c0.1,0.2,0.2,0.2,0.3,0.3c0.1,0.1,0.2,0.1,0.3,0c-0.3,0.2-0.6,0.4-0.7,0.7
	C613.2,432.3,613.2,432,613.2,431.7z"/>
<linearGradient id="SVGID_17_" gradientUnits="userSpaceOnUse" x1="915.8587" y1="591.1763" x2="916.832" y2="593.8503" gradientTransform="matrix(0.51 0 0 -0.51 144.55 803.47)">
	<stop  offset="4.591837e-02" style="stop-color:#EEA326"/>
	<stop  offset="0.5" style="stop-color:#FFD97E"/>
	<stop  offset="0.9439" style="stop-color:#FFF1C6"/>
</linearGradient>
<path fill="url(#SVGID_17_)" d="M612.3,500.6c0,0.1,0.1,0.1,0.1,0.1c-0.3,0.2-0.6,0.6-0.8,1.2h-0.1c0.2-0.3,0.3-0.7,0.4-1
	C612,500.8,612.1,500.7,612.3,500.6z"/>
<linearGradient id="SVGID_18_" gradientUnits="userSpaceOnUse" x1="909.3151" y1="400.9945" x2="909.5717" y2="401.6993" gradientTransform="matrix(0.51 0 0 -0.51 144.55 803.47)">
	<stop  offset="4.591837e-02" style="stop-color:#EEA326"/>
	<stop  offset="0.5" style="stop-color:#FFD97E"/>
	<stop  offset="0.9439" style="stop-color:#FFF1C6"/>
</linearGradient>
<path fill="url(#SVGID_18_)" d="M608.4,598.6c0,0.1,0,0.2,0.1,0.3c0,0.1-0.1,0.1-0.1,0.1c-0.1-0.1-0.2-0.2-0.2-0.2
	C608.3,598.7,608.3,598.7,608.4,598.6z"/>
<linearGradient id="SVGID_19_" gradientUnits="userSpaceOnUse" x1="922.151" y1="307.144" x2="923.9619" y2="312.1194" gradientTransform="matrix(0.51 0 0 -0.51 144.55 803.47)">
	<stop  offset="4.591837e-02" style="stop-color:#EEA326"/>
	<stop  offset="0.5" style="stop-color:#FFD97E"/>
	<stop  offset="0.9439" style="stop-color:#FFF1C6"/>
</linearGradient>
<path fill="url(#SVGID_19_)" d="M614.8,645c0.1-0.2,0.2-0.5,0.3-0.7c0.2,0,0.3,0,0.4-0.1c0.1,0,0.2,0,0.2,0c0.1,0.7,0.2,1.2,0.3,1.6
	c-0.4,0.2-0.8,0.4-1.3,0.6c-0.1,0.1-0.2,0.1-0.3,0.2C614.5,646.1,614.7,645.6,614.8,645z"/>
<linearGradient id="SVGID_20_" gradientUnits="userSpaceOnUse" x1="923.6665" y1="321.662" x2="925.6252" y2="327.0435" gradientTransform="matrix(0.51 0 0 -0.51 144.55 803.47)">
	<stop  offset="4.591837e-02" style="stop-color:#EEA326"/>
	<stop  offset="0.5" style="stop-color:#FFD97E"/>
	<stop  offset="0.9439" style="stop-color:#FFF1C6"/>
</linearGradient>
<path fill="url(#SVGID_20_)" d="M615.8,639.2c-0.1,0.1-0.1,0.2-0.1,0.2c-0.1-0.2-0.3-0.4-0.5-0.5c0.5-0.4,1-1.1,1.6-2.1
	c0.1,0.1,0.1,0.1,0.2,0.1C616.6,637.5,616.2,638.3,615.8,639.2z"/>
<linearGradient id="SVGID_21_" gradientUnits="userSpaceOnUse" x1="933.1215" y1="351.9756" x2="934.7919" y2="356.565" gradientTransform="matrix(0.51 0 0 -0.51 144.55 803.47)">
	<stop  offset="4.591837e-02" style="stop-color:#EEA326"/>
	<stop  offset="0.5" style="stop-color:#FFD97E"/>
	<stop  offset="0.9439" style="stop-color:#FFF1C6"/>
</linearGradient>
<path fill="url(#SVGID_21_)" d="M621.7,622.9c-0.1,0.2-0.1,0.3-0.2,0.5c-0.5-0.1-1.1,0.1-1.9,0.3c0-0.3,0.1-0.5,0.1-0.8
	c0.1-0.1,0.1-0.2,0.2-0.3c0.6-0.1,1.4-0.3,2.3-0.6C622,622.2,621.9,622.5,621.7,622.9z"/>
<linearGradient id="SVGID_22_" gradientUnits="userSpaceOnUse" x1="960.8809" y1="749.6497" x2="961.7823" y2="752.1265" gradientTransform="matrix(0.51 0 0 -0.51 144.55 803.47)">
	<stop  offset="4.591837e-02" style="stop-color:#EEA326"/>
	<stop  offset="0.5" style="stop-color:#FFD97E"/>
	<stop  offset="0.9439" style="stop-color:#FFF1C6"/>
</linearGradient>
<path fill="url(#SVGID_22_)" d="M634.9,419.9L634.9,419.9c-0.1,0.4-0.1,0.9-0.1,1.2c-0.1,0-0.1,0.1-0.2,0.1
	C634.7,420.7,634.8,420.3,634.9,419.9z"/>
<linearGradient id="SVGID_23_" gradientUnits="userSpaceOnUse" x1="934.1103" y1="817.8928" x2="934.4995" y2="818.9622" gradientTransform="matrix(0.51 0 0 -0.51 144.55 803.47)">
	<stop  offset="4.591837e-02" style="stop-color:#EEA326"/>
	<stop  offset="0.5" style="stop-color:#FFD97E"/>
	<stop  offset="0.9439" style="stop-color:#FFF1C6"/>
</linearGradient>
<path fill="url(#SVGID_23_)" d="M620.9,385.7L620.9,385.7c0.1,0.1,0.3,0.3,0.4,0.4c-0.2,0.1-0.3,0.2-0.5,0.2
	C620.9,386.1,620.9,385.9,620.9,385.7z"/>
<linearGradient id="SVGID_24_" gradientUnits="userSpaceOnUse" x1="918.158" y1="724.0364" x2="918.4828" y2="724.9289" gradientTransform="matrix(0.51 0 0 -0.51 144.55 803.47)">
	<stop  offset="4.591837e-02" style="stop-color:#EEA326"/>
	<stop  offset="0.5" style="stop-color:#FFD97E"/>
	<stop  offset="0.9439" style="stop-color:#FFF1C6"/>
</linearGradient>
<path fill="url(#SVGID_24_)" d="M612.9,433.7c0.1,0.1,0.1,0.1,0.1,0.1c-0.1,0.1-0.2,0.2-0.3,0.4C612.8,434,612.9,433.9,612.9,433.7z
	"/>
<linearGradient id="SVGID_25_" gradientUnits="userSpaceOnUse" x1="915.259" y1="356.0151" x2="916.289" y2="358.8448" gradientTransform="matrix(0.51 0 0 -0.51 144.55 803.47)">
	<stop  offset="4.591837e-02" style="stop-color:#EEA326"/>
	<stop  offset="0.5" style="stop-color:#FFD97E"/>
	<stop  offset="0.9439" style="stop-color:#FFF1C6"/>
</linearGradient>
<path fill="url(#SVGID_25_)" d="M611.7,620.4c0,0.1,0.1,0.2,0.1,0.3c0.1,0.3,0.1,0.7,0.2,1l-0.1,0.1c-0.1,0.1-0.3,0.2-0.4,0.2
	c-0.1-0.1-0.1-0.1-0.2-0.1c0-0.6-0.1-1-0.2-1.4C611.4,620.4,611.5,620.4,611.7,620.4z"/>
<linearGradient id="SVGID_26_" gradientUnits="userSpaceOnUse" x1="929.9684" y1="307.697" x2="929.997" y2="307.7755" gradientTransform="matrix(0.51 0 0 -0.51 144.55 803.47)">
	<stop  offset="4.591837e-02" style="stop-color:#EEA326"/>
	<stop  offset="0.5" style="stop-color:#FFD97E"/>
	<stop  offset="0.9439" style="stop-color:#FFF1C6"/>
</linearGradient>
<path fill="url(#SVGID_26_)" d="M618.8,646.6L618.8,646.6L618.8,646.6C618.8,646.5,618.8,646.5,618.8,646.6
	C618.8,646.5,618.9,646.5,618.8,646.6C618.8,646.5,618.8,646.6,618.8,646.6z"/>
<linearGradient id="SVGID_27_" gradientUnits="userSpaceOnUse" x1="929.4095" y1="366.3148" x2="929.4579" y2="366.4477" gradientTransform="matrix(0.51 0 0 -0.51 144.55 803.47)">
	<stop  offset="4.591837e-02" style="stop-color:#EEA326"/>
	<stop  offset="0.5" style="stop-color:#FFD97E"/>
	<stop  offset="0.9439" style="stop-color:#FFF1C6"/>
</linearGradient>
<path fill="url(#SVGID_27_)" d="M618.5,616.6L618.5,616.6C618.6,616.6,618.6,616.6,618.5,616.6C618.6,616.7,618.5,616.7,618.5,616.6
	z"/>
<linearGradient id="SVGID_28_" gradientUnits="userSpaceOnUse" x1="945.528" y1="535.0282" x2="945.6613" y2="535.3946" gradientTransform="matrix(0.51 0 0 -0.51 144.55 803.47)">
	<stop  offset="4.591837e-02" style="stop-color:#EEA326"/>
	<stop  offset="0.5" style="stop-color:#FFD97E"/>
	<stop  offset="0.9439" style="stop-color:#FFF1C6"/>
</linearGradient>
<path fill="url(#SVGID_28_)" d="M626.8,530.6c-0.1,0-0.1,0-0.1,0.1c0-0.1,0-0.1,0-0.1c0.1,0,0.1-0.1,0.1-0.1
	C626.8,530.5,626.8,530.5,626.8,530.6z"/>
<linearGradient id="SVGID_29_" gradientUnits="userSpaceOnUse" x1="995.3358" y1="919.2639" x2="996.1639" y2="921.5392" gradientTransform="matrix(0.51 0 0 -0.51 144.55 803.47)">
	<stop  offset="4.591837e-02" style="stop-color:#EEA326"/>
	<stop  offset="0.5" style="stop-color:#FFD97E"/>
	<stop  offset="0.9439" style="stop-color:#FFF1C6"/>
</linearGradient>
<path fill="url(#SVGID_29_)" d="M652.2,334.6c0-0.3,0-0.5,0-0.8c0.2-0.1,0.4-0.2,0.6-0.4C652.6,333.9,652.4,334.3,652.2,334.6z"/>
<linearGradient id="SVGID_30_" gradientUnits="userSpaceOnUse" x1="931.7304" y1="849.0976" x2="932.0024" y2="849.845" gradientTransform="matrix(0.51 0 0 -0.51 144.55 803.47)">
	<stop  offset="4.591837e-02" style="stop-color:#EEA326"/>
	<stop  offset="0.5" style="stop-color:#FFD97E"/>
	<stop  offset="0.9439" style="stop-color:#FFF1C6"/>
</linearGradient>
<path fill="url(#SVGID_30_)" d="M619.9,370.1L619.9,370.1c0.1,0.1,0.1,0.2,0.1,0.3l-0.1,0.1c-0.1-0.1-0.2-0.2-0.2-0.2
	C619.7,370.2,619.8,370.1,619.9,370.1z"/>
<linearGradient id="SVGID_31_" gradientUnits="userSpaceOnUse" x1="909.4279" y1="490.9852" x2="909.6419" y2="491.5733" gradientTransform="matrix(0.51 0 0 -0.51 144.55 803.47)">
	<stop  offset="4.591837e-02" style="stop-color:#EEA326"/>
	<stop  offset="0.5" style="stop-color:#FFD97E"/>
	<stop  offset="0.9439" style="stop-color:#FFF1C6"/>
</linearGradient>
<path fill="url(#SVGID_31_)" d="M608.4,552.8c0,0.1,0,0.2,0.1,0.3c0,0,0,0,0,0.1c-0.1-0.1-0.2-0.2-0.2-0.2
	C608.3,552.9,608.4,552.8,608.4,552.8z"/>
<linearGradient id="SVGID_32_" gradientUnits="userSpaceOnUse" x1="916.656" y1="253.3218" x2="919.7469" y2="261.814" gradientTransform="matrix(0.51 0 0 -0.51 144.55 803.47)">
	<stop  offset="4.591837e-02" style="stop-color:#EEA326"/>
	<stop  offset="0.5" style="stop-color:#FFD97E"/>
	<stop  offset="0.9439" style="stop-color:#FFF1C6"/>
</linearGradient>
<path fill="url(#SVGID_32_)" d="M613.6,672.9c-0.1,0.3-0.1,0.6-0.2,0.9c-0.4,0.2-0.7,0.4-1,0.5c0-0.1-0.1-0.2-0.1-0.3
	c0-0.2,0.1-0.3,0.1-0.5c0.2-1.3,0.2-2.5-0.1-3.4c0.4-0.1,0.7-0.2,1.1-0.3C613.3,671.1,613.4,672.2,613.6,672.9z"/>
<linearGradient id="SVGID_33_" gradientUnits="userSpaceOnUse" x1="918.1644" y1="244.7936" x2="919.7476" y2="249.1434" gradientTransform="matrix(0.51 0 0 -0.51 144.55 803.47)">
	<stop  offset="4.591837e-02" style="stop-color:#EEA326"/>
	<stop  offset="0.5" style="stop-color:#FFD97E"/>
	<stop  offset="0.9439" style="stop-color:#FFF1C6"/>
</linearGradient>
<path fill="url(#SVGID_33_)" d="M613,677.9c-0.3,0.2-0.6,0.3-0.9,0.5c0-0.1,0.1-0.2,0.1-0.3c0.1-0.3,0.1-0.7,0.2-1
	c0.6-0.1,1.3-0.2,1.9-0.5c0,0.2,0.1,0.4,0.1,0.6C614,677.4,613.5,677.7,613,677.9z"/>
<linearGradient id="SVGID_34_" gradientUnits="userSpaceOnUse" x1="925.4114" y1="271.6255" x2="928.222" y2="279.3477" gradientTransform="matrix(0.51 0 0 -0.51 144.55 803.47)">
	<stop  offset="4.591837e-02" style="stop-color:#EEA326"/>
	<stop  offset="0.5" style="stop-color:#FFD97E"/>
	<stop  offset="0.9439" style="stop-color:#FFF1C6"/>
</linearGradient>
<path fill="url(#SVGID_34_)" d="M617,663.9c-0.4,0.2-0.8,0.5-1.1,0.7c-0.1,0-0.2,0-0.3,0c0.2-0.6,0.4-1.2,0.5-1.8
	c0.2-0.8,0.4-1.5,0.4-2.1c0.5,0.2,0.9,0.3,1.3,0.4c0.1,0.2,0.2,0.4,0.3,0.5c0.1,0.1,0.2,0.1,0.3,0c0,0.7,0.1,1.2,0.2,1.7
	C618.1,663.3,617.6,663.5,617,663.9z"/>
<linearGradient id="SVGID_35_" gradientUnits="userSpaceOnUse" x1="926.7419" y1="285.1201" x2="928.8987" y2="291.046" gradientTransform="matrix(0.51 0 0 -0.51 144.55 803.47)">
	<stop  offset="4.591837e-02" style="stop-color:#EEA326"/>
	<stop  offset="0.5" style="stop-color:#FFD97E"/>
	<stop  offset="0.9439" style="stop-color:#FFF1C6"/>
</linearGradient>
<path fill="url(#SVGID_35_)" d="M618.7,656.4c-0.3,0.7-0.5,1.3-0.6,1.9c-0.4-0.4-0.9-0.7-1.5-1c0-0.3,0.1-0.5,0.1-0.7
	c0.2-0.1,0.4-0.2,0.6-0.2c0.8-0.3,1.4-0.7,2-1.1C619,655.7,618.8,656,618.7,656.4z"/>
<linearGradient id="SVGID_36_" gradientUnits="userSpaceOnUse" x1="941.8398" y1="344.0987" x2="942.9163" y2="347.0561" gradientTransform="matrix(0.51 0 0 -0.51 144.55 803.47)">
	<stop  offset="4.591837e-02" style="stop-color:#EEA326"/>
	<stop  offset="0.5" style="stop-color:#FFD97E"/>
	<stop  offset="0.9439" style="stop-color:#FFF1C6"/>
</linearGradient>
<path fill="url(#SVGID_36_)" d="M625.7,627.8c-0.4-0.1-0.9-0.2-1.5-0.1c0.6-0.4,1.1-0.7,1.6-1.1
	C625.7,627.1,625.7,627.5,625.7,627.8z"/>
<linearGradient id="SVGID_37_" gradientUnits="userSpaceOnUse" x1="936.5002" y1="362.2403" x2="937.1325" y2="363.9775" gradientTransform="matrix(0.51 0 0 -0.51 144.55 803.47)">
	<stop  offset="4.591837e-02" style="stop-color:#EEA326"/>
	<stop  offset="0.5" style="stop-color:#FFD97E"/>
	<stop  offset="0.9439" style="stop-color:#FFF1C6"/>
</linearGradient>
<path fill="url(#SVGID_37_)" d="M623.3,618.1c-0.4,0.2-0.8,0.4-1.2,0.6c-0.2-0.2-0.5-0.4-0.7-0.6c0.1-0.1,0.1-0.1,0.1-0.2
	C621.9,618.2,622.6,618.2,623.3,618.1z"/>
<linearGradient id="SVGID_38_" gradientUnits="userSpaceOnUse" x1="983.0804" y1="895.6976" x2="983.8838" y2="897.9048" gradientTransform="matrix(0.51 0 0 -0.51 144.55 803.47)">
	<stop  offset="4.591837e-02" style="stop-color:#EEA326"/>
	<stop  offset="0.5" style="stop-color:#FFD97E"/>
	<stop  offset="0.9439" style="stop-color:#FFF1C6"/>
</linearGradient>
<path fill="url(#SVGID_38_)" d="M646.3,346.7c-0.3-0.2-0.6-0.4-0.9-0.5c0,0,0.1,0,0.1-0.1c0.3-0.2,0.6-0.4,0.9-0.6
	c0,0.5,0.1,1,0.2,1.3C646.5,346.8,646.4,346.8,646.3,346.7z"/>
<linearGradient id="SVGID_39_" gradientUnits="userSpaceOnUse" x1="969.4388" y1="977.0471" x2="975.7992" y2="994.5221" gradientTransform="matrix(0.51 0 0 -0.51 144.55 803.47)">
	<stop  offset="4.591837e-02" style="stop-color:#EEA326"/>
	<stop  offset="0.5" style="stop-color:#FFD97E"/>
	<stop  offset="0.9439" style="stop-color:#FFF1C6"/>
</linearGradient>
<path fill="url(#SVGID_39_)" d="M638.4,304.8c0.7,0.3,2.3-1.2,3.4-3.5c1.3-2.3,1.7-4.6,0.9-4.9c-0.7-0.3-2.3,1.2-3.4,3.5
	C638.2,302.2,637.7,304.5,638.4,304.8z"/>
</svg>
