<?xml version="1.0" encoding="utf-8"?>
<!-- Generator: Adobe Illustrator 17.1.0, SVG Export Plug-In . SVG Version: 6.00 Build 0)  -->
<!DOCTYPE svg PUBLIC "-//W3C//DTD SVG 1.1//EN" "http://www.w3.org/Graphics/SVG/1.1/DTD/svg11.dtd">
<svg version="1.1" id="Layer_9" xmlns="http://www.w3.org/2000/svg" xmlns:xlink="http://www.w3.org/1999/xlink" x="0px" y="0px"
	 viewBox="0 0 1200 1200" enable-background="new 0 0 1200 1200" xml:space="preserve">
<linearGradient id="SVGID_1_" gradientUnits="userSpaceOnUse" x1="904.1038" y1="-118.6676" x2="917.9451" y2="-80.6388" gradientTransform="matrix(0.51 0 0 -0.51 144.55 803.47)">
	<stop  offset="4.591837e-02" style="stop-color:#EEA326"/>
	<stop  offset="0.5" style="stop-color:#FFD97E"/>
	<stop  offset="0.9439" style="stop-color:#FFF1C6"/>
</linearGradient>
<path fill="url(#SVGID_1_)" d="M610.5,858.8c0-0.1-0.1-0.1-0.1-0.1c0.1-0.1,0.3-0.1,0.4-0.2c2.1-1.1,3.5-2.7,3.4-3.4
	c-0.2-0.4-0.7-0.5-1.4-0.4c0.4-0.8,0.6-1.9,0.8-3.1c0.1-0.9,0.2-1.7,0.2-2.3c0.7-2.1,1-4.1,0.2-4.3s-2.2,1.3-3.1,3.7
	c-0.9,2.4-1.2,4.7-0.4,5c0.1,0.1,0.2,0.1,0.3,0c0.1,0.7,0.2,1.2,0.3,1.6c-0.4,0.2-0.8,0.4-1.3,0.6c-0.6,0.3-1,0.6-1.5,0.9
	c0.2-0.5,0.3-1,0.4-1.6c0.3-1.7,0.3-3.3,0.1-4.2c0-0.1,0.1-0.3,0.1-0.4c0.3-2.5-0.2-4.9-0.9-4.9c-0.7-0.1-1.7,1.8-2,4.5
	c-0.2,1.5-0.1,2.8,0.1,3.7c-0.1,0.2-0.1,0.3-0.1,0.5c-0.5,2.2-0.4,3.9,0.2,4.7c-0.1,0-0.1,0.1-0.2,0.1c-2.2,1-3.9,2.3-3.6,3.1
	c0.3,0.7,2.4,0.7,4.7-0.3C609.2,860.9,610.8,859.5,610.5,858.8z"/>
<linearGradient id="SVGID_2_" gradientUnits="userSpaceOnUse" x1="884.2483" y1="-100.2782" x2="890.5193" y2="-83.0488" gradientTransform="matrix(0.51 0 0 -0.51 144.55 803.47)">
	<stop  offset="4.591837e-02" style="stop-color:#EEA326"/>
	<stop  offset="0.5" style="stop-color:#FFD97E"/>
	<stop  offset="0.9439" style="stop-color:#FFF1C6"/>
</linearGradient>
<path fill="url(#SVGID_2_)" d="M595.8,849.7c-0.7,2.6-0.5,4.8,0.5,5c0.8,0.3,1.8-1.6,2.2-4.2s0.3-4.8-0.5-5
	C597.3,845.3,596.2,847.2,595.8,849.7z"/>
<linearGradient id="SVGID_3_" gradientUnits="userSpaceOnUse" x1="928.4151" y1="-80.2695" x2="934.7804" y2="-62.7809" gradientTransform="matrix(0.51 0 0 -0.51 144.55 803.47)">
	<stop  offset="4.591837e-02" style="stop-color:#EEA326"/>
	<stop  offset="0.5" style="stop-color:#FFD97E"/>
	<stop  offset="0.9439" style="stop-color:#FFF1C6"/>
</linearGradient>
<path fill="url(#SVGID_3_)" d="M621.1,835.4c-0.6-0.3-2,1.7-2.7,4.1c-0.7,2.4-0.9,4.7-0.1,4.9c0.6,0.3,2-1.7,2.7-4.1
	C621.7,837.8,621.8,835.6,621.1,835.4z"/>
<linearGradient id="SVGID_4_" gradientUnits="userSpaceOnUse" x1="923.1526" y1="-100.5782" x2="929.5648" y2="-82.9611" gradientTransform="matrix(0.51 0 0 -0.51 144.55 803.47)">
	<stop  offset="4.591837e-02" style="stop-color:#EEA326"/>
	<stop  offset="0.5" style="stop-color:#FFD97E"/>
	<stop  offset="0.9439" style="stop-color:#FFF1C6"/>
</linearGradient>
<path fill="url(#SVGID_4_)" d="M615.7,849.6c-0.9,2.4-1.1,4.7-0.4,5c0.8,0.3,2.2-1.3,3.1-3.7c0.9-2.2,1.1-4.5,0.4-5
	C618,845.5,616.6,847.1,615.7,849.6z"/>
<linearGradient id="SVGID_5_" gradientUnits="userSpaceOnUse" x1="920.1407" y1="-114.1436" x2="924.9766" y2="-100.857" gradientTransform="matrix(0.51 0 0 -0.51 144.55 803.47)">
	<stop  offset="4.591837e-02" style="stop-color:#EEA326"/>
	<stop  offset="0.5" style="stop-color:#FFD97E"/>
	<stop  offset="0.9439" style="stop-color:#FFF1C6"/>
</linearGradient>
<path fill="url(#SVGID_5_)" d="M614.5,856.9c-2.2,1.2-3.7,2.8-3.4,3.4c0.4,0.9,2.3,0.4,4.6-0.8c2.2-1.3,3.6-2.9,3.4-3.4
	C618.7,855.2,616.8,855.8,614.5,856.9z"/>
<linearGradient id="SVGID_6_" gradientUnits="userSpaceOnUse" x1="916.1806" y1="-131.9398" x2="921.0164" y2="-118.6535" gradientTransform="matrix(0.51 0 0 -0.51 144.55 803.47)">
	<stop  offset="4.591837e-02" style="stop-color:#EEA326"/>
	<stop  offset="0.5" style="stop-color:#FFD97E"/>
	<stop  offset="0.9439" style="stop-color:#FFF1C6"/>
</linearGradient>
<path fill="url(#SVGID_6_)" d="M612.4,866c-2.2,1.2-3.7,2.8-3.4,3.4c0.4,0.9,2.3,0.4,4.6-0.8c2-1.1,3.7-2.7,3.4-3.4
	C616.7,864.3,614.7,864.8,612.4,866z"/>
<linearGradient id="SVGID_7_" gradientUnits="userSpaceOnUse" x1="890.0248" y1="-110.4777" x2="892.2267" y2="-104.4279" gradientTransform="matrix(0.51 0 0 -0.51 144.55 803.47)">
	<stop  offset="4.591837e-02" style="stop-color:#EEA326"/>
	<stop  offset="0.5" style="stop-color:#FFD97E"/>
	<stop  offset="0.9439" style="stop-color:#FFF1C6"/>
</linearGradient>
<path fill="url(#SVGID_7_)" d="M598.4,859.6c2.3,1.3,4.5,1.6,4.7,0.9c0.2-0.8-1.2-2.4-3.5-3.5c-2.1-1.2-4.2-1.5-4.7-0.9
	C594.7,856.8,596.1,858.4,598.4,859.6z"/>
<linearGradient id="SVGID_8_" gradientUnits="userSpaceOnUse" x1="891.5244" y1="-123.4783" x2="893.7371" y2="-117.3991" gradientTransform="matrix(0.51 0 0 -0.51 144.55 803.47)">
	<stop  offset="4.591837e-02" style="stop-color:#EEA326"/>
	<stop  offset="0.5" style="stop-color:#FFD97E"/>
	<stop  offset="0.9439" style="stop-color:#FFF1C6"/>
</linearGradient>
<path fill="url(#SVGID_8_)" d="M600.4,863.5c-2.3-1.3-4.4-1.6-4.7-0.9c-0.2,0.8,1.2,2.4,3.5,3.5c2.3,1.3,4.5,1.6,4.7,0.9
	C604.1,866.2,602.7,864.6,600.4,863.5z"/>
<linearGradient id="SVGID_9_" gradientUnits="userSpaceOnUse" x1="888.0789" y1="-81.0233" x2="892.8713" y2="-67.8563" gradientTransform="matrix(0.51 0 0 -0.51 144.55 803.47)">
	<stop  offset="4.591837e-02" style="stop-color:#EEA326"/>
	<stop  offset="0.5" style="stop-color:#FFD97E"/>
	<stop  offset="0.9439" style="stop-color:#FFF1C6"/>
</linearGradient>
<path fill="url(#SVGID_9_)" d="M599.4,842.6c2.1-1.2,3.4-2.9,3.2-3.5c-0.3-0.6-2.4-0.3-4.6,1c-2.1,1.2-3.6,2.8-3.2,3.5
	C595.1,844.2,597.3,843.9,599.4,842.6z"/>
<linearGradient id="SVGID_10_" gradientUnits="userSpaceOnUse" x1="943.1756" y1="-6.4005" x2="949.6019" y2="11.2558" gradientTransform="matrix(0.51 0 0 -0.51 144.55 803.47)">
	<stop  offset="4.591837e-02" style="stop-color:#EEA326"/>
	<stop  offset="0.5" style="stop-color:#FFD97E"/>
	<stop  offset="0.9439" style="stop-color:#FFF1C6"/>
</linearGradient>
<path fill="url(#SVGID_10_)" d="M629,797.8c-0.7-0.3-1.9,1.3-3.1,3.7c-1,2.4-1.2,4.7-0.5,5c0.7,0.3,1.9-1.3,3.1-3.7
	C629.5,800.5,629.7,798.1,629,797.8z"/>
<linearGradient id="SVGID_11_" gradientUnits="userSpaceOnUse" x1="889.892" y1="-73.1726" x2="894.684" y2="-60.0065" gradientTransform="matrix(0.51 0 0 -0.51 144.55 803.47)">
	<stop  offset="4.591837e-02" style="stop-color:#EEA326"/>
	<stop  offset="0.5" style="stop-color:#FFD97E"/>
	<stop  offset="0.9439" style="stop-color:#FFF1C6"/>
</linearGradient>
<path fill="url(#SVGID_11_)" d="M596.1,839.7c0.3,0.6,2.4,0.3,4.6-1c2.3-1.2,3.8-2.8,3.2-3.5c-0.2-0.3-0.9-0.4-1.8-0.2
	c-0.8,0.1-1.8,0.3-2.9,0.7c-2.2,0.9-4.1,2.1-3.7,3c0.1,0.2,0.3,0.3,0.6,0.4C596,839.4,596,839.6,596.1,839.7z"/>
<linearGradient id="SVGID_12_" gradientUnits="userSpaceOnUse" x1="943.4164" y1="344.9342" x2="949.7817" y2="362.4228" gradientTransform="matrix(0.51 0 0 -0.51 144.55 803.47)">
	<stop  offset="4.591837e-02" style="stop-color:#EEA326"/>
	<stop  offset="0.5" style="stop-color:#FFD97E"/>
	<stop  offset="0.9439" style="stop-color:#FFF1C6"/>
</linearGradient>
<path fill="url(#SVGID_12_)" d="M628.7,618.5c-0.6-0.3-2,1.7-2.7,4.1c-0.7,2.3-0.9,4.7-0.1,4.9c0.6,0.3,2-1.7,2.7-4.1
	C629.4,621,629.5,618.7,628.7,618.5z"/>
<linearGradient id="SVGID_13_" gradientUnits="userSpaceOnUse" x1="933.7071" y1="-34.3571" x2="941.5126" y2="-12.9116" gradientTransform="matrix(0.51 0 0 -0.51 144.55 803.47)">
	<stop  offset="4.591837e-02" style="stop-color:#EEA326"/>
	<stop  offset="0.5" style="stop-color:#FFD97E"/>
	<stop  offset="0.9439" style="stop-color:#FFF1C6"/>
</linearGradient>
<path fill="url(#SVGID_13_)" d="M624.1,809.8c-0.6-0.3-2,1.7-2.7,4.1c-0.3,0.9-0.5,1.8-0.5,2.6c-1.9,1.2-3.2,2.6-2.8,3.2
	c0.3,0.6,2.4,0.3,4.6-1c2.3-1.2,3.8-2.6,3.2-3.5c-0.2-0.4-0.9-0.4-2-0.2c0.1-0.2,0.1-0.3,0.2-0.5C624.7,812.3,624.9,810,624.1,809.8
	z"/>
<linearGradient id="SVGID_14_" gradientUnits="userSpaceOnUse" x1="890.2408" y1="99.1856" x2="895.0767" y2="112.4719" gradientTransform="matrix(0.51 0 0 -0.51 144.55 803.47)">
	<stop  offset="4.591837e-02" style="stop-color:#EEA326"/>
	<stop  offset="0.5" style="stop-color:#FFD97E"/>
	<stop  offset="0.9439" style="stop-color:#FFF1C6"/>
</linearGradient>
<path fill="url(#SVGID_14_)" d="M595.9,751.5c0.4,0.9,2.3,0.4,4.6-0.8c2-1.3,3.6-2.9,3.4-3.4c-0.4-0.9-2.3-0.4-4.6,0.8
	C597,749.3,595.6,750.9,595.9,751.5z"/>
<linearGradient id="SVGID_15_" gradientUnits="userSpaceOnUse" x1="885.6509" y1="144.0784" x2="892.0632" y2="161.696" gradientTransform="matrix(0.51 0 0 -0.51 144.55 803.47)">
	<stop  offset="4.591837e-02" style="stop-color:#EEA326"/>
	<stop  offset="0.5" style="stop-color:#FFD97E"/>
	<stop  offset="0.9439" style="stop-color:#FFF1C6"/>
</linearGradient>
<path fill="url(#SVGID_15_)" d="M599.6,721c-0.8-0.3-2.2,1.3-3.1,3.7c-0.9,2.4-1.1,4.7-0.4,5c0.8,0.3,2.2-1.3,3.1-3.7
	C600.3,723.5,600.5,721.3,599.6,721z"/>
<linearGradient id="SVGID_16_" gradientUnits="userSpaceOnUse" x1="881.7896" y1="122.7606" x2="888.154" y2="140.2466" gradientTransform="matrix(0.51 0 0 -0.51 144.55 803.47)">
	<stop  offset="4.591837e-02" style="stop-color:#EEA326"/>
	<stop  offset="0.5" style="stop-color:#FFD97E"/>
	<stop  offset="0.9439" style="stop-color:#FFF1C6"/>
</linearGradient>
<path fill="url(#SVGID_16_)" d="M594.5,740.8c0.6,0.3,2-1.7,2.7-4.1c0.9-2.4,0.9-4.6,0.1-4.9c-0.6-0.3-2,1.7-2.7,4.1
	C593.9,738.3,593.8,740.6,594.5,740.8z"/>
<linearGradient id="SVGID_17_" gradientUnits="userSpaceOnUse" x1="888.3965" y1="31.5292" x2="893.5959" y2="45.8145" gradientTransform="matrix(0.51 0 0 -0.51 144.55 803.47)">
	<stop  offset="4.591837e-02" style="stop-color:#EEA326"/>
	<stop  offset="0.5" style="stop-color:#FFD97E"/>
	<stop  offset="0.9439" style="stop-color:#FFF1C6"/>
</linearGradient>
<path fill="url(#SVGID_17_)" d="M596.5,786.1c0.9,0,2.2-0.5,3.6-1.2c2-1.3,3.6-2.9,3.4-3.4c-0.3-0.6-1.1-0.6-2.3-0.2
	c-0.9,0.1-2.1,0.5-3.4,1.2c-2.1,1.2-3.6,2.8-3.2,3.5C594.6,786.3,595.5,786.4,596.5,786.1z"/>
<linearGradient id="SVGID_18_" gradientUnits="userSpaceOnUse" x1="891.0544" y1="235.842" x2="896.6179" y2="251.1274" gradientTransform="matrix(0.51 0 0 -0.51 144.55 803.47)">
	<stop  offset="4.591837e-02" style="stop-color:#EEA326"/>
	<stop  offset="0.5" style="stop-color:#FFD97E"/>
	<stop  offset="0.9439" style="stop-color:#FFF1C6"/>
</linearGradient>
<path fill="url(#SVGID_18_)" d="M601.3,680.4c1.9-1.6,3.2-3.4,2.8-4.1c-0.4-0.7-2.5,0.1-4.5,1.7c-1.9,1.6-3.2,3.4-2.8,4.1
	C597.2,682.8,599.3,682,601.3,680.4z"/>
<linearGradient id="SVGID_19_" gradientUnits="userSpaceOnUse" x1="888.3141" y1="271.4575" x2="894.6313" y2="288.8138" gradientTransform="matrix(0.51 0 0 -0.51 144.55 803.47)">
	<stop  offset="4.591837e-02" style="stop-color:#EEA326"/>
	<stop  offset="0.5" style="stop-color:#FFD97E"/>
	<stop  offset="0.9439" style="stop-color:#FFF1C6"/>
</linearGradient>
<path fill="url(#SVGID_19_)" d="M597.9,660.1c-0.6,2.5-0.5,4.7,0.3,5s1.8-1.6,2.4-4.1c0.6-2.5,0.5-4.7-0.3-5
	C599.5,655.7,598.5,657.6,597.9,660.1z"/>
<linearGradient id="SVGID_20_" gradientUnits="userSpaceOnUse" x1="886.6912" y1="425.2878" x2="893.0863" y2="442.8584" gradientTransform="matrix(0.51 0 0 -0.51 144.55 803.47)">
	<stop  offset="4.591837e-02" style="stop-color:#EEA326"/>
	<stop  offset="0.5" style="stop-color:#FFD97E"/>
	<stop  offset="0.9439" style="stop-color:#FFF1C6"/>
</linearGradient>
<path fill="url(#SVGID_20_)" d="M600.2,577.6c-0.6-0.3-2.1,1.5-3.1,3.8c-1,2.3-1.3,4.6-0.5,4.9c0.6,0.3,2.1-1.5,3.1-3.8
	C600.8,580.2,601,578,600.2,577.6z"/>
<linearGradient id="SVGID_21_" gradientUnits="userSpaceOnUse" x1="932.0307" y1="879.3229" x2="937.9702" y2="895.6416" gradientTransform="matrix(0.51 0 0 -0.51 144.55 803.47)">
	<stop  offset="4.591837e-02" style="stop-color:#EEA326"/>
	<stop  offset="0.5" style="stop-color:#FFD97E"/>
	<stop  offset="0.9439" style="stop-color:#FFF1C6"/>
</linearGradient>
<path fill="url(#SVGID_21_)" d="M621.7,355.5c0.7,0.1,1.3-2.2,1.1-4.7c0-2.5-0.8-4.7-1.6-4.6c-0.7-0.1-1.3,2.2-1.1,4.7
	C620.2,353.3,620.8,355.5,621.7,355.5z"/>
<linearGradient id="SVGID_22_" gradientUnits="userSpaceOnUse" x1="763.387" y1="-43.0011" x2="1142.4612" y2="998.4969" gradientTransform="matrix(0.51 0 0 -0.51 144.55 803.47)">
	<stop  offset="4.591837e-02" style="stop-color:#EEA326"/>
	<stop  offset="0.5" style="stop-color:#FFD97E"/>
	<stop  offset="0.9439" style="stop-color:#FFF1C6"/>
</linearGradient>
<path fill="url(#SVGID_22_)" d="M674.7,294.3c1-6-2.5-21.6-2.4-21.8c-6.5,13.1-19.4,7.1-23.6,13.8c1.1,2.9,3.2,4.7,6.3,5.4
	c-1.4,5.5-36.7,27.7-30.7,39.8c4.9,10-3.9,65.4-10.2,67.5c2.1-3.3,3.5-3.4,4.2-0.4c1.6-2.1,2.1-4.4,1.6-7c7.8,4.1-8.3,9.4-8,9.2
	c0.5-0.3-1.3,50.5-7.6,56.3c1.3-1.1,6.5-7.2,8.5-7.4c0.4,6.4-2,11.2-7.3,14.4c-0.9,1.7,9.6-11.5-0.1,4.7c1.3,2.5,3.6,3.1,6.8,1.7
	c-0.3-0.2-12.8,5.1-1.3,4.8c0.1-0.4-13.5,19.1-2.8,15.9c-2.3,12.4-5,32.2-7.5,50.9c0.3-1.8,6.4,0.7,5.7,0.9
	c-0.7,15.7-3.2,25.9,2.7,37.7c0.4-0.6-3.3,22.9-5.6,22.6c7.8,1.9-3.5-0.9,5.3,2c-8.9,13.3,6.4,55.3-10.9,68.3c2.2,2,4.8,2.7,7.9,2.1
	c-3.7,16.8-0.2,8.6-0.2,16.6c-1.8,1.2-5.9,7.9-7.2,7.8c3.8,0.1,5.9-4.1,9-5.4c-2,10.1-0.1,4.9-3.2,14.1c-0.4-0.7-0.9-10.4,1.5-7.6
	c-2.6,1.8-4.6,1.6-5.9-0.6c-5.8,4.6,1.7,26.3,5.3,31.3c2.4-0.2,3.1-1.8,2.2-4.6c-0.8,4.8-6,42.7,2.8,38.5c-0.4,1-10.9,7.3-10,7
	c0.1-2.1,0.4-4.2,1-6.2c-2.4-3.3-8.5,5.1-8.4,6c1.3,3,3.5,3.1,6.7,0.4c-8.3,1.9,2.4,8.9-2.8,8.9c3.3-3.6,6.4-3.9,9.4-1
	c-1.2,0.8,5.2,29.4-3.5,30.8c-1.7,0.3-4-10.1-4.1-11c-1.2,0.1-2.3-0.2-3.4-0.7c-4.4,7.6,1.2,13.4,6.4,14.4
	c-4.9,3.9-5.2,15.5-5.1,15.4c5.9-3.5,3.4-8.2,8.1-11.1c-0.4,4.4,0.5,4.5,2.7,0.3c0-2.3-2.6,12.3-3.4,10.3c4.2,0.5,7.4-1,9.9-4.6
	c0,0.2-7.7,9.8-9.6,9.3c4.8-1.9,9.3-4.4,13.4-7.6c0.3-3-9.6,18.8-7.1,15.7c3-3.7,7.1-6.3,1.8-8.6c0.1,0,12.9-1.4,9.7-3.2
	c-9-4.9,5.4-1.3,4.2-8.4c-0.2-1.4-11.1-0.1-11.4,0c-0.7,0.4,10.8-15.7,10.5-16.4c-2.7-5.8-7.4-1.8-10.5-0.3c1.6-1.8-2.4-21.7-3.9-21
	c2-0.9,15.9-3.9,5.7-9.6c4.5-1,8.1,1.2,10.9-5.2c-4.2-1.1-8.2-0.1-12.1,3c-0.2-5.3,8.6-5.8,12.1-9.7c-1.1-1.4-1.5-3-1.1-4.9
	c-1.7,0.4-8.1,9.2-9.7,8.2c21.6-11.4-9-19.4,8.8-25.1c-2.2,1.4-4.2,3-6.1,4.8c1.7-0.4,2.5,0.2,2.6,1.7c1.7-1.3,2.9-0.9,3.5,1.3
	c2.4-4.2,6.5-11.6,5.4-13.5c-2.1-5.1-8.9,1.2-9.7,1.6c-2.3-7.7,1.9-6.2,6.6-12.6c-2.5-1.1-5.1-0.9-7.6,0.6
	c4.5-1.9,11.6-13.5,5.7-17.4c-0.3,1.6-1.2,2.4-2.5,2.2c3.6-14.1,3.7-76.7,10.3-76.3c-1.2-0.1-18.8-10.3-7.7-17.1
	c-1.4,12.3,6.5-5.6,6.8-4.6c-2.9,0.4-5.7,0.8-8.6,1.1c-5.4-8.5-2.5-46.3-0.7-55.8c10.4-2.6-8.7-30.2-7.3-27.6
	c0.6,0.2,5.3-10.8,5.5-10.8c-1.5,1.2-2.5,2.7-3.2,4.5c0.3-1.7,1.7-6.7-2-3c4.3,6.9,15.2-35,15.6-36.4c7.3-27.3-6-137.9,26.9-139.4
	c-1.1,0-4.5-13.4-5.7-10.8c-0.5,3.6-2.5,5.9-6,6.7c5.3-5.8,15.4-17.7,6-19.4c0.5-0.5,12.4-0.6,12.9-2.5
	C666,314.3,674.2,294,674.7,294.3C675.1,291.9,675.7,295.3,674.7,294.3z"/>
</svg>
