<?xml version="1.0" encoding="utf-8"?>
<!-- Generator: Adobe Illustrator 17.1.0, SVG Export Plug-In . SVG Version: 6.00 Build 0)  -->
<!DOCTYPE svg PUBLIC "-//W3C//DTD SVG 1.1//EN" "http://www.w3.org/Graphics/SVG/1.1/DTD/svg11.dtd">
<svg version="1.1" id="Layer_10" xmlns="http://www.w3.org/2000/svg" xmlns:xlink="http://www.w3.org/1999/xlink" x="0px" y="0px"
	 viewBox="0 0 1200 1200" enable-background="new 0 0 1200 1200" xml:space="preserve">
<linearGradient id="SVGID_1_" gradientUnits="userSpaceOnUse" x1="884.3804" y1="46.3226" x2="890.0376" y2="61.8657" gradientTransform="matrix(0.51 0 0 -0.51 144.55 803.47)">
	<stop  offset="4.591837e-02" style="stop-color:#EEA326"/>
	<stop  offset="0.5" style="stop-color:#FFD97E"/>
	<stop  offset="0.9439" style="stop-color:#FFF1C6"/>
</linearGradient>
<path fill="url(#SVGID_1_)" d="M596.1,774.7c-1.8,1.7-3,3.5-2.6,4.2c0.5,0.7,2.5-0.2,4.4-1.9c1.9-1.7,3.1-3.5,2.6-4.2
	C600.1,772.1,598,773,596.1,774.7z"/>
<linearGradient id="SVGID_2_" gradientUnits="userSpaceOnUse" x1="902.7697" y1="-118.8495" x2="916.611" y2="-80.8207" gradientTransform="matrix(0.51 0 0 -0.51 144.55 803.47)">
	<stop  offset="4.591837e-02" style="stop-color:#EEA326"/>
	<stop  offset="0.5" style="stop-color:#FFD97E"/>
	<stop  offset="0.9439" style="stop-color:#FFF1C6"/>
</linearGradient>
<path fill="url(#SVGID_2_)" d="M609.8,858.9c0-0.1-0.1-0.1-0.1-0.1c0.1-0.1,0.3-0.1,0.4-0.2c2.1-1.1,3.5-2.7,3.4-3.4
	c-0.2-0.4-0.7-0.5-1.4-0.4c0.4-0.8,0.6-1.9,0.8-3.1c0.1-0.9,0.2-1.7,0.2-2.3c0.7-2.1,1-4.1,0.2-4.3c-0.8-0.3-2.2,1.3-3.1,3.7
	c-0.9,2.4-1.2,4.7-0.4,5c0.1,0.1,0.2,0.1,0.3,0c0.1,0.7,0.2,1.2,0.3,1.6c-0.4,0.2-0.8,0.4-1.3,0.6c-0.6,0.3-1,0.6-1.5,0.9
	c0.2-0.5,0.3-1,0.4-1.6c0.3-1.7,0.3-3.3,0.1-4.2c0-0.1,0.1-0.3,0.1-0.4c0.3-2.5-0.2-4.9-0.9-4.9c-0.7-0.1-1.7,1.8-2,4.5
	c-0.2,1.5-0.1,2.8,0.1,3.7c-0.1,0.2-0.1,0.3-0.1,0.5c-0.5,2.2-0.4,3.9,0.2,4.7c-0.1,0-0.1,0.1-0.2,0.1c-2.2,1-3.9,2.3-3.6,3.1
	c0.3,0.7,2.4,0.7,4.7-0.3C608.5,861,610.1,859.6,609.8,858.9z"/>
<linearGradient id="SVGID_3_" gradientUnits="userSpaceOnUse" x1="927.0809" y1="-80.4515" x2="933.4463" y2="-62.9628" gradientTransform="matrix(0.51 0 0 -0.51 144.55 803.47)">
	<stop  offset="4.591837e-02" style="stop-color:#EEA326"/>
	<stop  offset="0.5" style="stop-color:#FFD97E"/>
	<stop  offset="0.9439" style="stop-color:#FFF1C6"/>
</linearGradient>
<path fill="url(#SVGID_3_)" d="M620.4,835.5c-0.6-0.3-2,1.7-2.7,4.1c-0.7,2.4-0.9,4.7-0.1,4.9c0.6,0.3,2-1.7,2.7-4.1
	C621,837.9,621.2,835.7,620.4,835.5z"/>
<linearGradient id="SVGID_4_" gradientUnits="userSpaceOnUse" x1="921.8185" y1="-100.7601" x2="928.2307" y2="-83.143" gradientTransform="matrix(0.51 0 0 -0.51 144.55 803.47)">
	<stop  offset="4.591837e-02" style="stop-color:#EEA326"/>
	<stop  offset="0.5" style="stop-color:#FFD97E"/>
	<stop  offset="0.9439" style="stop-color:#FFF1C6"/>
</linearGradient>
<path fill="url(#SVGID_4_)" d="M615,849.7c-0.9,2.4-1.1,4.7-0.4,5c0.8,0.3,2.2-1.3,3.1-3.7c0.9-2.2,1.1-4.5,0.4-5
	C617.3,845.6,615.9,847.2,615,849.7z"/>
<linearGradient id="SVGID_5_" gradientUnits="userSpaceOnUse" x1="918.8066" y1="-114.3255" x2="923.6425" y2="-101.039" gradientTransform="matrix(0.51 0 0 -0.51 144.55 803.47)">
	<stop  offset="4.591837e-02" style="stop-color:#EEA326"/>
	<stop  offset="0.5" style="stop-color:#FFD97E"/>
	<stop  offset="0.9439" style="stop-color:#FFF1C6"/>
</linearGradient>
<path fill="url(#SVGID_5_)" d="M613.8,857c-2.2,1.2-3.7,2.8-3.4,3.4c0.4,0.9,2.3,0.4,4.6-0.8c2.2-1.3,3.6-2.9,3.4-3.4
	C618,855.3,616.1,855.9,613.8,857z"/>
<linearGradient id="SVGID_6_" gradientUnits="userSpaceOnUse" x1="914.8464" y1="-132.1218" x2="919.6823" y2="-118.8354" gradientTransform="matrix(0.51 0 0 -0.51 144.55 803.47)">
	<stop  offset="4.591837e-02" style="stop-color:#EEA326"/>
	<stop  offset="0.5" style="stop-color:#FFD97E"/>
	<stop  offset="0.9439" style="stop-color:#FFF1C6"/>
</linearGradient>
<path fill="url(#SVGID_6_)" d="M611.8,866.1c-2.2,1.2-3.7,2.8-3.4,3.4c0.4,0.9,2.3,0.4,4.6-0.8c2-1.1,3.7-2.7,3.4-3.4
	C616,864.4,614.1,864.9,611.8,866.1z"/>
<linearGradient id="SVGID_7_" gradientUnits="userSpaceOnUse" x1="945.0785" y1="125.7704" x2="950.9489" y2="141.8992" gradientTransform="matrix(0.51 0 0 -0.51 144.55 803.47)">
	<stop  offset="4.591837e-02" style="stop-color:#EEA326"/>
	<stop  offset="0.5" style="stop-color:#FFD97E"/>
	<stop  offset="0.9439" style="stop-color:#FFF1C6"/>
</linearGradient>
<path fill="url(#SVGID_7_)" d="M632.9,732.6c-0.2-0.3-0.5-0.5-1-0.5c-0.6-0.5-2.5-0.4-4.5,0.5c-2.2,1-3.9,2.2-3.6,3.1
	c0.2,0.3,0.6,0.5,1.2,0.5c-0.1,0.1-0.1,0.2-0.1,0.3c-0.8,0.6-1.1,1.2-0.9,1.7c0.3,0.7,2.4,0.7,4.7-0.3c2.2-1,3.9-2.4,3.6-3.1
	c-0.1-0.2-0.3-0.3-0.6-0.4C632.6,733.5,633.1,732.8,632.9,732.6z"/>
<linearGradient id="SVGID_8_" gradientUnits="userSpaceOnUse" x1="880.2307" y1="81.9494" x2="886.4957" y2="99.1626" gradientTransform="matrix(0.51 0 0 -0.51 144.55 803.47)">
	<stop  offset="4.591837e-02" style="stop-color:#EEA326"/>
	<stop  offset="0.5" style="stop-color:#FFD97E"/>
	<stop  offset="0.9439" style="stop-color:#FFF1C6"/>
</linearGradient>
<path fill="url(#SVGID_8_)" d="M594.2,761.8c0.8,0.3,1.8-1.6,2.2-4.2c0.5-2.6,0.3-4.7-0.5-5c-0.8-0.3-1.8,1.6-2.2,4.2
	C593.3,759.3,593.5,761.6,594.2,761.8z"/>
<linearGradient id="SVGID_9_" gradientUnits="userSpaceOnUse" x1="908.7876" y1="-79.92" x2="919.462" y2="-50.5924" gradientTransform="matrix(0.51 0 0 -0.51 144.55 803.47)">
	<stop  offset="4.591837e-02" style="stop-color:#EEA326"/>
	<stop  offset="0.5" style="stop-color:#FFD97E"/>
	<stop  offset="0.9439" style="stop-color:#FFF1C6"/>
</linearGradient>
<path fill="url(#SVGID_9_)" d="M608.2,833.2c-0.6-0.1-1,0.1-1.2,0.3c-0.2,0.7,0.9,2.1,2.8,3.2c-0.5,0.6-0.9,1.4-1.2,2.4
	c-0.9,2.4-1.1,4.7-0.4,5c0.8,0.3,2.2-1.3,3.1-3.7c0.4-0.9,0.6-1.8,0.7-2.6c1.7,0.7,3.1,0.8,3.2,0.2c0.2-0.8-1.2-2.4-3.5-3.5
	c-0.2-0.1-0.3-0.2-0.5-0.2c0.5-0.1,1-0.3,1.5-0.5c2.2-1,3.9-2.4,3.6-3.1c-0.3-0.7-2.4-0.7-4.7,0.3
	C610,831.5,608.7,832.4,608.2,833.2z"/>
<linearGradient id="SVGID_10_" gradientUnits="userSpaceOnUse" x1="921.4316" y1="-50.4889" x2="926.2675" y2="-37.2024" gradientTransform="matrix(0.51 0 0 -0.51 144.55 803.47)">
	<stop  offset="4.591837e-02" style="stop-color:#EEA326"/>
	<stop  offset="0.5" style="stop-color:#FFD97E"/>
	<stop  offset="0.9439" style="stop-color:#FFF1C6"/>
</linearGradient>
<path fill="url(#SVGID_10_)" d="M616.4,827.1c2.2-1.2,3.7-2.8,3.4-3.4c-0.4-0.9-2.3-0.4-4.6,0.8c-2.2,1.2-3.7,2.8-3.4,3.4
	C612.1,828.8,614.1,828.2,616.4,827.1z"/>
<linearGradient id="SVGID_11_" gradientUnits="userSpaceOnUse" x1="924.3477" y1="-64.3181" x2="928.665" y2="-52.4564" gradientTransform="matrix(0.51 0 0 -0.51 144.55 803.47)">
	<stop  offset="4.591837e-02" style="stop-color:#EEA326"/>
	<stop  offset="0.5" style="stop-color:#FFD97E"/>
	<stop  offset="0.9439" style="stop-color:#FFF1C6"/>
</linearGradient>
<path fill="url(#SVGID_11_)" d="M616.6,831.8c-2.3,0.8-3.9,2.2-3.6,3.1c0.3,0.7,2.4,0.7,4.7-0.3c2.2-1,3.9-2.4,3.6-3.1
	C620.9,830.8,618.9,830.8,616.6,831.8z"/>
<linearGradient id="SVGID_12_" gradientUnits="userSpaceOnUse" x1="887.697" y1="59.4064" x2="891.0186" y2="68.5325" gradientTransform="matrix(0.51 0 0 -0.51 144.55 803.47)">
	<stop  offset="4.591837e-02" style="stop-color:#EEA326"/>
	<stop  offset="0.5" style="stop-color:#FFD97E"/>
	<stop  offset="0.9439" style="stop-color:#FFF1C6"/>
</linearGradient>
<path fill="url(#SVGID_12_)" d="M602.6,770.3c0-1-2-1.2-4.5-1s-4.5,1.1-4.4,1.9c0,1,2,1.2,4.5,1C600.5,772,602.6,771.1,602.6,770.3z
	"/>
<linearGradient id="SVGID_13_" gradientUnits="userSpaceOnUse" x1="885.0739" y1="11.9663" x2="893.6434" y2="35.5107" gradientTransform="matrix(0.51 0 0 -0.51 144.55 803.47)">
	<stop  offset="4.591837e-02" style="stop-color:#EEA326"/>
	<stop  offset="0.5" style="stop-color:#FFD97E"/>
	<stop  offset="0.9439" style="stop-color:#FFF1C6"/>
</linearGradient>
<path fill="url(#SVGID_13_)" d="M600.1,795.4c0.2,0.2,0.3,0.3,0.5,0.4c0.6,0.2,1.3-0.9,1.9-2.5c0.2-0.4,0.3-0.7,0.3-0.9l0,0
	c0.1-0.2,0.1-0.5,0.2-0.7c0.3-1.5,0.3-2.9,0.2-3.8c0.3-0.2,0.4-0.4,0.4-0.6c0-0.8-1.9-1.6-4.4-1.5c-2.4-0.1-4.5,0.6-4.5,1.5
	c0,0.8,1.9,1.6,4.4,1.5c0.6,0,1.2-0.1,1.8-0.2c-0.3,0.7-0.5,1.4-0.6,2.2c-0.2,0.6-0.3,1.2-0.4,1.7c-0.5,0.2-1.1,0.5-1.6,0.8
	c-2.1,1.2-3.6,2.8-3.2,3.5c0.3,0.6,2.4,0.3,4.6-1C599.8,795.6,600,795.5,600.1,795.4z"/>
<linearGradient id="SVGID_14_" gradientUnits="userSpaceOnUse" x1="936.2756" y1="63.966" x2="942.702" y2="81.6223" gradientTransform="matrix(0.51 0 0 -0.51 144.55 803.47)">
	<stop  offset="4.591837e-02" style="stop-color:#EEA326"/>
	<stop  offset="0.5" style="stop-color:#FFD97E"/>
	<stop  offset="0.9439" style="stop-color:#FFF1C6"/>
</linearGradient>
<path fill="url(#SVGID_14_)" d="M622.4,765.6c-1,2.4-1.2,4.7-0.5,5c0.7,0.3,1.9-1.3,3.1-3.7c1.1-2.2,1.2-4.7,0.5-5
	C624.8,761.6,623.5,763.2,622.4,765.6z"/>
<linearGradient id="SVGID_15_" gradientUnits="userSpaceOnUse" x1="942.2331" y1="376.6425" x2="948.5984" y2="394.1311" gradientTransform="matrix(0.51 0 0 -0.51 144.55 803.47)">
	<stop  offset="4.591837e-02" style="stop-color:#EEA326"/>
	<stop  offset="0.5" style="stop-color:#FFD97E"/>
	<stop  offset="0.9439" style="stop-color:#FFF1C6"/>
</linearGradient>
<path fill="url(#SVGID_15_)" d="M625.4,606.4c-0.7,2.3-0.9,4.7-0.1,4.9c0.6,0.3,2-1.7,2.7-4.1c0.7-2.3,0.9-4.7,0.1-4.9
	C627.5,602.1,626.1,604,625.4,606.4z"/>
<linearGradient id="SVGID_16_" gradientUnits="userSpaceOnUse" x1="941.3513" y1="456.1086" x2="947.7166" y2="473.597" gradientTransform="matrix(0.51 0 0 -0.51 144.55 803.47)">
	<stop  offset="4.591837e-02" style="stop-color:#EEA326"/>
	<stop  offset="0.5" style="stop-color:#FFD97E"/>
	<stop  offset="0.9439" style="stop-color:#FFF1C6"/>
</linearGradient>
<path fill="url(#SVGID_16_)" d="M625,565.9c-0.7,2.3-0.9,4.7-0.1,4.9c0.6,0.3,2-1.7,2.7-4.1c0.7-2.4,0.9-4.7,0.1-4.9
	C627,561.6,625.6,563.5,625,565.9z"/>
<linearGradient id="SVGID_17_" gradientUnits="userSpaceOnUse" x1="926.4759" y1="5.2689" x2="934.2816" y2="26.7146" gradientTransform="matrix(0.51 0 0 -0.51 144.55 803.47)">
	<stop  offset="4.591837e-02" style="stop-color:#EEA326"/>
	<stop  offset="0.5" style="stop-color:#FFD97E"/>
	<stop  offset="0.9439" style="stop-color:#FFF1C6"/>
</linearGradient>
<path fill="url(#SVGID_17_)" d="M620.4,789.6c-0.6-0.3-2,1.7-2.7,4.1c-0.3,0.9-0.5,1.8-0.5,2.6c-1.9,1.2-3.2,2.6-2.8,3.2
	c0.3,0.6,2.4,0.3,4.6-1c2.3-1.2,3.8-2.6,3.2-3.5c-0.2-0.4-0.9-0.4-2-0.2c0.1-0.2,0.1-0.3,0.2-0.5
	C621.1,792.1,621.2,789.8,620.4,789.6z"/>
<linearGradient id="SVGID_18_" gradientUnits="userSpaceOnUse" x1="890.3685" y1="238.4787" x2="896.7328" y2="255.9647" gradientTransform="matrix(0.51 0 0 -0.51 144.55 803.47)">
	<stop  offset="4.591837e-02" style="stop-color:#EEA326"/>
	<stop  offset="0.5" style="stop-color:#FFD97E"/>
	<stop  offset="0.9439" style="stop-color:#FFF1C6"/>
</linearGradient>
<path fill="url(#SVGID_18_)" d="M598.9,681.8c0.6,0.3,2-1.7,2.7-4.1c0.9-2.4,0.9-4.6,0.1-4.9c-0.6-0.3-2,1.7-2.7,4.1
	C598.3,679.3,598.2,681.6,598.9,681.8z"/>
<linearGradient id="SVGID_19_" gradientUnits="userSpaceOnUse" x1="899.3123" y1="656.4807" x2="905.7094" y2="674.0565" gradientTransform="matrix(0.51 0 0 -0.51 144.55 803.47)">
	<stop  offset="4.591837e-02" style="stop-color:#EEA326"/>
	<stop  offset="0.5" style="stop-color:#FFD97E"/>
	<stop  offset="0.9439" style="stop-color:#FFF1C6"/>
</linearGradient>
<path fill="url(#SVGID_19_)" d="M602.1,465.4c-0.4,1.4-0.3,2.6,0.1,2.8c0.5,0.2,1.2-0.4,1.9-1.3c2,1.3,3.8,1.7,4.1,1
	c0.3-0.7-0.8-2.3-2.7-3.6c1.1-2.3,1.3-4.4,0.5-4.7s-2.1,1.1-3.1,3.3c-1.1-0.5-2.1-0.5-2.4-0.2C600.3,463.2,601,464.3,602.1,465.4z"
	/>
<linearGradient id="SVGID_20_" gradientUnits="userSpaceOnUse" x1="885.6404" y1="397.1516" x2="892.0152" y2="414.6661" gradientTransform="matrix(0.51 0 0 -0.51 144.55 803.47)">
	<stop  offset="4.591837e-02" style="stop-color:#EEA326"/>
	<stop  offset="0.5" style="stop-color:#FFD97E"/>
	<stop  offset="0.9439" style="stop-color:#FFF1C6"/>
</linearGradient>
<path fill="url(#SVGID_20_)" d="M596.4,600.8c0.7,0.4,1.9-1.4,2.8-3.9c0.8-2.5,0.9-4.7,0.2-5c-0.7-0.4-1.9,1.4-2.8,3.9
	S595.6,600.4,596.4,600.8z"/>
<linearGradient id="SVGID_21_" gradientUnits="userSpaceOnUse" x1="942.9042" y1="943.6802" x2="949.2993" y2="961.2505" gradientTransform="matrix(0.51 0 0 -0.51 144.55 803.47)">
	<stop  offset="4.591837e-02" style="stop-color:#EEA326"/>
	<stop  offset="0.5" style="stop-color:#FFD97E"/>
	<stop  offset="0.9439" style="stop-color:#FFF1C6"/>
</linearGradient>
<path fill="url(#SVGID_21_)" d="M625.3,322c0.6,0.3,2.1-1.5,3.1-3.8c1.1-2.3,1.3-4.6,0.5-4.9c-0.6-0.3-2.1,1.5-3.1,3.8
	C624.8,319.4,624.5,321.7,625.3,322z"/>
<linearGradient id="SVGID_22_" gradientUnits="userSpaceOnUse" x1="891.392" y1="480.9086" x2="897.7524" y2="498.3836" gradientTransform="matrix(0.51 0 0 -0.51 144.55 803.47)">
	<stop  offset="4.591837e-02" style="stop-color:#EEA326"/>
	<stop  offset="0.5" style="stop-color:#FFD97E"/>
	<stop  offset="0.9439" style="stop-color:#FFF1C6"/>
</linearGradient>
<path fill="url(#SVGID_22_)" d="M602,554.3c1.3-2.3,1.7-4.6,0.9-4.9c-0.7-0.3-2.3,1.2-3.4,3.5c-1.1,2.3-1.5,4.6-0.9,4.9
	C599.3,558.1,600.9,556.7,602,554.3z"/>
<linearGradient id="SVGID_23_" gradientUnits="userSpaceOnUse" x1="885.3959" y1="460.0215" x2="891.791" y2="477.5919" gradientTransform="matrix(0.51 0 0 -0.51 144.55 803.47)">
	<stop  offset="4.591837e-02" style="stop-color:#EEA326"/>
	<stop  offset="0.5" style="stop-color:#FFD97E"/>
	<stop  offset="0.9439" style="stop-color:#FFF1C6"/>
</linearGradient>
<path fill="url(#SVGID_23_)" d="M596,568.6c0.6,0.3,2.1-1.5,3.1-3.8c1.1-2.3,1.3-4.6,0.5-4.9c-0.6-0.3-2.1,1.5-3.1,3.8
	C595.5,566,595.2,568.3,596,568.6z"/>
<linearGradient id="SVGID_24_" gradientUnits="userSpaceOnUse" x1="924.5673" y1="849.3852" x2="930.369" y2="865.3253" gradientTransform="matrix(0.51 0 0 -0.51 144.55 803.47)">
	<stop  offset="4.591837e-02" style="stop-color:#EEA326"/>
	<stop  offset="0.5" style="stop-color:#FFD97E"/>
	<stop  offset="0.9439" style="stop-color:#FFF1C6"/>
</linearGradient>
<path fill="url(#SVGID_24_)" d="M618.1,370.8c0.7,0,1.1-2.3,0.9-4.8c-0.3-2.5-1.1-4.6-1.9-4.5c-0.7,0-1.1,2.3-0.9,4.8
	C616.4,368.8,617.3,370.9,618.1,370.8z"/>
<linearGradient id="SVGID_25_" gradientUnits="userSpaceOnUse" x1="759.6575" y1="-21.5121" x2="1133.5753" y2="1005.8184" gradientTransform="matrix(0.51 0 0 -0.51 144.55 803.47)">
	<stop  offset="4.591837e-02" style="stop-color:#EEA326"/>
	<stop  offset="0.5" style="stop-color:#FFD97E"/>
	<stop  offset="0.9439" style="stop-color:#FFF1C6"/>
</linearGradient>
<path fill="url(#SVGID_25_)" d="M674,294.4c0.8-5.4,1.7-22.6-0.6-23.5c6,2.6-13.4,13.6-14,13.6c0.3-2,0-2.8-1.1-3.4
	c6,3.2-13,10-10.2,5.4c-1.8,4.4,9,3.5,4.6,9.2c1.1-1.1-12.4,1.5-11-0.9c-0.1,0.2-4.6,9.4-3.3,9.9c2.7-1.7,4.3-4.2,4.7-7.3
	c1.3,1.2,1.7,2.9,3.1,2.9c0,5.7-22.2,28.4-26.7,35.2c-3.4,8.4,13.1,31.7-2.7,43.5c-0.2-2.3-1.1-4.3-2.8-6c8.7-1.1,0.1,24.3,0.5,24.5
	c1.8-2.2,2.9-1.8,3.2,1.1c1.4-2.2,2-4.5,1.6-7c0.7,0.3,0.9,1.4,1.9,1.3c-5.3,10-15.8,29.6-16,30.9c1.7,1.2,3.6,1.7,5.6,1.5
	c-1.2,1-7.6,3.9-6.6,6c2.1-1.6,3.7-1.6,4.8,0c-2.3,0.9-4,2.6-5.2,4.9c-4.8-10.3,13,23.4,7.2,19.1c9.5,9.5-9.8,15.7-9.4,17
	c1.2,3.1,8.8-2.4,9.9-2.4c0,7.1-3.9,4.3-6.2,7.2c-0.7,1.9,5,16.7-0.1,15.7c3.4,0.9,3.3-1.4,2.9,4.2c-7.6-7.6-8.7,8.3-8.2,9.8
	c0.1,0.5,16.7,19.1,4.8,31c-0.1,4.1,5,38.2-7.1,35.2c1.2,0.4,5.5-3.1,7.1-3.1c-1.1,1.5,0.4,3.2,2.3,2.9c-6,3.3-1.2,5.7,1.7,7.8
	c1.1-2.2-9.5,6.8-3.8,8.7c0.4-2.4,1.3-3.2,2.8-2.5c-0.3,2.6-10.5,24.4-10.8,24.1c0.4,0.4,9.9-6.2,11.6-5.4
	c-1.6,1.6-7.4,8.5-4.8,10.8c1.6-0.7,2.9-1.7,3.9-3.1c0,3.3-5.7,5.3-5.7,5.3c0.6-11.4,5.6,18.1-0.5,7.6c-0.2-0.4,0,9.9,5,9.9
	c-1.1,3.2-6.5,4.1,0.1,4.1c-1.8,0.7-3.3,2-4.3,3.8c-1.2-4.1,4.3,0.7,4.2,0.7c-2.8,7.1-11.3,39.8-5.8,50.8c0.3,0.7,5.7-0.1,6.4-0.5
	c0,10.5-9.7,15.1-9.7,22c0-6.9,4,28.9,1.3,24.1c0,0,9.1,2.6,8.1,4.5c-0.3,2-2,3-3.2,4.2c-0.2-0.1-0.4-0.1-0.6-0.1c0.6-2,0.5-4-0.3-6
	c-3.2-1.1-1.8,15.1-2.1,15c1.1-0.7,2.1-1.6,3-2.5c1.4,7-2.5,1.7-3.2,4.7c-0.7,2.9,2.5,2.9,4,3.8c-6.9,6.9-1.9,0.8-3.8-0.6
	c-1.4,1.8-3.2,2.5-5.4,2.2c1.5,1.7,1.6,3.6,0.3,5.7c-3.4-2.8,13.9,6.1,8.8,4.8c6.3,2.4-0.1-3.1,2.4-1.5c0,4.8-14.2,6.4-13.5,11.5
	c3.2,1.6,6.2,1.3,9-0.9c-3.8,0-4.4-0.9-1.9-2.7c4.5,2.2,4,9.4,6.8,10.8c0.6,0.3,0.3,3.3,2.3,4.3c-2.1,0.7-8.6,0.1-9.9,1.9
	c-1.5,5.7,2.5,2.1,0.8,6.6c-0.6,2.9,2.6,3.1,4.2,3.9c-1.2,0.9-5.5,4.1-4.4,6c0.8,1.7,6,4.5,6.6,3c0,0.8-2.4,12.9-3.5,10.3
	c2.6,5.6,24.1-25.6,11.1-18.9c0.2-0.1,8-10.5,8.6-9.2c-0.4-1-7-1.2-9.1-0.2c0.6-3.5,12.1-19.6,12.4-18.5c0.5,1.2-8.5,0.1-9.3-0.3
	c2.3-2.2,4.4-4.1,1.9-6c-0.4,0,11.8-0.2,8.6-4.5c-1.1,0.5-1.6,0.4-1.5-0.2c-0.8-1.8-7.5,4.4-10,2.8c2.2-0.4,4-1.6,5.4-3.5
	c-2.5-0.4-4.7,0-6.7,1.3c0.6-5.7,3.7-1.1,5-7.4c0,0.2-3.6,1.2-3.8,1.1c1-0.5,9.7-10.4,9.8-10.1c-0.7-0.7-0.2-1.5,1.6-2.3
	c-0.8-2-5.3,1.4-6.6,1.8c0-3.8,12.8-17.7,13-17.4c-0.9-2.3-14.3,11.1-15.5,11.7c-10.4-10.4,14.2-23,12.3-29.4c2,5.2-7-16.1-0.6-14.3
	c-1.1,0.6-1.7,0.1-1.8-1.6c-1.9-0.1-1.2,7.5-4.4,8.3c0.7-1.1,4.6-6.6,2-7.8c-5.2-2.4-2,3.9-3.5,4.8c3.8-15.2-1.1-18.4,7.2-22.9
	c-7.5,4.1-1-22.1,1-18.3c-2.6,1.9-4.3,1.7-5-0.3c5.7-1.9,3.8-6.4,2.1-8.8c0.7,0,2.6-8.2,0.3-8.2c0,0-3.7,6.6-5.1,7
	c-3.2-15,14.4-65.9,10.6-73.4c2.2,5.2-11.8-8.4-3.4-6.1c1.5,0.5-10.3,17.6-5.2,17.3c-1.1,0.6-2.6,0-3.2,0.9
	c-0.1-0.3-0.3-0.4-0.6-0.3c0.2-1.3,4.8-19,5.4-17.7c-0.5-0.2-0.6-0.6-0.4-1.1c-4.5-10.9-4.4-22.1-4.4-36.8c-1.7-0.9,8.9,7.6,9.8,4.4
	c4-13.1-10.7-13-16.5-16.7c1.5-9.4,21.7-48.5,18.1-55.6c2.7,6.9-4.6-24.7-1.4-24c-1.9-0.1-3.5,16.1-3.8,17.9c0-0.2,0.1-0.4,0.1-0.5
	c2-9.2,0.9-58.5,8.4-55.5c-1-0.6-5.7,12.4-7,13.5c-5-10.1,12-62.6,13.7-64.3c-14.4-4.4,20.9-38.2,21.6-42.8
	c1.4-9.7,7.3-10.7,9.8-16.5C674.5,301.5,674.5,294.9,674,294.4C674.1,293.7,675,295.4,674,294.4z"/>
<linearGradient id="SVGID_26_" gradientUnits="userSpaceOnUse" x1="917.3785" y1="807.204" x2="923.418" y2="823.7975" gradientTransform="matrix(0.51 0 0 -0.51 144.55 803.47)">
	<stop  offset="4.591837e-02" style="stop-color:#EEA326"/>
	<stop  offset="0.5" style="stop-color:#FFD97E"/>
	<stop  offset="0.9439" style="stop-color:#FFF1C6"/>
</linearGradient>
<path fill="url(#SVGID_26_)" d="M614.1,392.2c0.8-0.1,1.5-2.1,1.3-4.7c-0.2-2.5-0.7-4.8-1.6-4.7c-0.8,0.1-1.5,2.1-1.3,4.7
	C612.5,390.2,613.3,392.3,614.1,392.2z"/>
</svg>
