<?xml version="1.0" encoding="utf-8"?>
<!-- Generator: Adobe Illustrator 17.1.0, SVG Export Plug-In . SVG Version: 6.00 Build 0)  -->
<!DOCTYPE svg PUBLIC "-//W3C//DTD SVG 1.1//EN" "http://www.w3.org/Graphics/SVG/1.1/DTD/svg11.dtd">
<svg version="1.1" id="grain" xmlns="http://www.w3.org/2000/svg" xmlns:xlink="http://www.w3.org/1999/xlink" x="0px" y="0px"
	 viewBox="0 0 612 792" enable-background="new 0 0 612 792" xml:space="preserve">
<linearGradient id="SVGID_1_" gradientUnits="userSpaceOnUse" x1="1243.0875" y1="-776.1096" x2="1430.4404" y2="-261.3618" gradientTransform="matrix(0.2601 0 0 -0.2601 -217.5306 190.9596)">
	<stop  offset="1.020408e-02" style="stop-color:#EDA024"/>
	<stop  offset="0.5685" style="stop-color:#FFDD8A"/>
	<stop  offset="1" style="stop-color:#FFEFC3"/>
</linearGradient>
<path fill="url(#SVGID_1_)" d="M50.5,367.6c0.8-0.4,1.6-0.8,2.4-1.2c0,0.1,0,0.3,0.1,0.4c0.1,0.2,0.2,0.4,0.5,0.6
	c-0.4,0.4-0.7,0.7-1,1c25.1-4.5,50.8-12.2,75.5-23c-0.2-0.1-0.5-0.2-0.7-0.3c0.5-0.4,0.9-0.7,1.2-1c0.5,0.2,0.9,0.3,1.4,0.4
	c32.1-14.2,62.1-33.8,86.5-58.4c0-0.1-0.1-0.1-0.1-0.2c0.1,0.1,0.1,0.1,0.1,0.1c1.2-1.2,2.4-2.6,3.6-3.8c-2.9-0.9-5.2-0.9-5.8,0
	c-0.3,0.4-0.3,0.9-0.1,1.4c-0.1,0-0.2-0.1-0.2-0.1c-1,0.4-1.8,2.2-2.1,4.9c-0.3-0.3-0.6-0.4-0.9-0.4c-0.6,0.2-1.1,0.9-1.5,1.9
	c-2.3-0.7-3.8-0.9-3.6-0.7c0.1,0.3,1,0.8,2.6,1.5c-0.4,0.4-0.8,0.7-1.1,1c-0.1,0-0.1,0-0.1,0c-2.5-1.1-4.7-1.2-5.6-0.2
	c-0.1,0.1-0.1,0.2-0.1,0.4c-1,0-1.7,0.3-2,0.7c-0.7,1.1,0.6,2.8,3,4.5c-1.8,0.5-3.4,1.1-4.7,1.7c-1.6,0.3-3.4,0.9-5.5,1.7
	c-0.1,0.1-0.2,0.1-0.3,0.2c-0.6-1.1-1.3-1.6-2.1-1.5c-0.9,0.3-1.6,1.6-1.9,3.7c-0.7,0.5-1.4,1-1.9,1.5c-0.1,0.1-0.2,0.1-0.3,0.2
	c-0.1,0.1-0.2,0.1-0.3,0.2c-1.7,0.9-3.2,1.7-4.2,2.6c-0.5-0.8-1.1-1.3-1.5-1.2c-0.7,0.2-1.3,1.1-1.7,2.5c-0.2,0-0.3,0.1-0.4,0.1
	c-4.2-2.1-8.3-2.5-9-1.3c-0.2,0.2-0.2,0.5-0.2,0.7c-0.2,0.1-0.3,0.2-0.4,0.3c-0.3,0.5-0.2,1.3,0.4,2.3c-0.4,1.7-0.6,3.9-0.3,6.6
	c-4.2-2.7-8.4-4.1-9.5-2.5c-0.7,1.1,0.9,3.7,3.7,6.2c-0.3,0.1-0.6,0.2-0.8,0.4c-0.2-0.1-0.3-0.1-0.5-0.1c-0.3,0.1-0.6,0.4-0.9,0.7
	c-0.3,0.1-0.5,0.2-0.7,0.4c-1.5-1-5.2-1.1-9.4-0.1c-5.2,1.3-9.3,3.7-9,5c0.3,0.8,1.4,1.3,3.1,1.5c-0.2,0.8,0.5,1.9,1.8,3.1
	c-0.8-0.1-1.4,0-1.7,0.3c-1.1-0.1-1.8,0.1-2.1,0.5c-0.2,0.3-0.2,0.6-0.1,1c-1.6,0.7-3,1.4-4.1,2.1c-0.1,0-0.1,0-0.1,0
	c-0.2,0-0.5,0-0.7,0c2.4-1.6,3.9-3.3,3.6-4.3c-0.5-1.6-4.8-1.1-9.8,1c-0.7,0.3-1.4,0.6-2,1c-1.6-0.2-4.1,0.3-7,1.4
	c-0.1,0-0.1,0-0.1-0.1c-5.2-1.4-9.5-1.4-10,0.2c-0.2,0.7,0.9,1.8,2.7,3c-0.4,0.2-0.7,0.4-1,0.6c-3.5-1.9-6.7-2.8-7.6-1.4
	c-0.3,0.6-0.1,1.5,0.6,2.6c-0.5,0.1-0.9,0.3-1.1,0.6c-0.2,0.3-0.3,0.6-0.2,0.9c-1.5,0.4-3.2,1.1-4.9,1.9c-1.3,0.7-2.5,1.5-3.6,2.2
	c-1.9-0.1-4.7,0.3-7.5,1.2c-4.8,1.6-9,3.9-8.5,5.7c0.2,0.9,2.3,1.2,5,0.9c0.6,0.4,1.6,0.7,2.9,0.7c-0.1,0-0.1,0-0.1,0.1
	c-1.8-0.3-3.1-0.2-3.5,0.6c-0.2,0.3-0.2,0.5-0.2,0.8c0,0-0.1,0-0.1,0.1c-0.4,0.2-0.9,0.4-1.3,0.6c-1-0.7-2.1-1.3-3.3-1.9
	c-4.5-2.4-9-3.1-9.8-1.7c0,0.1-0.1,0.1-0.1,0.1c-1.9,0-3.2,0.4-3.5,1.2c-0.3,1.3,3.2,3.8,8.1,5.6c0.9,0.3,1.9,0.6,2.8,0.8
	c-0.5,0.6-0.9,1.1-1,1.6c-0.6-0.5-1.3-1.1-2.1-1.5c-4.2-2.7-8.7-3.8-9.5-2.5c-0.4,0.6-0.1,1.7,0.8,3c-1.4,0.2-2.9,0.5-4.3,1
	c-1.2,0.4-2.3,0.8-3.4,1.3c0.4-0.6,0.6-1.1,0.4-1.6c-0.5-1.6-4.8-1.1-9.8,1c-4.8,2.1-8.5,5-8,6.7C41.3,370.3,45.7,369.8,50.5,367.6z
	"/>
<linearGradient id="SVGID_2_" gradientUnits="userSpaceOnUse" x1="6066.1328" y1="-4001.7544" x2="6068.4707" y2="-3995.3318" gradientTransform="matrix(6.839100e-02 6.121173e-04 6.121173e-04 -6.839100e-02 -255.3413 49.9619)">
	<stop  offset="1.020408e-02" style="stop-color:#EDA024"/>
	<stop  offset="0.5685" style="stop-color:#FFDD8A"/>
	<stop  offset="1" style="stop-color:#FFEFC3"/>
</linearGradient>
<path fill="url(#SVGID_2_)" d="M157.6,327c-0.2,0.1-0.4,0.2-0.5,0.3c-0.1-0.2-0.1-0.3-0.2-0.4C157.1,326.9,157.3,327,157.6,327z"/>
<linearGradient id="SVGID_3_" gradientUnits="userSpaceOnUse" x1="21032.2891" y1="8519.7451" x2="21032.2891" y2="2354.793" gradientTransform="matrix(2.627010e-02 8.275545e-03 -9.766511e-03 3.100392e-02 -253.3314 2.6412)">
	<stop  offset="0" style="stop-color:#C6AC8F"/>
	<stop  offset="0.3367" style="stop-color:#AD8B71"/>
	<stop  offset="0.6942" style="stop-color:#D0B393"/>
	<stop  offset="1" style="stop-color:#C2A48B"/>
</linearGradient>
<path fill="url(#SVGID_3_)" d="M461.7,308.1L245.2,242C196.7,326.4,87.1,370.3,3,370.9c1.8,2.3,3.9,4.4,6.8,5.4l391.7,121.6
	c24.8,7.9,31,1.8,39.2-24.8l39.4-124.7C488.1,325.1,485,315.6,461.7,308.1z"/>
<linearGradient id="SVGID_4_" gradientUnits="userSpaceOnUse" x1="31958.5586" y1="6328.7808" x2="31958.5586" y2="4449.1323" gradientTransform="matrix(2.627010e-02 8.275545e-03 -9.766511e-03 3.100392e-02 -253.3314 2.6412)">
	<stop  offset="0" style="stop-color:#C6AC8F"/>
	<stop  offset="0.3367" style="stop-color:#AD8B71"/>
	<stop  offset="0.6942" style="stop-color:#D0B393"/>
	<stop  offset="1" style="stop-color:#C2A48B"/>
</linearGradient>
<path fill="url(#SVGID_4_)" d="M576,415.6c-19.1-5.9-64.4-17.2-108.2-26.1L454,433.3c41.4,18.1,84.6,34.4,103.8,40.7
	c41.9,13.2,43.3-0.5,48.4-16.6C611,441,617.9,428.8,576,415.6z"/>
<linearGradient id="SVGID_5_" gradientUnits="userSpaceOnUse" x1="2153.4194" y1="2867.1931" x2="2158.7649" y2="2881.8796" gradientTransform="matrix(0.1341 0 0 0.1341 -255.2034 -16.5178)">
	<stop  offset="1.020408e-02" style="stop-color:#EC9F23"/>
	<stop  offset="3.416789e-02" style="stop-color:#ECA226"/>
	<stop  offset="0.1771" style="stop-color:#F2B84B"/>
	<stop  offset="0.3073" style="stop-color:#F9C968"/>
	<stop  offset="0.4193" style="stop-color:#FFD478"/>
	<stop  offset="0.5" style="stop-color:#FFD87E"/>
	<stop  offset="0.5685" style="stop-color:#FFDC89"/>
	<stop  offset="0.7549" style="stop-color:#FFE5A7"/>
	<stop  offset="0.9053" style="stop-color:#FFEBBA"/>
	<stop  offset="1" style="stop-color:#FFEEC2"/>
</linearGradient>
<path fill="url(#SVGID_5_)" d="M33.3,368.7c-1.5,0.3-2.8,0.6-4,0.9c3.1-0.4,6.3-0.8,9.4-1.2C37,368.3,35.2,368.4,33.3,368.7z"/>
</svg>
