<?xml version="1.0" encoding="utf-8"?>
<!-- Generator: Adobe Illustrator 17.1.0, SVG Export Plug-In . SVG Version: 6.00 Build 0)  -->
<!DOCTYPE svg PUBLIC "-//W3C//DTD SVG 1.1//EN" "http://www.w3.org/Graphics/SVG/1.1/DTD/svg11.dtd">
<svg version="1.1" id="grain" xmlns="http://www.w3.org/2000/svg" xmlns:xlink="http://www.w3.org/1999/xlink" x="0px" y="0px"
	 viewBox="0 0 612 792" enable-background="new 0 0 612 792" xml:space="preserve">
<linearGradient id="SVGID_1_" gradientUnits="userSpaceOnUse" x1="21010.4727" y1="8461.0605" x2="21010.4727" y2="2296.1084" gradientTransform="matrix(2.627010e-02 8.275545e-03 -9.766511e-03 3.100392e-02 -253.3314 2.6412)">
	<stop  offset="0" style="stop-color:#C6AC8F"/>
	<stop  offset="0.3367" style="stop-color:#AD8B71"/>
	<stop  offset="0.6942" style="stop-color:#D0B393"/>
	<stop  offset="1" style="stop-color:#C2A48B"/>
</linearGradient>
<path fill="url(#SVGID_1_)" d="M461.7,306.1L245.2,240C196.7,324.4,87.1,368.3,3,368.9c1.8,2.3,3.9,4.4,6.8,5.4l391.7,121.6
	c24.8,7.9,31,1.8,39.2-24.8l39.4-124.7C488.1,323.1,485,313.6,461.7,306.1z"/>
<linearGradient id="SVGID_2_" gradientUnits="userSpaceOnUse" x1="31936.7402" y1="6270.0962" x2="31936.7402" y2="4390.4478" gradientTransform="matrix(2.627010e-02 8.275545e-03 -9.766511e-03 3.100392e-02 -253.3314 2.6412)">
	<stop  offset="0" style="stop-color:#C6AC8F"/>
	<stop  offset="0.3367" style="stop-color:#AD8B71"/>
	<stop  offset="0.6942" style="stop-color:#D0B393"/>
	<stop  offset="1" style="stop-color:#C2A48B"/>
</linearGradient>
<path fill="url(#SVGID_2_)" d="M576,413.6c-19.1-5.9-64.4-17.2-108.2-26.1L454,431.3c41.4,18.1,84.6,34.4,103.8,40.7
	c41.9,13.2,43.3-0.5,48.4-16.6C611,439,617.9,426.8,576,413.6z"/>
</svg>
