<?xml version="1.0" encoding="utf-8"?>
<!-- Generator: Adobe Illustrator 17.1.0, SVG Export Plug-In . SVG Version: 6.00 Build 0)  -->
<!DOCTYPE svg PUBLIC "-//W3C//DTD SVG 1.1//EN" "http://www.w3.org/Graphics/SVG/1.1/DTD/svg11.dtd">
<svg version="1.1" id="Layer_7" xmlns="http://www.w3.org/2000/svg" xmlns:xlink="http://www.w3.org/1999/xlink" x="0px" y="0px"
	 viewBox="0 0 1200 1200" enable-background="new 0 0 1200 1200" xml:space="preserve">
<linearGradient id="SVGID_1_" gradientUnits="userSpaceOnUse" x1="904.6899" y1="-120.0018" x2="918.5313" y2="-81.9729" gradientTransform="matrix(0.51 0 0 -0.51 144.55 803.47)">
	<stop  offset="4.591837e-02" style="stop-color:#EEA326"/>
	<stop  offset="0.5" style="stop-color:#FFD97E"/>
	<stop  offset="0.9439" style="stop-color:#FFF1C6"/>
</linearGradient>
<path fill="url(#SVGID_1_)" d="M610.8,859.5c0-0.1-0.1-0.1-0.1-0.1c0.1-0.1,0.3-0.1,0.4-0.2c2.1-1.1,3.5-2.7,3.4-3.4
	c-0.2-0.4-0.7-0.5-1.4-0.4c0.4-0.8,0.6-1.9,0.8-3.1c0.1-0.9,0.2-1.7,0.2-2.3c0.7-2.1,1-4.1,0.2-4.3c-0.8-0.3-2.2,1.3-3.1,3.7
	c-0.9,2.4-1.2,4.7-0.4,5c0.1,0.1,0.2,0.1,0.3,0c0.1,0.7,0.2,1.2,0.3,1.6c-0.4,0.2-0.8,0.4-1.3,0.6c-0.6,0.3-1,0.6-1.5,0.9
	c0.2-0.5,0.3-1,0.4-1.6c0.3-1.7,0.3-3.3,0.1-4.2c0-0.1,0.1-0.3,0.1-0.4c0.3-2.5-0.2-4.9-0.9-4.9c-0.7-0.1-1.7,1.8-2,4.5
	c-0.2,1.5-0.1,2.8,0.1,3.7c-0.1,0.2-0.1,0.3-0.1,0.5c-0.5,2.2-0.4,3.9,0.2,4.7c-0.1,0-0.1,0.1-0.2,0.1c-2.2,1-3.9,2.3-3.6,3.1
	c0.3,0.7,2.4,0.7,4.7-0.3C609.5,861.6,611.1,860.2,610.8,859.5z"/>
<linearGradient id="SVGID_2_" gradientUnits="userSpaceOnUse" x1="894.7475" y1="8.2233" x2="901.0186" y2="25.4529" gradientTransform="matrix(0.51 0 0 -0.51 144.55 803.47)">
	<stop  offset="4.591837e-02" style="stop-color:#EEA326"/>
	<stop  offset="0.5" style="stop-color:#FFD97E"/>
	<stop  offset="0.9439" style="stop-color:#FFF1C6"/>
</linearGradient>
<path fill="url(#SVGID_2_)" d="M601.6,799.4c0.8,0.3,1.8-1.6,2.2-4.2c0.5-2.5,0.3-4.8-0.5-5c-0.8-0.3-1.8,1.6-2.2,4.2
	C600.4,797,600.7,799.1,601.6,799.4z"/>
<linearGradient id="SVGID_3_" gradientUnits="userSpaceOnUse" x1="929.0013" y1="-81.6037" x2="935.3666" y2="-64.115" gradientTransform="matrix(0.51 0 0 -0.51 144.55 803.47)">
	<stop  offset="4.591837e-02" style="stop-color:#EEA326"/>
	<stop  offset="0.5" style="stop-color:#FFD97E"/>
	<stop  offset="0.9439" style="stop-color:#FFF1C6"/>
</linearGradient>
<path fill="url(#SVGID_3_)" d="M621.4,836.1c-0.6-0.3-2,1.7-2.7,4.1s-0.9,4.7-0.1,4.9c0.6,0.3,2-1.7,2.7-4.1
	C622,838.5,622.1,836.3,621.4,836.1z"/>
<linearGradient id="SVGID_4_" gradientUnits="userSpaceOnUse" x1="923.7389" y1="-101.9124" x2="930.151" y2="-84.2952" gradientTransform="matrix(0.51 0 0 -0.51 144.55 803.47)">
	<stop  offset="4.591837e-02" style="stop-color:#EEA326"/>
	<stop  offset="0.5" style="stop-color:#FFD97E"/>
	<stop  offset="0.9439" style="stop-color:#FFF1C6"/>
</linearGradient>
<path fill="url(#SVGID_4_)" d="M616,850.2c-0.9,2.4-1.1,4.7-0.4,5c0.8,0.3,2.2-1.3,3.1-3.7c0.9-2.2,1.1-4.5,0.4-5
	C618.3,846.2,616.9,847.8,616,850.2z"/>
<linearGradient id="SVGID_5_" gradientUnits="userSpaceOnUse" x1="920.7269" y1="-115.4777" x2="925.5629" y2="-102.1912" gradientTransform="matrix(0.51 0 0 -0.51 144.55 803.47)">
	<stop  offset="4.591837e-02" style="stop-color:#EEA326"/>
	<stop  offset="0.5" style="stop-color:#FFD97E"/>
	<stop  offset="0.9439" style="stop-color:#FFF1C6"/>
</linearGradient>
<path fill="url(#SVGID_5_)" d="M614.8,857.6c-2.2,1.2-3.7,2.8-3.4,3.4c0.4,0.9,2.3,0.4,4.6-0.8c2.2-1.3,3.6-2.9,3.4-3.4
	C619,855.9,617.1,856.5,614.8,857.6z"/>
<linearGradient id="SVGID_6_" gradientUnits="userSpaceOnUse" x1="938.4653" y1="121.5389" x2="944.8306" y2="139.0274" gradientTransform="matrix(0.51 0 0 -0.51 144.55 803.47)">
	<stop  offset="4.591837e-02" style="stop-color:#EEA326"/>
	<stop  offset="0.5" style="stop-color:#FFD97E"/>
	<stop  offset="0.9439" style="stop-color:#FFF1C6"/>
</linearGradient>
<path fill="url(#SVGID_6_)" d="M623.5,736.5c-0.7,2.3-0.9,4.7-0.1,4.9c0.6,0.3,2-1.7,2.7-4.1c0.7-2.3,0.9-4.7,0.1-4.9
	C625.5,732.2,624.2,734.1,623.5,736.5z"/>
<linearGradient id="SVGID_7_" gradientUnits="userSpaceOnUse" x1="916.7668" y1="-133.2739" x2="921.6027" y2="-119.9876" gradientTransform="matrix(0.51 0 0 -0.51 144.55 803.47)">
	<stop  offset="4.591837e-02" style="stop-color:#EEA326"/>
	<stop  offset="0.5" style="stop-color:#FFD97E"/>
	<stop  offset="0.9439" style="stop-color:#FFF1C6"/>
</linearGradient>
<path fill="url(#SVGID_7_)" d="M612.7,866.7c-2.2,1.2-3.7,2.8-3.4,3.4c0.4,0.9,2.3,0.4,4.6-0.8c2-1.1,3.7-2.7,3.4-3.4
	C617,865,615,865.5,612.7,866.7z"/>
<linearGradient id="SVGID_8_" gradientUnits="userSpaceOnUse" x1="910.708" y1="-81.0721" x2="921.3823" y2="-51.7446" gradientTransform="matrix(0.51 0 0 -0.51 144.55 803.47)">
	<stop  offset="4.591837e-02" style="stop-color:#EEA326"/>
	<stop  offset="0.5" style="stop-color:#FFD97E"/>
	<stop  offset="0.9439" style="stop-color:#FFF1C6"/>
</linearGradient>
<path fill="url(#SVGID_8_)" d="M609.2,833.8c-0.6-0.1-1,0.1-1.2,0.3c-0.2,0.7,0.9,2.1,2.8,3.2c-0.5,0.6-0.9,1.4-1.2,2.4
	c-0.9,2.4-1.1,4.7-0.4,5c0.8,0.3,2.2-1.3,3.1-3.7c0.4-0.9,0.6-1.8,0.7-2.5c1.7,0.7,3.1,0.8,3.2,0.2c0.2-0.8-1.2-2.4-3.5-3.5
	c-0.2-0.1-0.3-0.2-0.5-0.2c0.5-0.1,1-0.3,1.5-0.5c2.2-1,3.9-2.4,3.6-3.1c-0.3-0.7-2.4-0.7-4.7,0.3C611,832,609.6,833,609.2,833.8z"
	/>
<linearGradient id="SVGID_9_" gradientUnits="userSpaceOnUse" x1="923.352" y1="-51.6411" x2="928.1879" y2="-38.3547" gradientTransform="matrix(0.51 0 0 -0.51 144.55 803.47)">
	<stop  offset="4.591837e-02" style="stop-color:#EEA326"/>
	<stop  offset="0.5" style="stop-color:#FFD97E"/>
	<stop  offset="0.9439" style="stop-color:#FFF1C6"/>
</linearGradient>
<path fill="url(#SVGID_9_)" d="M617.3,827.7c2.2-1.2,3.7-2.8,3.4-3.4c-0.4-0.9-2.3-0.4-4.6,0.8c-2.2,1.2-3.7,2.8-3.4,3.4
	C613.1,829.3,615.1,828.8,617.3,827.7z"/>
<linearGradient id="SVGID_10_" gradientUnits="userSpaceOnUse" x1="926.268" y1="-65.4703" x2="930.5853" y2="-53.6086" gradientTransform="matrix(0.51 0 0 -0.51 144.55 803.47)">
	<stop  offset="4.591837e-02" style="stop-color:#EEA326"/>
	<stop  offset="0.5" style="stop-color:#FFD97E"/>
	<stop  offset="0.9439" style="stop-color:#FFF1C6"/>
</linearGradient>
<path fill="url(#SVGID_10_)" d="M617.5,832.3c-2.3,0.8-3.9,2.2-3.6,3.1c0.3,0.7,2.4,0.7,4.7-0.3c2.2-1,3.9-2.4,3.6-3.1
	C621.9,831.4,619.8,831.4,617.5,832.3z"/>
<linearGradient id="SVGID_11_" gradientUnits="userSpaceOnUse" x1="935.2408" y1="50.3775" x2="939.501" y2="62.0824" gradientTransform="matrix(0.51 0 0 -0.51 144.55 803.47)">
	<stop  offset="4.591837e-02" style="stop-color:#EEA326"/>
	<stop  offset="0.5" style="stop-color:#FFD97E"/>
	<stop  offset="0.9439" style="stop-color:#FFF1C6"/>
</linearGradient>
<path fill="url(#SVGID_11_)" d="M622.2,773.4c-2.2,0.9-4.1,2.1-3.7,3c0.3,0.6,2.3,0.5,4.6-0.3c2.2-0.9,3.9-2.2,3.7-3
	C626.6,772.5,624.5,772.6,622.2,773.4z"/>
<linearGradient id="SVGID_12_" gradientUnits="userSpaceOnUse" x1="940.8969" y1="409.5842" x2="947.2621" y2="427.0728" gradientTransform="matrix(0.51 0 0 -0.51 144.55 803.47)">
	<stop  offset="4.591837e-02" style="stop-color:#EEA326"/>
	<stop  offset="0.5" style="stop-color:#FFD97E"/>
	<stop  offset="0.9439" style="stop-color:#FFF1C6"/>
</linearGradient>
<path fill="url(#SVGID_12_)" d="M627.4,585.6c-0.6-0.3-2,1.7-2.7,4.1c-0.7,2.3-0.9,4.7-0.1,4.9c0.6,0.3,2-1.7,2.7-4.1
	C628.1,588.1,628.2,585.8,627.4,585.6z"/>
<linearGradient id="SVGID_13_" gradientUnits="userSpaceOnUse" x1="943.2692" y1="442.1077" x2="950.7357" y2="462.622" gradientTransform="matrix(0.51 0 0 -0.51 144.55 803.47)">
	<stop  offset="4.591837e-02" style="stop-color:#EEA326"/>
	<stop  offset="0.5" style="stop-color:#FFD97E"/>
	<stop  offset="0.9439" style="stop-color:#FFF1C6"/>
</linearGradient>
<path fill="url(#SVGID_13_)" d="M632.2,568.7c-0.4-0.9-2.3-0.4-4.5,0.8c-0.2-0.7-0.5-1.1-0.8-1.1c-0.6-0.1-1.2,1.1-1.7,2.8
	c-0.8,0.8-1.2,1.4-1,1.8c0.1,0.3,0.3,0.4,0.7,0.4c-0.2,2.4,0.2,4.4,0.9,4.5c0.7,0.1,1.7-2,2-4.5c0.1-0.3,0.1-0.5,0.1-0.7
	c0.3-0.2,0.6-0.3,0.9-0.5C631.1,570.9,632.5,569.3,632.2,568.7z"/>
<linearGradient id="SVGID_14_" gradientUnits="userSpaceOnUse" x1="928.3963" y1="4.1167" x2="936.2018" y2="25.5623" gradientTransform="matrix(0.51 0 0 -0.51 144.55 803.47)">
	<stop  offset="4.591837e-02" style="stop-color:#EEA326"/>
	<stop  offset="0.5" style="stop-color:#FFD97E"/>
	<stop  offset="0.9439" style="stop-color:#FFF1C6"/>
</linearGradient>
<path fill="url(#SVGID_14_)" d="M621.4,790.2c-0.6-0.3-2,1.7-2.7,4.1c-0.3,0.9-0.5,1.8-0.5,2.6c-1.9,1.2-3.2,2.6-2.8,3.2
	c0.3,0.6,2.4,0.3,4.6-1c2.3-1.2,3.8-2.6,3.2-3.5c-0.2-0.4-0.9-0.4-2-0.2c0.1-0.2,0.1-0.3,0.2-0.5C622,792.7,622.2,790.4,621.4,790.2
	z"/>
<linearGradient id="SVGID_15_" gradientUnits="userSpaceOnUse" x1="892.2888" y1="231.2622" x2="898.6532" y2="248.7482" gradientTransform="matrix(0.51 0 0 -0.51 144.55 803.47)">
	<stop  offset="4.591837e-02" style="stop-color:#EEA326"/>
	<stop  offset="0.5" style="stop-color:#FFD97E"/>
	<stop  offset="0.9439" style="stop-color:#FFF1C6"/>
</linearGradient>
<path fill="url(#SVGID_15_)" d="M599.9,685.5c0.6,0.3,2-1.7,2.7-4.1c0.9-2.4,0.9-4.6,0.1-4.9c-0.6-0.3-2,1.7-2.7,4.1
	C599.2,683,599.1,685.3,599.9,685.5z"/>
<linearGradient id="SVGID_16_" gradientUnits="userSpaceOnUse" x1="933.657" y1="540.3483" x2="937.0475" y2="549.6635" gradientTransform="matrix(0.51 0 0 -0.51 144.55 803.47)">
	<stop  offset="4.591837e-02" style="stop-color:#EEA326"/>
	<stop  offset="0.5" style="stop-color:#FFD97E"/>
	<stop  offset="0.9439" style="stop-color:#FFF1C6"/>
</linearGradient>
<path fill="url(#SVGID_16_)" d="M621.2,528c0.8,0.3,1.8-1.6,2.2-4.2c0.2-0.7-1.1-0.3-3,0.7C620.3,526.4,620.6,528,621.2,528z"/>
<linearGradient id="SVGID_17_" gradientUnits="userSpaceOnUse" x1="918.1333" y1="804.7469" x2="924.4942" y2="822.2234" gradientTransform="matrix(0.51 0 0 -0.51 144.55 803.47)">
	<stop  offset="4.591837e-02" style="stop-color:#EEA326"/>
	<stop  offset="0.5" style="stop-color:#FFD97E"/>
	<stop  offset="0.9439" style="stop-color:#FFF1C6"/>
</linearGradient>
<path fill="url(#SVGID_17_)" d="M613.2,393c0.7,0.3,1.9-1.5,2.7-3.9c0.7-2.5,0.7-4.7-0.1-5c-0.7-0.3-1.9,1.5-2.7,3.9
	C612.3,390.4,612.3,392.6,613.2,393z"/>
<linearGradient id="SVGID_18_" gradientUnits="userSpaceOnUse" x1="897.2069" y1="533.7836" x2="903.602" y2="551.3539" gradientTransform="matrix(0.51 0 0 -0.51 144.55 803.47)">
	<stop  offset="4.591837e-02" style="stop-color:#EEA326"/>
	<stop  offset="0.5" style="stop-color:#FFD97E"/>
	<stop  offset="0.9439" style="stop-color:#FFF1C6"/>
</linearGradient>
<path fill="url(#SVGID_18_)" d="M605,527.2c1.1-2.3,1.3-4.6,0.5-4.9c-0.6-0.3-2.1,1.5-3.1,3.8c-1,2.3-1.3,4.6-0.5,4.9
	C602.5,531.3,604.1,529.6,605,527.2z"/>
<linearGradient id="SVGID_19_" gradientUnits="userSpaceOnUse" x1="944.8246" y1="942.528" x2="951.2197" y2="960.0984" gradientTransform="matrix(0.51 0 0 -0.51 144.55 803.47)">
	<stop  offset="4.591837e-02" style="stop-color:#EEA326"/>
	<stop  offset="0.5" style="stop-color:#FFD97E"/>
	<stop  offset="0.9439" style="stop-color:#FFF1C6"/>
</linearGradient>
<path fill="url(#SVGID_19_)" d="M626.3,322.6c0.6,0.3,2.1-1.5,3.1-3.8c1.1-2.3,1.3-4.6,0.5-4.9c-0.6-0.3-2.1,1.5-3.1,3.8
	C625.8,319.9,625.5,322.2,626.3,322.6z"/>
<linearGradient id="SVGID_20_" gradientUnits="userSpaceOnUse" x1="761.1248" y1="-21.8976" x2="1133.3398" y2="1000.7548" gradientTransform="matrix(0.51 0 0 -0.51 144.55 803.47)">
	<stop  offset="4.591837e-02" style="stop-color:#EEA326"/>
	<stop  offset="0.5" style="stop-color:#FFD97E"/>
	<stop  offset="0.9439" style="stop-color:#FFF1C6"/>
</linearGradient>
<path fill="url(#SVGID_20_)" d="M675,295c1-6-2.5-21.6-2.4-21.8c-6.5,13.1-19.4,7.1-23.6,13.8c1.1,2.9,3.2,4.7,6.3,5.4
	c-2.9,11.6-21.2,13.8-17.7,12.9c-2.2,0.6-14.2,26.9-17,30.8c0,20.2-6.5,42.6-6.5,62.5c2.6-2.3,4.1-2,4.7,0.7c1.6-2.1,2.1-4.4,1.6-7
	c7.8,4.1-8.3,9.4-8,9.2c0.6,2,2.1,2.7,4.5,2.1c-3.3,1.1-5.1,3.1-5.3,6.1c-0.3,0,4.1,27.7,2.1,37.4c0.7-0.2-4.5,48-13.9,43.9
	c11,3.9,10.5,24,6.1,44c-1.8,8.3,6.6,39.8-7.6,38.8c11,2.8,6.3-2.3,11.2,7.5c-0.2,0.3-8.5,19.5-6.5,27.3c2.2-0.6,4.2-1.5,6.2-2.7
	c-1.4,2.2-6.2,15.7-0.9,7.6c0.7,3.1-14,22.8-1.1,22.8c0-0.1-4.4,12.3-0.8,10.3c2.6,18.1-12.7,74.1-6.5,83.7
	c-0.5-1.2,10.7,1.6,7.1,3.3c0.1-1.9,0.3-3.8,0.6-5.7c-0.4,2.7-1.9,21.1-0.3,18c-2.1,0.5-2.8,1.7-2.2,3.4c-1.5,0.6-3.6-6.9-5-4.5
	c-4.1,7.1,5.2,13.6,4.9,15.7c-2.4-0.4-4.5,0.3-6.3,2c0,6.9,1.8,8.6,5.9,14.3c-6.9,0,0.8,18.3,5.4,21.6c-3.1,1.1-4.5,1.4-9,1.9
	c0.4,0,3.1,27,6.2,19.6c0,0-0.1,11.1-2.6,10.7c11.5,1.9,14.8-21.6,10.2-19.2c2.6-3,5.4-6,8.2-8.9c-0.1-0.6-7.6-1-8.6-0.6
	c1.9-11.6,8.9-24.3,7.3-30.1c-2.4-0.6-4.7-0.2-6.7,1.3c-0.2-5.2,8.4-5.9,11.8-9.7c2.6-2.9-13.5,1.5-10.6,3.3c4-3.5,7.4-7.6,10-12.3
	c-1.6-2.8-3.3-2.2-5.2,1.7c-2.6-5.5,7.6-9.9,6.4-12.4c-4,0.4-7.6,2-10.7,4.8c3.5-7.2,9.8-23.8,2.8-22.7c5.6-2.1,12.6-12.5,10.8-15.9
	c-4,1-5.4-0.3-4-3.8c-1.5,1.4-2.7,3-3.7,4.8c0.4-1.4,4.5-11.4,4.5-12.3c0.1-1.8,1.5-27.3-1.4-29.1c3.1-1.2,5.2-16.2,2.3-17
	c-2.3-1-2.1,7.8-5.7,5.7c-0.2-6.4,11.5-20.7,11.1-23.3c-0.6-4.5-13.5-22.8-5.2-37.2c1.8-3.2-9.7-61.2-13-67.4
	c0.6,0.2,5.3-10.8,5.5-10.8c-1.5,1.2-2.5,2.7-3.2,4.5c0.3-1.7,1.7-6.7-2-3c1.3,2,22.8-45.8,12-46.6c5.1-2.6,3.5-69.3,13.7-87.2
	c1.3-2.3,10.4-49.1,9-53.6c0.1,0.4,20.6-29.5,24.1-31C673.2,303.4,676.1,296.1,675,295C675.4,292.6,676,296,675,295z"/>
<linearGradient id="SVGID_21_" gradientUnits="userSpaceOnUse" x1="971.2058" y1="975.8398" x2="977.5662" y2="993.3148" gradientTransform="matrix(0.51 0 0 -0.51 144.55 803.47)">
	<stop  offset="4.591837e-02" style="stop-color:#EEA326"/>
	<stop  offset="0.5" style="stop-color:#FFD97E"/>
	<stop  offset="0.9439" style="stop-color:#FFF1C6"/>
</linearGradient>
<path fill="url(#SVGID_21_)" d="M639.3,305.4c0.7,0.3,2.3-1.2,3.4-3.5c1.3-2.3,1.7-4.6,0.9-4.9c-0.7-0.3-2.3,1.2-3.4,3.5
	C639.1,302.8,638.6,305.1,639.3,305.4z"/>
</svg>
