<?xml version="1.0" encoding="utf-8"?>
<!-- Generator: Adobe Illustrator 17.1.0, SVG Export Plug-In . SVG Version: 6.00 Build 0)  -->
<!DOCTYPE svg PUBLIC "-//W3C//DTD SVG 1.1//EN" "http://www.w3.org/Graphics/SVG/1.1/DTD/svg11.dtd">
<svg version="1.1" id="Layer_3_copy_2" xmlns="http://www.w3.org/2000/svg" xmlns:xlink="http://www.w3.org/1999/xlink" x="0px"
	 y="0px" viewBox="0 0 1200 1200" enable-background="new 0 0 1200 1200" xml:space="preserve">
<linearGradient id="SVGID_1_" gradientUnits="userSpaceOnUse" x1="931.3557" y1="629.3441" x2="937.6217" y2="646.5601" gradientTransform="matrix(0.51 0 0 -0.51 144.55 803.47)">
	<stop  offset="4.591837e-02" style="stop-color:#EEA326"/>
	<stop  offset="0.5" style="stop-color:#FFD97E"/>
	<stop  offset="0.9439" style="stop-color:#FFF1C6"/>
</linearGradient>
<path fill="url(#SVGID_1_)" d="M622,473.4c-0.8-0.3-1.8,1.6-2.2,4.2c-0.5,2.5-0.3,4.6,0.5,5c0.8,0.3,1.8-1.6,2.2-4.2
	C623,475.9,622.8,473.6,622,473.4z"/>
<linearGradient id="SVGID_2_" gradientUnits="userSpaceOnUse" x1="917.9514" y1="807.395" x2="924.3123" y2="824.8714" gradientTransform="matrix(0.51 0 0 -0.51 144.55 803.47)">
	<stop  offset="4.591837e-02" style="stop-color:#EEA326"/>
	<stop  offset="0.5" style="stop-color:#FFD97E"/>
	<stop  offset="0.9439" style="stop-color:#FFF1C6"/>
</linearGradient>
<path fill="url(#SVGID_2_)" d="M613.1,391.6c0.7,0.3,1.9-1.5,2.7-3.9c0.7-2.6,0.7-4.7-0.1-5c-0.7-0.3-1.9,1.5-2.7,3.9
	C612.2,389.1,612.2,391.3,613.1,391.6z"/>
<linearGradient id="SVGID_3_" gradientUnits="userSpaceOnUse" x1="923.6588" y1="850.0217" x2="930.0538" y2="867.5921" gradientTransform="matrix(0.51 0 0 -0.51 144.55 803.47)">
	<stop  offset="4.591837e-02" style="stop-color:#EEA326"/>
	<stop  offset="0.5" style="stop-color:#FFD97E"/>
	<stop  offset="0.9439" style="stop-color:#FFF1C6"/>
</linearGradient>
<path fill="url(#SVGID_3_)" d="M615.5,369.8c0.6,0.3,2.1-1.5,3.1-3.8c1.1-2.3,1.3-4.6,0.5-4.9c-0.6-0.3-2.1,1.5-3.1,3.8
	C615,367.2,614.7,369.4,615.5,369.8z"/>
<linearGradient id="SVGID_4_" gradientUnits="userSpaceOnUse" x1="944.6426" y1="945.1761" x2="951.0377" y2="962.7464" gradientTransform="matrix(0.51 0 0 -0.51 144.55 803.47)">
	<stop  offset="4.591837e-02" style="stop-color:#EEA326"/>
	<stop  offset="0.5" style="stop-color:#FFD97E"/>
	<stop  offset="0.9439" style="stop-color:#FFF1C6"/>
</linearGradient>
<path fill="url(#SVGID_4_)" d="M626.2,321.2c0.6,0.3,2.1-1.5,3.1-3.8c1.1-2.3,1.3-4.6,0.5-4.9c-0.6-0.3-2.1,1.5-3.1,3.8
	C625.7,318.6,625.4,320.9,626.2,321.2z"/>
<linearGradient id="SVGID_5_" gradientUnits="userSpaceOnUse" x1="895.112" y1="664.4384" x2="1032.5487" y2="1042.0426" gradientTransform="matrix(0.51 0 0 -0.51 144.55 803.47)">
	<stop  offset="4.591837e-02" style="stop-color:#EEA326"/>
	<stop  offset="0.5" style="stop-color:#FFD97E"/>
	<stop  offset="0.9439" style="stop-color:#FFF1C6"/>
</linearGradient>
<path fill="url(#SVGID_5_)" d="M674.9,293.7c1-6-2.5-21.6-2.4-21.8c-6.5,13.1-19.4,7.1-23.6,13.8c1.1,2.9,3.2,4.7,6.3,5.4
	c-2.9,11.6-21.2,13.8-17.7,12.9c-16.1,4.1-25.5,84.6-23.6,94.3c2.5-3.2,4.1-3.3,4.8-0.3c1.6-2.1,2.1-4.4,1.6-7
	c7.8,4.1-8.3,9.4-8,9.2c0.6,2,2.1,2.7,4.5,2.1c-3.3,1.1-5.1,3.1-5.3,6.1c-5.8-0.8,16,46.9,10.5,59.9c2.1-4.9,15.5-34.2,17.2-33.7
	c-9.3-2.9,7.3-77.2,6.2-86.7c6,4,16.8-41.5,29.4-46.9C673.5,301.7,675.9,294.7,674.9,293.7C675.3,291.3,675.9,294.6,674.9,293.7z"/>
<linearGradient id="SVGID_6_" gradientUnits="userSpaceOnUse" x1="935.6954" y1="819.3336" x2="936.0846" y2="820.403" gradientTransform="matrix(0.51 0 0 -0.51 144.55 803.47)">
	<stop  offset="4.591837e-02" style="stop-color:#EEA326"/>
	<stop  offset="0.5" style="stop-color:#FFD97E"/>
	<stop  offset="0.9439" style="stop-color:#FFF1C6"/>
</linearGradient>
<path fill="url(#SVGID_6_)" d="M621.7,385L621.7,385c0.1,0.1,0.3,0.3,0.4,0.4c-0.2,0.1-0.3,0.2-0.5,0.2
	C621.7,385.4,621.7,385.2,621.7,385z"/>
<linearGradient id="SVGID_7_" gradientUnits="userSpaceOnUse" x1="996.9208" y1="920.7047" x2="997.749" y2="922.98" gradientTransform="matrix(0.51 0 0 -0.51 144.55 803.47)">
	<stop  offset="4.591837e-02" style="stop-color:#EEA326"/>
	<stop  offset="0.5" style="stop-color:#FFD97E"/>
	<stop  offset="0.9439" style="stop-color:#FFF1C6"/>
</linearGradient>
<path fill="url(#SVGID_7_)" d="M653,333.9c0-0.3,0-0.5,0-0.8c0.2-0.1,0.4-0.2,0.6-0.4C653.5,333.2,653.3,333.5,653,333.9z"/>
<linearGradient id="SVGID_8_" gradientUnits="userSpaceOnUse" x1="933.3155" y1="850.5385" x2="933.5875" y2="851.2858" gradientTransform="matrix(0.51 0 0 -0.51 144.55 803.47)">
	<stop  offset="4.591837e-02" style="stop-color:#EEA326"/>
	<stop  offset="0.5" style="stop-color:#FFD97E"/>
	<stop  offset="0.9439" style="stop-color:#FFF1C6"/>
</linearGradient>
<path fill="url(#SVGID_8_)" d="M620.7,369.3L620.7,369.3c0.1,0.1,0.1,0.2,0.1,0.3l-0.1,0.1c-0.1-0.1-0.2-0.2-0.2-0.2
	C620.5,369.4,620.6,369.4,620.7,369.3z"/>
<linearGradient id="SVGID_9_" gradientUnits="userSpaceOnUse" x1="927.3659" y1="719.6773" x2="928.5012" y2="722.7964" gradientTransform="matrix(0.51 0 0 -0.51 144.55 803.47)">
	<stop  offset="4.591837e-02" style="stop-color:#EEA326"/>
	<stop  offset="0.5" style="stop-color:#FFD97E"/>
	<stop  offset="0.9439" style="stop-color:#FFF1C6"/>
</linearGradient>
<path fill="url(#SVGID_9_)" d="M617.3,436.4c0.2-0.2,0.4-0.7,0.5-1.2c0.1-0.1,0.2-0.2,0.2-0.3c-0.1,0.4-0.1,0.7-0.1,1
	C617.7,436,617.5,436.2,617.3,436.4z"/>
<linearGradient id="SVGID_10_" gradientUnits="userSpaceOnUse" x1="984.6655" y1="897.1384" x2="985.4688" y2="899.3456" gradientTransform="matrix(0.51 0 0 -0.51 144.55 803.47)">
	<stop  offset="4.591837e-02" style="stop-color:#EEA326"/>
	<stop  offset="0.5" style="stop-color:#FFD97E"/>
	<stop  offset="0.9439" style="stop-color:#FFF1C6"/>
</linearGradient>
<path fill="url(#SVGID_10_)" d="M647.1,346c-0.3-0.2-0.6-0.4-0.9-0.5c0,0,0.1,0,0.1-0.1c0.3-0.2,0.6-0.4,0.9-0.6
	c0,0.5,0.1,1,0.2,1.3C647.3,346.1,647.2,346,647.1,346z"/>
<linearGradient id="SVGID_11_" gradientUnits="userSpaceOnUse" x1="971.0239" y1="978.4879" x2="977.3843" y2="995.9628" gradientTransform="matrix(0.51 0 0 -0.51 144.55 803.47)">
	<stop  offset="4.591837e-02" style="stop-color:#EEA326"/>
	<stop  offset="0.5" style="stop-color:#FFD97E"/>
	<stop  offset="0.9439" style="stop-color:#FFF1C6"/>
</linearGradient>
<path fill="url(#SVGID_11_)" d="M639.2,304.1c0.7,0.3,2.3-1.2,3.4-3.5c1.3-2.3,1.7-4.6,0.9-4.9c-0.7-0.3-2.3,1.2-3.4,3.5
	C639,301.5,638.5,303.8,639.2,304.1z"/>
<linearGradient id="SVGID_12_" gradientUnits="userSpaceOnUse" x1="121.8637" y1="482.8031" x2="122.175" y2="483.6585" gradientTransform="matrix(0.51 0 0 -0.51 144.55 803.47)">
	<stop  offset="4.591837e-02" style="stop-color:#EEA326"/>
	<stop  offset="0.5" style="stop-color:#FFD97E"/>
	<stop  offset="0.9439" style="stop-color:#FFF1C6"/>
</linearGradient>
<path fill="url(#SVGID_12_)" d="M206.6,556.7c0.1,0.1,0.2,0.2,0.3,0.3c0,0.1,0,0.2,0,0.3c-0.2-0.1-0.3-0.1-0.4-0.1
	C206.6,557,206.6,556.9,206.6,556.7z"/>
<linearGradient id="SVGID_13_" gradientUnits="userSpaceOnUse" x1="1079.9365" y1="608.0013" x2="1079.9365" y2="608.0013" gradientTransform="matrix(0.51 0 0 -0.51 144.55 803.47)">
	<stop  offset="4.591837e-02" style="stop-color:#EEA326"/>
	<stop  offset="0.5" style="stop-color:#FFD97E"/>
	<stop  offset="0.9439" style="stop-color:#FFF1C6"/>
</linearGradient>
<path fill="url(#SVGID_13_)" d="M695.3,493.4L695.3,493.4L695.3,493.4L695.3,493.4z"/>
</svg>
