<?xml version="1.0" encoding="utf-8"?>
<!-- Generator: Adobe Illustrator 17.1.0, SVG Export Plug-In . SVG Version: 6.00 Build 0)  -->
<!DOCTYPE svg PUBLIC "-//W3C//DTD SVG 1.1//EN" "http://www.w3.org/Graphics/SVG/1.1/DTD/svg11.dtd">
<svg version="1.1" id="Layer_11" xmlns="http://www.w3.org/2000/svg" xmlns:xlink="http://www.w3.org/1999/xlink" x="0px" y="0px"
	 viewBox="0 0 1200 1200" enable-background="new 0 0 1200 1200" xml:space="preserve">
<linearGradient id="SVGID_1_" gradientUnits="userSpaceOnUse" x1="886.1633" y1="-114.0085" x2="891.8206" y2="-98.4654" gradientTransform="matrix(0.51 0 0 -0.51 144.55 803.47)">
	<stop  offset="4.591837e-02" style="stop-color:#EEA326"/>
	<stop  offset="0.5" style="stop-color:#FFD97E"/>
	<stop  offset="0.9439" style="stop-color:#FFF1C6"/>
</linearGradient>
<path fill="url(#SVGID_1_)" d="M598.9,858.7c1.9-1.7,3.1-3.5,2.6-4.2c-0.5-0.7-2.5,0.2-4.4,1.9c-1.8,1.7-3,3.5-2.6,4.2
	C595,861.3,597,860.4,598.9,858.7z"/>
<linearGradient id="SVGID_2_" gradientUnits="userSpaceOnUse" x1="927.4276" y1="-52.2922" x2="937.49" y2="-24.646" gradientTransform="matrix(0.51 0 0 -0.51 144.55 803.47)">
	<stop  offset="4.591837e-02" style="stop-color:#EEA326"/>
	<stop  offset="0.5" style="stop-color:#FFD97E"/>
	<stop  offset="0.9439" style="stop-color:#FFF1C6"/>
</linearGradient>
<path fill="url(#SVGID_2_)" d="M623.6,819c-2.2,1.2-3.7,2.8-3.4,3.4c0.1,0.2,0.3,0.4,0.6,0.4c-0.3,0.2-0.6,0.3-0.8,0.4
	c-0.6-0.6-2.4-0.1-4.4,1c-2.2,1.2-3.7,2.8-3.4,3.4c0.4,0.9,2.3,0.4,4.6-0.8c0.6-0.3,1.2-0.7,1.6-1c0.8,0.2,2.4,0,4.2-0.6
	c2.2-0.9,3.9-2.2,3.7-3c-0.2-0.4-0.8-0.5-1.8-0.4c0.2-0.1,0.3-0.2,0.4-0.2c2.1-1.2,3.7-2.8,3.4-3.4
	C627.8,817.3,625.9,817.9,623.6,819z"/>
<linearGradient id="SVGID_3_" gradientUnits="userSpaceOnUse" x1="903.3962" y1="-118.425" x2="917.2376" y2="-80.3962" gradientTransform="matrix(0.51 0 0 -0.51 144.55 803.47)">
	<stop  offset="4.591837e-02" style="stop-color:#EEA326"/>
	<stop  offset="0.5" style="stop-color:#FFD97E"/>
	<stop  offset="0.9439" style="stop-color:#FFF1C6"/>
</linearGradient>
<path fill="url(#SVGID_3_)" d="M610.1,858.7c0-0.1-0.1-0.1-0.1-0.1c0.1-0.1,0.3-0.1,0.4-0.2c2.1-1.1,3.5-2.7,3.4-3.4
	c-0.2-0.4-0.7-0.5-1.4-0.4c0.4-0.8,0.6-1.9,0.8-3.1c0.1-0.9,0.2-1.7,0.2-2.3c0.7-2.1,1-4.1,0.2-4.3c-0.8-0.3-2.2,1.3-3.1,3.7
	c-0.9,2.4-1.2,4.7-0.4,5c0.1,0.1,0.2,0.1,0.3,0c0.1,0.7,0.2,1.2,0.3,1.6c-0.4,0.2-0.8,0.4-1.3,0.6c-0.6,0.3-1,0.6-1.5,0.9
	c0.2-0.5,0.3-1,0.4-1.6c0.3-1.7,0.3-3.3,0.1-4.2c0-0.1,0.1-0.3,0.1-0.4c0.3-2.5-0.2-4.9-0.9-4.9c-0.7-0.1-1.7,1.8-2,4.5
	c-0.2,1.5-0.1,2.8,0.1,3.7c-0.1,0.2-0.1,0.3-0.1,0.5c-0.5,2.2-0.4,3.9,0.2,4.7c-0.1,0-0.1,0.1-0.2,0.1c-2.2,1-3.9,2.3-3.6,3.1
	c0.3,0.7,2.4,0.7,4.7-0.3C608.8,860.8,610.5,859.4,610.1,858.7z"/>
<linearGradient id="SVGID_4_" gradientUnits="userSpaceOnUse" x1="893.5225" y1="9.775" x2="899.7936" y2="27.0045" gradientTransform="matrix(0.51 0 0 -0.51 144.55 803.47)">
	<stop  offset="4.591837e-02" style="stop-color:#EEA326"/>
	<stop  offset="0.5" style="stop-color:#FFD97E"/>
	<stop  offset="0.9439" style="stop-color:#FFF1C6"/>
</linearGradient>
<path fill="url(#SVGID_4_)" d="M603.3,794.4c0.5-2.6,0.3-4.8-0.5-5c-0.8-0.3-1.8,1.6-2.2,4.2c-0.7,2.6-0.5,4.8,0.5,5
	C601.8,798.9,602.8,797,603.3,794.4z"/>
<linearGradient id="SVGID_5_" gradientUnits="userSpaceOnUse" x1="927.7076" y1="-80.027" x2="934.0729" y2="-62.5384" gradientTransform="matrix(0.51 0 0 -0.51 144.55 803.47)">
	<stop  offset="4.591837e-02" style="stop-color:#EEA326"/>
	<stop  offset="0.5" style="stop-color:#FFD97E"/>
	<stop  offset="0.9439" style="stop-color:#FFF1C6"/>
</linearGradient>
<path fill="url(#SVGID_5_)" d="M620.7,835.3c-0.6-0.3-2,1.7-2.7,4.1c-0.7,2.4-0.9,4.7-0.1,4.9c0.6,0.3,2-1.7,2.7-4.1
	C621.3,837.7,621.5,835.5,620.7,835.3z"/>
<linearGradient id="SVGID_6_" gradientUnits="userSpaceOnUse" x1="922.4452" y1="-100.3356" x2="928.8573" y2="-82.7185" gradientTransform="matrix(0.51 0 0 -0.51 144.55 803.47)">
	<stop  offset="4.591837e-02" style="stop-color:#EEA326"/>
	<stop  offset="0.5" style="stop-color:#FFD97E"/>
	<stop  offset="0.9439" style="stop-color:#FFF1C6"/>
</linearGradient>
<path fill="url(#SVGID_6_)" d="M615.3,849.4c-0.9,2.4-1.1,4.7-0.4,5c0.8,0.3,2.2-1.3,3.1-3.7c0.9-2.2,1.1-4.5,0.4-5
	C617.6,845.4,616.2,847,615.3,849.4z"/>
<linearGradient id="SVGID_7_" gradientUnits="userSpaceOnUse" x1="919.4332" y1="-113.901" x2="924.2691" y2="-100.6145" gradientTransform="matrix(0.51 0 0 -0.51 144.55 803.47)">
	<stop  offset="4.591837e-02" style="stop-color:#EEA326"/>
	<stop  offset="0.5" style="stop-color:#FFD97E"/>
	<stop  offset="0.9439" style="stop-color:#FFF1C6"/>
</linearGradient>
<path fill="url(#SVGID_7_)" d="M614.1,856.8c-2.2,1.2-3.7,2.8-3.4,3.4c0.4,0.9,2.3,0.4,4.6-0.8c2.2-1.3,3.6-2.9,3.4-3.4
	C618.4,855.1,616.4,855.7,614.1,856.8z"/>
<linearGradient id="SVGID_8_" gradientUnits="userSpaceOnUse" x1="915.4731" y1="-131.6973" x2="920.309" y2="-118.4109" gradientTransform="matrix(0.51 0 0 -0.51 144.55 803.47)">
	<stop  offset="4.591837e-02" style="stop-color:#EEA326"/>
	<stop  offset="0.5" style="stop-color:#FFD97E"/>
	<stop  offset="0.9439" style="stop-color:#FFF1C6"/>
</linearGradient>
<path fill="url(#SVGID_8_)" d="M612.1,865.9c-2.2,1.2-3.7,2.8-3.4,3.4c0.4,0.9,2.3,0.4,4.6-0.8c2-1.1,3.7-2.7,3.4-3.4
	C616.3,864.2,614.4,864.7,612.1,865.9z"/>
<linearGradient id="SVGID_9_" gradientUnits="userSpaceOnUse" x1="882.0457" y1="-78.3935" x2="888.3108" y2="-61.1803" gradientTransform="matrix(0.51 0 0 -0.51 144.55 803.47)">
	<stop  offset="4.591837e-02" style="stop-color:#EEA326"/>
	<stop  offset="0.5" style="stop-color:#FFD97E"/>
	<stop  offset="0.9439" style="stop-color:#FFF1C6"/>
</linearGradient>
<path fill="url(#SVGID_9_)" d="M595.2,843.6c0.8,0.3,1.8-1.6,2.2-4.2c0.5-2.5,0.3-4.7-0.5-5c-0.8-0.3-1.8,1.6-2.2,4.2
	C594.1,841.1,594.3,843.3,595.2,843.6z"/>
<linearGradient id="SVGID_10_" gradientUnits="userSpaceOnUse" x1="940.2731" y1="197.3783" x2="946.6384" y2="214.8668" gradientTransform="matrix(0.51 0 0 -0.51 144.55 803.47)">
	<stop  offset="4.591837e-02" style="stop-color:#EEA326"/>
	<stop  offset="0.5" style="stop-color:#FFD97E"/>
	<stop  offset="0.9439" style="stop-color:#FFF1C6"/>
</linearGradient>
<path fill="url(#SVGID_10_)" d="M624.4,702.7c0.6,0.3,2-1.7,2.7-4.1c0.7-2.4,0.9-4.7,0.1-4.9c-0.6-0.3-2,1.7-2.7,4.1
	C623.7,700.2,623.6,702.5,624.4,702.7z"/>
<linearGradient id="SVGID_11_" gradientUnits="userSpaceOnUse" x1="909.4142" y1="-79.4955" x2="920.0886" y2="-50.1679" gradientTransform="matrix(0.51 0 0 -0.51 144.55 803.47)">
	<stop  offset="4.591837e-02" style="stop-color:#EEA326"/>
	<stop  offset="0.5" style="stop-color:#FFD97E"/>
	<stop  offset="0.9439" style="stop-color:#FFF1C6"/>
</linearGradient>
<path fill="url(#SVGID_11_)" d="M616.7,830.3c-0.3-0.7-2.4-0.7-4.7,0.3c-1.7,0.8-3,1.7-3.5,2.4c-0.6-0.1-1,0.1-1.2,0.3
	c-0.2,0.7,0.9,2.1,2.8,3.2c-0.5,0.6-0.9,1.4-1.2,2.4c-0.9,2.4-1.1,4.7-0.4,5c0.8,0.3,2.2-1.3,3.1-3.7c0.4-0.9,0.6-1.8,0.7-2.6
	c1.7,0.7,3.1,0.8,3.2,0.2c0.2-0.8-1.2-2.4-3.5-3.5c-0.2-0.1-0.3-0.2-0.5-0.2c0.5-0.1,1-0.3,1.5-0.5
	C615.4,832.4,617,830.9,616.7,830.3z"/>
<linearGradient id="SVGID_12_" gradientUnits="userSpaceOnUse" x1="924.9743" y1="-63.8936" x2="929.2916" y2="-52.0319" gradientTransform="matrix(0.51 0 0 -0.51 144.55 803.47)">
	<stop  offset="4.591837e-02" style="stop-color:#EEA326"/>
	<stop  offset="0.5" style="stop-color:#FFD97E"/>
	<stop  offset="0.9439" style="stop-color:#FFF1C6"/>
</linearGradient>
<path fill="url(#SVGID_12_)" d="M616.9,831.5c-2.3,0.8-3.9,2.2-3.6,3.1c0.3,0.7,2.4,0.7,4.7-0.3c2.2-1,3.9-2.4,3.6-3.1
	C621.3,830.6,619.2,830.6,616.9,831.5z"/>
<linearGradient id="SVGID_13_" gradientUnits="userSpaceOnUse" x1="948.7205" y1="283.0813" x2="955.0858" y2="300.5699" gradientTransform="matrix(0.51 0 0 -0.51 144.55 803.47)">
	<stop  offset="4.591837e-02" style="stop-color:#EEA326"/>
	<stop  offset="0.5" style="stop-color:#FFD97E"/>
	<stop  offset="0.9439" style="stop-color:#FFF1C6"/>
</linearGradient>
<path fill="url(#SVGID_13_)" d="M631.4,655c0.7-2.3,0.9-4.7,0.1-4.9c-0.6-0.3-2,1.7-2.7,4.1c-0.7,2.3-0.9,4.7-0.1,4.9
	C629.3,659.3,630.7,657.3,631.4,655z"/>
<linearGradient id="SVGID_14_" gradientUnits="userSpaceOnUse" x1="940.7158" y1="217.1542" x2="947.0958" y2="234.6832" gradientTransform="matrix(0.51 0 0 -0.51 144.55 803.47)">
	<stop  offset="4.591837e-02" style="stop-color:#EEA326"/>
	<stop  offset="0.5" style="stop-color:#FFD97E"/>
	<stop  offset="0.9439" style="stop-color:#FFF1C6"/>
</linearGradient>
<path fill="url(#SVGID_14_)" d="M627.3,688.6c0.9-2.7,0.9-4.9,0.1-4.9c-0.6-0.3-2,1.7-2.7,4.1c-0.7,2.4-0.9,4.7-0.1,4.9
	C625.2,692.9,626.6,691,627.3,688.6z"/>
<linearGradient id="SVGID_15_" gradientUnits="userSpaceOnUse" x1="952.5961" y1="212.6908" x2="956.9133" y2="224.5522" gradientTransform="matrix(0.51 0 0 -0.51 144.55 803.47)">
	<stop  offset="4.591837e-02" style="stop-color:#EEA326"/>
	<stop  offset="0.5" style="stop-color:#FFD97E"/>
	<stop  offset="0.9439" style="stop-color:#FFF1C6"/>
</linearGradient>
<path fill="url(#SVGID_15_)" d="M631,690.5c-2.3,1-3.9,2.3-3.6,3.1c0.3,0.7,2.4,0.7,4.7-0.3c2.2-1,3.9-2.4,3.6-3.1
	C635.3,689.6,633.2,689.6,631,690.5z"/>
<linearGradient id="SVGID_16_" gradientUnits="userSpaceOnUse" x1="931.0023" y1="4.2172" x2="939.8942" y2="28.6475" gradientTransform="matrix(0.51 0 0 -0.51 144.55 803.47)">
	<stop  offset="4.591837e-02" style="stop-color:#EEA326"/>
	<stop  offset="0.5" style="stop-color:#FFD97E"/>
	<stop  offset="0.9439" style="stop-color:#FFF1C6"/>
</linearGradient>
<path fill="url(#SVGID_16_)" d="M620.7,789.4c-0.6-0.3-2,1.7-2.7,4.1c-0.3,0.9-0.5,1.8-0.5,2.6c-1.9,1.2-3.2,2.6-2.8,3.2
	c0.2,0.5,1.5,0.4,3-0.2c0.8,0.3,2.4,0.1,4.2-0.6c0.9-0.4,1.6-0.8,2.2-1.3c0.2,1.2,0.5,1.9,0.9,1.9c0.7,0.1,1.7-2,2-4.5
	c0.3-2.5-0.1-4.9-0.9-4.9c-0.7-0.1-1.7,2-2,4.5c0,0.3-0.1,0.5-0.1,0.7c-0.5,0-1,0.1-1.5,0.2c0-0.1-0.1-0.2-0.1-0.2
	c-0.2-0.4-0.9-0.4-2-0.2c0.1-0.2,0.1-0.3,0.2-0.5C621.4,791.9,621.5,789.6,620.7,789.4z"/>
<linearGradient id="SVGID_17_" gradientUnits="userSpaceOnUse" x1="948.8261" y1="96.2793" x2="953.6619" y2="109.5655" gradientTransform="matrix(0.51 0 0 -0.51 144.55 803.47)">
	<stop  offset="4.591837e-02" style="stop-color:#EEA326"/>
	<stop  offset="0.5" style="stop-color:#FFD97E"/>
	<stop  offset="0.9439" style="stop-color:#FFF1C6"/>
</linearGradient>
<path fill="url(#SVGID_17_)" d="M629.1,749.6c-2.2,1.2-3.7,2.8-3.4,3.4c0.4,0.9,2.3,0.4,4.6-0.8c2.2-1.3,3.6-2.9,3.4-3.4
	C633.3,747.9,631.4,748.5,629.1,749.6z"/>
<linearGradient id="SVGID_18_" gradientUnits="userSpaceOnUse" x1="884.7942" y1="78.1649" x2="891.1586" y2="95.6509" gradientTransform="matrix(0.51 0 0 -0.51 144.55 803.47)">
	<stop  offset="4.591837e-02" style="stop-color:#EEA326"/>
	<stop  offset="0.5" style="stop-color:#FFD97E"/>
	<stop  offset="0.9439" style="stop-color:#FFF1C6"/>
</linearGradient>
<path fill="url(#SVGID_18_)" d="M596.1,763.5c0.6,0.3,2-1.7,2.7-4.1c0.9-2.4,0.9-4.6,0.1-4.9c-0.6-0.3-2,1.7-2.7,4.1
	C595.5,761,595.3,763.3,596.1,763.5z"/>
<linearGradient id="SVGID_19_" gradientUnits="userSpaceOnUse" x1="891.3558" y1="327.9196" x2="897.673" y2="345.2759" gradientTransform="matrix(0.51 0 0 -0.51 144.55 803.47)">
	<stop  offset="4.591837e-02" style="stop-color:#EEA326"/>
	<stop  offset="0.5" style="stop-color:#FFD97E"/>
	<stop  offset="0.9439" style="stop-color:#FFF1C6"/>
</linearGradient>
<path fill="url(#SVGID_19_)" d="M602.1,632.2c0.6-2.5,0.5-4.7-0.3-5c-0.8-0.3-1.8,1.6-2.4,4.1c-0.6,2.5-0.5,4.7,0.3,5
	S601.6,634.7,602.1,632.2z"/>
<linearGradient id="SVGID_20_" gradientUnits="userSpaceOnUse" x1="910.2746" y1="755.5825" x2="916.6524" y2="773.1055" gradientTransform="matrix(0.51 0 0 -0.51 144.55 803.47)">
	<stop  offset="4.591837e-02" style="stop-color:#EEA326"/>
	<stop  offset="0.5" style="stop-color:#FFD97E"/>
	<stop  offset="0.9439" style="stop-color:#FFF1C6"/>
</linearGradient>
<path fill="url(#SVGID_20_)" d="M608.9,418c0.7,0.4,2-1.4,2.9-3.8c0.9-2.5,1-4.7,0.2-5c-0.7-0.4-2,1.4-2.9,3.8
	C608.3,415.4,608.2,417.6,608.9,418z"/>
<linearGradient id="SVGID_21_" gradientUnits="userSpaceOnUse" x1="892.0126" y1="507.6852" x2="898.2261" y2="524.7567" gradientTransform="matrix(0.51 0 0 -0.51 144.55 803.47)">
	<stop  offset="4.591837e-02" style="stop-color:#EEA326"/>
	<stop  offset="0.5" style="stop-color:#FFD97E"/>
	<stop  offset="0.9439" style="stop-color:#FFF1C6"/>
</linearGradient>
<path fill="url(#SVGID_21_)" d="M602.5,540.4c0.4-2.5,0.1-4.6-0.7-4.9s-1.8,1.8-2.1,4.3s-0.1,4.6,0.7,4.9S602.1,542.9,602.5,540.4z"
	/>
<linearGradient id="SVGID_22_" gradientUnits="userSpaceOnUse" x1="936.6508" y1="927.3608" x2="943.0459" y2="944.9312" gradientTransform="matrix(0.51 0 0 -0.51 144.55 803.47)">
	<stop  offset="4.591837e-02" style="stop-color:#EEA326"/>
	<stop  offset="0.5" style="stop-color:#FFD97E"/>
	<stop  offset="0.9439" style="stop-color:#FFF1C6"/>
</linearGradient>
<path fill="url(#SVGID_22_)" d="M622.1,330.3c0.6,0.3,2.1-1.5,3.1-3.8c1.1-2.3,1.3-4.6,0.5-4.9c-0.6-0.3-2.1,1.5-3.1,3.8
	C621.6,327.7,621.3,330,622.1,330.3z"/>
<linearGradient id="SVGID_23_" gradientUnits="userSpaceOnUse" x1="764.9503" y1="-22.1848" x2="1137.1655" y2="1000.4683" gradientTransform="matrix(0.51 0 0 -0.51 144.55 803.47)">
	<stop  offset="4.591837e-02" style="stop-color:#EEA326"/>
	<stop  offset="0.5" style="stop-color:#FFD97E"/>
	<stop  offset="0.9439" style="stop-color:#FFF1C6"/>
</linearGradient>
<path fill="url(#SVGID_23_)" d="M674.3,294.2c1-6-2.5-21.6-2.4-21.8c-6.5,13.1-19.4,7.1-23.6,13.8c1.1,2.9,3.2,4.7,6.3,5.4
	c0.3-1.3-22.2,27.5-22.2,27.5c1.3-2.3,1.2-4.5-0.3-6.4c-17.6,17.6-14.6,58.3-17.1,83.8c0.6-6,6.4,11.9,4.5-5.1
	c-2.7-1.4-6,36.1-6,32.9c-1.5,1.8-3.5,2.7-5.9,2.9c0.8,5-1.3,3.7,3.1,7.4c-9,3.8-0.7,7.5,2.5,10.8c0.2-0.7-11,20-10.4,19.4
	c1.5,3.9,4.5,5.7,8.8,5.4c2.9,6.2-11.2,6.6-7.2,3.4c-8,6.5-1.2,6.6,2,8.2c-1.8-0.5-4,10.2-7.3,8.7c16,5.6-0.6-9,3,1.6
	c1.5,2,4.9-0.5,5.9-0.8c-2.4,14.1,2.7,82.9-10.3,82c11,2.8,6.3-2.3,11.2,7.5c0.4-0.6-3.3,22.9-5.6,22.6c7.8,1.9-3.5-0.9,5.3,2
	c-1.6,2.4-9,37.8-9.1,40.2c5.8,0.6,5.5,2.8-0.9,6.7c1.5,1.3,2.9,1.1,4.4-0.7c0.5,5.7-1,14.8-3.6,18.7c2.4-3.4,5,8.8,7.1-1.7
	c-0.6,3.6-1.2,7.1-1.6,10.7c-1-2-1.9-4-2.7-6c-8.6-2.9,1.2,20.2,1.2,17.8c-8.8-5-6.5,20.5,3.4,6.8c0,4.2,1.1,10.8-4.7,12.6
	c1.7-2,2.7-10.6-1.1-5.8c1.6-2.1-1.9,20.3-2.8,17.9c-1.8-5,4.8,5.6,4.9,5.9c-1.6-1.6-3.2-1.8-4.8-0.6c2.2,2.6,4.9,4.4,8.2,5.4
	c3.7-5.6-1.7,16.2,0.4,12.3c0,0.3-3.2,3.9-3.8,4.1c0.9-2.1,0.8-4.1-0.3-6c-0.7,0.2-9.1,11.5-9.1,12.7c3.5,1.7,1.9,1.6,6.5,0.5
	c-0.3,5.2-4.3,3.6,4.4,7.8c-2.9,2.5-6.1-0.4-8.8,3.8c2.9-4.7,10.8,8.7,10.8,9.5c-8.6-3.8,0.7,18.3,3.1,20
	c-0.9,0.3-13.2,4.7-14.3,4.3c4.6-1.2,7.7-0.1,9.4,3.4c0.3-1.3-11.9,7.9-9.3,8.5c18.1,4.6-3.7,1.2,0.8,4c7.8,4.7,4.7-0.8,8.7-1.6
	c-0.7,1.7-1.6,11.1,1.9,2.9c0,0-0.1,11.1-2.6,10.7c10.6,1.8,10.3-11.4,11-15.2c11.5,4.6,6.5-3,10.7-7.3c-1.4,3.4-3.9,5.8-7.5,7
	c-1.4-3,1.4-6.5-4-3.7c3.8-3,6.8-10.7,7.6-2.1c0,0.3,5.8-5.1,5.3-7.2c-0.4-0.9-12.7-0.6-13.4-0.2c2.3-13.7,11.1-7,16.3-16.2
	c-2.8,0-4.2-1.3-4.1-4c-1.6,5.3-4.6,5.8-9.1,1.5c3.2-1.5,5.7-3.7,7.7-6.6c-0.2,0.3-8.4-1-8.8-1.2c6.8-1.5,16.9-10.4,12.9-13.5
	c-3.4-2.7-9.7,6.4-10.4,7.4c-3.2-7.4,5.5,2.5-2.5-2.5c2.3-1.2,23.2-32.3,15.4-34.4c2.7,0.9-10.5,15.7-14.7,16.1
	c1.1-2.2,19.3-9.2,8.4-16.5c-1.5,0.8-3,4.3-3.6,5.7c-0.3-0.1-2.4-1.9-2.4-1.9c4-8.1,7.9-43,7.2-59.5c-0.4-8.5,9.3-43.9,10.2-42.3
	c-3.6-3.1-6.6,2.8-8.4,3.1c-0.9-9.3-1.5-42.6-7.7-48c1.2-0.7,6.4-48.9,5.6-50.4c-9.7-8.3,2,19-2.3-11c0.5,3.5-6.4,6.7-8.6,2.5
	c2.3-0.3,2.4-1.2,0.3-2.8c8.3-4.7,17.8-0.5,15.1-17.6c0.3,1.7-7.7-1.3-8.6-1.6c27-8.7-5.9-52.2,9.1-61.6c-1.1,5.5-3.3,6.5-6.5,2.9
	c5-40.2,20.4-75.3,29.5-110.2c-3.5,2.4-5.4,1.8-5.9-1.8c0.2-0.5,8.8-4.2,7.9-1.5c3.5-10.7,2.4-26.8,18.2-33.6
	C673,302.6,675.4,295.2,674.3,294.2C674.7,291.8,675.3,295.2,674.3,294.2z"/>
<linearGradient id="SVGID_24_" gradientUnits="userSpaceOnUse" x1="998.3316" y1="901.8" x2="1001.6776" y2="910.9931" gradientTransform="matrix(0.51 0 0 -0.51 144.55 803.47)">
	<stop  offset="4.591837e-02" style="stop-color:#EEA326"/>
	<stop  offset="0.5" style="stop-color:#FFD97E"/>
	<stop  offset="0.9439" style="stop-color:#FFF1C6"/>
</linearGradient>
<path fill="url(#SVGID_24_)" d="M653.9,343.5c0.7,0.3,1.9-1.5,2.7-3.9c0.2-0.7-1.1-0.4-3,0.4C653.2,341.9,653.3,343.4,653.9,343.5z"
	/>
<linearGradient id="SVGID_25_" gradientUnits="userSpaceOnUse" x1="969.9121" y1="977.4165" x2="976.2725" y2="994.8915" gradientTransform="matrix(0.51 0 0 -0.51 144.55 803.47)">
	<stop  offset="4.591837e-02" style="stop-color:#EEA326"/>
	<stop  offset="0.5" style="stop-color:#FFD97E"/>
	<stop  offset="0.9439" style="stop-color:#FFF1C6"/>
</linearGradient>
<path fill="url(#SVGID_25_)" d="M638.7,304.6c0.7,0.3,2.3-1.2,3.4-3.5c1.3-2.3,1.7-4.6,0.9-4.9c-0.7-0.3-2.3,1.2-3.4,3.5
	S637.9,304.3,638.7,304.6z"/>
</svg>
