<?xml version="1.0" encoding="utf-8"?>
<!-- Generator: Adobe Illustrator 17.1.0, SVG Export Plug-In . SVG Version: 6.00 Build 0)  -->
<!DOCTYPE svg PUBLIC "-//W3C//DTD SVG 1.1//EN" "http://www.w3.org/Graphics/SVG/1.1/DTD/svg11.dtd">
<svg version="1.1" id="Layer_4_copy_2" xmlns="http://www.w3.org/2000/svg" xmlns:xlink="http://www.w3.org/1999/xlink" x="0px"
	 y="0px" viewBox="0 0 1200 1200" enable-background="new 0 0 1200 1200" xml:space="preserve">
<linearGradient id="SVGID_1_" gradientUnits="userSpaceOnUse" x1="961.9772" y1="599.1137" x2="968.3425" y2="616.6022" gradientTransform="matrix(0.51 0 0 -0.51 144.55 803.47)">
	<stop  offset="4.591837e-02" style="stop-color:#EEA326"/>
	<stop  offset="0.5" style="stop-color:#FFD97E"/>
	<stop  offset="0.9439" style="stop-color:#FFF1C6"/>
</linearGradient>
<path fill="url(#SVGID_1_)" d="M638.2,488.9c-0.6-0.3-2,1.7-2.7,4.1s-0.9,4.7-0.1,4.9c0.6,0.3,2-1.7,2.7-4.1
	C638.8,491.4,639,489.1,638.2,488.9z"/>
<linearGradient id="SVGID_2_" gradientUnits="userSpaceOnUse" x1="917.0215" y1="805.798" x2="923.3824" y2="823.2745" gradientTransform="matrix(0.51 0 0 -0.51 144.55 803.47)">
	<stop  offset="4.591837e-02" style="stop-color:#EEA326"/>
	<stop  offset="0.5" style="stop-color:#FFD97E"/>
	<stop  offset="0.9439" style="stop-color:#FFF1C6"/>
</linearGradient>
<path fill="url(#SVGID_2_)" d="M612.6,392.4c0.7,0.3,1.9-1.5,2.7-3.9c0.7-2.5,0.7-4.7-0.1-5c-0.7-0.3-1.9,1.5-2.7,3.9
	C611.8,389.9,611.8,392.1,612.6,392.4z"/>
<linearGradient id="SVGID_3_" gradientUnits="userSpaceOnUse" x1="922.7289" y1="848.4248" x2="929.124" y2="865.9952" gradientTransform="matrix(0.51 0 0 -0.51 144.55 803.47)">
	<stop  offset="4.591837e-02" style="stop-color:#EEA326"/>
	<stop  offset="0.5" style="stop-color:#FFD97E"/>
	<stop  offset="0.9439" style="stop-color:#FFF1C6"/>
</linearGradient>
<path fill="url(#SVGID_3_)" d="M615,370.6c0.6,0.3,2.1-1.5,3.1-3.8c1.1-2.3,1.3-4.6,0.5-4.9c-0.6-0.3-2.1,1.5-3.1,3.8
	C614.5,368,614.2,370.2,615,370.6z"/>
<linearGradient id="SVGID_4_" gradientUnits="userSpaceOnUse" x1="943.7128" y1="943.5792" x2="950.1079" y2="961.1495" gradientTransform="matrix(0.51 0 0 -0.51 144.55 803.47)">
	<stop  offset="4.591837e-02" style="stop-color:#EEA326"/>
	<stop  offset="0.5" style="stop-color:#FFD97E"/>
	<stop  offset="0.9439" style="stop-color:#FFF1C6"/>
</linearGradient>
<path fill="url(#SVGID_4_)" d="M625.7,322c0.6,0.3,2.1-1.5,3.1-3.8c1.1-2.3,1.3-4.6,0.5-4.9c-0.6-0.3-2.1,1.5-3.1,3.8
	C625.2,319.4,624.9,321.7,625.7,322z"/>
<linearGradient id="SVGID_5_" gradientUnits="userSpaceOnUse" x1="842.2673" y1="399.2772" x2="1070.2343" y2="1025.6115" gradientTransform="matrix(0.51 0 0 -0.51 144.55 803.47)">
	<stop  offset="4.591837e-02" style="stop-color:#EEA326"/>
	<stop  offset="0.5" style="stop-color:#FFD97E"/>
	<stop  offset="0.9439" style="stop-color:#FFF1C6"/>
</linearGradient>
<path fill="url(#SVGID_5_)" d="M674.4,294.5c1-6-2.5-21.6-2.4-21.8c-6.5,13.1-19.4,7.1-23.6,13.8c1.1,2.9,3.2,4.7,6.3,5.4
	c-2.9,11.6-21.2,13.8-17.7,12.9c-16.1,4.1-25.5,84.6-23.6,94.3c2.5-3.2,4.1-3.3,4.8-0.3c1.6-2.1,2.1-4.4,1.6-7
	c7.8,4.1-8.3,9.4-8,9.2c0.6,2,2.1,2.7,4.5,2.1c-3.3,1.1-5.1,3.1-5.3,6.1c-0.3,0,4.1,27.7,2.1,37.4c-4,0.9-0.6,54.9-6.3,65.4
	c0.7-1.3,5.4,49,5.1,48.5c3.7,16.2,1,28.1,1,46.4c4.1,9,23.4-26.1,13.4-34.7c-0.3-11.2,6.3-54.9,1.9-44.8
	c-2.2,0.2,5.6-27.8,10.7-27.7c-9-0.2-7.7-25.9-1.8-27.8c-7.1,7.9,11.3,6.1,0.8-0.3c2.6-1,4.1-2.8,4.7-5.5c-2.7-1-5.3-0.7-7.8,0.9
	c1.3-4.7,10.4-36.5,8.1-41c-1.7-0.1-3.3-0.2-5-0.3c1.3-0.5,7.3-72.3,6.7-76.9c6,4,16.8-41.5,29.4-46.9
	C672.6,302.6,675.5,295.5,674.4,294.5C674.8,292.1,675.4,295.4,674.4,294.5z"/>
<linearGradient id="SVGID_6_" gradientUnits="userSpaceOnUse" x1="922.3489" y1="482.8031" x2="922.6602" y2="483.6585" gradientTransform="matrix(0.51 0 0 -0.51 144.55 803.47)">
	<stop  offset="4.591837e-02" style="stop-color:#EEA326"/>
	<stop  offset="0.5" style="stop-color:#FFD97E"/>
	<stop  offset="0.9439" style="stop-color:#FFF1C6"/>
</linearGradient>
<path fill="url(#SVGID_6_)" d="M614.9,556.7c0.1,0.1,0.2,0.2,0.3,0.3c0,0.1,0,0.2,0,0.3c-0.2-0.1-0.3-0.1-0.4-0.1
	C614.8,557,614.9,556.9,614.9,556.7z"/>
<linearGradient id="SVGID_7_" gradientUnits="userSpaceOnUse" x1="922.1235" y1="705.7013" x2="922.4032" y2="706.4695" gradientTransform="matrix(0.51 0 0 -0.51 144.55 803.47)">
	<stop  offset="4.591837e-02" style="stop-color:#EEA326"/>
	<stop  offset="0.5" style="stop-color:#FFD97E"/>
	<stop  offset="0.9439" style="stop-color:#FFF1C6"/>
</linearGradient>
<path fill="url(#SVGID_7_)" d="M615.1,443.3c-0.1,0.1-0.2,0.2-0.2,0.3c0-0.1,0-0.3-0.1-0.4c0-0.1,0-0.1,0.1-0.1
	C614.9,443.2,615,443.3,615.1,443.3z"/>
<linearGradient id="SVGID_8_" gradientUnits="userSpaceOnUse" x1="919.6251" y1="714.8102" x2="920.227" y2="716.4639" gradientTransform="matrix(0.51 0 0 -0.51 144.55 803.47)">
	<stop  offset="4.591837e-02" style="stop-color:#EEA326"/>
	<stop  offset="0.5" style="stop-color:#FFD97E"/>
	<stop  offset="0.9439" style="stop-color:#FFF1C6"/>
</linearGradient>
<path fill="url(#SVGID_8_)" d="M613.6,438c0.1,0.2,0.2,0.2,0.3,0.3c0.1,0.1,0.2,0.1,0.3,0c-0.3,0.2-0.6,0.4-0.7,0.7
	C613.5,438.6,613.6,438.3,613.6,438z"/>
<linearGradient id="SVGID_9_" gradientUnits="userSpaceOnUse" x1="934.7656" y1="817.7367" x2="935.1547" y2="818.806" gradientTransform="matrix(0.51 0 0 -0.51 144.55 803.47)">
	<stop  offset="4.591837e-02" style="stop-color:#EEA326"/>
	<stop  offset="0.5" style="stop-color:#FFD97E"/>
	<stop  offset="0.9439" style="stop-color:#FFF1C6"/>
</linearGradient>
<path fill="url(#SVGID_9_)" d="M621.3,385.8L621.3,385.8c0.1,0.1,0.3,0.3,0.4,0.4c-0.2,0.1-0.3,0.2-0.5,0.2
	C621.3,386.2,621.3,386,621.3,385.8z"/>
<linearGradient id="SVGID_10_" gradientUnits="userSpaceOnUse" x1="918.8132" y1="711.7516" x2="919.1381" y2="712.6442" gradientTransform="matrix(0.51 0 0 -0.51 144.55 803.47)">
	<stop  offset="4.591837e-02" style="stop-color:#EEA326"/>
	<stop  offset="0.5" style="stop-color:#FFD97E"/>
	<stop  offset="0.9439" style="stop-color:#FFF1C6"/>
</linearGradient>
<path fill="url(#SVGID_10_)" d="M613.3,440c0.1,0.1,0.1,0.1,0.1,0.1c-0.1,0.1-0.2,0.2-0.3,0.4C613.1,440.3,613.2,440.1,613.3,440z"
	/>
<linearGradient id="SVGID_11_" gradientUnits="userSpaceOnUse" x1="916.3989" y1="678.6134" x2="917.1656" y2="680.72" gradientTransform="matrix(0.51 0 0 -0.51 144.55 803.47)">
	<stop  offset="4.591837e-02" style="stop-color:#EEA326"/>
	<stop  offset="0.5" style="stop-color:#FFD97E"/>
	<stop  offset="0.9439" style="stop-color:#FFF1C6"/>
</linearGradient>
<path fill="url(#SVGID_11_)" d="M612,456.2c0.1,0,0.1,0,0.1,0c0.1,0.1,0.1,0.1,0.2,0.1c0.1,0.1,0.2,0.2,0.4,0.2
	c-0.1,0.2-0.2,0.3-0.2,0.4c0,0.1-0.1,0.1-0.1,0.1c-0.2,0.1-0.4,0.2-0.6,0.3C611.8,456.9,611.9,456.6,612,456.2z"/>
<linearGradient id="SVGID_12_" gradientUnits="userSpaceOnUse" x1="918.2224" y1="608.0013" x2="918.2224" y2="608.0013" gradientTransform="matrix(0.51 0 0 -0.51 144.55 803.47)">
	<stop  offset="4.591837e-02" style="stop-color:#EEA326"/>
	<stop  offset="0.5" style="stop-color:#FFD97E"/>
	<stop  offset="0.9439" style="stop-color:#FFF1C6"/>
</linearGradient>
<path fill="url(#SVGID_12_)" d="M612.8,493.4L612.8,493.4L612.8,493.4L612.8,493.4z"/>
<linearGradient id="SVGID_13_" gradientUnits="userSpaceOnUse" x1="946.0668" y1="534.4081" x2="946.3624" y2="535.2204" gradientTransform="matrix(0.51 0 0 -0.51 144.55 803.47)">
	<stop  offset="4.591837e-02" style="stop-color:#EEA326"/>
	<stop  offset="0.5" style="stop-color:#FFD97E"/>
	<stop  offset="0.9439" style="stop-color:#FFF1C6"/>
</linearGradient>
<path fill="url(#SVGID_13_)" d="M627.1,530.9L627.1,530.9c-0.1-0.1-0.1-0.2,0-0.3c0.1,0,0.1-0.1,0.1-0.1
	C627.2,530.6,627.1,530.8,627.1,530.9z"/>
<linearGradient id="SVGID_14_" gradientUnits="userSpaceOnUse" x1="995.991" y1="919.1077" x2="996.8192" y2="921.3831" gradientTransform="matrix(0.51 0 0 -0.51 144.55 803.47)">
	<stop  offset="4.591837e-02" style="stop-color:#EEA326"/>
	<stop  offset="0.5" style="stop-color:#FFD97E"/>
	<stop  offset="0.9439" style="stop-color:#FFF1C6"/>
</linearGradient>
<path fill="url(#SVGID_14_)" d="M652.6,334.7c0-0.3,0-0.5,0-0.8c0.2-0.1,0.4-0.2,0.6-0.4C653,334,652.8,334.4,652.6,334.7z"/>
<linearGradient id="SVGID_15_" gradientUnits="userSpaceOnUse" x1="932.3857" y1="848.9415" x2="932.6577" y2="849.6889" gradientTransform="matrix(0.51 0 0 -0.51 144.55 803.47)">
	<stop  offset="4.591837e-02" style="stop-color:#EEA326"/>
	<stop  offset="0.5" style="stop-color:#FFD97E"/>
	<stop  offset="0.9439" style="stop-color:#FFF1C6"/>
</linearGradient>
<path fill="url(#SVGID_15_)" d="M620.2,370.2L620.2,370.2c0.1,0.1,0.1,0.2,0.1,0.3l-0.1,0.1c-0.1-0.1-0.2-0.2-0.2-0.2
	C620,370.3,620.1,370.2,620.2,370.2z"/>
<linearGradient id="SVGID_16_" gradientUnits="userSpaceOnUse" x1="983.7357" y1="895.5415" x2="984.539" y2="897.7487" gradientTransform="matrix(0.51 0 0 -0.51 144.55 803.47)">
	<stop  offset="4.591837e-02" style="stop-color:#EEA326"/>
	<stop  offset="0.5" style="stop-color:#FFD97E"/>
	<stop  offset="0.9439" style="stop-color:#FFF1C6"/>
</linearGradient>
<path fill="url(#SVGID_16_)" d="M646.6,346.8c-0.3-0.2-0.6-0.4-0.9-0.5c0,0,0.1,0,0.1-0.1c0.3-0.2,0.6-0.4,0.9-0.6
	c0,0.5,0.1,1,0.2,1.3C646.8,346.9,646.7,346.9,646.6,346.8z"/>
<linearGradient id="SVGID_17_" gradientUnits="userSpaceOnUse" x1="970.0941" y1="976.8909" x2="976.4544" y2="994.3659" gradientTransform="matrix(0.51 0 0 -0.51 144.55 803.47)">
	<stop  offset="4.591837e-02" style="stop-color:#EEA326"/>
	<stop  offset="0.5" style="stop-color:#FFD97E"/>
	<stop  offset="0.9439" style="stop-color:#FFF1C6"/>
</linearGradient>
<path fill="url(#SVGID_17_)" d="M638.8,304.9c0.7,0.3,2.3-1.2,3.4-3.5c1.3-2.3,1.7-4.6,0.9-4.9c-0.7-0.3-2.3,1.2-3.4,3.5
	C638.5,302.3,638,304.6,638.8,304.9z"/>
</svg>
