<?xml version="1.0" encoding="utf-8"?>
<!-- Generator: Adobe Illustrator 17.1.0, SVG Export Plug-In . SVG Version: 6.00 Build 0)  -->
<!DOCTYPE svg PUBLIC "-//W3C//DTD SVG 1.1//EN" "http://www.w3.org/Graphics/SVG/1.1/DTD/svg11.dtd">
<svg version="1.1" id="Layer_2_copy_2" xmlns="http://www.w3.org/2000/svg" xmlns:xlink="http://www.w3.org/1999/xlink" x="0px"
	 y="0px" viewBox="0 0 1200 1200" enable-background="new 0 0 1200 1200" xml:space="preserve">
<linearGradient id="SVGID_1_" gradientUnits="userSpaceOnUse" x1="944.9661" y1="944.8729" x2="951.3612" y2="962.4432" gradientTransform="matrix(0.51 0 0 -0.51 144.55 803.47)">
	<stop  offset="4.591837e-02" style="stop-color:#EEA326"/>
	<stop  offset="0.5" style="stop-color:#FFD97E"/>
	<stop  offset="0.9439" style="stop-color:#FFF1C6"/>
</linearGradient>
<path fill="url(#SVGID_1_)" d="M626.3,321.4c0.6,0.3,2.1-1.5,3.1-3.8c1.1-2.3,1.3-4.6,0.5-4.9c-0.6-0.3-2.1,1.5-3.1,3.8
	C625.9,318.8,625.6,321,626.3,321.4z"/>
<linearGradient id="SVGID_2_" gradientUnits="userSpaceOnUse" x1="609.3546" y1="419.4364" x2="663.9717" y2="269.377">
	<stop  offset="4.591837e-02" style="stop-color:#EEA326"/>
	<stop  offset="0.5" style="stop-color:#FFD97E"/>
	<stop  offset="0.9439" style="stop-color:#FFF1C6"/>
</linearGradient>
<path fill="url(#SVGID_2_)" d="M675,293.8c1-6-2.5-21.6-2.4-21.8c-6.5,13.1-19.4,7.1-23.6,13.8c1.1,2.9,3.2,4.7,6.3,5.4
	c-2.9,11.6-21.2,13.8-17.7,12.9c-34.9,8.9-5.1,98.5-14.1,117.5c-8.4-11.7,23.1-63.6,21.9-73.3c6,4,16.8-41.5,29.4-46.9
	C673.6,302,676.1,294.8,675,293.8C675.4,291.4,676.1,294.8,675,293.8z"/>
<linearGradient id="SVGID_3_" gradientUnits="userSpaceOnUse" x1="653.1578" y1="334.0568" x2="653.5736" y2="332.9142">
	<stop  offset="4.591837e-02" style="stop-color:#EEA326"/>
	<stop  offset="0.5" style="stop-color:#FFD97E"/>
	<stop  offset="0.9439" style="stop-color:#FFF1C6"/>
</linearGradient>
<path fill="url(#SVGID_3_)" d="M653.2,334.1c-0.2-0.6,0-1,0.6-1.1C653.6,333.3,653.4,333.7,653.2,334.1
	C653.2,333.8,653.4,333.7,653.2,334.1z"/>
<linearGradient id="SVGID_4_" gradientUnits="userSpaceOnUse" x1="985.1246" y1="896.776" x2="985.9326" y2="898.9958" gradientTransform="matrix(0.51 0 0 -0.51 144.55 803.47)">
	<stop  offset="4.591837e-02" style="stop-color:#EEA326"/>
	<stop  offset="0.5" style="stop-color:#FFD97E"/>
	<stop  offset="0.9439" style="stop-color:#FFF1C6"/>
</linearGradient>
<path fill="url(#SVGID_4_)" d="M647.2,346.1c-0.3-0.2-0.6-0.3-0.9-0.5c0.4-0.2,0.7-0.4,1-0.7C647.9,346.2,647.8,346.5,647.2,346.1z"
	/>
<linearGradient id="SVGID_5_" gradientUnits="userSpaceOnUse" x1="971.3473" y1="978.1846" x2="977.7077" y2="995.6597" gradientTransform="matrix(0.51 0 0 -0.51 144.55 803.47)">
	<stop  offset="4.591837e-02" style="stop-color:#EEA326"/>
	<stop  offset="0.5" style="stop-color:#FFD97E"/>
	<stop  offset="0.9439" style="stop-color:#FFF1C6"/>
</linearGradient>
<path fill="url(#SVGID_5_)" d="M639.4,304.2c0.7,0.3,2.3-1.2,3.4-3.5c1.3-2.3,1.7-4.6,0.9-4.9c-0.7-0.3-2.3,1.2-3.4,3.5
	S638.6,303.9,639.4,304.2z"/>
</svg>
