<?xml version="1.0" encoding="utf-8"?>
<!-- Generator: Adobe Illustrator 17.1.0, SVG Export Plug-In . SVG Version: 6.00 Build 0)  -->
<!DOCTYPE svg PUBLIC "-//W3C//DTD SVG 1.1//EN" "http://www.w3.org/Graphics/SVG/1.1/DTD/svg11.dtd">
<svg version="1.1" id="Layer_8" xmlns="http://www.w3.org/2000/svg" xmlns:xlink="http://www.w3.org/1999/xlink" x="0px" y="0px"
	 viewBox="0 0 1200 1200" enable-background="new 0 0 1200 1200" xml:space="preserve">
<linearGradient id="SVGID_1_" gradientUnits="userSpaceOnUse" x1="905.0134" y1="-119.274" x2="918.8547" y2="-81.2452" gradientTransform="matrix(0.51 0 0 -0.51 144.55 803.47)">
	<stop  offset="4.591837e-02" style="stop-color:#EEA326"/>
	<stop  offset="0.5" style="stop-color:#FFD97E"/>
	<stop  offset="0.9439" style="stop-color:#FFF1C6"/>
</linearGradient>
<path fill="url(#SVGID_1_)" d="M611,859.1c0-0.1-0.1-0.1-0.1-0.1c0.1-0.1,0.3-0.1,0.4-0.2c2.1-1.1,3.5-2.7,3.4-3.4
	c-0.2-0.4-0.7-0.5-1.4-0.4c0.4-0.8,0.6-1.9,0.8-3.1c0.1-0.9,0.2-1.7,0.2-2.3c0.7-2.1,1-4.1,0.2-4.3s-2.2,1.3-3.1,3.7
	c-0.9,2.4-1.2,4.7-0.4,5c0.1,0.1,0.2,0.1,0.3,0c0.1,0.7,0.2,1.2,0.3,1.6c-0.4,0.2-0.8,0.4-1.3,0.6c-0.6,0.3-1,0.6-1.5,0.9
	c0.2-0.5,0.3-1,0.4-1.6c0.3-1.7,0.3-3.3,0.1-4.2c0-0.1,0.1-0.3,0.1-0.4c0.3-2.5-0.2-4.9-0.9-4.9c-0.7-0.1-1.7,1.8-2,4.5
	c-0.2,1.5-0.1,2.8,0.1,3.7c-0.1,0.2-0.1,0.3-0.1,0.5c-0.5,2.2-0.4,3.9,0.2,4.7c-0.1,0-0.1,0.1-0.2,0.1c-2.2,1-3.9,2.3-3.6,3.1
	c0.3,0.7,2.4,0.7,4.7-0.3C609.6,861.2,611.3,859.8,611,859.1z"/>
<linearGradient id="SVGID_2_" gradientUnits="userSpaceOnUse" x1="882.6693" y1="-41.5533" x2="888.9403" y2="-24.3239" gradientTransform="matrix(0.51 0 0 -0.51 144.55 803.47)">
	<stop  offset="4.591837e-02" style="stop-color:#EEA326"/>
	<stop  offset="0.5" style="stop-color:#FFD97E"/>
	<stop  offset="0.9439" style="stop-color:#FFF1C6"/>
</linearGradient>
<path fill="url(#SVGID_2_)" d="M595,819.8c-0.7,2.6-0.5,4.8,0.5,5c0.8,0.3,1.8-1.6,2.2-4.2c0.5-2.6,0.3-4.8-0.5-5
	C596.4,815.3,595.4,817.2,595,819.8z"/>
<linearGradient id="SVGID_3_" gradientUnits="userSpaceOnUse" x1="924.0623" y1="-101.1846" x2="930.4744" y2="-83.5675" gradientTransform="matrix(0.51 0 0 -0.51 144.55 803.47)">
	<stop  offset="4.591837e-02" style="stop-color:#EEA326"/>
	<stop  offset="0.5" style="stop-color:#FFD97E"/>
	<stop  offset="0.9439" style="stop-color:#FFF1C6"/>
</linearGradient>
<path fill="url(#SVGID_3_)" d="M616.1,849.9c-0.9,2.4-1.1,4.7-0.4,5c0.8,0.3,2.2-1.3,3.1-3.7c0.9-2.2,1.1-4.5,0.4-5
	C618.5,845.8,617,847.4,616.1,849.9z"/>
<linearGradient id="SVGID_4_" gradientUnits="userSpaceOnUse" x1="921.0504" y1="-114.75" x2="925.8863" y2="-101.4635" gradientTransform="matrix(0.51 0 0 -0.51 144.55 803.47)">
	<stop  offset="4.591837e-02" style="stop-color:#EEA326"/>
	<stop  offset="0.5" style="stop-color:#FFD97E"/>
	<stop  offset="0.9439" style="stop-color:#FFF1C6"/>
</linearGradient>
<path fill="url(#SVGID_4_)" d="M615,857.2c-2.2,1.2-3.7,2.8-3.4,3.4c0.4,0.9,2.3,0.4,4.6-0.8c2.2-1.3,3.6-2.9,3.4-3.4
	C619.2,855.5,617.2,856.1,615,857.2z"/>
<linearGradient id="SVGID_5_" gradientUnits="userSpaceOnUse" x1="945.007" y1="56.2754" x2="951.3723" y2="73.7639" gradientTransform="matrix(0.51 0 0 -0.51 144.55 803.47)">
	<stop  offset="4.591837e-02" style="stop-color:#EEA326"/>
	<stop  offset="0.5" style="stop-color:#FFD97E"/>
	<stop  offset="0.9439" style="stop-color:#FFF1C6"/>
</linearGradient>
<path fill="url(#SVGID_5_)" d="M629.5,765.7c-0.6-0.3-2,1.7-2.7,4.1c-0.7,2.4-0.9,4.7-0.1,4.9c0.6,0.3,2-1.7,2.7-4.1
	C630.2,768.2,630.3,765.9,629.5,765.7z"/>
<linearGradient id="SVGID_6_" gradientUnits="userSpaceOnUse" x1="917.0903" y1="-132.5463" x2="921.9261" y2="-119.2599" gradientTransform="matrix(0.51 0 0 -0.51 144.55 803.47)">
	<stop  offset="4.591837e-02" style="stop-color:#EEA326"/>
	<stop  offset="0.5" style="stop-color:#FFD97E"/>
	<stop  offset="0.9439" style="stop-color:#FFF1C6"/>
</linearGradient>
<path fill="url(#SVGID_6_)" d="M612.9,866.3c-2.2,1.2-3.7,2.8-3.4,3.4c0.4,0.9,2.3,0.4,4.6-0.8c2-1.1,3.7-2.7,3.4-3.4
	C617.1,864.6,615.2,865.1,612.9,866.3z"/>
<linearGradient id="SVGID_7_" gradientUnits="userSpaceOnUse" x1="961.6398" y1="754.0945" x2="977.5714" y2="797.8664" gradientTransform="matrix(0.51 0 0 -0.51 144.55 803.47)">
	<stop  offset="4.591837e-02" style="stop-color:#EEA326"/>
	<stop  offset="0.5" style="stop-color:#FFD97E"/>
	<stop  offset="0.9439" style="stop-color:#FFF1C6"/>
</linearGradient>
<path fill="url(#SVGID_7_)" d="M644.9,401.9c0.4-2.4,0.3-4.5-0.5-4.8c-0.1-0.1-0.2-0.2-0.3-0.2c-0.6-0.3-1.8,1.4-2.5,3.5
	c-0.2,0.3-0.4,0.7-0.5,1.1c-0.1,0.1-0.2,0.1-0.4,0.1c0.3-1.2,0.2-2.2-0.3-2.3c-0.6-0.3-2.1,1.5-3.1,3.8c-0.1,0.2-0.1,0.3-0.2,0.5
	c-0.6,0.6-1,1.1-0.8,1.5c0.1,0.2,0.2,0.3,0.3,0.4c-0.1,0.4-0.2,0.8-0.2,1.1c-2.9,2.8-5.4,5.6-5,5.7c0.3,0.1,2.4-1.6,4.9-3.7
	c-0.2,0.8-0.4,1.5-0.4,2.1c-0.5,0.5-0.9,0.9-1,1.2c-0.9,0.5-1.6,1-1.9,1.5c-1.6,0.8-2.6,1.6-2.4,2.1c0.1,0.3,0.6,0.5,1.2,0.6
	c-0.3,0.5-0.3,0.9-0.2,1.1c0.4,0.5,2.4-0.1,4.5-1.5c0.1-0.1,0.1-0.1,0.1-0.1c0.1,0.1,0.2,0.2,0.3,0.2c0.5,0.2,1-0.4,1.5-1.3
	c0.9-0.6,1.4-1.2,1.2-1.5l0,0c0.1-0.1,0.1-0.1,0.1-0.1c-0.2,1.4-0.1,2.4,0.5,2.6c0.6,0.3,2-1.7,2.7-4.1c0.7-2.1,0.8-3.8,0.5-4.5
	c0-0.1,0-0.1,0-0.1c0.5-0.5,0.8-1,0.9-1.4c0.1-0.2,0.2-0.4,0.4-0.7c0.2,0.8,0.5,1.2,0.9,1.3c0.9,0.2,1.6-1.8,1.7-4.4
	C646.8,401,646.1,401.2,644.9,401.9z"/>
<linearGradient id="SVGID_8_" gradientUnits="userSpaceOnUse" x1="888.4459" y1="-51.7528" x2="890.6478" y2="-45.703" gradientTransform="matrix(0.51 0 0 -0.51 144.55 803.47)">
	<stop  offset="4.591837e-02" style="stop-color:#EEA326"/>
	<stop  offset="0.5" style="stop-color:#FFD97E"/>
	<stop  offset="0.9439" style="stop-color:#FFF1C6"/>
</linearGradient>
<path fill="url(#SVGID_8_)" d="M597.6,829.6c2.3,1.3,4.5,1.6,4.7,0.9c0.2-0.8-1.2-2.4-3.5-3.5c-2.1-1.2-4.2-1.5-4.7-0.9
	C593.9,826.9,595.3,828.5,597.6,829.6z"/>
<linearGradient id="SVGID_9_" gradientUnits="userSpaceOnUse" x1="941.1169" y1="90.8562" x2="953.5455" y2="125.0032" gradientTransform="matrix(0.51 0 0 -0.51 144.55 803.47)">
	<stop  offset="4.591837e-02" style="stop-color:#EEA326"/>
	<stop  offset="0.5" style="stop-color:#FFD97E"/>
	<stop  offset="0.9439" style="stop-color:#FFF1C6"/>
</linearGradient>
<path fill="url(#SVGID_9_)" d="M630,749.6c-0.1,0-0.1,0.1-0.1,0.1c-0.2-0.5-0.3-0.9-0.6-1c0.2-0.1,0.3-0.1,0.5-0.2
	c2.2-1,3.9-2.4,3.6-3.1c-0.1-0.2-0.3-0.3-0.6-0.4c0.9-0.8,1.4-1.5,1.2-1.8c-0.2-0.3-0.5-0.5-1-0.5c-0.5-0.4-1.8-0.4-3.3,0
	c0.5-1.7,0.5-3.3-0.1-3.5c-0.7-0.3-1.9,1.3-3.1,3.7c-0.2,0.4-0.3,0.8-0.4,1.1c-0.5,0.1-1,0.3-1.5,0.5c-2.2,1-3.9,2.4-3.6,3.1
	c0.3,0.6,2.1,0.7,4.2-0.1c-0.3,0.4-0.4,0.8-0.3,1.1c0.3,0.6,1.7,0.7,3.5,0.2c-0.1,0.1-0.2,0.3-0.3,0.4c-0.9,0.2-2,0.5-3.1,1.2
	c-2.1,1.2-3.5,2.9-3.2,3.5c0.2,0.4,1.2,0.4,2.5-0.1c-0.3,0.6-0.4,1-0.2,1.3c0.3,0.5,1.4,0.3,2.8-0.5c0,1.9,0.4,3.3,1,3.4
	c0.7,0.1,1.7-2,2-4.5c0.1-0.3,0.1-0.5,0.1-0.7c0.3-0.2,0.6-0.3,0.9-0.4c2.2-1.3,3.6-2.9,3.4-3.4C634,748.1,632.1,748.5,630,749.6z"
	/>
<linearGradient id="SVGID_10_" gradientUnits="userSpaceOnUse" x1="911.0314" y1="-80.3445" x2="921.7057" y2="-51.0169" gradientTransform="matrix(0.51 0 0 -0.51 144.55 803.47)">
	<stop  offset="4.591837e-02" style="stop-color:#EEA326"/>
	<stop  offset="0.5" style="stop-color:#FFD97E"/>
	<stop  offset="0.9439" style="stop-color:#FFF1C6"/>
</linearGradient>
<path fill="url(#SVGID_10_)" d="M609.3,833.4c-0.6-0.1-1,0.1-1.2,0.3c-0.2,0.7,0.9,2.1,2.8,3.2c-0.5,0.6-0.9,1.4-1.2,2.4
	c-0.9,2.4-1.1,4.7-0.4,5c0.8,0.3,2.2-1.3,3.1-3.7c0.4-0.9,0.6-1.8,0.7-2.6c1.7,0.7,3.1,0.8,3.2,0.2c0.2-0.8-1.2-2.4-3.5-3.5
	c-0.2-0.1-0.3-0.2-0.5-0.2c0.5-0.1,1-0.3,1.5-0.5c2.2-1,3.9-2.4,3.6-3.1c-0.3-0.7-2.4-0.7-4.7,0.3
	C611.1,831.7,609.8,832.6,609.3,833.4z"/>
<linearGradient id="SVGID_11_" gradientUnits="userSpaceOnUse" x1="923.7076" y1="-50.9251" x2="928.5435" y2="-37.6386" gradientTransform="matrix(0.51 0 0 -0.51 144.55 803.47)">
	<stop  offset="4.591837e-02" style="stop-color:#EEA326"/>
	<stop  offset="0.5" style="stop-color:#FFD97E"/>
	<stop  offset="0.9439" style="stop-color:#FFF1C6"/>
</linearGradient>
<path fill="url(#SVGID_11_)" d="M616.3,824.7c-2.2,1.2-3.7,2.8-3.4,3.4c0.4,0.9,2.3,0.4,4.6-0.8c2.2-1.2,3.7-2.8,3.4-3.4
	C620.5,823,618.6,823.5,616.3,824.7z"/>
<linearGradient id="SVGID_12_" gradientUnits="userSpaceOnUse" x1="889.5724" y1="-65.6416" x2="893.8893" y2="-53.7811" gradientTransform="matrix(0.51 0 0 -0.51 144.55 803.47)">
	<stop  offset="4.591837e-02" style="stop-color:#EEA326"/>
	<stop  offset="0.5" style="stop-color:#FFD97E"/>
	<stop  offset="0.9439" style="stop-color:#FFF1C6"/>
</linearGradient>
<path fill="url(#SVGID_12_)" d="M603.1,837.1c0.2-0.5-0.4-1.3-1.4-2.1c1.6-0.9,2.7-2,2.4-2.5c-0.3-0.7-2.4-0.7-4.7,0.3
	c-0.3,0.1-0.6,0.3-0.9,0.4c-1.8-0.8-3.4-1-3.6-0.3c-0.1,0.5,0.4,1.2,1.2,2c-0.3,0.4-0.4,0.7-0.3,1c0.2,0.5,1.1,0.6,2.4,0.4
	c0.1,0,0.1,0.1,0.2,0.1C600.7,837.5,602.9,837.9,603.1,837.1z"/>
<linearGradient id="SVGID_13_" gradientUnits="userSpaceOnUse" x1="932.4674" y1="-82.0941" x2="940.2516" y2="-60.7072" gradientTransform="matrix(0.51 0 0 -0.51 144.55 803.47)">
	<stop  offset="4.591837e-02" style="stop-color:#EEA326"/>
	<stop  offset="0.5" style="stop-color:#FFD97E"/>
	<stop  offset="0.9439" style="stop-color:#FFF1C6"/>
</linearGradient>
<path fill="url(#SVGID_13_)" d="M622.3,836.5c-0.1,0.1-0.2,0.1-0.4,0.2c-0.1-0.5-0.2-0.9-0.5-1c-0.6-0.3-2,1.7-2.7,4.1
	c-0.7,2.4-0.9,4.7-0.1,4.9c0.6,0.3,2-1.7,2.7-4.1c0.1-0.2,0.1-0.4,0.2-0.7c0.6-0.2,1.2-0.5,1.9-0.9c2.2-1.2,3.7-2.8,3.4-3.4
	C626.6,834.8,624.6,835.3,622.3,836.5z"/>
<linearGradient id="SVGID_14_" gradientUnits="userSpaceOnUse" x1="885.99" y1="-13.6548" x2="891.7853" y2="2.2676" gradientTransform="matrix(0.51 0 0 -0.51 144.55 803.47)">
	<stop  offset="4.591837e-02" style="stop-color:#EEA326"/>
	<stop  offset="0.5" style="stop-color:#FFD97E"/>
	<stop  offset="0.9439" style="stop-color:#FFF1C6"/>
</linearGradient>
<path fill="url(#SVGID_14_)" d="M598.1,805.6c0.5,0,1-0.1,1.5-0.1c-0.4,0.1-0.8,0.2-1.2,0.4c-2.2,0.9-4.1,2.1-3.7,3
	c0.1,0.2,0.3,0.3,0.6,0.4c-0.1,0.2-0.1,0.4-0.1,0.6c0.3,0.6,2.4,0.3,4.6-1c2.3-1.2,3.8-2.8,3.2-3.5c-0.2-0.3-0.9-0.4-1.8-0.2
	c-0.1,0-0.2,0-0.3,0.1c1-0.3,1.6-0.7,1.6-1.1c0-0.8-1.9-1.6-4.4-1.5c-2.4-0.1-4.5,0.6-4.5,1.5C593.6,804.8,595.6,805.7,598.1,805.6z
	"/>
<linearGradient id="SVGID_15_" gradientUnits="userSpaceOnUse" x1="886.5" y1="-22.2984" x2="891.2924" y2="-9.1314" gradientTransform="matrix(0.51 0 0 -0.51 144.55 803.47)">
	<stop  offset="4.591837e-02" style="stop-color:#EEA326"/>
	<stop  offset="0.5" style="stop-color:#FFD97E"/>
	<stop  offset="0.9439" style="stop-color:#FFF1C6"/>
</linearGradient>
<path fill="url(#SVGID_15_)" d="M598.6,812.7c2.1-1.2,3.4-2.9,3.2-3.5c-0.3-0.6-2.4-0.3-4.6,1c-2.1,1.2-3.6,2.8-3.2,3.5
	C594.3,814.2,596.5,814,598.6,812.7z"/>
<linearGradient id="SVGID_16_" gradientUnits="userSpaceOnUse" x1="941.7731" y1="-14.8826" x2="946.0333" y2="-3.1778" gradientTransform="matrix(0.51 0 0 -0.51 144.55 803.47)">
	<stop  offset="4.591837e-02" style="stop-color:#EEA326"/>
	<stop  offset="0.5" style="stop-color:#FFD97E"/>
	<stop  offset="0.9439" style="stop-color:#FFF1C6"/>
</linearGradient>
<path fill="url(#SVGID_16_)" d="M625.5,806.7c-2.2,0.9-4.1,2.1-3.7,3c0.3,0.6,2.3,0.5,4.6-0.3c2.3-0.8,3.9-2.2,3.7-3
	C629.9,805.7,627.8,805.8,625.5,806.7z"/>
<linearGradient id="SVGID_17_" gradientUnits="userSpaceOnUse" x1="942.4907" y1="3.4269" x2="947.778" y2="17.9534" gradientTransform="matrix(0.51 0 0 -0.51 144.55 803.47)">
	<stop  offset="4.591837e-02" style="stop-color:#EEA326"/>
	<stop  offset="0.5" style="stop-color:#FFD97E"/>
	<stop  offset="0.9439" style="stop-color:#FFF1C6"/>
</linearGradient>
<path fill="url(#SVGID_17_)" d="M629.7,795.6c0-0.1,0-0.1,0-0.2c-0.3-0.6-2.4-0.3-4.6,1c-2.1,1.2-3.5,2.9-3.2,3.5
	c0.2,0.4,1.2,0.4,2.4,0c-0.3,0.6-0.4,1-0.2,1.3c0.4,0.7,2.3-0.1,4.3-1.5c1.9-1.7,3.2-3.3,2.8-3.9
	C631.1,795.3,630.5,795.3,629.7,795.6z"/>
<linearGradient id="SVGID_18_" gradientUnits="userSpaceOnUse" x1="947.4252" y1="344.3255" x2="953.7905" y2="361.814" gradientTransform="matrix(0.51 0 0 -0.51 144.55 803.47)">
	<stop  offset="4.591837e-02" style="stop-color:#EEA326"/>
	<stop  offset="0.5" style="stop-color:#FFD97E"/>
	<stop  offset="0.9439" style="stop-color:#FFF1C6"/>
</linearGradient>
<path fill="url(#SVGID_18_)" d="M630.8,618.8c-0.6-0.3-2,1.7-2.7,4.1c-0.7,2.3-0.9,4.7-0.1,4.9c0.6,0.3,2-1.7,2.7-4.1
	C631.4,621.3,631.5,619.1,630.8,618.8z"/>
<linearGradient id="SVGID_19_" gradientUnits="userSpaceOnUse" x1="949.7905" y1="376.8516" x2="957.257" y2="397.3657" gradientTransform="matrix(0.51 0 0 -0.51 144.55 803.47)">
	<stop  offset="4.591837e-02" style="stop-color:#EEA326"/>
	<stop  offset="0.5" style="stop-color:#FFD97E"/>
	<stop  offset="0.9439" style="stop-color:#FFF1C6"/>
</linearGradient>
<path fill="url(#SVGID_19_)" d="M635.6,602c-0.4-0.9-2.3-0.4-4.5,0.8c-0.2-0.7-0.5-1.1-0.8-1.1c-0.6-0.1-1.2,1.1-1.7,2.8
	c-0.8,0.8-1.2,1.4-1,1.8c0.1,0.3,0.3,0.4,0.7,0.4c-0.2,2.4,0.2,4.4,0.9,4.5c0.7,0.1,1.7-2,2-4.5c0.1-0.3,0.1-0.5,0.1-0.7
	c0.3-0.2,0.6-0.3,0.9-0.5C634.4,604.1,635.8,602.5,635.6,602z"/>
<linearGradient id="SVGID_20_" gradientUnits="userSpaceOnUse" x1="886.9824" y1="181.8452" x2="893.2711" y2="199.123" gradientTransform="matrix(0.51 0 0 -0.51 144.55 803.47)">
	<stop  offset="4.591837e-02" style="stop-color:#EEA326"/>
	<stop  offset="0.5" style="stop-color:#FFD97E"/>
	<stop  offset="0.9439" style="stop-color:#FFF1C6"/>
</linearGradient>
<path fill="url(#SVGID_20_)" d="M600.7,702.1c-0.7-0.5-2.2,1.2-3.4,3.4c-1.1,2.2-1.5,4.4-0.9,4.8c0.7,0.5,2.2-1.2,3.4-3.4
	C600.9,704.7,601.3,702.5,600.7,702.1z"/>
<linearGradient id="SVGID_21_" gradientUnits="userSpaceOnUse" x1="941.1407" y1="127.3194" x2="947.3925" y2="144.4959" gradientTransform="matrix(0.51 0 0 -0.51 144.55 803.47)">
	<stop  offset="4.591837e-02" style="stop-color:#EEA326"/>
	<stop  offset="0.5" style="stop-color:#FFD97E"/>
	<stop  offset="0.9439" style="stop-color:#FFF1C6"/>
</linearGradient>
<path fill="url(#SVGID_21_)" d="M631.2,731.2c-0.4-0.9-2.3-0.4-4.6,0.8c-1.5,0.8-2.7,1.7-3.2,2.5c-1.5,0.9-2.4,1.8-2.2,2.4
	c0.3,0.7,2.4,0.7,4.7-0.3c2.2-1,3.9-2.4,3.6-3.1c0,0,0-0.1-0.1-0.1C630.6,732.6,631.3,731.7,631.2,731.2z"/>
<linearGradient id="SVGID_22_" gradientUnits="userSpaceOnUse" x1="882.9684" y1="33.5069" x2="893.9902" y2="63.7891" gradientTransform="matrix(0.51 0 0 -0.51 144.55 803.47)">
	<stop  offset="4.591837e-02" style="stop-color:#EEA326"/>
	<stop  offset="0.5" style="stop-color:#FFD97E"/>
	<stop  offset="0.9439" style="stop-color:#FFF1C6"/>
</linearGradient>
<path fill="url(#SVGID_22_)" d="M597.3,769.7c-0.5-0.2-1,0.4-1.4,1.4c-0.1-0.8-0.4-1.4-0.7-1.5c-0.8-0.3-1.8,1.6-2.2,4.2
	c-0.5,2.5-0.3,4.7,0.5,5c0.4,0.2,0.9-0.4,1.3-1.2c0.1,0.7,0.4,1.2,0.8,1.3c-0.1,0.3-0.2,0.6-0.3,0.9c0,0.1,0,0.1-0.1,0.1
	c-0.5,0-0.9,0.1-1,0.3c-0.1,0.4,0.2,0.9,0.6,1.4c-0.1,0.7-0.2,1.2-0.2,1.7c-0.5,1.2-0.6,2.2-0.2,2.5c0.6,0.5,1.8-0.5,3.1-2.2
	c0.1,0,0.1,0.1,0.1,0.1c2.3,1.3,4.5,1.6,4.7,0.9c0.2-0.8-1.1-2.3-3.3-3.4c0.5-1.1,0.8-2,0.7-2.6c0.6-1.8,0.6-3.4-0.1-3.6
	c-0.4-0.2-0.9,0.2-1.5,0.9c-0.1-0.1-0.2-0.1-0.3-0.1c-0.1-0.1-0.2,0-0.4,0.1c0.1-0.3,0.2-0.7,0.3-1
	C598.2,772.2,598,769.9,597.3,769.7z"/>
<linearGradient id="SVGID_23_" gradientUnits="userSpaceOnUse" x1="929.2986" y1="-66.0267" x2="939.326" y2="-38.4765" gradientTransform="matrix(0.51 0 0 -0.51 144.55 803.47)">
	<stop  offset="4.591837e-02" style="stop-color:#EEA326"/>
	<stop  offset="0.5" style="stop-color:#FFD97E"/>
	<stop  offset="0.9439" style="stop-color:#FFF1C6"/>
</linearGradient>
<path fill="url(#SVGID_23_)" d="M624.6,823.5c-0.6-0.3-2,1.7-2.7,4.1c-0.3,0.9-0.5,1.8-0.5,2.6c-0.7,0.4-1.2,0.8-1.7,1.3
	c-0.6,0.1-1.3,0.3-2,0.6c-2.3,0.8-3.9,2.2-3.6,3.1c0.3,0.7,2.4,0.7,4.7-0.3c1.1-0.5,2.1-1.1,2.7-1.6c0.6-0.2,1.1-0.5,1.7-0.8
	c2.3-1.2,3.8-2.6,3.2-3.5c-0.2-0.4-0.9-0.4-2-0.2c0.1-0.2,0.1-0.3,0.2-0.5C625.4,826,625.5,823.7,624.6,823.5z"/>
<linearGradient id="SVGID_24_" gradientUnits="userSpaceOnUse" x1="888.654" y1="157.9133" x2="893.4899" y2="171.1997" gradientTransform="matrix(0.51 0 0 -0.51 144.55 803.47)">
	<stop  offset="4.591837e-02" style="stop-color:#EEA326"/>
	<stop  offset="0.5" style="stop-color:#FFD97E"/>
	<stop  offset="0.9439" style="stop-color:#FFF1C6"/>
</linearGradient>
<path fill="url(#SVGID_24_)" d="M595.1,721.6c0.4,0.9,2.3,0.4,4.6-0.8c2-1.3,3.6-2.9,3.4-3.4c-0.4-0.9-2.3-0.4-4.6,0.8
	C596.2,719.3,594.8,720.9,595.1,721.6z"/>
<linearGradient id="SVGID_25_" gradientUnits="userSpaceOnUse" x1="894.7487" y1="404.481" x2="899.0659" y2="416.3426" gradientTransform="matrix(0.51 0 0 -0.51 144.55 803.47)">
	<stop  offset="4.591837e-02" style="stop-color:#EEA326"/>
	<stop  offset="0.5" style="stop-color:#FFD97E"/>
	<stop  offset="0.9439" style="stop-color:#FFF1C6"/>
</linearGradient>
<path fill="url(#SVGID_25_)" d="M606.1,592.4c-0.3-0.7-2.4-0.7-4.7,0.3c-2.2,0.9-3.9,2.3-3.6,3.1c0.3,0.7,2.4,0.7,4.7-0.3
	C604.8,594.5,606.4,593.1,606.1,592.4z"/>
<linearGradient id="SVGID_26_" gradientUnits="userSpaceOnUse" x1="890.4695" y1="368.5471" x2="896.7357" y2="385.7633" gradientTransform="matrix(0.51 0 0 -0.51 144.55 803.47)">
	<stop  offset="4.591837e-02" style="stop-color:#EEA326"/>
	<stop  offset="0.5" style="stop-color:#FFD97E"/>
	<stop  offset="0.9439" style="stop-color:#FFF1C6"/>
</linearGradient>
<path fill="url(#SVGID_26_)" d="M598.9,610.6c-0.5,2.5-0.3,4.7,0.5,5c0.8,0.3,1.8-1.6,2.2-4.2c0.5-2.5,0.3-4.8-0.5-5
	C600.4,606.2,599.4,608.1,598.9,610.6z"/>
<linearGradient id="SVGID_27_" gradientUnits="userSpaceOnUse" x1="880.2107" y1="181.4855" x2="886.575" y2="198.9715" gradientTransform="matrix(0.51 0 0 -0.51 144.55 803.47)">
	<stop  offset="4.591837e-02" style="stop-color:#EEA326"/>
	<stop  offset="0.5" style="stop-color:#FFD97E"/>
	<stop  offset="0.9439" style="stop-color:#FFF1C6"/>
</linearGradient>
<path fill="url(#SVGID_27_)" d="M593.7,710.9c0.6,0.3,2-1.7,2.7-4.1c0.9-2.4,0.9-4.6,0.1-4.9c-0.6-0.3-2,1.7-2.7,4.1
	C593.1,708.4,593,710.6,593.7,710.9z"/>
<linearGradient id="SVGID_28_" gradientUnits="userSpaceOnUse" x1="896.434" y1="424.0145" x2="898.702" y2="430.2458" gradientTransform="matrix(0.51 0 0 -0.51 144.55 803.47)">
	<stop  offset="4.591837e-02" style="stop-color:#EEA326"/>
	<stop  offset="0.5" style="stop-color:#FFD97E"/>
	<stop  offset="0.9439" style="stop-color:#FFF1C6"/>
</linearGradient>
<path fill="url(#SVGID_28_)" d="M606.4,587.8c0.2-0.8-1.2-2.4-3.5-3.5c-2.1-1.3-4.3-1.7-4.7-0.9c-0.2,0.8,1.2,2.4,3.5,3.5
	C604,588.2,606.2,588.6,606.4,587.8z"/>
<linearGradient id="SVGID_29_" gradientUnits="userSpaceOnUse" x1="991.0673" y1="891.6137" x2="1001.4417" y2="920.1173" gradientTransform="matrix(0.51 0 0 -0.51 144.55 803.47)">
	<stop  offset="4.591837e-02" style="stop-color:#EEA326"/>
	<stop  offset="0.5" style="stop-color:#FFD97E"/>
	<stop  offset="0.9439" style="stop-color:#FFF1C6"/>
</linearGradient>
<path fill="url(#SVGID_29_)" d="M655.1,341.7c0.2-0.6,0.4-1.3,0.5-2.1c0.1-0.8,0.1-1.5,0.1-2.1c0.5-1.7,0.4-3-0.1-3.2
	c-0.5-0.2-1.3,0.5-2.1,1.7c-0.1-0.3-0.2-0.5-0.2-0.7c-0.1-0.4-0.2-0.7-0.5-0.9c-0.5-0.2-1.4,0.5-2.2,1.8c-0.4-0.2-0.6-0.2-0.8-0.1
	c-0.4,0.2-0.4,0.8-0.1,1.6c-0.7-0.4-1.2-0.5-1.4-0.3c-0.4,0.4-0.2,1.3,0.5,2.3c0.1,0.2,0.2,0.5,0.3,0.7c-0.1,0.6-0.1,1.1-0.1,1.4
	c-0.1,0-0.2,0.1-0.3,0.1c-0.3,0.2-0.2,0.7,0,1.3c-0.1,0.1-0.2,0.1-0.3,0.1c-2.5,0.9-4.2,2.2-3.8,2.9c0.4,0.7,2.3,0.7,4.4,0
	c0.1,0.2,0.2,0.4,0.4,0.4c0.3,0.1,0.6-0.1,1-0.4c0.1,0.1,0.2,0.2,0.2,0.3c1.5,2.1,3.4,3.3,4.2,2.7c0.3-0.3,0.2-0.8-0.1-1.5
	c0.1,0,0.2-0.1,0.3-0.1c0.1-0.1,0.1-0.1,0.2-0.2c0.7,0.6,1.3,0.8,1.7,0.6c0.6-0.3,0.3-1.6-0.5-3.2C656.4,344.3,656,343,655.1,341.7z
	"/>
<linearGradient id="SVGID_30_" gradientUnits="userSpaceOnUse" x1="940.1533" y1="475.1013" x2="943.5438" y2="484.4166" gradientTransform="matrix(0.51 0 0 -0.51 144.55 803.47)">
	<stop  offset="4.591837e-02" style="stop-color:#EEA326"/>
	<stop  offset="0.5" style="stop-color:#FFD97E"/>
	<stop  offset="0.9439" style="stop-color:#FFF1C6"/>
</linearGradient>
<path fill="url(#SVGID_30_)" d="M624.5,561.2c0.8,0.3,1.8-1.6,2.2-4.2c0.2-0.7-1.1-0.3-3,0.7C623.6,559.7,623.9,561.2,624.5,561.2z"
	/>
<linearGradient id="SVGID_31_" gradientUnits="userSpaceOnUse" x1="889.5638" y1="294.5347" x2="895.1272" y2="309.8202" gradientTransform="matrix(0.51 0 0 -0.51 144.55 803.47)">
	<stop  offset="4.591837e-02" style="stop-color:#EEA326"/>
	<stop  offset="0.5" style="stop-color:#FFD97E"/>
	<stop  offset="0.9439" style="stop-color:#FFF1C6"/>
</linearGradient>
<path fill="url(#SVGID_31_)" d="M598.8,648.1c-1.9,1.6-3.2,3.4-2.8,4.1c0.4,0.7,2.5-0.1,4.5-1.7c1.9-1.6,3.2-3.4,2.8-4.1
	C602.9,645.6,600.8,646.4,598.8,648.1z"/>
<linearGradient id="SVGID_32_" gradientUnits="userSpaceOnUse" x1="893.236" y1="307.6333" x2="896.3907" y2="316.301" gradientTransform="matrix(0.51 0 0 -0.51 144.55 803.47)">
	<stop  offset="4.591837e-02" style="stop-color:#EEA326"/>
	<stop  offset="0.5" style="stop-color:#FFD97E"/>
	<stop  offset="0.9439" style="stop-color:#FFF1C6"/>
</linearGradient>
<path fill="url(#SVGID_32_)" d="M605.4,644c0.1-1-1.9-1.3-4.5-1.2s-4.5,1-4.5,1.7c-0.1,1,1.9,1.3,4.5,1.2
	C603.2,645.6,605.4,644.8,605.4,644z"/>
<linearGradient id="SVGID_33_" gradientUnits="userSpaceOnUse" x1="907.0295" y1="719.7213" x2="912.4373" y2="734.5792" gradientTransform="matrix(0.51 0 0 -0.51 144.55 803.47)">
	<stop  offset="4.591837e-02" style="stop-color:#EEA326"/>
	<stop  offset="0.5" style="stop-color:#FFD97E"/>
	<stop  offset="0.9439" style="stop-color:#FFF1C6"/>
</linearGradient>
<path fill="url(#SVGID_33_)" d="M609.3,433.8c2-1.5,3.3-3.2,3-3.9c-0.4-0.7-2.5-0.1-4.6,1.5c-2,1.5-3.4,3.3-3,3.9
	C605.1,436,607.3,435.3,609.3,433.8z"/>
<linearGradient id="SVGID_34_" gradientUnits="userSpaceOnUse" x1="906.0873" y1="754.9586" x2="912.4482" y2="772.4349" gradientTransform="matrix(0.51 0 0 -0.51 144.55 803.47)">
	<stop  offset="4.591837e-02" style="stop-color:#EEA326"/>
	<stop  offset="0.5" style="stop-color:#FFD97E"/>
	<stop  offset="0.9439" style="stop-color:#FFF1C6"/>
</linearGradient>
<path fill="url(#SVGID_34_)" d="M607,418.4c0.7,0.3,1.9-1.5,2.7-3.9c0.7-2.6,0.7-4.7-0.1-5c-0.7-0.3-1.9,1.5-2.7,3.9
	C606.2,415.8,606.2,418,607,418.4z"/>
<linearGradient id="SVGID_35_" gradientUnits="userSpaceOnUse" x1="890.2753" y1="468.5911" x2="901.6044" y2="499.7173" gradientTransform="matrix(0.51 0 0 -0.51 144.55 803.47)">
	<stop  offset="4.591837e-02" style="stop-color:#EEA326"/>
	<stop  offset="0.5" style="stop-color:#FFD97E"/>
	<stop  offset="0.9439" style="stop-color:#FFF1C6"/>
</linearGradient>
<path fill="url(#SVGID_35_)" d="M603.5,548.3c-0.6-0.5-2.3,1-3.6,3.1c-1.3,2.1-1.8,4.3-1.3,4.8c0.1,0.1,0.1,0.1,0.2,0.1
	c0.1,0.2,0.1,0.3,0.2,0.5c0.2,0.1,0.4,0.2,0.7,0.1c-0.2,0.9-0.2,2.4,0.1,4c0.4,2.6,1.3,4.5,2,4.5c0.7-0.1,1-2.3,0.5-4.9
	c-0.3-2-0.9-3.6-1.5-4.2c0.6-0.5,1.3-1.2,2.1-2c1.7-2,2.4-4.1,1.8-4.6c-0.2-0.2-0.6-0.2-1,0.1C603.8,548.9,603.7,548.5,603.5,548.3z
	"/>
<linearGradient id="SVGID_36_" gradientUnits="userSpaceOnUse" x1="885.1603" y1="483.9953" x2="891.5554" y2="501.5657" gradientTransform="matrix(0.51 0 0 -0.51 144.55 803.47)">
	<stop  offset="4.591837e-02" style="stop-color:#EEA326"/>
	<stop  offset="0.5" style="stop-color:#FFD97E"/>
	<stop  offset="0.9439" style="stop-color:#FFF1C6"/>
</linearGradient>
<path fill="url(#SVGID_36_)" d="M595.8,556.4c0.6,0.3,2.1-1.5,3.1-3.8c1.1-2.3,1.3-4.6,0.5-4.9c-0.6-0.3-2.1,1.5-3.1,3.8
	C595.4,553.8,595,556.1,595.8,556.4z"/>
<linearGradient id="SVGID_37_" gradientUnits="userSpaceOnUse" x1="932.7465" y1="892.7513" x2="939.1416" y2="910.3217" gradientTransform="matrix(0.51 0 0 -0.51 144.55 803.47)">
	<stop  offset="4.591837e-02" style="stop-color:#EEA326"/>
	<stop  offset="0.5" style="stop-color:#FFD97E"/>
	<stop  offset="0.9439" style="stop-color:#FFF1C6"/>
</linearGradient>
<path fill="url(#SVGID_37_)" d="M620.1,347.9c0.6,0.3,2.1-1.5,3.1-3.8c1.1-2.3,1.3-4.6,0.5-4.9c-0.6-0.3-2.1,1.5-3.1,3.8
	C619.6,345.3,619.3,347.6,620.1,347.9z"/>
<linearGradient id="SVGID_38_" gradientUnits="userSpaceOnUse" x1="768.1852" y1="-23.6207" x2="1140.3998" y2="999.0307" gradientTransform="matrix(0.51 0 0 -0.51 144.55 803.47)">
	<stop  offset="4.591837e-02" style="stop-color:#EEA326"/>
	<stop  offset="0.5" style="stop-color:#FFD97E"/>
	<stop  offset="0.9439" style="stop-color:#FFF1C6"/>
</linearGradient>
<path fill="url(#SVGID_38_)" d="M675.1,294.6c1-6-2.5-21.6-2.4-21.8c-6.5,13.1-19.4,7.1-23.6,13.8c1.1,2.9,3.2,4.7,6.3,5.4
	c-1.9,7.7-47.8,62.5-40.2,71.1c3.7,4.1,7.1,4.5,8.3-1.8c6.4,2.6-6.3,12.1-5.1,15.6c0.8-3,2.4-3.9,4.6-2.9
	c-3.8,7.9-10.2,46.6-10.1,46.6c1.1-1.7,1.4-3.6,0.9-5.5c-4.4,1.6-6.3,4.8-5.8,9.5c2.3-3.2,4.3-3.5,6.1-0.8c-1.1,3.4-3.7,4.4-7.8,3.1
	c9-5.1,6.4,10,6.1,12.1c-3.6-1.6,0.7-8.7-6.3-1.5c-5.6,5.7,8.8,2.9,7.3,4.1c-0.4,1-8.9,1.2-7.8,2.2c-0.3-0.3,10.9,4.4,8.8,4.9
	c1.5-1.8-19,12.5-9.5,15.5c2.5-2.2,3.5-5.1,3-8.5c9.4,0.7,1.1,12.7,5.6,11c2.9,9.7-12.6-7.2-4.5-4.5c-1.3,2.1-3,3.6-5.3,4.3
	c1.4,2.6,8.7,3.5,8.9,4c-2.6,2.1-5.6,2.7-9,1.5c-0.8,13.5,11.9,25.4-2.6,31.5c-1.2,0.5,0.1,10.1-1,15.3c12.1,2.4,6.3,13.9,0.3,11.1
	c7.3,3.4,9.5,7.9,0.7,13.9c1.9-2.1,2.3-4.3,1.1-6.5c11.2-7.5-1.1,45.3-3.5,40.3c2.2,2.1,4.8,3,7.8,2.6c-3.1-2.7-2.6-3.8,1.5-3.2
	c-4.1,3.2,1,28.5,1.7,28.8c-1.4,2.2-6.2,15.7-0.9,7.6c0.8,3.6-14.7,20.4-11,21.6c-1.6-0.5,10.5-11.6,8.8-10.5
	c0.1,4.1,3.8,30.7-5.2,30.7c8.9-7.6-17,8.8,2,6.8c-2.4,0.1-4.2,1.2-5.4,3.3c2.2,0.3,4.4,0.4,6.7,0.2c-3.2,0.4-5.7,1.9-7.5,4.6
	c3.2,0,6-1,8.5-3c-3,5.7-11.4,4.3-8.6,12.3c1.9-0.2,3.7,0.1,5.5,1c-2.7-0.5,1.2-8.2,4.9-9.6c-3,10.7-4.4,18.8-8.6,20.8
	c-2.9,2.2-3.7,5.1-2.2,8.6c0.9,2.1,11-4.6,11.6-4.9c-1.4,6.7-9.2,32.6-1.3,38c1-1.7,1.5-3.5,1.3-5.5c-0.9,5.5,0.1,8.2-3.7,13.3
	c4.1-11.9-26.2,9.3-4.9,6.5c-2.7,0.8-4.3,8.6-4.9,8.5c2.1-0.7,4.1-0.3,5.8,1.3c3.5-1.6,2.3-12.8-2.7-12.8c-2.6,1.6,7.7-4.5,6.4-3.5
	c-3.2,4.4,5.7,13.7-4.3,20.2c-0.4,0.2,8.5,5.8,10.9,4.6c-5.5,12.1-8.1,19.6-18.5,34.3c0,3.7,16.2-2,5.6-2c2.1-0.7,4.1-0.5,6,0.6
	c-6.6,0,1.1-10.2,4.6-11.5c-0.3,1,0.4,9.3,2.1,10.6c-12,4.4-4.5,25.3-2.9,21.5c0,0-0.1,11.1-2.6,10.7c9.2,1.5,11.8-14.9,12.7-14.7
	c-0.2,0,5.6,8.8,0.6,6.9c9.2,3.6,0.4-13.2-3.1-11.4c1.1-0.9,9.9-5.9,8.2-5.8c-10.7,0.8,0.8-7.9-8.7-3.7c0.8-4.3,25.9-18.6,9.2-11.9
	c0.4-0.7,6.7-13.9,7.2-12.8c-3-7.5-14.5,20.2-13,18.6c2.5-4.2,0.3-9.9-2.5-11.3c9.7-4.4-3.1-15.3,2-14.4c1.1,2.9,3.3,4.6,6.6,5.2
	c-2.6,0-7-8.2-7.5-8.5c3.8-2.1,11.2-63.4,12.3-63.2c1.7,0.3-6.4,9.4-6.6,9.6c2.2-6-2.3-13.1,4.3-17.3c-3.7,15.8,5.9-11.4,4-9.4
	c-1,2.9-2.8,5.2-5.3,6.9c0.6-1.1,3.9-25.9,11-25.5c-13.7-0.7-0.2-14.2-7.9-16.4c-2.1,1.6-3.2,3.7-3.3,6.3c-2.8-1.5,5.1-24,6.6-26.7
	c-2.7-1.6-5.2-0.7-7.3,2.7c-2.9-7,9.3-30.5,1.6-32.5c-1.1-0.4-4.8,10.2-4.6,9.7c1.4-8.3,5.4-21.9,0.8-24.2
	c2.3-0.8,7.6-14.6,7.5-14.7c-0.8-0.7-19.4-26.1-7.5-33.6c4.1-5,14.1,4,10.6-13.4c0.6,2.8-8.9-1.3-8.7-1.2c2.7-1,15.6-16.1,5.4-16.8
	c-1.6,0.9-12.1,16.6-9.6,17c4.2,0.4,6.3,3,0.1,8.8c0-3.3-2.3,1.3-4.4-2.8c-10.6-3,19.2-31.7,14.4-25c3.7-5.2,4.7-41.4,1.4-42.4
	c-1.1,1.9-2.8,2.4-4.9,1.4c-0.3-2,0-3.9,0.7-5.8c1-1.8,3.5,3.6,3.6,3.7c16.9,7-2-34.5-3.9-26.1c1.5-1,21.5-17,2.7-13.3
	c0.5-2.8,8.8-30.8,8.6-31.2c5.4-4,4.1,4.8,5.7,5.4c3.5,0.7,7-21.7,2.2-21.7c0.3,5.8-1.8,7.1-6.4,3.7c-1.7,2.1,4.9,8.8,5.2,10
	c-5.5,8.4-9.2-18.6-7.3-19.2c-0.6-5,23.6,0,16.1-9.2C616.8,352.1,682.3,301.7,675.1,294.6C675.5,292.2,676.2,295.6,675.1,294.6z"/>
<linearGradient id="SVGID_39_" gradientUnits="userSpaceOnUse" x1="941.7408" y1="20.2483" x2="942.8173" y2="23.2057" gradientTransform="matrix(0.51 0 0 -0.51 144.55 803.47)">
	<stop  offset="4.591837e-02" style="stop-color:#EEA326"/>
	<stop  offset="0.5" style="stop-color:#FFD97E"/>
	<stop  offset="0.9439" style="stop-color:#FFF1C6"/>
</linearGradient>
<path fill="url(#SVGID_39_)" d="M625.7,793c-0.4-0.1-0.9-0.2-1.5-0.1c0.6-0.4,1.1-0.7,1.6-1.1C625.7,792.2,625.7,792.6,625.7,793z"
	/>
<linearGradient id="SVGID_40_" gradientUnits="userSpaceOnUse" x1="941.6403" y1="597.9478" x2="942.3897" y2="600.0068" gradientTransform="matrix(0.51 0 0 -0.51 144.55 803.47)">
	<stop  offset="4.591837e-02" style="stop-color:#EEA326"/>
	<stop  offset="0.5" style="stop-color:#FFD97E"/>
	<stop  offset="0.9439" style="stop-color:#FFF1C6"/>
</linearGradient>
<path fill="url(#SVGID_40_)" d="M625,498.5c-0.1-0.2-0.3-0.4-0.6-0.5c0-0.1,0-0.1,0-0.2c0.1-0.1,0.2-0.2,0.3-0.2
	c0.3,0.1,0.7,0.1,1.1,0C625.5,497.9,625.3,498.2,625,498.5C625,498.5,625,498.5,625,498.5z"/>
<linearGradient id="SVGID_41_" gradientUnits="userSpaceOnUse" x1="908.9804" y1="579.5944" x2="909.0685" y2="579.8365" gradientTransform="matrix(0.51 0 0 -0.51 144.55 803.47)">
	<stop  offset="4.591837e-02" style="stop-color:#EEA326"/>
	<stop  offset="0.5" style="stop-color:#FFD97E"/>
	<stop  offset="0.9439" style="stop-color:#FFF1C6"/>
</linearGradient>
<path fill="url(#SVGID_41_)" d="M608.2,507.8c-0.1,0.1-0.1,0.1-0.1,0.1c0-0.1,0-0.1,0-0.1C608.2,507.8,608.2,507.8,608.2,507.8z"/>
<linearGradient id="SVGID_42_" gradientUnits="userSpaceOnUse" x1="920.6041" y1="607.7346" x2="921.3643" y2="609.8234" gradientTransform="matrix(0.51 0 0 -0.51 144.55 803.47)">
	<stop  offset="4.591837e-02" style="stop-color:#EEA326"/>
	<stop  offset="0.5" style="stop-color:#FFD97E"/>
	<stop  offset="0.9439" style="stop-color:#FFF1C6"/>
</linearGradient>
<path fill="url(#SVGID_42_)" d="M614.5,493.6c-0.3-0.2-0.6-0.4-0.9-0.5c0,0,0.1,0,0.1-0.1c0.3-0.2,0.6-0.4,0.9-0.6
	c0,0.4,0.1,0.7,0.1,1C614.6,493.6,614.5,493.6,614.5,493.6L614.5,493.6z"/>
<linearGradient id="SVGID_43_" gradientUnits="userSpaceOnUse" x1="910.7074" y1="626.131" x2="910.8831" y2="626.6138" gradientTransform="matrix(0.51 0 0 -0.51 144.55 803.47)">
	<stop  offset="4.591837e-02" style="stop-color:#EEA326"/>
	<stop  offset="0.5" style="stop-color:#FFD97E"/>
	<stop  offset="0.9439" style="stop-color:#FFF1C6"/>
</linearGradient>
<path fill="url(#SVGID_43_)" d="M608.8,484.1c0.1-0.1,0.2-0.1,0.3-0.1c0.1,0,0.2,0,0.3,0l0,0l-0.1,0.1
	C609.1,484.1,608.9,484.1,608.8,484.1z"/>
<linearGradient id="SVGID_44_" gradientUnits="userSpaceOnUse" x1="909.4518" y1="626.0292" x2="909.4802" y2="626.1073" gradientTransform="matrix(0.51 0 0 -0.51 144.55 803.47)">
	<stop  offset="4.591837e-02" style="stop-color:#EEA326"/>
	<stop  offset="0.5" style="stop-color:#FFD97E"/>
	<stop  offset="0.9439" style="stop-color:#FFF1C6"/>
</linearGradient>
<path fill="url(#SVGID_44_)" d="M608.4,484.2C608.4,484.2,608.4,484.2,608.4,484.2C608.4,484.2,608.4,484.2,608.4,484.2
	C608.4,484.2,608.4,484.2,608.4,484.2z"/>
<linearGradient id="SVGID_45_" gradientUnits="userSpaceOnUse" x1="914.4138" y1="640.2118" x2="915.4691" y2="643.1111" gradientTransform="matrix(0.51 0 0 -0.51 144.55 803.47)">
	<stop  offset="4.591837e-02" style="stop-color:#EEA326"/>
	<stop  offset="0.5" style="stop-color:#FFD97E"/>
	<stop  offset="0.9439" style="stop-color:#FFF1C6"/>
</linearGradient>
<path fill="url(#SVGID_45_)" d="M611.3,476.4c-0.1-0.2-0.2-0.4-0.5-0.5c0.3-0.2,0.5-0.3,0.8-0.4c-0.2,0.5-0.3,1-0.4,1.5l0,0
	c0-0.1,0-0.1,0-0.1C611.3,476.8,611.4,476.6,611.3,476.4z"/>
<linearGradient id="SVGID_46_" gradientUnits="userSpaceOnUse" x1="914.1886" y1="528.6683" x2="914.9315" y2="530.7095" gradientTransform="matrix(0.51 0 0 -0.51 144.55 803.47)">
	<stop  offset="4.591837e-02" style="stop-color:#EEA326"/>
	<stop  offset="0.5" style="stop-color:#FFD97E"/>
	<stop  offset="0.9439" style="stop-color:#FFF1C6"/>
</linearGradient>
<path fill="url(#SVGID_46_)" d="M610.8,533.2c-0.1-0.2-0.1-0.4-0.2-0.6c0.3,0.2,0.5,0.3,0.8,0.4c0.1,0.1,0.3,0.2,0.4,0.2
	c-0.2,0.2-0.4,0.4-0.6,0.8c-0.1,0-0.1-0.1-0.1-0.1C610.9,533.7,610.9,533.4,610.8,533.2z"/>
<linearGradient id="SVGID_47_" gradientUnits="userSpaceOnUse" x1="922.7418" y1="140.3129" x2="922.7919" y2="140.4507" gradientTransform="matrix(0.51 0 0 -0.51 144.55 803.47)">
	<stop  offset="4.591837e-02" style="stop-color:#EEA326"/>
	<stop  offset="0.5" style="stop-color:#FFD97E"/>
	<stop  offset="0.9439" style="stop-color:#FFF1C6"/>
</linearGradient>
<path fill="url(#SVGID_47_)" d="M615.1,731.8c0.1,0.1,0.1,0.1,0.2,0.1C615.2,731.9,615.2,731.9,615.1,731.8
	C615.1,731.9,615.1,731.9,615.1,731.8z"/>
<linearGradient id="SVGID_48_" gradientUnits="userSpaceOnUse" x1="919.3229" y1="117.7826" x2="919.4998" y2="118.2686" gradientTransform="matrix(0.51 0 0 -0.51 144.55 803.47)">
	<stop  offset="4.591837e-02" style="stop-color:#EEA326"/>
	<stop  offset="0.5" style="stop-color:#FFD97E"/>
	<stop  offset="0.9439" style="stop-color:#FFF1C6"/>
</linearGradient>
<path fill="url(#SVGID_48_)" d="M613.4,743.4c0-0.1,0-0.2,0-0.2c0,0,0-0.1,0.1-0.1c0,0.1,0.1,0.2,0.1,0.3
	C613.5,743.4,613.4,743.4,613.4,743.4z"/>
<linearGradient id="SVGID_49_" gradientUnits="userSpaceOnUse" x1="923.5695" y1="139.7787" x2="923.6322" y2="139.9508" gradientTransform="matrix(0.51 0 0 -0.51 144.55 803.47)">
	<stop  offset="4.591837e-02" style="stop-color:#EEA326"/>
	<stop  offset="0.5" style="stop-color:#FFD97E"/>
	<stop  offset="0.9439" style="stop-color:#FFF1C6"/>
</linearGradient>
<path fill="url(#SVGID_49_)" d="M615.6,732.2C615.6,732.2,615.6,732.2,615.6,732.2l-0.1-0.1C615.6,732.1,615.6,732.2,615.6,732.2
	C615.7,732.2,615.7,732.2,615.6,732.2z"/>
<linearGradient id="SVGID_50_" gradientUnits="userSpaceOnUse" x1="918.1168" y1="528.6569" x2="918.223" y2="528.9485" gradientTransform="matrix(0.51 0 0 -0.51 144.55 803.47)">
	<stop  offset="4.591837e-02" style="stop-color:#EEA326"/>
	<stop  offset="0.5" style="stop-color:#FFD97E"/>
	<stop  offset="0.9439" style="stop-color:#FFF1C6"/>
</linearGradient>
<path fill="url(#SVGID_50_)" d="M612.9,533.8c-0.1,0.1-0.1,0.1-0.1,0.1c0-0.1-0.1-0.2-0.1-0.2C612.8,533.7,612.9,533.7,612.9,533.8
	C612.9,533.7,612.9,533.8,612.9,533.8z"/>
<linearGradient id="SVGID_51_" gradientUnits="userSpaceOnUse" x1="943.2036" y1="617.0338" x2="943.7238" y2="618.463" gradientTransform="matrix(0.51 0 0 -0.51 144.55 803.47)">
	<stop  offset="4.591837e-02" style="stop-color:#EEA326"/>
	<stop  offset="0.5" style="stop-color:#FFD97E"/>
	<stop  offset="0.9439" style="stop-color:#FFF1C6"/>
</linearGradient>
<path fill="url(#SVGID_51_)" d="M625.6,488.7c-0.1-0.1-0.1-0.2-0.2-0.3c0.3-0.1,0.5-0.2,0.8-0.3C626,488.4,625.8,488.6,625.6,488.7z
	"/>
<linearGradient id="SVGID_52_" gradientUnits="userSpaceOnUse" x1="946.3484" y1="635.4811" x2="946.6077" y2="636.1935" gradientTransform="matrix(0.51 0 0 -0.51 144.55 803.47)">
	<stop  offset="4.591837e-02" style="stop-color:#EEA326"/>
	<stop  offset="0.5" style="stop-color:#FFD97E"/>
	<stop  offset="0.9439" style="stop-color:#FFF1C6"/>
</linearGradient>
<path fill="url(#SVGID_52_)" d="M627.4,479.5c-0.2-0.1-0.3-0.1-0.4-0.2c0.2-0.1,0.3-0.1,0.5-0.2h0.1
	C627.4,479.2,627.4,479.3,627.4,479.5z"/>
<linearGradient id="SVGID_53_" gradientUnits="userSpaceOnUse" x1="945.0978" y1="640.6689" x2="946.5294" y2="644.6021" gradientTransform="matrix(0.51 0 0 -0.51 144.55 803.47)">
	<stop  offset="4.591837e-02" style="stop-color:#EEA326"/>
	<stop  offset="0.5" style="stop-color:#FFD97E"/>
	<stop  offset="0.9439" style="stop-color:#FFF1C6"/>
</linearGradient>
<path fill="url(#SVGID_53_)" d="M627.8,475.8c-0.5,0.2-0.9,0.3-1.4,0.5c-0.2,0.1-0.3,0.1-0.4,0.2c0-0.3-0.1-0.6-0.1-0.8
	c0-0.1,0.1-0.2,0.1-0.2c0.5-0.2,1.1-0.4,1.7-0.6C627.8,475.3,627.8,475.6,627.8,475.8z"/>
<linearGradient id="SVGID_54_" gradientUnits="userSpaceOnUse" x1="945.3825" y1="696.8627" x2="945.527" y2="697.2598" gradientTransform="matrix(0.51 0 0 -0.51 144.55 803.47)">
	<stop  offset="4.591837e-02" style="stop-color:#EEA326"/>
	<stop  offset="0.5" style="stop-color:#FFD97E"/>
	<stop  offset="0.9439" style="stop-color:#FFF1C6"/>
</linearGradient>
<path fill="url(#SVGID_54_)" d="M626.7,448c0-0.1-0.1-0.1-0.1-0.2c0.1,0,0.2,0,0.3,0C626.8,447.9,626.7,448,626.7,448z"/>
<linearGradient id="SVGID_55_" gradientUnits="userSpaceOnUse" x1="946.9544" y1="691.7607" x2="947.424" y2="693.051" gradientTransform="matrix(0.51 0 0 -0.51 144.55 803.47)">
	<stop  offset="4.591837e-02" style="stop-color:#EEA326"/>
	<stop  offset="0.5" style="stop-color:#FFD97E"/>
	<stop  offset="0.9439" style="stop-color:#FFF1C6"/>
</linearGradient>
<path fill="url(#SVGID_55_)" d="M627.3,449.9c0.1,0,0.2,0,0.3,0c0.1,0.3,0.2,0.5,0.4,0.8c-0.2-0.1-0.4-0.1-0.6-0.1
	C627.4,450.3,627.4,450.1,627.3,449.9z"/>
<linearGradient id="SVGID_56_" gradientUnits="userSpaceOnUse" x1="953.7604" y1="927.8776" x2="954.8729" y2="930.934" gradientTransform="matrix(0.51 0 0 -0.51 144.55 803.47)">
	<stop  offset="4.591837e-02" style="stop-color:#EEA326"/>
	<stop  offset="0.5" style="stop-color:#FFD97E"/>
	<stop  offset="0.9439" style="stop-color:#FFF1C6"/>
</linearGradient>
<path fill="url(#SVGID_56_)" d="M631.3,328.6L631.3,328.6c-0.1,0.6-0.1,1.1-0.1,1.5c0,0.1-0.1,0.1-0.1,0.2l-0.1-0.1
	C631.2,329.7,631.3,329.2,631.3,328.6C631.3,328.7,631.3,328.7,631.3,328.6z"/>
<linearGradient id="SVGID_57_" gradientUnits="userSpaceOnUse" x1="927.0576" y1="756.0063" x2="927.0576" y2="756.0063" gradientTransform="matrix(0.51 0 0 -0.51 144.55 803.47)">
	<stop  offset="4.591837e-02" style="stop-color:#EEA326"/>
	<stop  offset="0.5" style="stop-color:#FFD97E"/>
	<stop  offset="0.9439" style="stop-color:#FFF1C6"/>
</linearGradient>
<path fill="url(#SVGID_57_)" d="M617.3,417.9L617.3,417.9L617.3,417.9L617.3,417.9L617.3,417.9z"/>
<linearGradient id="SVGID_58_" gradientUnits="userSpaceOnUse" x1="910.6576" y1="581.1064" x2="910.6576" y2="581.1064" gradientTransform="matrix(0.51 0 0 -0.51 144.55 803.47)">
	<stop  offset="4.591837e-02" style="stop-color:#EEA326"/>
	<stop  offset="0.5" style="stop-color:#FFD97E"/>
	<stop  offset="0.9439" style="stop-color:#FFF1C6"/>
</linearGradient>
<path fill="url(#SVGID_58_)" d="M609,507.1L609,507.1L609,507.1L609,507.1z"/>
<linearGradient id="SVGID_59_" gradientUnits="userSpaceOnUse" x1="908.5864" y1="578.1483" x2="908.796" y2="578.7239" gradientTransform="matrix(0.51 0 0 -0.51 144.55 803.47)">
	<stop  offset="4.591837e-02" style="stop-color:#EEA326"/>
	<stop  offset="0.5" style="stop-color:#FFD97E"/>
	<stop  offset="0.9439" style="stop-color:#FFF1C6"/>
</linearGradient>
<path fill="url(#SVGID_59_)" d="M608,508.6c0,0.1,0.1,0.1,0.1,0.1c-0.1,0-0.1-0.1-0.2-0.1c0-0.1,0-0.1,0-0.2
	c0.1-0.1,0.1-0.1,0.1-0.2C608,508.4,608,508.5,608,508.6z"/>
<linearGradient id="SVGID_60_" gradientUnits="userSpaceOnUse" x1="908.8855" y1="622.7719" x2="909.4757" y2="624.3935" gradientTransform="matrix(0.51 0 0 -0.51 144.55 803.47)">
	<stop  offset="4.591837e-02" style="stop-color:#EEA326"/>
	<stop  offset="0.5" style="stop-color:#FFD97E"/>
	<stop  offset="0.9439" style="stop-color:#FFF1C6"/>
</linearGradient>
<path fill="url(#SVGID_60_)" d="M608.2,485.7c0.1-0.3,0.1-0.5,0.1-0.7c0.1,0.1,0.1,0.2,0.2,0.3c-0.1,0.2-0.2,0.4-0.3,0.6
	C608.1,485.8,608.2,485.7,608.2,485.7z"/>
<linearGradient id="SVGID_61_" gradientUnits="userSpaceOnUse" x1="932.0116" y1="862.4799" x2="932.4295" y2="863.6282" gradientTransform="matrix(0.51 0 0 -0.51 144.55 803.47)">
	<stop  offset="4.591837e-02" style="stop-color:#EEA326"/>
	<stop  offset="0.5" style="stop-color:#FFD97E"/>
	<stop  offset="0.9439" style="stop-color:#FFF1C6"/>
</linearGradient>
<path fill="url(#SVGID_61_)" d="M620.2,363c-0.1,0.2-0.1,0.4-0.1,0.6c-0.1-0.1-0.2-0.2-0.3-0.2C619.8,363.3,620,363.2,620.2,363z"/>
<linearGradient id="SVGID_62_" gradientUnits="userSpaceOnUse" x1="936.2007" y1="817.4133" x2="936.59" y2="818.4826" gradientTransform="matrix(0.51 0 0 -0.51 144.55 803.47)">
	<stop  offset="4.591837e-02" style="stop-color:#EEA326"/>
	<stop  offset="0.5" style="stop-color:#FFD97E"/>
	<stop  offset="0.9439" style="stop-color:#FFF1C6"/>
</linearGradient>
<path fill="url(#SVGID_62_)" d="M622,386L622,386c0.1,0.1,0.3,0.3,0.4,0.4c-0.2,0.1-0.3,0.2-0.5,0.2C622,386.3,622,386.1,622,386z"
	/>
<linearGradient id="SVGID_63_" gradientUnits="userSpaceOnUse" x1="923.3021" y1="716.5929" x2="923.9045" y2="718.2478" gradientTransform="matrix(0.51 0 0 -0.51 144.55 803.47)">
	<stop  offset="4.591837e-02" style="stop-color:#EEA326"/>
	<stop  offset="0.5" style="stop-color:#FFD97E"/>
	<stop  offset="0.9439" style="stop-color:#FFF1C6"/>
</linearGradient>
<path fill="url(#SVGID_63_)" d="M615.6,437.1c0.1,0.1,0.2,0.1,0.3,0.2c-0.2,0.2-0.3,0.5-0.5,0.7
	C615.4,437.6,615.5,437.4,615.6,437.1z"/>
<linearGradient id="SVGID_64_" gradientUnits="userSpaceOnUse" x1="905.7176" y1="639.8105" x2="906.4843" y2="641.9171" gradientTransform="matrix(0.51 0 0 -0.51 144.55 803.47)">
	<stop  offset="4.591837e-02" style="stop-color:#EEA326"/>
	<stop  offset="0.5" style="stop-color:#FFD97E"/>
	<stop  offset="0.9439" style="stop-color:#FFF1C6"/>
</linearGradient>
<path fill="url(#SVGID_64_)" d="M606.4,475.9c0.1,0,0.1,0,0.1,0c0.1,0.1,0.1,0.1,0.2,0.1c0.2,0.2,0.4,0.3,0.6,0.4
	c-0.2,0.1-0.3,0.2-0.5,0.3c-0.1,0-0.1,0-0.1,0.1c-0.2,0.1-0.4,0.2-0.6,0.3C606.2,476.7,606.3,476.3,606.4,475.9z"/>
<linearGradient id="SVGID_65_" gradientUnits="userSpaceOnUse" x1="907.7114" y1="616.7056" x2="908.8911" y2="619.9469" gradientTransform="matrix(0.51 0 0 -0.51 144.55 803.47)">
	<stop  offset="4.591837e-02" style="stop-color:#EEA326"/>
	<stop  offset="0.5" style="stop-color:#FFD97E"/>
	<stop  offset="0.9439" style="stop-color:#FFF1C6"/>
</linearGradient>
<path fill="url(#SVGID_65_)" d="M607.8,487.2c0,0.1,0.1,0.2,0.2,0.3c0.1,0.1,0.2,0.1,0.4,0.1c-0.2,0.2-0.3,0.4-0.3,0.6
	c-0.3,0.2-0.6,0.4-0.8,0.6C607.4,488.4,607.6,487.8,607.8,487.2z"/>
<linearGradient id="SVGID_66_" gradientUnits="userSpaceOnUse" x1="907.5988" y1="519.9822" x2="907.7788" y2="520.4769" gradientTransform="matrix(0.51 0 0 -0.51 144.55 803.47)">
	<stop  offset="4.591837e-02" style="stop-color:#EEA326"/>
	<stop  offset="0.5" style="stop-color:#FFD97E"/>
	<stop  offset="0.9439" style="stop-color:#FFF1C6"/>
</linearGradient>
<path fill="url(#SVGID_66_)" d="M607.5,538c0.1,0.1,0.1,0.2,0.2,0.3c-0.2-0.1-0.3-0.1-0.4-0.1C607.3,538.1,607.4,538.1,607.5,538z"
	/>
<linearGradient id="SVGID_67_" gradientUnits="userSpaceOnUse" x1="904.5557" y1="448.9285" x2="905.7373" y2="452.1749" gradientTransform="matrix(0.51 0 0 -0.51 144.55 803.47)">
	<stop  offset="4.591837e-02" style="stop-color:#EEA326"/>
	<stop  offset="0.5" style="stop-color:#FFD97E"/>
	<stop  offset="0.9439" style="stop-color:#FFF1C6"/>
</linearGradient>
<path fill="url(#SVGID_67_)" d="M605.2,572.6c0.1,0.3,0.5,0.4,1.1,0.5c0.3,0.4,0.8,0.4,1.6,0.3c-0.7,0.4-1.3,0.8-1.7,1.2
	c-0.1-0.1-0.3-0.1-0.4-0.1c0.4-0.4,0.5-0.8,0.5-1c-0.2-0.5-0.8-0.5-1.5-0.4C604.9,573,605.1,572.8,605.2,572.6L605.2,572.6z"/>
<linearGradient id="SVGID_68_" gradientUnits="userSpaceOnUse" x1="913.719" y1="410.413" x2="913.9925" y2="411.1643" gradientTransform="matrix(0.51 0 0 -0.51 144.55 803.47)">
	<stop  offset="4.591837e-02" style="stop-color:#EEA326"/>
	<stop  offset="0.5" style="stop-color:#FFD97E"/>
	<stop  offset="0.9439" style="stop-color:#FFF1C6"/>
</linearGradient>
<path fill="url(#SVGID_68_)" d="M610.7,593.8c0,0.1,0.1,0.2,0.1,0.2c-0.1,0.1-0.2,0.1-0.3,0.2c0.1-0.1,0.1-0.1,0.1-0.2
	C610.6,593.9,610.6,593.9,610.7,593.8z"/>
<linearGradient id="SVGID_69_" gradientUnits="userSpaceOnUse" x1="923.6549" y1="49.8366" x2="923.6835" y2="49.9151" gradientTransform="matrix(0.51 0 0 -0.51 144.55 803.47)">
	<stop  offset="4.591837e-02" style="stop-color:#EEA326"/>
	<stop  offset="0.5" style="stop-color:#FFD97E"/>
	<stop  offset="0.9439" style="stop-color:#FFF1C6"/>
</linearGradient>
<path fill="url(#SVGID_69_)" d="M615.6,778.1C615.6,778.1,615.6,778,615.6,778.1C615.6,778,615.6,778,615.6,778.1
	C615.6,778,615.6,778,615.6,778.1C615.6,778,615.6,778,615.6,778.1C615.6,778,615.6,778,615.6,778.1z"/>
<linearGradient id="SVGID_70_" gradientUnits="userSpaceOnUse" x1="926.7625" y1="82.2323" x2="926.9117" y2="82.6425" gradientTransform="matrix(0.51 0 0 -0.51 144.55 803.47)">
	<stop  offset="4.591837e-02" style="stop-color:#EEA326"/>
	<stop  offset="0.5" style="stop-color:#FFD97E"/>
	<stop  offset="0.9439" style="stop-color:#FFF1C6"/>
</linearGradient>
<path fill="url(#SVGID_70_)" d="M617.3,761.5c-0.1,0-0.2,0-0.4,0c0.2,0,0.3-0.1,0.5-0.1C617.5,761.4,617.4,761.4,617.3,761.5z"/>
<linearGradient id="SVGID_71_" gradientUnits="userSpaceOnUse" x1="923.1057" y1="108.451" x2="923.154" y2="108.5838" gradientTransform="matrix(0.51 0 0 -0.51 144.55 803.47)">
	<stop  offset="4.591837e-02" style="stop-color:#EEA326"/>
	<stop  offset="0.5" style="stop-color:#FFD97E"/>
	<stop  offset="0.9439" style="stop-color:#FFF1C6"/>
</linearGradient>
<path fill="url(#SVGID_71_)" d="M615.3,748.1L615.3,748.1C615.4,748.1,615.4,748.1,615.3,748.1L615.3,748.1z"/>
<linearGradient id="SVGID_72_" gradientUnits="userSpaceOnUse" x1="930.2147" y1="470.2891" x2="930.3086" y2="470.5471" gradientTransform="matrix(0.51 0 0 -0.51 144.55 803.47)">
	<stop  offset="4.591837e-02" style="stop-color:#EEA326"/>
	<stop  offset="0.5" style="stop-color:#FFD97E"/>
	<stop  offset="0.9439" style="stop-color:#FFF1C6"/>
</linearGradient>
<path fill="url(#SVGID_72_)" d="M618.9,563.6c0-0.1,0.1-0.1,0.1-0.1h0.1C619,563.6,619,563.6,618.9,563.6z"/>
<linearGradient id="SVGID_73_" gradientUnits="userSpaceOnUse" x1="924.5159" y1="571.1417" x2="924.6442" y2="571.4943" gradientTransform="matrix(0.51 0 0 -0.51 144.55 803.47)">
	<stop  offset="4.591837e-02" style="stop-color:#EEA326"/>
	<stop  offset="0.5" style="stop-color:#FFD97E"/>
	<stop  offset="0.9439" style="stop-color:#FFF1C6"/>
</linearGradient>
<path fill="url(#SVGID_73_)" d="M615.9,512.2c0.1-0.1,0.1-0.1,0.1-0.1c0.1,0,0.2,0,0.2,0.1C616.1,512.1,616,512.1,615.9,512.2z"/>
<linearGradient id="SVGID_74_" gradientUnits="userSpaceOnUse" x1="928.5992" y1="864.6458" x2="929.0184" y2="865.7977" gradientTransform="matrix(0.51 0 0 -0.51 144.55 803.47)">
	<stop  offset="4.591837e-02" style="stop-color:#EEA326"/>
	<stop  offset="0.5" style="stop-color:#FFD97E"/>
	<stop  offset="0.9439" style="stop-color:#FFF1C6"/>
</linearGradient>
<path fill="url(#SVGID_74_)" d="M618.6,362c-0.1,0.3-0.1,0.5-0.1,0.7c-0.3-0.2-0.6-0.4-0.8-0.5C618,362.1,618.3,362.1,618.6,362z"/>
<linearGradient id="SVGID_75_" gradientUnits="userSpaceOnUse" x1="916.9802" y1="748.3935" x2="917.217" y2="749.0443" gradientTransform="matrix(0.51 0 0 -0.51 144.55 803.47)">
	<stop  offset="4.591837e-02" style="stop-color:#EEA326"/>
	<stop  offset="0.5" style="stop-color:#FFD97E"/>
	<stop  offset="0.9439" style="stop-color:#FFF1C6"/>
</linearGradient>
<path fill="url(#SVGID_75_)" d="M612.4,421.5c0,0.1,0,0.1,0,0.1c-0.1,0.1-0.2,0.2-0.2,0.2C612.2,421.7,612.3,421.6,612.4,421.5z"/>
<linearGradient id="SVGID_76_" gradientUnits="userSpaceOnUse" x1="906.5252" y1="509.0358" x2="906.5652" y2="509.1458" gradientTransform="matrix(0.51 0 0 -0.51 144.55 803.47)">
	<stop  offset="4.591837e-02" style="stop-color:#EEA326"/>
	<stop  offset="0.5" style="stop-color:#FFD97E"/>
	<stop  offset="0.9439" style="stop-color:#FFF1C6"/>
</linearGradient>
<path fill="url(#SVGID_76_)" d="M606.9,543.8L606.9,543.8C606.9,543.9,606.8,543.9,606.9,543.8L606.9,543.8z"/>
<linearGradient id="SVGID_77_" gradientUnits="userSpaceOnUse" x1="908.5419" y1="331.1779" x2="910.5538" y2="336.7056" gradientTransform="matrix(0.51 0 0 -0.51 144.55 803.47)">
	<stop  offset="4.591837e-02" style="stop-color:#EEA326"/>
	<stop  offset="0.5" style="stop-color:#FFD97E"/>
	<stop  offset="0.9439" style="stop-color:#FFF1C6"/>
</linearGradient>
<path fill="url(#SVGID_77_)" d="M607.7,634.5c0.4-0.7,0.9-1.6,1.1-2.7v-0.1c0.1,0.2,0.1,0.4,0.3,0.5c-0.4,0.4-0.9,1.1-1.2,2.1
	C607.8,634.4,607.7,634.4,607.7,634.5z"/>
<linearGradient id="SVGID_78_" gradientUnits="userSpaceOnUse" x1="900.4791" y1="277.5559" x2="900.5421" y2="277.729" gradientTransform="matrix(0.51 0 0 -0.51 144.55 803.47)">
	<stop  offset="4.591837e-02" style="stop-color:#EEA326"/>
	<stop  offset="0.5" style="stop-color:#FFD97E"/>
	<stop  offset="0.9439" style="stop-color:#FFF1C6"/>
</linearGradient>
<path fill="url(#SVGID_78_)" d="M603.9,661.8C603.9,661.8,603.9,661.9,603.9,661.8c-0.1,0-0.1,0.1-0.2,0.1
	C603.8,661.9,603.8,661.9,603.9,661.8z"/>
<linearGradient id="SVGID_79_" gradientUnits="userSpaceOnUse" x1="903.0058" y1="233.1642" x2="903.2199" y2="233.7525" gradientTransform="matrix(0.51 0 0 -0.51 144.55 803.47)">
	<stop  offset="4.591837e-02" style="stop-color:#EEA326"/>
	<stop  offset="0.5" style="stop-color:#FFD97E"/>
	<stop  offset="0.9439" style="stop-color:#FFF1C6"/>
</linearGradient>
<path fill="url(#SVGID_79_)" d="M605.2,684.2c0,0.1,0,0.2,0.1,0.3c0,0,0,0,0,0.1c-0.1-0.1-0.2-0.2-0.2-0.2
	C605.1,684.4,605.1,684.3,605.2,684.2z"/>
<linearGradient id="SVGID_80_" gradientUnits="userSpaceOnUse" x1="947.6535" y1="330.5966" x2="948.4877" y2="332.8885" gradientTransform="matrix(0.51 0 0 -0.51 144.55 803.47)">
	<stop  offset="4.591837e-02" style="stop-color:#EEA326"/>
	<stop  offset="0.5" style="stop-color:#FFD97E"/>
	<stop  offset="0.9439" style="stop-color:#FFF1C6"/>
</linearGradient>
<path fill="url(#SVGID_80_)" d="M627.8,634.8c0-0.2,0-0.5-0.1-0.6c0.3-0.1,0.6-0.3,0.8-0.4C628.4,634,628.1,634.4,627.8,634.8z"/>
<linearGradient id="SVGID_81_" gradientUnits="userSpaceOnUse" x1="937.947" y1="462.2784" x2="937.9887" y2="462.3932" gradientTransform="matrix(0.51 0 0 -0.51 144.55 803.47)">
	<stop  offset="4.591837e-02" style="stop-color:#EEA326"/>
	<stop  offset="0.5" style="stop-color:#FFD97E"/>
	<stop  offset="0.9439" style="stop-color:#FFF1C6"/>
</linearGradient>
<path fill="url(#SVGID_81_)" d="M622.9,567.7L622.9,567.7L622.9,567.7C623,567.7,622.9,567.7,622.9,567.7z"/>
<linearGradient id="SVGID_82_" gradientUnits="userSpaceOnUse" x1="941.1413" y1="595.8992" x2="941.1657" y2="595.9661" gradientTransform="matrix(0.51 0 0 -0.51 144.55 803.47)">
	<stop  offset="4.591837e-02" style="stop-color:#EEA326"/>
	<stop  offset="0.5" style="stop-color:#FFD97E"/>
	<stop  offset="0.9439" style="stop-color:#FFF1C6"/>
</linearGradient>
<path fill="url(#SVGID_82_)" d="M624.5,499.6C624.5,499.5,624.5,499.5,624.5,499.6L624.5,499.6L624.5,499.6z"/>
</svg>
