<?xml version="1.0" encoding="utf-8"?>
<!-- Generator: Adobe Illustrator 17.1.0, SVG Export Plug-In . SVG Version: 6.00 Build 0)  -->
<!DOCTYPE svg PUBLIC "-//W3C//DTD SVG 1.1//EN" "http://www.w3.org/Graphics/SVG/1.1/DTD/svg11.dtd">
<svg version="1.1" id="Layer_1" xmlns="http://www.w3.org/2000/svg" xmlns:xlink="http://www.w3.org/1999/xlink" x="0px" y="0px"
	 viewBox="0 0 612 792" enable-background="new 0 0 612 792" xml:space="preserve">
<circle fill="#BABABA" cx="307" cy="388.2" r="265.1"/>
<circle fill="#808080" cx="307" cy="388.2" r="251.1"/>
<circle fill="#DEDEDE" cx="307" cy="388.2" r="234.7"/>
<circle fill="#FFFFFF" cx="309.4" cy="388.6" r="221"/>
<path fill="#231F20" d="M453.3,389l58.2-3.1l-0.3-5.8l-58.3,3.1C453,385.2,453.2,387.1,453.3,389z"/>
<path fill="#231F20" d="M448.4,356.2l56.2-16l-1.6-5.6l-56.2,16C447.3,352.5,447.9,354.3,448.4,356.2z"/>
<path fill="#231F20" d="M424.4,482.2l47.5,33.7l3.3-4.7l-47.5-33.7C426.7,479.1,425.6,480.7,424.4,482.2z"/>
<path fill="#231F20" d="M440.7,453.9l53.8,22.5l2.2-5.3L443,448.6C442.4,450.4,441.5,452.2,440.7,453.9z"/>
<path fill="#231F20" d="M451.7,416.5c-0.3,1.9-0.7,3.8-1,5.7l57.5,10l1-5.7L451.7,416.5z"/>
<path fill="#231F20" d="M234.7,262.6l-28.3-50.5l-5,2.8l28.2,50.3C231.2,264.3,233,263.5,234.7,262.6z"/>
<path fill="#231F20" d="M207.6,281l-38.5-43l-4.3,3.8l38.5,43C204.7,283.5,206.1,282.2,207.6,281z"/>
<path fill="#231F20" d="M158.3,365.7l-56.7-9.8l-1,5.7l56.6,9.8C157.5,369.4,157.9,367.5,158.3,365.7z"/>
<path fill="#231F20" d="M298.5,245.2l-3.6-57.8l-5.8,0.4l3.6,57.9C294.6,245.6,296.5,245.3,298.5,245.2z"/>
<path fill="#231F20" d="M168.2,333.8l-53.1-22.2l-2.2,5.3l53,22.1C166.7,337.3,167.5,335.6,168.2,333.8z"/>
<path fill="#231F20" d="M331.7,247.7l9.4-57.4l-5.7-0.9l-9.3,57.4C327.9,247.1,329.8,247.4,331.7,247.7z"/>
<path fill="#231F20" d="M417.7,297.6l43.6-38.8l-3.8-4.3l-43.7,38.8C415.2,294.7,416.5,296.1,417.7,297.6z"/>
<path fill="#231F20" d="M392.3,274l33.4-47.8l-4.7-3.3l-33.5,47.8C389.2,271.8,390.8,272.8,392.3,274z"/>
<path fill="#231F20" d="M172.6,463.4L122.2,491l2.8,5l50.3-27.6C174.3,466.8,173.5,465.1,172.6,463.4z"/>
<path fill="#231F20" d="M191.3,491.1l-42.9,38.1l3.8,4.3l42.9-38.1C193.9,493.9,192.5,492.5,191.3,491.1z"/>
<path fill="#231F20" d="M160.3,432.1l-55.2,15.7l1.6,5.6l55.2-15.7C161.4,435.8,160.9,434,160.3,432.1z"/>
<g>
	<path fill="#FFFFFF" d="M184.3,497.3c-23.8-28-38.2-64.2-38.2-103.8c0-88.6,71.9-160.5,160.5-160.5s160.5,71.8,160.5,160.5
		c0,34.1-10.7,65.6-28.8,91.6l19.1,13.5c20.8-29.8,33.1-65.9,33.1-105.1c0-101.4-82.3-183.7-183.7-183.7S123.1,292,123.1,393.4
		c0,45.5,16.6,87.1,44,119.1L184.3,497.3z"/>
	<path fill="#231F20" d="M166.8,516.2l-1.7-2c-14.1-16.5-25.1-35.1-32.7-55.3c-7.9-20.9-11.9-42.9-11.9-65.5
		c0-25.1,4.9-49.5,14.6-72.5c9.4-22.2,22.8-42.1,39.9-59.2c17.1-17.1,37-30.5,59.2-39.9c22.9-9.7,47.4-14.6,72.5-14.6
		c25.1,0,49.5,4.9,72.5,14.6c22.2,9.4,42.1,22.8,59.2,39.9c17.1,17.1,30.5,37,39.9,59.2c9.7,22.9,14.6,47.4,14.6,72.5
		c0,38.2-11.6,75.1-33.6,106.5l-1.5,2.1l-23.2-16.5l1.4-2.1c18.5-26.6,28.3-57.8,28.3-90.1c0-42.2-16.4-81.9-46.3-111.7
		s-69.5-46.3-111.7-46.3s-81.9,16.4-111.7,46.3s-46.3,69.5-46.3,111.7c0,37.4,13.4,73.6,37.6,102.2l1.6,1.9L166.8,516.2z"/>
	<path fill="#FFFFFF" d="M306.8,212.3c-48.4,0-93.9,18.8-128.1,53s-53,79.7-53,128.1c0,21.9,3.9,43.4,11.6,63.7
		c7.1,18.8,17.2,36.2,30.1,51.8l13.4-11.9c-24-29.2-37.2-65.8-37.2-103.6c0-43.6,17-84.5,47.7-115.3c30.8-30.8,71.8-47.7,115.3-47.7
		s84.5,17,115.3,47.7s47.7,71.8,47.7,115.3c0,32.5-9.6,64-27.8,90.9l14.9,10.6c20.5-30.1,31.2-65.1,31.2-101.5
		c0-48.4-18.8-93.9-53-128.1S355.2,212.3,306.8,212.3z"/>
	<path fill="#F04923" d="M283.3,211c-2.1,0.3-4.2,0.6-6.4,1c-15.6,2.7-30.3,7.2-44.1,13.3l8.9,21.4c12.1-5.5,25.2-9.5,38.9-11.9
		c1.9-0.3,3.8-0.6,5.7-0.8L283.3,211z"/>
</g>
<path fill="#231F20" d="M436.3,325.1l51.2-28.2l-2.8-5L433.6,320C434.5,321.6,435.4,323.4,436.3,325.1z"/>
<path fill="#231F20" d="M363.5,257.5l22-54l-5.4-2.2l-21.9,53.9C360,255.9,361.7,256.8,363.5,257.5z"/>
<path fill="#231F20" d="M184.8,305.4l-47-33.3l-3.3,4.7l47,33.3C182.6,308.5,183.7,306.9,184.8,305.4z"/>
<path fill="#231F20" d="M155.5,399.1l-57.3,3.1l0.3,5.8l57.4-3.1C155.8,402.9,155.6,401,155.5,399.1z"/>
<path fill="#231F20" d="M265.6,250.3l-16.3-55.5l-5.5,1.6l16.3,55.6C261.9,251.4,263.8,250.9,265.6,250.3z"/>
<path fill="#231F20" d="M305.8,411.8L305.8,411.8c-7.3,0-14.2-3.3-18.8-9c-4.6-5.7-6.3-13.2-4.7-20.6c2-9,9.1-16,18-18
	c1.8-0.4,3.7-0.6,5.5-0.6c7.3,0,14.2,3.3,18.8,9c4.6,5.7,6.3,13.2,4.7,20.6c-2,9-9.1,16-18,18C309.5,411.6,307.6,411.8,305.8,411.8z
	"/>
<path fill="#231F20" d="M305.8,368.7c-1.4,0-2.9,0.2-4.4,0.5c-6.9,1.5-12.6,7.2-14.1,14.1c-1.3,5.8,0.1,11.7,3.7,16.3
	c3.6,4.5,9,7.1,14.8,7.1l0,0c1.4,0,2.9-0.2,4.4-0.5c6.9-1.5,12.6-7.2,14.1-14.1c1.3-5.8-0.1-11.7-3.7-16.3
	C317,371.3,311.6,368.7,305.8,368.7z"/>
</svg>
