<?xml version="1.0" encoding="utf-8"?>
<!-- Generator: Adobe Illustrator 17.1.0, SVG Export Plug-In . SVG Version: 6.00 Build 0)  -->
<!DOCTYPE svg PUBLIC "-//W3C//DTD SVG 1.1//EN" "http://www.w3.org/Graphics/SVG/1.1/DTD/svg11.dtd">
<svg version="1.1" id="Layer_1" xmlns="http://www.w3.org/2000/svg" xmlns:xlink="http://www.w3.org/1999/xlink" x="0px" y="0px"
	 viewBox="0 0 612 792" enable-background="new 0 0 612 792" xml:space="preserve">
<path fill="#231F20" d="M478.6,333.9c-21.2,0-36.8,12.5-36.8,39.9c0,27.4,15.7,39.9,36.8,39.9c21.2,0,36.8-12.5,36.8-39.9
	C515.4,346.4,499.7,333.9,478.6,333.9z M478.6,398.1c-8.9,0-15.1-5.3-15.1-24.3c0-19,6.2-24.8,15.1-24.8c8.9,0,15.1,5.8,15.1,24.8
	C493.7,392.8,487.5,398.1,478.6,398.1z"/>
<path d="M135.7,496.6V481h19.1V367.5l-20.2,4.8l-1.2-13.5l30.5-15.1h12.4V481h19.1v15.6L135.7,496.6L135.7,496.6z"/>
<path d="M247,499c-15.2,0-27.4-4.3-35-6.9V458h15.5v21.1c2.9,1,10,3.1,19.5,3.1c13.4,0,24.6-8.6,24.6-32.6c0-25.4-10-32.6-21.5-32.6
	c-10.7,0-18.4,5-24.6,11l-10.5-3.4l2.4-80.9h75.8V379h-15.5v-17.3h-39.3l-1.7,43.7c3.1-2.1,8.4-5.3,18.1-5.3
	c18.4,0,39.3,10.3,39.3,49.5C294.2,487.3,272,499,247,499z"/>
<g>
	<path d="M359,498.5c-27.1,0-42-14.3-42-41.7c0-21.1,12.7-32.8,23.5-38.4c-9-5.9-19.4-15.2-19.4-36.3c0-23.9,14.7-37.5,38.4-37.5
		c22,0,37.1,13.4,37.1,36.3c0,21.3-11,29.8-20.4,35.4c11.8,6.6,24.5,17.6,24.5,40.3C400.6,484,385.7,498.5,359,498.5z M354.3,426.6
		c-9.8,6.3-18,16.2-18,30.2c0,15.5,8.4,24.6,22.9,24.6c13.3,0,22-7.5,22-24.1C381.2,440.8,369.4,434.1,354.3,426.6z M359,361.7
		c-11.6,0-18.6,6.8-18.6,19.7c0,14.1,10,20.4,21.8,26.9c7.3-5.2,14.9-13.6,14.9-26.9C377.1,368,370.8,361.7,359,361.7z"/>
</g>
</svg>
