<?xml version="1.0" encoding="utf-8"?>
<!-- Generator: Adobe Illustrator 17.1.0, SVG Export Plug-In . SVG Version: 6.00 Build 0)  -->
<!DOCTYPE svg PUBLIC "-//W3C//DTD SVG 1.1//EN" "http://www.w3.org/Graphics/SVG/1.1/DTD/svg11.dtd">
<svg version="1.1" id="Layer_1" xmlns="http://www.w3.org/2000/svg" xmlns:xlink="http://www.w3.org/1999/xlink" x="0px" y="0px"
	 viewBox="0 0 612 792" enable-background="new 0 0 612 792" xml:space="preserve">
<linearGradient id="SVGID_1_" gradientUnits="userSpaceOnUse" x1="8.6" y1="660.4" x2="602" y2="660.4">
	<stop  offset="4.591837e-02" style="stop-color:#9DDCF9"/>
	<stop  offset="0.5" style="stop-color:#D4EFFC"/>
	<stop  offset="0.9286" style="stop-color:#9BB5DF"/>
</linearGradient>
<path display="none" fill="url(#SVGID_1_)" d="M8.6,570v132.7c0,17.2,20.6,31.4,47.1,33.4c2.3,8.4,13.8,14.7,27.8,14.7H525
	c13.9,0,25.4-6.3,27.7-14.6c27.6-1.3,49.3-15.8,49.3-33.5V570H8.6z"/>
<linearGradient id="SVGID_2_" gradientUnits="userSpaceOnUse" x1="255.9808" y1="803.434" x2="352.0304" y2="539.5399">
	<stop  offset="1.020408e-02" style="stop-color:#EC9F22"/>
	<stop  offset="0.5" style="stop-color:#FFD97E"/>
	<stop  offset="1" style="stop-color:#FFEEC2"/>
</linearGradient>
<path display="none" fill="url(#SVGID_2_)" d="M20.4,629v76.5c0,0,9.5,13,22.4,14.7s18.9,15.8,30.1,15.7s455.9,0,455.9,0
	s12.8-13.1,24.1-14.8c11.2-1.7,39.7-8.4,39.7-22.7s0-71.3,0-71.3s-58.8-1.4-73.8,2.5c-15.1,3.9-93.6,2.1-112.6,1.3s-38-7.8-57-1.7
	c-19,6-57,9.5-82.9,4.3s-75.1-6-98.4-1.7s-37.1,4.3-60.4,1.7C84.3,630.7,45.4,619.5,20.4,629z"/>
<linearGradient id="SVGID_3_" gradientUnits="userSpaceOnUse" x1="309.4465" y1="749.2289" x2="309.4465" y2="650.9437">
	<stop  offset="8.163265e-02" style="stop-color:#9CB9E1"/>
	<stop  offset="0.2377" style="stop-color:#B2CEEB"/>
	<stop  offset="0.4429" style="stop-color:#C9E5F6"/>
	<stop  offset="0.5714" style="stop-color:#D2EDFA"/>
	<stop  offset="1" style="stop-color:#A4DEF8"/>
</linearGradient>
<path fill="url(#SVGID_3_)" d="M534.1,712.8v-61.8H84.8v61.8c0,7.3,4.9,14,12.8,18.6c1.3,0.8,2.7,1.5,4.2,2.2c1,0.4,2,0.9,3,1.2
	c4.7,1.7,10,2.9,15.6,3.3c0.4,1.6,1.3,3.1,2.5,4.4c0.6,0.7,1.3,1.3,2.1,1.9c0.8,0.6,1.6,1.1,2.6,1.6c0.9,0.5,1.9,1,3,1.3
	c1.1,0.4,2.2,0.7,3.3,1c2.3,0.6,4.9,0.9,7.5,0.9h334.3c3.3,0,6.4-0.5,9.2-1.3c1.1-0.3,2.2-0.7,3.2-1.2c0.5-0.2,1-0.5,1.4-0.7
	c2.3-1.2,4.2-2.8,5.5-4.5c0.8-1.1,1.4-2.2,1.7-3.4c3.9-0.2,7.7-0.7,11.2-1.5c1.8-0.4,3.5-0.9,5.1-1.5c0.5-0.2,1.1-0.4,1.6-0.6
	c2.1-0.8,4.1-1.7,6-2.8c0.5-0.3,0.9-0.5,1.4-0.8C529.5,726.4,534.1,719.9,534.1,712.8z"/>
<linearGradient id="SVGID_4_" gradientUnits="userSpaceOnUse" x1="273.2184" y1="5.1389" x2="341.6663" y2="193.1979" gradientTransform="matrix(1 0 0 -1 0 792)">
	<stop  offset="1.020408e-02" style="stop-color:#EC9F23"/>
	<stop  offset="0.5153" style="stop-color:#FFD87E"/>
	<stop  offset="1" style="stop-color:#FFEEC2"/>
</linearGradient>
<path fill="url(#SVGID_4_)" d="M94.9,667.9v37.5c0,0,7.2,13,16.9,14.7s14.2,15.8,22.7,15.7c8.4-0.1,343.6,0,343.6,0
	s9.6-13.1,18.2-14.8c8.4-1.7,29.9-8.4,29.9-22.7s0-32.4,0-32.4s-44.3-1.4-55.6,2.5c-11.4,3.9-70.5,2.1-84.9,1.3
	c-14.3-0.9-28.6-7.8-43-1.7c-14.3,6-43,9.5-62.5,4.3s-56.6-6-74.2-1.7s-28,4.3-45.5,1.7C143.1,669.6,113.8,658.4,94.9,667.9z"/>
</svg>
