<?xml version="1.0" encoding="utf-8"?>
<!-- Generator: Adobe Illustrator 17.1.0, SVG Export Plug-In . SVG Version: 6.00 Build 0)  -->
<!DOCTYPE svg PUBLIC "-//W3C//DTD SVG 1.1//EN" "http://www.w3.org/Graphics/SVG/1.1/DTD/svg11.dtd">
<svg version="1.1" id="Layer_1" xmlns="http://www.w3.org/2000/svg" xmlns:xlink="http://www.w3.org/1999/xlink" x="0px" y="0px"
	 viewBox="0 0 1200 1200" enable-background="new 0 0 1200 1200" xml:space="preserve">
<path fill="#231F20" d="M640.8,593.3c6.8-30.8-20-57.7-50.8-50.8c-15.5,3.4-28.1,16-31.5,31.5c-6.8,30.8,20,57.7,50.8,50.8
	C624.9,621.4,637.4,608.9,640.8,593.3z"/>
<path display="none" fill="#231F20" d="M608.3,689.5c8,26.4,7.1,61.3-0.6,85.8l1.7,21.5l111.7-34l-11.7-16.4
	c-24.7-16.2-44.1-40.9-53.4-71.4c-0.5-1.6-0.8-3.1-1.2-4.7l2.9-17L472.8,179.8l121.8,483C598.1,669.6,606,681.9,608.3,689.5z"/>
<g display="none">
	<path display="inline" fill="#FFFFFF" d="M640.8,593.3c6.8-30.8-20-57.7-50.8-50.8c-15.5,3.4-28.1,16-31.5,31.5
		c-6.8,30.8,20,57.7,50.8,50.8C624.9,621.4,637.4,608.9,640.8,593.3z"/>
	<path display="inline" fill="#231F20" d="M599.7,630.9C599.7,630.9,599.7,630.9,599.7,630.9c-14.4,0-27.8-6.5-36.9-17.7
		c-9-11.2-12.4-25.9-9.2-40.3c3.9-17.6,17.8-31.4,35.3-35.3c3.6-0.8,7.2-1.2,10.8-1.2c14.4,0,27.8,6.4,36.9,17.7
		c9,11.2,12.4,25.9,9.2,40.3c-3.9,17.6-17.8,31.4-35.3,35.3C606.8,630.5,603.2,630.9,599.7,630.9z M599.7,546.4
		c-2.8,0-5.7,0.3-8.6,1c-13.6,3-24.7,14.1-27.7,27.7c-2.5,11.4,0.1,23,7.2,31.9c7.1,8.9,17.7,14,29.1,14c0,0,0,0,0,0
		c2.8,0,5.7-0.3,8.6-1c13.6-3,24.7-14.1,27.7-27.7c2.5-11.4-0.1-23-7.2-31.9C621.6,551.5,611,546.4,599.7,546.4z"/>
</g>
<path fill="#231F20" d="M609.5,694.6c8.4,27.6,7.5,64-0.6,89.6c-0.1,0.2-0.1,0.4-0.1,0.6l1.5,20.1c0.1,1.1,1.2,1.8,2.2,1.5
	l112.7-34.3c1.1-0.3,1.6-1.7,0.9-2.6l-10.7-15c-0.1-0.2-0.3-0.3-0.4-0.4c-25.8-17-46-42.8-55.7-74.6c-0.5-1.5-0.8-3-1.1-4.6
	c-0.1-0.2-0.1-0.5,0-0.7l2.9-16.9c0.1-0.3,0-0.6-0.1-0.9L477.4,186c-0.8-2-3.8-1-3.2,1L595,666.4c0,0.1,0.1,0.2,0.1,0.4
	C598.9,674,607.1,686.7,609.5,694.6z"/>
<path fill="#FFFFFF" d="M644.6,586.1c1.3-26.3-20.2-47.8-46.5-46.5c-22.5,1.1-40.8,19.4-41.9,41.9c-1.3,26.3,20.2,47.8,46.5,46.5
	C625.2,626.8,643.5,608.6,644.6,586.1z"/>
<path fill="#231F20" d="M600.4,634C600.4,634,600.4,634,600.4,634c-13.9,0-26.9-5.6-36.4-15.6c-9.6-10.1-14.5-23.3-13.8-37.2
	c1.3-25.4,22.2-46.3,47.6-47.6c14.9-0.8,28.9,4.9,39,15.6c9.6,10.1,14.7,23.3,13.8,37.2C649,609.8,628.2,631,603,634
	C602.1,634.1,601.3,634,600.4,634z"/>
<path fill="#FFFFFF" d="M600.4,545.5c-0.7,0-1.3,0-2,0.1c-19.3,1-35.2,16.9-36.2,36.2c-0.5,10.6,3.2,20.7,10.5,28.4
	c7.3,7.7,17.2,11.9,27.7,11.9c0,0,0,0,0,0c0.7,0,1.3,0,2-0.1c19.3-1,35.2-16.9,36.2-36.2c0.5-10.6-3.2-20.7-10.5-28.4
	C620.8,549.7,611,545.5,600.4,545.5z"/>
</svg>
