<?xml version="1.0" encoding="utf-8"?>
<!-- Generator: Adobe Illustrator 17.1.0, SVG Export Plug-In . SVG Version: 6.00 Build 0)  -->
<!DOCTYPE svg PUBLIC "-//W3C//DTD SVG 1.1//EN" "http://www.w3.org/Graphics/SVG/1.1/DTD/svg11.dtd">
<svg version="1.1" id="Layer_1" xmlns="http://www.w3.org/2000/svg" xmlns:xlink="http://www.w3.org/1999/xlink" x="0px" y="0px"
	 viewBox="0 0 612 792" enable-background="new 0 0 612 792" xml:space="preserve">
<linearGradient id="SVGID_1_" gradientUnits="userSpaceOnUse" x1="309.8752" y1="758.2289" x2="309.8752" y2="337.9437">
	<stop  offset="8.163265e-02" style="stop-color:#9CB9E1"/>
	<stop  offset="0.2377" style="stop-color:#B2CEEB"/>
	<stop  offset="0.4429" style="stop-color:#C9E5F6"/>
	<stop  offset="0.5714" style="stop-color:#D2EDFA"/>
	<stop  offset="1" style="stop-color:#A4DEF8"/>
</linearGradient>
<path fill="url(#SVGID_1_)" d="M85.2,337.9v383.8c0,13.1,15.6,23.8,35.6,25.3c1.7,6.3,10.5,11.2,21,11.2h334.3
	c10.5,0,19.2-4.8,21-11.1c20.9-1,37.4-11.9,37.4-25.4V337.9H85.2z"/>
<linearGradient id="SVGID_2_" gradientUnits="userSpaceOnUse" x1="233.1782" y1="9.6757" x2="382.4118" y2="419.6914" gradientTransform="matrix(1 0 0 -1 0 792)">
	<stop  offset="1.020408e-02" style="stop-color:#EC9F23"/>
	<stop  offset="0.5153" style="stop-color:#FFD87E"/>
	<stop  offset="1" style="stop-color:#FFEEC2"/>
</linearGradient>
<path fill="url(#SVGID_2_)" d="M94.7,426.9v288.5c0,0,7.2,13,16.9,14.7s14.3,15.8,22.7,15.7s344.4,0,344.4,0s9.7-13.1,18.2-14.8
	c8.5-1.7,30-8.4,30-22.7s0-283.4,0-283.4s-44.4-1.4-55.8,2.5c-11.4,3.9-70.7,2.1-85.1,1.3c-14.4-0.9-28.7-7.8-43.1-1.7
	s-43.1,9.5-62.6,4.3s-56.7-6-74.3-1.7s-28,4.3-45.6,1.7C143,428.6,113.6,417.4,94.7,426.9z"/>
</svg>
