<?xml version="1.0" encoding="utf-8"?>
<!-- Generator: Adobe Illustrator 17.1.0, SVG Export Plug-In . SVG Version: 6.00 Build 0)  -->
<!DOCTYPE svg PUBLIC "-//W3C//DTD SVG 1.1//EN" "http://www.w3.org/Graphics/SVG/1.1/DTD/svg11.dtd">
<svg version="1.1" id="Layer_1" xmlns="http://www.w3.org/2000/svg" xmlns:xlink="http://www.w3.org/1999/xlink" x="0px" y="0px"
	 viewBox="0 0 612 792" enable-background="new 0 0 612 792" xml:space="preserve">
<path display="none" fill="#231F20" d="M310.2,441.6c4.1,13.5,3.6,31.3-0.3,43.8l0.9,11l57-17.3l-6-8.4
	c-12.6-8.3-22.5-20.9-27.2-36.4c-0.3-0.8-0.4-1.6-0.6-2.4l1.5-8.7l-94.3-241.5l62,246.3C305,431.5,309.1,437.8,310.2,441.6z"/>
<g display="none">
	<path display="inline" fill="#FFFFFF" d="M326.8,392.6c3.5-15.7-10.2-29.4-25.9-25.9c-7.9,1.7-14.3,8.2-16.1,16.1
		c-3.5,15.7,10.2,29.4,25.9,25.9C318.7,406.9,325.1,400.5,326.8,392.6z"/>
	<path display="inline" fill="#231F20" d="M305.8,411.8L305.8,411.8c-7.3,0-14.2-3.3-18.8-9c-4.6-5.7-6.3-13.2-4.7-20.6
		c2-9,9.1-16,18-18c1.8-0.4,3.7-0.6,5.5-0.6c7.3,0,14.2,3.3,18.8,9c4.6,5.7,6.3,13.2,4.7,20.6c-2,9-9.1,16-18,18
		C309.5,411.6,307.6,411.8,305.8,411.8z M305.8,368.7c-1.4,0-2.9,0.2-4.4,0.5c-6.9,1.5-12.6,7.2-14.1,14.1
		c-1.3,5.8,0.1,11.7,3.7,16.3c3.6,4.5,9,7.1,14.8,7.1l0,0c1.4,0,2.9-0.2,4.4-0.5c6.9-1.5,12.6-7.2,14.1-14.1
		c1.3-5.8-0.1-11.7-3.7-16.3C317,371.3,311.6,368.7,305.8,368.7z"/>
</g>
<linearGradient id="SVGID_1_" gradientUnits="userSpaceOnUse" x1="306" y1="535.587" x2="306" y2="603.187">
	<stop  offset="5.103680e-02" style="stop-color:#FFFFFF"/>
	<stop  offset="0.847" style="stop-color:#B82525"/>
</linearGradient>
<path fill="url(#SVGID_1_)" d="M66,535.5v67.6h480v-67.6h-53.4v0.1v13c0,11-19.5,19.9-36.5,20.7c-1.5,5.2-8.5,9-17.1,9H167
	c-8.5,0-15.7-4-17.1-9.1c-16.4-1.2-33.9-9.9-33.9-20.7v-13H66z"/>
</svg>
