<?xml version="1.0" encoding="utf-8"?>
<!-- Generator: Adobe Illustrator 17.1.0, SVG Export Plug-In . SVG Version: 6.00 Build 0)  -->
<!DOCTYPE svg PUBLIC "-//W3C//DTD SVG 1.1//EN" "http://www.w3.org/Graphics/SVG/1.1/DTD/svg11.dtd">
<svg version="1.1" id="Layer_1" xmlns="http://www.w3.org/2000/svg" xmlns:xlink="http://www.w3.org/1999/xlink" x="0px" y="0px"
	 viewBox="0 0 612 792" enable-background="new 0 0 612 792" xml:space="preserve">
<linearGradient id="SVGID_1_" gradientUnits="userSpaceOnUse" x1="308.4212" y1="750.2289" x2="308.4212" y2="619.7745">
	<stop  offset="8.163265e-02" style="stop-color:#9CB9E1"/>
	<stop  offset="0.2377" style="stop-color:#B2CEEB"/>
	<stop  offset="0.4429" style="stop-color:#C9E5F6"/>
	<stop  offset="0.5714" style="stop-color:#D2EDFA"/>
	<stop  offset="1" style="stop-color:#A4DEF8"/>
</linearGradient>
<path fill="url(#SVGID_1_)" d="M83.7,713.8c0,7.3,4.9,14,12.8,18.6c1.3,0.8,2.7,1.5,4.2,2.2c1,0.4,2,0.9,3,1.2
	c4.7,1.7,10,2.9,15.6,3.3c1.7,6.3,10.5,11.2,21,11.2h334.3c10.5,0,19.2-4.8,21-11.1c0.7,0,1.5-0.1,2.2-0.1c0,0,0.1,0,0.1,0
	c0.7-0.1,1.4-0.1,2.1-0.2c0,0,0,0,0,0c0-0.1,0-0.1,0.1-0.2c1.4-0.1,2.8-0.2,4.2-0.4c0,0,0,0,0,0c0.5-0.1,1-0.2,1.5-0.3c0,0,0,0,0,0
	c3-0.7,5.9-1.5,8.6-2.6c0,0,0.1,0,0.1,0c0.4-0.2,0.8-0.3,1.2-0.5c0,0,0.1,0,0.1-0.1c0.4-0.2,0.8-0.4,1.2-0.6c0,0,0,0,0,0
	c1.6-0.8,3.1-1.6,4.5-2.5c0.1,0,0.1-0.1,0.2-0.1c0.3-0.2,0.6-0.4,0.8-0.6c0.1-0.1,0.2-0.1,0.3-0.2c0.3-0.2,0.5-0.4,0.8-0.6
	c0.1-0.1,0.2-0.2,0.3-0.3c0.2-0.2,0.5-0.4,0.7-0.6c0.1-0.1,0.2-0.2,0.3-0.3c0.2-0.2,0.5-0.4,0.7-0.6c0.1-0.1,0.2-0.1,0.2-0.2
	c0.4-0.4,0.8-0.8,1.2-1.2c0.1-0.1,0.2-0.2,0.3-0.3c0.2-0.2,0.3-0.3,0.5-0.5c0.1-0.1,0.3-0.3,0.4-0.4c0.1-0.2,0.3-0.3,0.4-0.5
	c0.1-0.2,0.3-0.3,0.4-0.5c0.1-0.2,0.2-0.3,0.4-0.5c0.1-0.2,0.2-0.4,0.4-0.5c0.1-0.2,0.2-0.3,0.3-0.5c0.1-0.2,0.2-0.4,0.4-0.6
	c0.1-0.1,0.2-0.3,0.3-0.4c0.2-0.3,0.3-0.6,0.4-0.8c0.1-0.1,0.1-0.2,0.2-0.3c0.1-0.3,0.3-0.6,0.4-1c0.1-0.1,0.1-0.3,0.1-0.4
	c0.1-0.2,0.2-0.5,0.2-0.7c0-0.1,0.1-0.3,0.1-0.4c0.1-0.2,0.1-0.5,0.2-0.7c0-0.2,0.1-0.3,0.1-0.5c0.1-0.2,0.1-0.5,0.1-0.7
	c0-0.1,0.1-0.3,0.1-0.4c0-0.3,0.1-0.5,0.1-0.8c0-0.1,0-0.3,0-0.4c0-0.4,0-0.8,0-1.2v-94H83.7V713.8z"/>
<linearGradient id="SVGID_2_" gradientUnits="userSpaceOnUse" x1="266.5801" y1="4.4892" x2="342.621" y2="213.4099" gradientTransform="matrix(1 0 0 -1 0 792)">
	<stop  offset="1.020408e-02" style="stop-color:#EC9F23"/>
	<stop  offset="0.5153" style="stop-color:#FFD87E"/>
	<stop  offset="1" style="stop-color:#FFEEC2"/>
</linearGradient>
<path fill="url(#SVGID_2_)" d="M93,646.1v61.4c0,0,7.1,13.1,16.8,14.9c9.7,1.7,14.2,16,22.6,15.9c8.4-0.1,342.2,0,342.2,0
	s9.6-13.2,18.1-15c8.4-1.7,29.8-8.5,29.8-23s0-56.2,0-56.2s-44.1-1.4-55.4,2.5c-11.3,3.9-70.2,2.1-84.5,1.3
	c-14.3-0.9-28.5-7.9-42.8-1.7c-14.3,6.1-42.8,9.6-62.2,4.3c-19.4-5.3-56.4-6.1-73.8-1.7s-27.8,4.3-45.3,1.7
	C141,647.8,111.8,636.5,93,646.1z"/>
</svg>
