<?xml version="1.0" encoding="utf-8"?>
<!-- Generator: Adobe Illustrator 17.1.0, SVG Export Plug-In . SVG Version: 6.00 Build 0)  -->
<!DOCTYPE svg PUBLIC "-//W3C//DTD SVG 1.1//EN" "http://www.w3.org/Graphics/SVG/1.1/DTD/svg11.dtd">
<svg version="1.1" id="Layer_1" xmlns="http://www.w3.org/2000/svg" xmlns:xlink="http://www.w3.org/1999/xlink" x="0px" y="0px"
	 viewBox="0 0 1200 1200" enable-background="new 0 0 1200 1200" xml:space="preserve">
<path display="none" fill="#231F20" d="M608.3,689.5c8,26.4,7.1,61.3-0.6,85.8l1.7,21.5l111.7-34l-11.7-16.4
	c-24.7-16.2-44.1-40.9-53.4-71.4c-0.5-1.6-0.8-3.1-1.2-4.7l2.9-17L472.8,179.8l121.8,483C598.1,669.6,606,681.9,608.3,689.5z"/>
<g display="none">
	<path display="inline" fill="#FFFFFF" d="M640.8,593.3c6.8-30.8-20-57.7-50.8-50.8c-15.5,3.4-28.1,16-31.5,31.5
		c-6.8,30.8,20,57.7,50.8,50.8C624.9,621.4,637.4,608.9,640.8,593.3z"/>
	<path display="inline" fill="#231F20" d="M599.7,630.9L599.7,630.9c-14.4,0-27.8-6.5-36.9-17.7c-9-11.2-12.4-25.9-9.2-40.3
		c3.9-17.6,17.8-31.4,35.3-35.3c3.6-0.8,7.2-1.2,10.8-1.2c14.4,0,27.8,6.4,36.9,17.7c9,11.2,12.4,25.9,9.2,40.3
		c-3.9,17.6-17.8,31.4-35.3,35.3C606.8,630.5,603.2,630.9,599.7,630.9z M599.7,546.4c-2.8,0-5.7,0.3-8.6,1
		c-13.6,3-24.7,14.1-27.7,27.7c-2.5,11.4,0.1,23,7.2,31.9c7.1,8.9,17.7,14,29.1,14l0,0c2.8,0,5.7-0.3,8.6-1
		c13.6-3,24.7-14.1,27.7-27.7c2.5-11.4-0.1-23-7.2-31.9C621.6,551.5,611,546.4,599.7,546.4z"/>
</g>
<linearGradient id="SVGID_1_" gradientUnits="userSpaceOnUse" x1="599.8697" y1="2.2699" x2="599.8697" y2="1198.4198" gradientTransform="matrix(1 0 0 -1 0 1200)">
	<stop  offset="1.020408e-02" style="stop-color:#EC9F23"/>
	<stop  offset="0.5153" style="stop-color:#FFD87E"/>
	<stop  offset="1" style="stop-color:#FFEEC2"/>
</linearGradient>
<rect x="0.4" y="1.6" fill="url(#SVGID_1_)" width="1198.9" height="1196.1"/>
</svg>
