<?xml version="1.0" encoding="utf-8"?>
<!-- Generator: Adobe Illustrator 17.1.0, SVG Export Plug-In . SVG Version: 6.00 Build 0)  -->
<!DOCTYPE svg PUBLIC "-//W3C//DTD SVG 1.1//EN" "http://www.w3.org/Graphics/SVG/1.1/DTD/svg11.dtd">
<svg version="1.1" id="Layer_1" xmlns="http://www.w3.org/2000/svg" xmlns:xlink="http://www.w3.org/1999/xlink" x="0px" y="0px"
	 viewBox="0 0 1200 1200" enable-background="new 0 0 1200 1200" xml:space="preserve">
<circle fill="#BABABA" cx="601.9" cy="584.8" r="519.8"/>
<circle fill="#808080" cx="601.9" cy="584.8" r="492.4"/>
<circle fill="#DEDEDE" cx="601.9" cy="584.8" r="460.2"/>
<circle fill="#FFFFFF" cx="606.7" cy="585.4" r="433.4"/>
<path fill="#231F20" d="M460.1,338.5l-55.4-99l-9.9,5.5l55.3,98.7C453.4,341.8,456.8,340.2,460.1,338.5z"/>
<path fill="#231F20" d="M407,374.5l-75.5-84.3l-8.4,7.5l75.5,84.3C401.3,379.5,404.1,376.9,407,374.5z"/>
<path fill="#231F20" d="M310.3,540.5l-111.1-19.2l-1.9,11.1l110.9,19.2C308.8,547.9,309.6,544.2,310.3,540.5z"/>
<path fill="#231F20" d="M585.2,304.4L578.1,191l-11.3,0.7l7.1,113.6C577.7,305.1,581.4,304.5,585.2,304.4z"/>
<path fill="#231F20" d="M888.8,586.3l114.2-6.1l-0.6-11.3L888,575C888.2,578.8,888.7,582.5,888.8,586.3z"/>
<path fill="#231F20" d="M329.9,478.1l-104.1-43.5l-4.3,10.4l103.9,43.4C326.8,484.9,328.4,481.5,329.9,478.1z"/>
<path fill="#231F20" d="M650.3,309.3l18.4-112.5l-11.1-1.8l-18.3,112.5C642.9,308,646.6,308.6,650.3,309.3z"/>
<path fill="#231F20" d="M879.2,521.9l110.1-31.3l-3.1-10.9L876,511.1C877.1,514.7,878.3,518.2,879.2,521.9z"/>
<path fill="#231F20" d="M819.1,407l85.5-76l-7.5-8.4l-85.6,76C814.1,401.3,816.6,404.1,819.1,407z"/>
<path fill="#231F20" d="M769.3,360.8l65.5-93.7l-9.2-6.5L760,354.3C763.2,356.4,766.3,358.5,769.3,360.8z"/>
<path fill="#231F20" d="M832.2,769.1l93.1,66l6.5-9.2l-93.2-66C836.6,763,834.5,766.1,832.2,769.1z"/>
<path fill="#231F20" d="M864.2,713.5l105.5,44.1l4.3-10.4l-105.3-44C867.4,706.7,865.7,710.1,864.2,713.5z"/>
<path fill="#231F20" d="M338.4,732.1l-98.7,54.2l5.4,9.9l98.6-54.1C341.8,738.9,340.2,735.5,338.4,732.1z"/>
<path fill="#231F20" d="M375.1,786.4l-84.2,74.8l7.5,8.4l84.2-74.8C380.1,792,377.5,789.2,375.1,786.4z"/>
<path fill="#231F20" d="M314.4,670.8l-108.2,30.8l3.1,10.9l108.3-30.8C316.5,678,315.4,674.5,314.4,670.8z"/>
<g>
	<g>
		<path fill="#FFFFFF" d="M361.4,798.6c-46.7-54.9-75-125.9-75-203.6c0-173.8,140.9-314.7,314.7-314.7S915.8,421.1,915.8,595
			c0,66.8-21,128.6-56.4,179.6l37.4,26.5c40.8-58.4,65-129.3,65-206c0-198.9-161.3-360.2-360.2-360.2S241.3,396,241.3,595
			c0,89.2,32.6,170.7,86.3,233.6L361.4,798.6z"/>
		<path fill="#231F20" d="M327.1,835.7l-3.3-3.9c-27.7-32.4-49.3-68.9-64.2-108.4c-15.5-41-23.3-84.2-23.3-128.4
			c0-49.3,9.7-97.1,28.7-142.2c18.4-43.5,44.7-82.5,78.3-116.1c33.5-33.5,72.6-59.9,116.1-78.3c45-19,92.9-28.7,142.2-28.7
			s97.1,9.7,142.2,28.7c43.5,18.4,82.5,44.7,116.1,78.3c33.5,33.5,59.9,72.6,78.3,116.1c19,45,28.7,92.9,28.7,142.2
			c0,75-22.8,147.2-65.9,208.9l-2.9,4.1l-45.5-32.3l2.8-4.1c36.3-52.2,55.5-113.3,55.5-176.7c0-82.7-32.2-160.5-90.7-219
			c-58.5-58.5-136.3-90.7-219-90.7s-160.5,32.2-219,90.7c-58.5,58.5-90.7,136.3-90.7,219c0,73.3,26.2,144.4,73.8,200.4l3.2,3.7
			L327.1,835.7z"/>
		<path fill="#FFFFFF" d="M601.5,239.8c-94.9,0-184.1,36.9-251.2,104s-104,156.3-104,251.2c0,43,7.6,85,22.7,124.9
			c13.9,36.9,33.8,71,59.1,101.6l26.3-23.4c-47.1-57.2-73-129.1-73-203.1c0-85.4,33.3-165.7,93.6-226.1
			c60.4-60.4,140.7-93.6,226.1-93.6c85.4,0,165.7,33.3,226.1,93.6s93.6,140.7,93.6,226.1c0,63.8-18.8,125.4-54.5,178.3l29.2,20.7
			c40.1-59,61.2-127.7,61.2-199c0-94.9-36.9-184.1-104-251.2C785.6,276.7,696.4,239.8,601.5,239.8z"/>
	</g>
</g>
<path fill="#231F20" d="M520.8,314.4l-32-108.9l-10.8,3.2l32,109C513.6,316.5,517.2,315.4,520.8,314.4z"/>
<path fill="#231F20" d="M855.4,461l100.4-55.2l-5.4-9.9L850.2,451C852,454.2,853.7,457.6,855.4,461z"/>
<path fill="#231F20" d="M712.8,328.5l43.1-105.8l-10.5-4.3l-42.9,105.6C705.9,325.3,709.3,327,712.8,328.5z"/>
<path fill="#231F20" d="M362.3,422.3L270.2,357l-6.5,9.2l92.2,65.3C358,428.5,360.1,425.3,362.3,422.3z"/>
<path fill="#231F20" d="M885.6,640.2c-0.6,3.7-1.3,7.4-2,11.1l112.8,19.6l1.9-11.1L885.6,640.2z"/>
<path fill="#231F20" d="M304.9,606l-112.3,6l0.6,11.3l112.5-6C305.4,613.5,305,609.8,304.9,606z"/>
<path fill="#231F20" d="M640.8,593.3c6.8-30.8-20-57.7-50.8-50.8c-15.5,3.4-28.1,16-31.5,31.5c-6.8,30.8,20,57.7,50.8,50.8
	C624.9,621.4,637.4,608.9,640.8,593.3z"/>
<path display="none" fill="#231F20" d="M608.3,689.5c8,26.4,7.1,61.3-0.6,85.8l1.7,21.5l111.7-34l-11.7-16.4
	c-24.7-16.2-44.1-40.9-53.4-71.4c-0.5-1.6-0.8-3.1-1.2-4.7l2.9-17L472.8,179.8l121.8,483C598.1,669.6,606,681.9,608.3,689.5z"/>
<g display="none">
	<path display="inline" fill="#FFFFFF" d="M640.8,593.3c6.8-30.8-20-57.7-50.8-50.8c-15.5,3.4-28.1,16-31.5,31.5
		c-6.8,30.8,20,57.7,50.8,50.8C624.9,621.4,637.4,608.9,640.8,593.3z"/>
	<path display="inline" fill="#231F20" d="M599.7,630.9C599.7,630.9,599.7,630.9,599.7,630.9c-14.4,0-27.8-6.5-36.9-17.7
		c-9-11.2-12.4-25.9-9.2-40.3c3.9-17.6,17.8-31.4,35.3-35.3c3.6-0.8,7.2-1.2,10.8-1.2c14.4,0,27.8,6.4,36.9,17.7
		c9,11.2,12.4,25.9,9.2,40.3c-3.9,17.6-17.8,31.4-35.3,35.3C606.8,630.5,603.2,630.9,599.7,630.9z M599.7,546.4
		c-2.8,0-5.7,0.3-8.6,1c-13.6,3-24.7,14.1-27.7,27.7c-2.5,11.4,0.1,23,7.2,31.9c7.1,8.9,17.7,14,29.1,14c0,0,0,0,0,0
		c2.8,0,5.7-0.3,8.6-1c13.6-3,24.7-14.1,27.7-27.7c2.5-11.4-0.1-23-7.2-31.9C621.6,551.5,611,546.4,599.7,546.4z"/>
</g>
</svg>
