<?xml version="1.0" encoding="utf-8"?>
<!-- Generator: Adobe Illustrator 17.1.0, SVG Export Plug-In . SVG Version: 6.00 Build 0)  -->
<!DOCTYPE svg PUBLIC "-//W3C//DTD SVG 1.1//EN" "http://www.w3.org/Graphics/SVG/1.1/DTD/svg11.dtd">
<svg version="1.1" id="Layer_1" xmlns="http://www.w3.org/2000/svg" xmlns:xlink="http://www.w3.org/1999/xlink" x="0px" y="0px"
	 viewBox="0 0 612 792" enable-background="new 0 0 612 792" xml:space="preserve">
<path fill="#FFFFFF" d="M0,0v792h612V0H0z M564.9,223.8H554v438.3c0,13.9-24.7,25.2-46.2,26.2c-1.9,6.5-10.8,11.4-21.6,11.4H142.3
	c-10.9,0-19.8-5-21.6-11.5c-20.7-1.5-42.8-12.6-42.8-26.1V223.8H68V181h12.9c1.5-9.6,9.5-17.1,23.3-20
	c29.4-27.2,86.2-44.5,144.7-52.1V90h127.5v19.1c58,7.9,109.8,22.9,138.4,50.7c-4-1.4,26.7,11.8,29.9,21.2h20.1h0.1L564.9,223.8
	L564.9,223.8z"/>
<path fill="#A7A9AC" d="M564.8,181h-20.1c-3.2-9.4-34-22.6-29.9-21.2c-28.6-27.8-80.3-42.8-138.4-50.7V90H248.9v18.9
	c-58.4,7.6-115.3,24.9-144.7,52.1c-13.8,2.9-21.8,10.4-23.3,20H68v42.7h9.8V662c0,13.5,22.1,24.6,42.8,26.1
	c1.8,6.5,10.8,11.5,21.6,11.5h343.9c10.8,0,19.7-4.9,21.6-11.4c21.5-1,46.2-12.3,46.2-26.2V223.8h10.9L564.8,181L564.8,181z
	 M546.8,210.7h-5.7V650c0,13.5-16.5,24.4-37.4,25.4C503,675,128,675,127.5,675.3c-20.1-1.5-35.6-12.2-35.6-25.3V210.6h-9.5v-17.1H89
	c1.4-9.3,9.2-16.6,22.6-19.4c28.6-26.3,88.1-43.1,152.8-50.4V96.6h99.2V124c65.3,7.7,119.3,22.1,147.2,49c-4-1.3,26,11.4,29.1,20.6
	h7L546.8,210.7L546.8,210.7z"/>
</svg>
