<?xml version="1.0" encoding="utf-8"?>
<!-- Generator: Adobe Illustrator 17.1.0, SVG Export Plug-In . SVG Version: 6.00 Build 0)  -->
<!DOCTYPE svg PUBLIC "-//W3C//DTD SVG 1.1//EN" "http://www.w3.org/Graphics/SVG/1.1/DTD/svg11.dtd">
<svg version="1.1" id="Layer_1" xmlns="http://www.w3.org/2000/svg" xmlns:xlink="http://www.w3.org/1999/xlink" x="0px" y="0px"
	 viewBox="0 0 612 792" enable-background="new 0 0 612 792" xml:space="preserve">
<path fill="#231F20" d="M478.6,333.9c-21.2,0-36.8,12.5-36.8,39.9c0,27.4,15.7,39.9,36.8,39.9c21.2,0,36.8-12.5,36.8-39.9
	C515.4,346.4,499.7,333.9,478.6,333.9z M478.6,398.1c-8.9,0-15.1-5.3-15.1-24.3c0-19,6.2-24.8,15.1-24.8c8.9,0,15.1,5.8,15.1,24.8
	C493.7,392.8,487.5,398.1,478.6,398.1z"/>
<path d="M135.7,496.6V481h19.1V367.5l-20.2,4.8l-1.2-13.5l30.5-15.1h12.4V481h19.1v15.6L135.7,496.6L135.7,496.6z"/>
<path d="M247,499c-15.2,0-27.4-4.3-35-6.9V458h15.5v21.1c2.9,1,10,3.1,19.5,3.1c13.4,0,24.6-8.6,24.6-32.6c0-25.4-10-32.6-21.5-32.6
	c-10.7,0-18.4,5-24.6,11l-10.5-3.4l2.4-80.9h75.8V379h-15.5v-17.3h-39.3l-1.7,43.7c3.1-2.1,8.4-5.3,18.1-5.3
	c18.4,0,39.3,10.3,39.3,49.5C294.2,487.3,272,499,247,499z"/>
<g>
	<path d="M358,500.5c-27.8,0-43.1-14.6-43.1-42.7c0-21.6,13-33.6,24-39.3c-9.2-6-19.9-15.6-19.9-37.2c0-24.5,15-38.4,39.3-38.4
		c22.6,0,38,13.7,38,37.2c0,21.8-11.3,30.5-20.9,36.2c12.1,6.7,25.1,18,25.1,41.3C400.6,485.6,385.3,500.5,358,500.5z M353.2,426.8
		c-10,6.5-18.4,16.6-18.4,30.9c0,15.8,8.6,25.2,23.4,25.2c13.6,0,22.6-7.7,22.6-24.7C380.7,441.5,368.6,434.5,353.2,426.8z
		 M358,360.4c-11.9,0-19,7-19,20.2c0,14.4,10.2,20.9,22.4,27.6c7.5-5.3,15.3-13.9,15.3-27.6S370.1,360.4,358,360.4z"/>
</g>
</svg>
