<?xml version="1.0" encoding="utf-8"?>
<!-- Generator: Adobe Illustrator 17.1.0, SVG Export Plug-In . SVG Version: 6.00 Build 0)  -->
<!DOCTYPE svg PUBLIC "-//W3C//DTD SVG 1.1//EN" "http://www.w3.org/Graphics/SVG/1.1/DTD/svg11.dtd">
<svg version="1.1" id="Layer_1" xmlns="http://www.w3.org/2000/svg" xmlns:xlink="http://www.w3.org/1999/xlink" x="0px" y="0px"
	 viewBox="0 0 612 792" enable-background="new 0 0 612 792" xml:space="preserve">
<linearGradient id="SVGID_1_" gradientUnits="userSpaceOnUse" x1="310.1814" y1="758.2289" x2="310.1814" y2="527.9437">
	<stop  offset="8.163265e-02" style="stop-color:#9CB9E1"/>
	<stop  offset="0.2377" style="stop-color:#B2CEEB"/>
	<stop  offset="0.4429" style="stop-color:#C9E5F6"/>
	<stop  offset="0.5714" style="stop-color:#D2EDFA"/>
	<stop  offset="1" style="stop-color:#A4DEF8"/>
</linearGradient>
<path fill="url(#SVGID_1_)" d="M85.5,527.9v193.8c0,13.1,15.6,23.8,35.6,25.3c1.7,6.3,10.5,11.2,21,11.2h334.3
	c10.5,0,19.2-4.8,21-11.1c20.9-1,37.4-11.9,37.4-25.4V527.9H85.5z"/>
<linearGradient id="SVGID_2_" gradientUnits="userSpaceOnUse" x1="256.1221" y1="789.2834" x2="359.8076" y2="504.4102">
	<stop  offset="1.020408e-02" style="stop-color:#EC9F23"/>
	<stop  offset="0.5153" style="stop-color:#FFD87E"/>
	<stop  offset="1" style="stop-color:#FFEEC2"/>
</linearGradient>
<path fill="url(#SVGID_2_)" d="M96,566.9v147.5c0,0,7.1,13,16.8,14.7s14.2,15.8,22.6,15.7s342.7,0,342.7,0s9.6-13.1,18.1-14.8
	c8.4-1.7,29.8-8.4,29.8-22.7s0-142.4,0-142.4s-44.2-1.4-55.5,2.5c-11.4,3.9-70.4,2.1-84.6,1.3c-14.3-0.9-28.6-7.8-42.8-1.7
	c-14.3,6-42.8,9.5-62.3,4.3s-56.5-6-74-1.7s-27.9,4.3-45.4,1.7C144,568.6,114.8,557.4,96,566.9z"/>
</svg>
