<?xml version="1.0" encoding="utf-8"?>
<!-- Generator: Adobe Illustrator 17.1.0, SVG Export Plug-In . SVG Version: 6.00 Build 0)  -->
<!DOCTYPE svg PUBLIC "-//W3C//DTD SVG 1.1//EN" "http://www.w3.org/Graphics/SVG/1.1/DTD/svg11.dtd">
<svg version="1.1" id="Layer_1" xmlns="http://www.w3.org/2000/svg" xmlns:xlink="http://www.w3.org/1999/xlink" x="0px" y="0px"
	 viewBox="0 0 612 792" enable-background="new 0 0 612 792" xml:space="preserve">
<linearGradient id="SVGID_1_" gradientUnits="userSpaceOnUse" x1="310.0385" y1="757.2289" x2="310.0385" y2="298.1429">
	<stop  offset="8.163265e-02" style="stop-color:#9CB9E1"/>
	<stop  offset="0.2377" style="stop-color:#B2CEEB"/>
	<stop  offset="0.4429" style="stop-color:#C9E5F6"/>
	<stop  offset="0.5714" style="stop-color:#D2EDFA"/>
	<stop  offset="1" style="stop-color:#A4DEF8"/>
</linearGradient>
<path fill="url(#SVGID_1_)" d="M85.4,298.1v422.6c0,13.1,15.6,23.8,35.6,25.3c1.7,6.3,10.5,11.2,21,11.2h334.3
	c10.5,0,19.2-4.8,21-11.1c20.9-1,37.4-11.9,37.4-25.4V298.1H85.4z"/>
<linearGradient id="SVGID_2_" gradientUnits="userSpaceOnUse" x1="229.2637" y1="778.9276" x2="387.9848" y2="342.8446">
	<stop  offset="1.020408e-02" style="stop-color:#EC9F23"/>
	<stop  offset="0.5153" style="stop-color:#FFD87E"/>
	<stop  offset="1" style="stop-color:#FFEEC2"/>
</linearGradient>
<path fill="url(#SVGID_2_)" d="M94.5,396.1v317.3c0,0,7.2,13,17,14.7s14.4,15.8,22.9,15.7s346.2,0,346.2,0s9.7-13.1,18.3-14.8
	c8.5-1.7,30.1-8.4,30.1-22.7s0-312.2,0-312.2s-44.6-1.4-56,2.5c-11.5,3.9-71.1,2.1-85.5,1.3c-14.4-0.9-28.9-7.8-43.3-1.7
	s-43.3,9.5-62.9,4.3c-19.7-5.2-57-6-74.7-1.7s-28.2,4.3-45.9,1.7C143,397.8,113.4,386.6,94.5,396.1z"/>
</svg>
