<?xml version="1.0" encoding="utf-8"?>
<!-- Generator: Adobe Illustrator 17.1.0, SVG Export Plug-In . SVG Version: 6.00 Build 0)  -->
<!DOCTYPE svg PUBLIC "-//W3C//DTD SVG 1.1//EN" "http://www.w3.org/Graphics/SVG/1.1/DTD/svg11.dtd">
<svg version="1.1" id="Layer_1" xmlns="http://www.w3.org/2000/svg" xmlns:xlink="http://www.w3.org/1999/xlink" x="0px" y="0px"
	 viewBox="0 0 612 792" enable-background="new 0 0 612 792" xml:space="preserve">
<path fill="#231F20" d="M478.6,334c-21.1,0-36.8,12.5-36.8,39.9c0,27.4,15.6,39.9,36.8,39.9c21.1,0,36.8-12.5,36.8-39.9
	C515.4,346.5,499.8,334,478.6,334z M478.6,398.2c-8.8,0-15.1-5.3-15.1-24.3s6.2-24.8,15.1-24.8c8.9,0,15.1,5.7,15.1,24.8
	C493.7,392.9,487.5,398.2,478.6,398.2z"/>
<path d="M136.2,496.3v-15.6h19.2V366.9l-20.4,4.8l-1.2-13.5l30.7-15.1H177v137.5h19v15.6h-59.8V496.3z"/>
<path d="M284.7,465v31.3h-21.6V465h-62.3v-18l59.9-103.9h24V447h16.8v18H284.7z M263.1,373.7L221.9,447h41.2V373.7z"/>
<path d="M367.5,498.7c-31.9,0-49.3-14.7-49.3-42.8c0-21.6,14.8-33.7,27.5-39.4c-10.5-6-22.8-15.6-22.8-37.3
	c0-24.5,17.2-38.5,45-38.5c25.9,0,43.6,13.7,43.6,37.3c0,21.9-12.9,30.5-24,36.3c13.9,6.7,28.7,18,28.7,41.4
	C416.4,483.8,398.9,498.7,367.5,498.7z M362,424.9c-11.5,6.5-21.1,16.6-21.1,31c0,15.9,9.8,25.2,26.8,25.2
	c15.6,0,25.9-7.7,25.9-24.8C393.6,439.5,379.7,432.6,362,424.9z M367.5,358.3c-13.7,0-21.8,7-21.8,20.2c0,14.4,11.7,20.9,25.6,27.6
	c8.6-5.3,17.5-13.9,17.5-27.6C388.8,364.8,381.4,358.3,367.5,358.3z"/>
</svg>
