<?xml version="1.0" encoding="utf-8"?>
<!-- Generator: Adobe Illustrator 17.1.0, SVG Export Plug-In . SVG Version: 6.00 Build 0)  -->
<!DOCTYPE svg PUBLIC "-//W3C//DTD SVG 1.1//EN" "http://www.w3.org/Graphics/SVG/1.1/DTD/svg11.dtd">
<svg version="1.1" id="Layer_1" xmlns="http://www.w3.org/2000/svg" xmlns:xlink="http://www.w3.org/1999/xlink" x="0px" y="0px"
	 viewBox="0 0 612 792" enable-background="new 0 0 612 792" xml:space="preserve">
<linearGradient id="SVGID_1_" gradientUnits="userSpaceOnUse" x1="161.3" y1="200.7" x2="1072.3" y2="200.7" gradientTransform="matrix(0.51 0 0 -0.51 0 493.92)">
	<stop  offset="0.1224" style="stop-color:#D1D3D4"/>
	<stop  offset="0.5204" style="stop-color:#FFFFFF"/>
	<stop  offset="0.8878" style="stop-color:#D1D3D4"/>
</linearGradient>
<path fill="url(#SVGID_1_)" d="M546.9,193.6h-7c-3.1-9.1-33-21.8-29.1-20.6c-27.8-26.9-81.9-41.4-147.2-49V96.6h-99.2v27.1
	c-64.8,7.3-124.3,24.1-152.8,50.4c-13.4,2.8-21.2,10-22.6,19.4h-6.6v17.1h9.5V650c0,13.1,15.6,23.8,35.6,25.3
	c1.7,6.3,10.5,11.2,21,11.2h334.3c10.5,0,19.2-4.8,21-11.1c20.9-1,37.4-11.9,37.4-25.4V210.7h5.7L546.9,193.6L546.9,193.6z"/>
</svg>
