<?xml version="1.0" encoding="utf-8"?>
<!-- Generator: Adobe Illustrator 17.1.0, SVG Export Plug-In . SVG Version: 6.00 Build 0)  -->
<!DOCTYPE svg PUBLIC "-//W3C//DTD SVG 1.1//EN" "http://www.w3.org/Graphics/SVG/1.1/DTD/svg11.dtd">
<svg version="1.1" id="mash_turn" xmlns="http://www.w3.org/2000/svg" xmlns:xlink="http://www.w3.org/1999/xlink" x="0px" y="0px"
	 viewBox="-294 -204 1200 1200" enable-background="new -294 -204 1200 1200" xml:space="preserve">
<g enable-background="new    ">
	<g>
		<g>
			
				<linearGradient id="SVGID_2_" gradientUnits="userSpaceOnUse" x1="-565.9835" y1="605.8059" x2="1778.8812" y2="605.8059" gradientTransform="matrix(0.51 0 0 0.51 0 90)">
				<stop  offset="1.020408e-02" style="stop-color:#CCCCCC"/>
				<stop  offset="0.4949" style="stop-color:#DEDEDE"/>
				<stop  offset="1" style="stop-color:#999999"/>
			</linearGradient>
			<path id="SVGID_1_" fill="url(#SVGID_2_)" d="M891.6-39.1c-8.3-21.9-55.3-35.3-55.3-35.3L1-71.8c0,0-10.8-8.5-16.2,7.9
				s8.5,13.6,11.5,52.7s-27.6,54.6-93.6,63.4c-66.1,8.7-123.8,61-123.8,61c-52.7,35.9-104,151.6-32.5,335.3S-14.3,645.6,30.1,648
				c44.4,2.3,46.4,30,46.4,30s17,109.5,17.4,136.7c0.4,27.2,41.7,55.1,41.7,55.1s568.6,6.8,593.5-1.7c24.7-8.5,21.7-25.1,21.7-25.1
				s74.6-772.7,74.6-794.2c0.2-21.5,13.4-47,30-60.6c16.8-13.4,27.2,10.8,44.4,2.3C917.1-18,899.9-17.2,891.6-39.1z"/>
		</g>
	</g>
</g>
<linearGradient id="SVGID_3_" gradientUnits="userSpaceOnUse" x1="11.1478" y1="608.3113" x2="1714.0819" y2="608.3113" gradientTransform="matrix(0.51 0 0 0.51 0 90)">
	<stop  offset="0" style="stop-color:#999999"/>
	<stop  offset="0.4949" style="stop-color:#FFFFFF"/>
	<stop  offset="1" style="stop-color:#CCCCCC"/>
</linearGradient>
<path fill="url(#SVGID_3_)" d="M121.6,820.2c14,14,5.7,27.9,33.2,30.2c27.4,2.6,549.3-1.3,549.3-1.3s13.8,11.3,25.1-16.8
	c10.8-27.2,63.8-788.7,80.4-816.1s32.5-52.3,60-35.7c0,0,13.8,11.3-5.7-13.6c-19.6-24.9-19.1-16.2-41.5-16.6
	c-21.5-0.2-808,2.3-808,2.3S8.5-47,6.1-30.8C3.8-14.4,11.6-20,14.8,10.9c3.4,30,2.3,19.4,0.2,38.5c-2.3,19.1,24.5,88,28.3,123.5
	c2.8,35.3,34.4,373.4,39.6,403.8C88,606.1,121.6,820.2,121.6,820.2z"/>
<linearGradient id="SVGID_4_" gradientUnits="userSpaceOnUse" x1="137.376" y1="391.807" x2="874.1819" y2="391.807" gradientTransform="matrix(1 0 0 -1 0 792)">
	<stop  offset="1.020408e-02" style="stop-color:#8BD2CF"/>
	<stop  offset="0.5264" style="stop-color:#67A4D9"/>
	<stop  offset="1" style="stop-color:#CEEBEE"/>
</linearGradient>
<path fill="url(#SVGID_4_)" d="M869.4-19.5c0,0,13.8,11.3-5.7-13.6c-19.6-24.9-19.1-16.4-41.5-16.6c-3,0-20,0-47.2,0
	c-57,26.2-133.1,83.8-240.3,118C381.6,117.2,356.1,278.8,364.6,383S183.9,642.4,147.7,725.4c-18.7,42.7-8.9,89.5,4.7,124.8
	c0.9,0,1.5,0.2,2.3,0.2c27.4,2.6,549.3-1.3,549.3-1.3s13.8,11.3,25.1-16.8c10.8-27.2,63.8-788.7,80.4-816.1S842-36.1,869.4-19.5z"/>
<g enable-background="new    ">
	<path fill="#FFFFFF" d="M52,547.8l-8.7,22.1c0,0-3,11.5-10.8,19.6c-7.9,8.3-46.6,2.8-102.1-11.1
		c-55.5-13.8-124.2-126.1-156.9-196.7S-241,231-213.3,175.2c27.6-54.6,153.7-85.9,172.5-85.7c19.6,0.4,24.7,5.7,38.5,13.8
		c13.8,8.3,16.2,30.6,16.2,30.6s8.5,60.4,22.5,159.5s22.5,244.8,22.5,244.8L52,547.8z"/>
</g>
<g>
	<g>
		<g>
			<path id="SVGID_6_" fill="#DADAD9" d="M-2.6,5.1c0,0,3,31.7-34.9,43.2C-75.1,60-158,79.3-189.1,101
				c-45.9,31.9-107.6,74.6-85.1,226.7s71.4,211.8,126.9,249.9c30.8,21.3,84.4,45.7,104.8,50.2s45.7,11.3,54,7.7
				c8.3-3.4,1.7-13.6-4.7-14.2c-48.9-2.6-104.8-22.1-147.8-54c-90.6-67.8-121-197.8-120.8-240.7c0.2-88.9-28.9-206.3,205.6-257.7
				c23.8-4.9,41.5,12.8,52.5,6.4c11.1-6.4,6-1.3,1.3-19.4c-4.9-17.2,4.7-35.3,4.7-35.3L-2.6,5.1z"/>
		</g>
	</g>
</g>
<g enable-background="new    ">
	<path fill="#CDCCCC" d="M445.6,755.8c0.2,2.8-2.6,6-5.1,5.1l-129.3,0.6c-2.8,0.2-6-2.6-5.1-5.1l0,0c-0.2-2.8,2.6-6,5.1-5.1
		l129.3-0.6C443.5,750.4,445.4,752.8,445.6,755.8L445.6,755.8z"/>
</g>
<g enable-background="new    ">
	<path fill="#CDCCCC" d="M431.6,618c0.2,2.8-2.6,6-5.1,5.1l-129.3,0.6c-2.8,0.2-6-2.6-5.1-5.1l0,0c-0.2-2.8,2.6-6,5.1-5.1l129.3-0.6
		C429.1,612.7,431.4,615.2,431.6,618L431.6,618z"/>
</g>
<g enable-background="new    ">
	<path fill="#CDCCCC" d="M428,478.5c0.2,2.8-2.6,6-5.1,5.1l-129.3,0.6c-2.8,0.2-6-2.6-5.1-5.1l0,0c-0.2-2.8,2.6-6,5.1-5.1l129.3-0.6
		C425.7,473.2,428.6,475.9,428,478.5L428,478.5z"/>
</g>
<g enable-background="new    ">
	<path fill="#CDCCCC" d="M422.3,355.1c0.2,2.8-2.6,6-5.1,5.1l-129.3,0.6c-2.8,0.2-6-2.6-5.1-5.1l0,0c-0.2-2.8,2.6-6,5.1-5.1
		l129.3-0.6C420.1,349,422.3,351.3,422.3,355.1L422.3,355.1z"/>
</g>
<g enable-background="new    ">
	<path fill="#CDCCCC" d="M413.7,245.2c0.2,2.8-2.6,6-5.1,5.1l-129.5,0.4c-2.8,0.2-6-2.6-5.1-5.1l0,0c-0.2-2.8,2.6-6,5.1-5.1
		l129.3-0.6C411.6,239,413.7,241.4,413.7,245.2L413.7,245.2z"/>
</g>
<g enable-background="new    ">
	<path fill="#CDCCCC" d="M422,267.1c-0.4,1.7-0.6,2.6-2.8,3h-63.6c-1.7-0.4-2.3-1.5-3-2.8l0,0c0.4-1.7,0.6-2.6,2.8-3h63.6
		C421,263.9,421.6,265,422,267.1L422,267.1z"/>
</g>
<g enable-background="new    ">
	<path fill="#CDCCCC" d="M421.6,289.4c-0.4,1.7-0.6,2.6-2.8,3h-63.6c-1.7-0.4-2.3-1.5-3-2.8l0,0c0.4-1.7,0.6-2.6,2.8-3h63.6
		C420.6,287.1,422,288.6,421.6,289.4L421.6,289.4z"/>
</g>
<g enable-background="new    ">
	<path fill="#CDCCCC" d="M422.5,311.3c-0.4,1.7-0.6,2.6-2.8,3h-63.6c-1.7-0.4-2.3-1.5-3-2.8l0,0c0.4-1.7,0.6-2.6,2.8-3h63.6
		C420.3,308.8,421.8,310.1,422.5,311.3L422.5,311.3z"/>
</g>
<g enable-background="new    ">
	<path fill="#CDCCCC" d="M421.8,335.4c-0.4,1.7-0.6,2.6-2.8,3h-63.6c-1.7-0.4-2.3-1.5-3-2.8l0,0c0.4-1.7,0.6-2.6,2.8-3h63.6
		C420.6,333.2,422,334.5,421.8,335.4L421.8,335.4z"/>
</g>
<g enable-background="new    ">
	<path fill="#CDCCCC" d="M422.7,381.5c-0.4,1.7-0.6,2.6-2.8,3h-63.6c-1.7-0.4-2.3-1.5-3-2.8l0,0c0.4-1.7,0.6-2.6,2.8-3h63.6
		C420.6,379,422,380.4,422.7,381.5L422.7,381.5z"/>
</g>
<g enable-background="new    ">
	<path fill="#CDCCCC" d="M422.3,404.7c-0.4,1.7-0.6,2.6-2.8,3h-63.6c-1.7-0.4-2.3-1.5-3-2.8l0,0c0.4-1.7,0.6-2.6,2.8-3h63.6
		C421.2,401.7,422.7,403,422.3,404.7L422.3,404.7z"/>
</g>
<g enable-background="new    ">
	<path fill="#CDCCCC" d="M422,430c-0.4,1.7-0.6,2.6-2.8,3h-63.6c-1.7-0.4-2.3-1.5-3-2.8l0,0c0.4-1.7,0.6-2.6,2.8-3h63.6
		C421,427,422.5,428.3,422,430L422,430z"/>
</g>
<g enable-background="new    ">
	<path fill="#CDCCCC" d="M422.9,455.5c-0.4,1.7-0.6,2.6-2.8,3h-63.6c-1.7-0.4-2.3-1.5-3-2.8l0,0c0.4-1.7,0.6-2.6,2.8-3h63.6
		C420.8,453.2,422.3,454.4,422.9,455.5L422.9,455.5z"/>
</g>
<g enable-background="new    ">
	<path fill="#CDCCCC" d="M407.8,125.7c0.2,2.8-2.6,6-5.1,5.1l-129.3,0.6c-2.8,0.2-6-2.6-5.1-5.1l0,0c-0.2-2.8,2.6-6,5.1-5.1
		l129.3-0.6C405.5,120.4,408.4,122.9,407.8,125.7L407.8,125.7z"/>
</g>
<g enable-background="new    ">
	<path fill="#CDCCCC" d="M394.6,16.2c0.2,2.8-2.6,6-5.1,5.1l-129.3,0.6c-2.8,0.2-6-2.6-5.1-5.1l0,0c-0.2-2.8,2.6-6,5.1-5.1
		l129.3-0.6C391.2,10.7,394.4,13.4,394.6,16.2L394.6,16.2z"/>
</g>
<g enable-background="new    ">
	<path fill="#CDCCCC" d="M399.1,38.1c-0.4,1.7-0.6,2.6-2.8,3h-63.6c-1.7-0.4-2.3-1.5-3-2.8l0,0c0.4-1.7,0.6-2.6,2.8-3h63.6
		C398,34.9,399.5,36.4,399.1,38.1L399.1,38.1z"/>
</g>
<g enable-background="new    ">
	<path fill="#CDCCCC" d="M399.7,60.6c-0.4,1.7-0.6,2.6-2.8,3h-63.6c-1.7-0.4-2.3-1.5-3-2.8l0,0c0.4-1.7,0.6-2.6,2.8-3h63.4
		C398.4,58.5,399.1,59.6,399.7,60.6L399.7,60.6z"/>
</g>
<g enable-background="new    ">
	<path fill="#CDCCCC" d="M399.3,83.2c-0.4,1.7-0.6,2.6-2.8,3h-63.6c-1.7-0.4-2.3-1.5-3-2.8l0,0c0.4-1.7,0.6-2.6,2.8-3h63.6
		C398.2,80,399.9,81.3,399.3,83.2L399.3,83.2z"/>
</g>
<g enable-background="new    ">
	<path fill="#CDCCCC" d="M399.7,106.6c-0.4,1.7-0.6,2.6-2.8,3h-63.6c-1.7-0.4-2.3-1.5-3-2.8l0,0c0.4-1.7,0.6-2.6,2.8-3h63.6
		C398.4,104.4,399.1,105.5,399.7,106.6L399.7,106.6z"/>
</g>
<g enable-background="new    ">
	<path fill="#CDCCCC" d="M405.2,153.1c-0.4,1.7-0.6,2.6-2.8,3h-63.6c-1.7-0.4-2.3-1.5-3-2.8l0,0c0.4-1.7,0.6-2.6,2.8-3h63.6
		C404.2,149.9,404.8,151,405.2,153.1L405.2,153.1z"/>
</g>
<g enable-background="new    ">
	<path fill="#CDCCCC" d="M405,175.5c-0.4,1.7-0.6,2.6-2.8,3h-63.6c-1.7-0.4-2.3-1.5-3-2.8l0,0c0.4-1.7,0.6-2.6,2.8-3h63.6
		C403.8,173.1,405.2,174.6,405,175.5L405,175.5z"/>
</g>
<g enable-background="new    ">
	<path fill="#CDCCCC" d="M405.5,201.8c-0.4,1.7-0.6,2.6-2.8,3h-63.6c-1.7-0.4-2.3-1.5-3-2.8l0,0c0.4-1.7,0.6-2.6,2.8-3h63.6
		C403.5,198.4,405,199.7,405.5,201.8L405.5,201.8z"/>
</g>
<g enable-background="new    ">
	<path fill="#CDCCCC" d="M405.5,227.1c-0.4,1.7-0.6,2.6-2.8,3h-63.6c-1.7-0.4-2.3-1.5-3-2.8l0,0c0.4-1.7,0.6-2.6,2.8-3h63.6
		C404.4,223.9,405,225,405.5,227.1L405.5,227.1z"/>
</g>
<g enable-background="new    ">
	<path fill="#CDCCCC" d="M422.3,510.8c-0.4,1.7-0.6,2.6-2.8,3h-63.6c-1.7-0.4-2.3-1.5-3-2.8l0,0c0.4-1.7,0.6-2.6,2.8-3h63.6
		C421.4,507.6,422.9,508.9,422.3,510.8L422.3,510.8z"/>
</g>
<g enable-background="new    ">
	<path fill="#CDCCCC" d="M422.9,533.3c-0.4,1.7-0.6,2.6-2.8,3h-63.6c-1.7-0.4-2.3-1.5-3-2.8l0,0c0.4-1.7,0.6-2.6,2.8-3h63.6
		C421.8,530.1,422.5,531.2,422.9,533.3L422.9,533.3z"/>
</g>
<g enable-background="new    ">
	<path fill="#CDCCCC" d="M422.9,565.2c-0.4,1.7-0.6,2.6-2.8,3h-63.6c-1.7-0.4-2.3-1.5-3-2.8l0,0c0.4-1.7,0.6-2.6,2.8-3h63.6
		C421.6,562.9,422.3,564,422.9,565.2L422.9,565.2z"/>
</g>
<g enable-background="new    ">
	<path fill="#CDCCCC" d="M423.3,592.5c-0.4,1.7-0.6,2.6-2.8,3H357c-1.7-0.4-2.3-1.5-3-2.8l0,0c0.4-1.7,0.6-2.6,2.8-3h63.6
		C421.4,589.1,422.9,590.3,423.3,592.5L423.3,592.5z"/>
</g>
<g enable-background="new    ">
	<path fill="#CDCCCC" d="M437.4,649.4c-0.4,1.7-0.6,2.6-2.8,3H371c-1.7-0.4-2.3-1.5-3-2.8l0,0c0.4-1.7,0.6-2.6,2.8-3h63.6
		C436.3,646.5,436.9,647.5,437.4,649.4L437.4,649.4z"/>
</g>
<g enable-background="new    ">
	<path fill="#CDCCCC" d="M436.9,671.8c-0.4,1.7-0.6,2.6-2.8,3h-63.6c-1.7-0.4-2.3-1.5-3-2.8l0,0c0.4-1.7,0.6-2.6,2.8-3H434
		C435.7,669.6,437.1,670.9,436.9,671.8L436.9,671.8z"/>
</g>
<g enable-background="new    ">
	<path fill="#CDCCCC" d="M437.4,790.8c-0.4,1.7-0.6,2.6-2.8,3H371c-1.7-0.4-2.3-1.5-3-2.8l0,0c0.4-1.7,0.6-2.6,2.8-3h63.6
		C436.1,788.7,437.6,790,437.4,790.8L437.4,790.8z"/>
</g>
<g enable-background="new    ">
	<path fill="#CDCCCC" d="M437.4,730.9c-0.4,1.7-0.6,2.6-2.8,3H371c-1.7-0.4-2.3-1.5-3-2.8l0,0c0.4-1.7,0.6-2.6,2.8-3h63.6
		C435.9,728.8,437.6,730,437.4,730.9L437.4,730.9z"/>
</g>
<g enable-background="new    ">
	<path fill="#CDCCCC" d="M436.7,704.5c-0.4,1.7-0.6,2.6-2.8,3h-63.6c-1.7-0.4-2.3-1.5-3-2.8l0,0c0.4-1.7,0.6-2.6,2.8-3h63.6
		C435.7,701.5,437.1,702.8,436.7,704.5L436.7,704.5z"/>
</g>
<g enable-background="new    ">
	<path fill="#CDCCCC" d="M437.8,818.3c-0.4,1.7-0.6,2.6-2.8,3h-63.6c-1.7-0.4-2.3-1.5-3-2.8l0,0c0.4-1.7,0.6-2.6,2.8-3h63.6
		C436.7,815.1,437.4,816.2,437.8,818.3L437.8,818.3z"/>
</g>
</svg>
