<?xml version="1.0" encoding="utf-8"?>
<!-- Generator: Adobe Illustrator 17.1.0, SVG Export Plug-In . SVG Version: 6.00 Build 0)  -->
<!DOCTYPE svg PUBLIC "-//W3C//DTD SVG 1.1//EN" "http://www.w3.org/Graphics/SVG/1.1/DTD/svg11.dtd">
<svg version="1.1" id="Layer_1" xmlns="http://www.w3.org/2000/svg" xmlns:xlink="http://www.w3.org/1999/xlink" x="0px" y="0px"
	 viewBox="0 0 1200 1200" enable-background="new 0 0 1200 1200" xml:space="preserve">
<linearGradient id="SVGID_1_" gradientUnits="userSpaceOnUse" x1="1898.094" y1="970.4732" x2="1898.094" y2="1560.6869" gradientTransform="matrix(-0.51 0 0 -0.51 1056.1145 803.47)">
	<stop  offset="1.020408e-02" style="stop-color:#8AD1CE"/>
	<stop  offset="0.5264" style="stop-color:#67A4D9"/>
	<stop  offset="1" style="stop-color:#CEEBEE"/>
</linearGradient>
<path fill="url(#SVGID_1_)" d="M37.3,7.5C48.3,34,79,26.3,87,56.6c4.6,17.3,40.2,30.8,45.8,49.7c3.5,11.8,6.3,27.4,6.9,39.2
	c0.5,12.1,2.9,23.8,7.4,35.1c4.6,16.2-12.2,23.5-5.9,39.9c8.7,22.5,10.8,63,1.9,88c0.9-2.4-27.1-87.2-32.5-88.3
	c-4.2-0.8-35.2-79.3-33.8-84.9c4-15.1-22.4-37-20.6-59.1c0.4-4.9-24-21.2-27.5-27.7C23.8,39.5,33.3,16.4,37.3,7.5z"/>
</svg>
