<?xml version="1.0" encoding="utf-8"?>
<!-- Generator: Adobe Illustrator 17.1.0, SVG Export Plug-In . SVG Version: 6.00 Build 0)  -->
<!DOCTYPE svg PUBLIC "-//W3C//DTD SVG 1.1//EN" "http://www.w3.org/Graphics/SVG/1.1/DTD/svg11.dtd">
<svg version="1.1" id="Layer_1" xmlns="http://www.w3.org/2000/svg" xmlns:xlink="http://www.w3.org/1999/xlink" x="0px" y="0px"
	 viewBox="0 0 1200 1200" enable-background="new 0 0 1200 1200" xml:space="preserve">
<linearGradient id="SVGID_1_" gradientUnits="userSpaceOnUse" x1="1839.7521" y1="1461.2025" x2="1839.7521" y2="-358.6869" gradientTransform="matrix(-0.51 0 0 0.51 1042.4443 190.45)">
	<stop  offset="1.020408e-02" style="stop-color:#8AD1CE"/>
	<stop  offset="0.5264" style="stop-color:#67A4D9"/>
	<stop  offset="1" style="stop-color:#CEEBEE"/>
</linearGradient>
<path fill="url(#SVGID_1_)" d="M37.2,7.5c-3,10.1-17.6,54.2,0.9,56.7c23.5,3.2,15.7,30.8,19.3,48.5c4.6,22.5,54,68.8,47,100.1
	c-7,31.7-1.8,79.4,8.8,109.5c10.4,29.6,6.1,34-7.8,59.3c-14.1,25.6,12.5,36.7,15.4,55.8c6.4,42-10.2,84.3-0.3,125.1
	c3.9,16.1,21.6,32.7,15.1,48.9c-8.1,18.8,0,41.1,0,60.9c0,27.8-24,45.3-6.1,74c10.3,16.7,6.6,30.3,12.4,48.4
	c3.8,12,8.9,141.9,10.5,141c22.3-12.6,9.3-63.3,10.4-81.8c0.9-14.5-6.9-89.4,1-96.4c24.6-21.6-9.6-47.6,10.9-74.9
	c5.6-7.5-5.2-57.6-8.7-65.7c-13.9-31,19.2-21.9,12.6-48.1c-3.7-14.5-7.4-30.1-7.4-45.1c0-11.9-17.7-25.2-9.4-39.9
	c16.4-28.9-5.8-36.4-9.8-66c-2.5-18.6-1.6-27.6,10.2-43.7c20-27.2-10.5-58.7,1.4-87.1c3.1-7.4-2.3-41.5-4.2-50.7
	c-5-25.1-3.2-22.2-1.9-42.4c0.7-11.5-15.7-15.9-17.1-27.9c-1.3-11.1-0.6-27.1-3.7-37.5c-4.6-15.5-12-35.9-23.2-46.5
	C97.6,66.9,82.2,34,64,27.1C55.6,23.9,43,24,37.2,7.5z"/>
</svg>
