<?xml version="1.0" encoding="utf-8"?>
<!-- Generator: Adobe Illustrator 17.1.0, SVG Export Plug-In . SVG Version: 6.00 Build 0)  -->
<!DOCTYPE svg PUBLIC "-//W3C//DTD SVG 1.1//EN" "http://www.w3.org/Graphics/SVG/1.1/DTD/svg11.dtd">
<svg version="1.1" id="Layer_1" xmlns="http://www.w3.org/2000/svg" xmlns:xlink="http://www.w3.org/1999/xlink" x="0px" y="0px"
	 viewBox="0 0 1200 1200" enable-background="new 0 0 1200 1200" xml:space="preserve">
<linearGradient id="SVGID_1_" gradientUnits="userSpaceOnUse" x1="1917.5277" y1="-793.6287" x2="1977.5557" y2="1524.3302" gradientTransform="matrix(-0.5098 -1.320303e-02 1.320303e-02 -0.5098 1093.4271 813.4177)">
	<stop  offset="1.020408e-02" style="stop-color:#8AD1CE"/>
	<stop  offset="0.5264" style="stop-color:#67A4D9"/>
	<stop  offset="1" style="stop-color:#CEEBEE"/>
</linearGradient>
<path fill="url(#SVGID_1_)" d="M34.2,11.3c1.9,32.7-12,41.5,15.9,59.3c10.8,6.9-2.5,28,10.6,37.4c13.3,9.4,19.5,7.4,10.5,25.9
	c-14.7,30.1,33.5,12.8,11.7,48.2C67,208,91.7,195.9,94.4,212.9c3.5,21.6-16.6,38.5-5.8,62.6c20.9,46.7,29,116.9,20.9,170.9
	c-2.3,15.3,4.7,47.8-1.4,58.4c-6,10.3-9.5,28.2,3.9,35.2c21.8,11.5,10.6,35.3,5.3,55.4c-14.6,57.1-11.2,104.6-9.9,162.2
	c0.4,18.9-9.4,30.6-13.8,48.1c-2.8,11,5.5,28,7.1,39.1c3.9,27.6,5,38.6-2.8,68.1c-9,34.2,9.7,55,9,85.2c-0.7,32.9-10.7,53-2.8,87.9
	c3.4,14.7,12.3,102.2,22.9,105.6c26.8,8.9,12.3-36.1,15.9-45.7c7-18.7,22.2-15.4,24.4-38.3c4.7-48.4,14.3-114.3,4.8-160
	c-6.5-31.5,12-68.3-3.7-97c-17-31.8,13.3-66.3-3.3-103.3c-14.8-33.1-0.7-55.2,5-87.7c2.5-14.1,5.9-27.7,2.1-42.1
	c-6.1-22.4,13.7-51.4,2.8-70c-20.6-35.4,4.5-40.9-1.4-69.5c-2.3-11.2-16.6-16.3-16-27.8c0.7-14.3,11-26.1,12.3-40.1
	c1.6-17-12.1-31.2-6.8-46.5c9.5-28,6.6-67.4-9.8-93.7c-15.5-25-0.5-47.1-10.6-71.5c0.3,0.6-3.4-39.7-2.4-46.3
	c3.5-22.4-28.7-68.1-43.4-81.2C90.6,65.2,78.7,54.9,79,45.3c0.5-21.3-23.5-9.3-31.8-24.9C45.6,11.2,41.3,8.2,34.2,11.3z"/>
</svg>
