<?xml version="1.0" encoding="utf-8"?>
<!-- Generator: Adobe Illustrator 17.1.0, SVG Export Plug-In . SVG Version: 6.00 Build 0)  -->
<!DOCTYPE svg PUBLIC "-//W3C//DTD SVG 1.1//EN" "http://www.w3.org/Graphics/SVG/1.1/DTD/svg11.dtd">
<svg version="1.1" id="mash_turn" xmlns="http://www.w3.org/2000/svg" xmlns:xlink="http://www.w3.org/1999/xlink" x="0px" y="0px"
	 viewBox="-294 -204 1200 1200" enable-background="new -294 -204 1200 1200" xml:space="preserve">
<g enable-background="new    ">
	<g>
		<g>
			
				<linearGradient id="SVGID_2_" gradientUnits="userSpaceOnUse" x1="-572.718" y1="154.4086" x2="1771.1976" y2="154.4086" gradientTransform="matrix(0.51 0 0 -0.51 0 493.92)">
				<stop  offset="1.020408e-02" style="stop-color:#CCCCCC"/>
				<stop  offset="0.4949" style="stop-color:#DEDEDE"/>
				<stop  offset="1" style="stop-color:#999999"/>
			</linearGradient>
			<path id="SVGID_1_" fill="url(#SVGID_2_)" d="M887.6-22.7c-8.2-21.9-55.3-35.2-55.3-35.2l-835,2.6c0,0-10.8-8.5-16.2,7.9
				s8.6,13.6,11.4,52.7S-35,59.8-100.9,68.6c-66,8.8-123.8,60.9-123.8,60.9c-52.5,35.8-103.6,151.5-32.2,335.1
				S-17.8,661.7,26.6,664.1c44.3,2.4,46.4,30,46.4,30s17,109.4,17.3,136.6c0.3,27.2,41.6,55,41.6,55s568.5,6.7,593.2-1.7
				c24.7-8.5,21.7-25.2,21.7-25.2s74.6-772.5,74.7-794c0.1-21.6,13.3-47.1,30-60.5c16.7-13.4,27.1,10.8,44.3,2.4
				C913.2-1.7,895.9-0.9,887.6-22.7z"/>
		</g>
	</g>
</g>
<linearGradient id="SVGID_3_" gradientUnits="userSpaceOnUse" x1="3.829" y1="151.9491" x2="1706.537" y2="151.9491" gradientTransform="matrix(0.51 0 0 -0.51 0 493.92)">
	<stop  offset="0" style="stop-color:#999999"/>
	<stop  offset="0.4949" style="stop-color:#FFFFFF"/>
	<stop  offset="1" style="stop-color:#CCCCCC"/>
</linearGradient>
<path fill="url(#SVGID_3_)" d="M118,836.2c14.1,14,5.7,27.8,33.2,30.2c27.4,2.6,549-1.2,549-1.2s13.9,11.2,25-16.8
	C736,821.3,789,59.9,805.6,32.5c16.6-27.4,32.5-52.3,60-35.7c0,0,13.9,11.2-5.7-13.7c-19.6-24.8-19.1-16.3-41.5-16.6
	c-21.6-0.1-807.8,2.3-807.8,2.3s-5.7,0.3-8.1,16.6s5.5,10.8,8.7,41.6c3.4,29.9,2.4,19.4,0.1,38.5s24.5,87.9,28.3,123.6
	c2.8,35.3,34.5,373.4,39.6,403.7C84.5,622.3,118,836.2,118,836.2z"/>
<linearGradient id="SVGID_4_" gradientUnits="userSpaceOnUse" x1="22.0692" y1="88.9426" x2="1583.2601" y2="88.9426" gradientTransform="matrix(0.51 0 0 -0.51 0 493.92)">
	<stop  offset="1.020408e-02" style="stop-color:#8BD2CF"/>
	<stop  offset="0.5264" style="stop-color:#67A4D9"/>
	<stop  offset="1" style="stop-color:#CEEBEE"/>
</linearGradient>
<path fill="url(#SVGID_4_)" d="M11.5,29.7c2.9,26.6,2.1,17.2-0.1,35.8c-2.3,19.1,24.5,87.9,28.3,123.6
	c2.8,35.3,34.5,373.4,39.6,403.7c5.3,29.5,38.8,243.4,38.8,243.4c14.1,14,5.7,27.8,33.2,30.2c27.4,2.6,549-1.2,549-1.2
	s13.9,11.2,25-16.8c10.8-27.1,63.9-788.5,80.4-815.9c0.5-1,1.1-1.8,1.7-2.8L11.5,29.7L11.5,29.7z"/>
<g enable-background="new    ">
	<path fill="#FFFFFF" d="M48.4,563.9l-8.7,22.1c0,0-3,11.4-10.8,19.6s-46.6,2.7-102-10.9s-124-126.3-156.9-196.9
		s-14.5-150.8,13.2-206.3c27.5-54.5,153.7-85.9,172.4-85.6c19.5,0.4,24.7,5.6,38.5,13.9c13.8,8.3,16.3,30.6,16.3,30.6
		s8.5,60.3,22.5,159.5s22.5,244.7,22.5,244.7L48.4,563.9z"/>
</g>
<g>
	<g>
		<g>
			<path id="SVGID_6_" fill="#DADAD9" d="M-6.2,21.5c0,0,2.9,31.7-34.8,43.3c-37.7,11.6-120.6,31-151.6,52.8
				c-45.9,31.9-107.7,74.6-85.1,226.6c22.5,152,71.4,211.7,127,249.8c30.9,21.2,84.3,45.6,104.7,50.1c20.4,4.4,45.7,11.2,54.1,7.7
				c8.3-3.4,1.7-13.6-4.7-14.3c-48.9-2.6-104.7-22-147.8-54c-90.5-67.9-120.9-197.6-120.8-240.7C-265,253.8-294,136.5-59.4,85.1
				c23.7-5,41.5,12.8,52.6,6.4s6-1.2,1.3-19.3C-10.4,55-0.9,36.8-0.9,36.8L-6.2,21.5z"/>
		</g>
	</g>
</g>
<g enable-background="new    ">
	<path fill="#CDCCCC" d="M442,771.8c0.2,2.8-2.5,5.9-5.1,5.2l-129.3,0.5c-2.8,0.2-5.9-2.5-5.2-5.1l0,0c-0.2-2.8,2.5-5.9,5.1-5.2
		l129.3-0.5C439.7,766.5,441.8,769,442,771.8L442,771.8z"/>
</g>
<g enable-background="new    ">
	<path fill="#CDCCCC" d="M427.8,634.2c0.2,2.8-2.5,5.9-5.1,5.2l-129.3,0.5c-2.8,0.2-5.9-2.5-5.2-5.1l0,0c-0.2-2.8,2.5-5.9,5.1-5.2
		l129.3-0.5C425.4,628.9,427.6,631.3,427.8,634.2L427.8,634.2z"/>
</g>
<g enable-background="new    ">
	<path fill="#CDCCCC" d="M424.3,494.7c0.2,2.8-2.5,5.9-5.1,5.2l-129.3,0.5c-2.8,0.2-5.9-2.5-5.2-5.1l0,0c-0.2-2.8,2.5-5.9,5.1-5.2
		l129.3-0.5C421.9,489.4,425,492.1,424.3,494.7L424.3,494.7z"/>
</g>
<g enable-background="new    ">
	<path fill="#CDCCCC" d="M418.5,371.4c0.2,2.8-2.5,5.9-5.1,5.2L284,377.2c-2.8,0.2-5.9-2.5-5.2-5.1l0,0c-0.2-2.8,2.5-5.9,5.1-5.2
		l129.3-0.5C416.3,365.2,418.5,367.6,418.5,371.4L418.5,371.4z"/>
</g>
<g enable-background="new    ">
	<path fill="#CDCCCC" d="M410,261.5c0.2,2.8-2.5,5.9-5.1,5.2l-129.4,0.4c-2.8,0.2-5.9-2.5-5.2-5.1l0,0c-0.2-2.8,2.5-5.9,5.1-5.2
		l129.3-0.5C407.9,255.3,410,257.7,410,261.5L410,261.5z"/>
</g>
<g enable-background="new    ">
	<path fill="#CDCCCC" d="M418.3,283.3c-0.4,1.7-0.7,2.6-2.7,3h-63.6c-1.7-0.4-2.4-1.5-3-2.7l0,0c0.4-1.7,0.7-2.6,2.7-3h63.6
		C417.2,280.2,417.8,281.3,418.3,283.3L418.3,283.3z"/>
</g>
<g enable-background="new    ">
	<path fill="#CDCCCC" d="M417.9,305.7c-0.4,1.7-0.7,2.6-2.7,3h-63.6c-1.7-0.4-2.4-1.5-3-2.7l0,0c0.4-1.7,0.7-2.6,2.7-3h63.6
		C416.7,303.4,418.3,304.8,417.9,305.7L417.9,305.7z"/>
</g>
<g enable-background="new    ">
	<path fill="#CDCCCC" d="M418.8,327.5c-0.4,1.7-0.7,2.6-2.7,3h-63.6c-1.7-0.4-2.4-1.5-3-2.7l0,0c0.4-1.7,0.7-2.6,2.7-3h63.6
		C416.6,325,418.2,326.3,418.8,327.5L418.8,327.5z"/>
</g>
<g enable-background="new    ">
	<path fill="#CDCCCC" d="M418,351.6c-0.4,1.7-0.7,2.6-2.7,3h-63.6c-1.7-0.4-2.4-1.5-3-2.7l0,0c0.4-1.7,0.7-2.6,2.7-3H415
		C416.7,349.4,418.3,350.7,418,351.6L418,351.6z"/>
</g>
<g enable-background="new    ">
	<path fill="#CDCCCC" d="M419,397.8c-0.4,1.7-0.7,2.6-2.7,3h-63.6c-1.7-0.4-2.4-1.5-3-2.7l0,0c0.4-1.7,0.7-2.6,2.7-3H416
		C416.9,395.3,418.4,396.7,419,397.8L419,397.8z"/>
</g>
<g enable-background="new    ">
	<path fill="#CDCCCC" d="M418.5,421c-0.4,1.7-0.7,2.6-2.7,3h-63.6c-1.7-0.4-2.4-1.5-3-2.7l0,0c0.4-1.7,0.7-2.6,2.7-3h63.6
		C417.4,417.9,418.9,419.2,418.5,421L418.5,421z"/>
</g>
<g enable-background="new    ">
	<path fill="#CDCCCC" d="M418.4,446.2c-0.4,1.7-0.7,2.6-2.7,3H352c-1.7-0.4-2.4-1.5-3-2.7l0,0c0.4-1.7,0.7-2.6,2.7-3h63.6
		C417.3,443.2,418.8,444.5,418.4,446.2L418.4,446.2z"/>
</g>
<g enable-background="new    ">
	<path fill="#CDCCCC" d="M419.1,471.7c-0.4,1.7-0.7,2.6-2.7,3h-63.6c-1.7-0.4-2.4-1.5-3-2.7l0,0c0.4-1.7,0.7-2.6,2.7-3h63.6
		C417,469.3,418.5,470.6,419.1,471.7L419.1,471.7z"/>
</g>
<g enable-background="new    ">
	<path fill="#CDCCCC" d="M404.1,141.9c0.2,2.8-2.5,5.9-5.1,5.2l-129.3,0.5c-2.8,0.2-5.9-2.5-5.2-5.1l0,0c-0.2-2.8,2.5-5.9,5.1-5.2
		l129.3-0.5C401.8,136.6,404.8,139.3,404.1,141.9L404.1,141.9z"/>
</g>
<g enable-background="new    ">
	<path fill="#CDCCCC" d="M390.8,32.6c0.2,2.8-2.5,5.9-5.1,5.2l-129.3,0.5c-2.8,0.2-5.9-2.5-5.2-5.1l0,0c-0.2-2.8,2.5-5.9,5.1-5.2
		l129.3-0.5C387.6,27.1,390.6,29.7,390.8,32.6L390.8,32.6z"/>
</g>
<g enable-background="new    ">
	<path fill="#CDCCCC" d="M395.4,54.4c-0.4,1.7-0.7,2.6-2.7,3H329c-1.7-0.4-2.4-1.5-3-2.7l0,0c0.4-1.7,0.7-2.6,2.7-3h63.6
		C394.3,51.3,395.8,52.7,395.4,54.4L395.4,54.4z"/>
</g>
<g enable-background="new    ">
	<path fill="#CDCCCC" d="M395.9,77c-0.4,1.7-0.7,2.6-2.7,3h-63.6c-1.7-0.4-2.4-1.5-3-2.7l0,0c0.4-1.7,0.7-2.6,2.7-3h63.6
		C394.6,74.8,395.3,75.9,395.9,77L395.9,77z"/>
</g>
<g enable-background="new    ">
	<path fill="#CDCCCC" d="M395.6,99.4c-0.4,1.7-0.7,2.6-2.7,3h-63.6c-1.7-0.4-2.4-1.5-3-2.7l0,0c0.4-1.7,0.7-2.6,2.7-3h63.6
		C394.5,96.4,396.1,97.7,395.6,99.4L395.6,99.4z"/>
</g>
<g enable-background="new    ">
	<path fill="#CDCCCC" d="M396,122.9c-0.4,1.7-0.7,2.6-2.7,3h-63.6c-1.7-0.4-2.4-1.5-3-2.7l0,0c0.4-1.7,0.7-2.6,2.7-3H393
		C394.7,120.7,395.4,121.8,396,122.9L396,122.9z"/>
</g>
<g enable-background="new    ">
	<path fill="#CDCCCC" d="M401.6,169.3c-0.4,1.7-0.7,2.6-2.7,3h-63.6c-1.7-0.4-2.4-1.5-3-2.7l0,0c0.4-1.7,0.7-2.6,2.7-3h63.6
		C400.5,166.2,401.1,167.4,401.6,169.3L401.6,169.3z"/>
</g>
<g enable-background="new    ">
	<path fill="#CDCCCC" d="M401.2,191.8c-0.4,1.7-0.7,2.6-2.7,3h-63.6c-1.7-0.4-2.4-1.5-3-2.7l0,0c0.4-1.7,0.7-2.6,2.7-3h63.6
		C399.9,189.5,401.5,190.8,401.2,191.8L401.2,191.8z"/>
</g>
<g enable-background="new    ">
	<path fill="#CDCCCC" d="M401.8,218.1c-0.4,1.7-0.7,2.6-2.7,3h-63.6c-1.7-0.4-2.4-1.5-3-2.7l0,0c0.4-1.7,0.7-2.6,2.7-3h63.6
		C399.8,214.8,401.4,216.1,401.8,218.1L401.8,218.1z"/>
</g>
<g enable-background="new    ">
	<path fill="#CDCCCC" d="M401.7,243.4c-0.4,1.7-0.7,2.6-2.7,3h-63.6c-1.7-0.4-2.4-1.5-3-2.7l0,0c0.4-1.7,0.7-2.6,2.7-3h63.6
		C400.6,240.2,401.2,241.3,401.7,243.4L401.7,243.4z"/>
</g>
<g enable-background="new    ">
	<path fill="#CDCCCC" d="M418.6,526.9c-0.4,1.7-0.7,2.6-2.7,3h-63.6c-1.7-0.4-2.4-1.5-3-2.7l0,0c0.4-1.7,0.7-2.6,2.7-3h63.6
		C417.6,523.7,419.1,525.1,418.6,526.9L418.6,526.9z"/>
</g>
<g enable-background="new    ">
	<path fill="#CDCCCC" d="M419.2,549.5c-0.4,1.7-0.7,2.6-2.7,3h-63.6c-1.7-0.4-2.4-1.5-3-2.7l0,0c0.4-1.7,0.7-2.6,2.7-3h63.6
		C418.2,546.4,418.8,547.5,419.2,549.5L419.2,549.5z"/>
</g>
<g enable-background="new    ">
	<path fill="#CDCCCC" d="M419.2,581.3c-0.4,1.7-0.7,2.6-2.7,3h-63.6c-1.7-0.4-2.4-1.5-3-2.7l0,0c0.4-1.7,0.7-2.6,2.7-3h63.6
		C417.9,579.1,418.6,580.2,419.2,581.3L419.2,581.3z"/>
</g>
<g enable-background="new    ">
	<path fill="#CDCCCC" d="M419.6,608.6c-0.4,1.7-0.7,2.6-2.7,3h-63.6c-1.7-0.4-2.4-1.5-3-2.7l0,0c0.4-1.7,0.7-2.6,2.7-3h63.6
		C417.6,605.3,419.1,606.6,419.6,608.6L419.6,608.6z"/>
</g>
<g enable-background="new    ">
	<path fill="#CDCCCC" d="M433.5,665.6c-0.4,1.7-0.7,2.6-2.7,3h-63.6c-1.7-0.4-2.4-1.5-3-2.7l0,0c0.4-1.7,0.7-2.6,2.7-3h63.6
		C432.5,662.5,433.1,663.7,433.5,665.6L433.5,665.6z"/>
</g>
<g enable-background="new    ">
	<path fill="#CDCCCC" d="M433.2,688c-0.4,1.7-0.7,2.6-2.7,3h-63.6c-1.7-0.4-2.4-1.5-3-2.7l0,0c0.4-1.7,0.7-2.6,2.7-3h63.6
		C431.9,685.8,433.4,687.1,433.2,688L433.2,688z"/>
</g>
<g enable-background="new    ">
	<path fill="#CDCCCC" d="M433.7,807c-0.4,1.7-0.7,2.6-2.7,3h-63.6c-1.7-0.4-2.4-1.5-3-2.7l0,0c0.4-1.7,0.7-2.6,2.7-3h63.6
		C432.4,804.8,433.9,806.1,433.7,807L433.7,807z"/>
</g>
<g enable-background="new    ">
	<path fill="#CDCCCC" d="M433.5,747.1c-0.4,1.7-0.7,2.6-2.7,3h-63.6c-1.7-0.4-2.4-1.5-3-2.7l0,0c0.4-1.7,0.7-2.6,2.7-3h63.6
		C432.2,744.9,433.8,746.2,433.5,747.1L433.5,747.1z"/>
</g>
<g enable-background="new    ">
	<path fill="#CDCCCC" d="M433,720.7c-0.4,1.7-0.7,2.6-2.7,3h-63.6c-1.7-0.4-2.4-1.5-3-2.7l0,0c0.4-1.7,0.7-2.6,2.7-3H430
		C431.9,717.7,433.4,719,433,720.7L433,720.7z"/>
</g>
<g enable-background="new    ">
	<path fill="#CDCCCC" d="M434,834.3c-0.4,1.7-0.7,2.6-2.7,3h-63.6c-1.7-0.4-2.4-1.5-3-2.7l0,0c0.4-1.7,0.7-2.6,2.7-3h63.6
		C432.9,831.2,433.5,832.3,434,834.3L434,834.3z"/>
</g>
</svg>
