<?xml version="1.0" encoding="utf-8"?>
<!-- Generator: Adobe Illustrator 17.1.0, SVG Export Plug-In . SVG Version: 6.00 Build 0)  -->
<!DOCTYPE svg PUBLIC "-//W3C//DTD SVG 1.1//EN" "http://www.w3.org/Graphics/SVG/1.1/DTD/svg11.dtd">
<svg version="1.1" id="mash_turn" xmlns="http://www.w3.org/2000/svg" xmlns:xlink="http://www.w3.org/1999/xlink" x="0px" y="0px"
	 viewBox="-294 -204 1200 1200" enable-background="new -294 -204 1200 1200" xml:space="preserve">
<g enable-background="new    ">
	<g>
		<g>
			
				<linearGradient id="SVGID_2_" gradientUnits="userSpaceOnUse" x1="-566.6329" y1="172.4382" x2="1776.4706" y2="172.4382" gradientTransform="matrix(0.51 0 0 -0.51 0 493.92)">
				<stop  offset="1.020408e-02" style="stop-color:#CCCCCC"/>
				<stop  offset="0.4949" style="stop-color:#DEDEDE"/>
				<stop  offset="1" style="stop-color:#999999"/>
			</linearGradient>
			<path id="SVGID_1_" fill="url(#SVGID_2_)" d="M890.3-31.8C882.1-53.6,835.1-67,835.1-67L0.5-64.5c0,0-10.8-8.5-16.1,7.9
				S-7.2-43-4.2-3.9s-27.6,54.6-93.5,63.3c-66.1,8.7-123.7,61-123.7,61c-52.7,35.9-103.9,151.5-32.5,335.1s239,197,283.5,199.3
				c44.4,2.3,46.3,30,46.3,30s17,109.4,17.4,136.6c0.4,27.2,41.6,55,41.6,55s568.2,6.8,593-1.7c24.6-8.5,21.7-25.1,21.7-25.1
				S824.3,77.5,824.3,56c0.2-21.5,13.4-47,30-60.6c16.8-13.4,27.2,10.8,44.4,2.3C915.8-10.7,898.6-9.9,890.3-31.8z"/>
		</g>
	</g>
</g>
<linearGradient id="SVGID_3_" gradientUnits="userSpaceOnUse" x1="10.0648" y1="169.9346" x2="1711.72" y2="169.9346" gradientTransform="matrix(0.51 0 0 -0.51 0 493.92)">
	<stop  offset="0" style="stop-color:#999999"/>
	<stop  offset="0.4949" style="stop-color:#FFFFFF"/>
	<stop  offset="1" style="stop-color:#CCCCCC"/>
</linearGradient>
<path fill="url(#SVGID_3_)" d="M120.9,826.9c14,14,5.7,27.8,33.1,30.2c27.4,2.5,548.8-1.3,548.8-1.3s13.8,11.3,25.1-16.8
	c10.8-27.2,63.7-788.1,80.3-815.5c16.6-27.4,32.5-52.3,59.9-35.7c0,0,13.8,11.3-5.7-13.6s-19.1-16.1-41.4-16.6
	C799.6-42.6,13.6-40,13.6-40s-5.7,0.4-8.1,16.6c-2.3,16.4,5.5,10.8,8.7,41.6c3.4,30,2.3,19.3,0.2,38.5c-2.3,19.1,24.4,88,28.3,123.5
	c2.8,35.3,34.4,373.1,39.5,403.5C87.4,612.9,120.9,826.9,120.9,826.9z"/>
<linearGradient id="SVGID_4_" gradientUnits="userSpaceOnUse" x1="151.7489" y1="398.1988" x2="872.9773" y2="398.1988">
	<stop  offset="1.020408e-02" style="stop-color:#8BD2CF"/>
	<stop  offset="0.5264" style="stop-color:#67A4D9"/>
	<stop  offset="1" style="stop-color:#CEEBEE"/>
</linearGradient>
<path fill="url(#SVGID_4_)" d="M868.2-12.2c0,0,13.8,11.3-5.7-13.6s-19.1-16.4-41.4-16.6c-3,0-14.4-39.5-121.5-5.3
	C546.5,1.2,404.2,81.9,487,315.7c144.5,225.2-308.1,199.7-335.3,541.2c0.8,0,1.5,0.2,2.3,0.2c27.4,2.5,548.8-1.3,548.8-1.3
	s13.8,11.3,25.1-16.8c10.8-27.2,63.7-788.1,80.3-815.5C824.9-3.9,840.8-28.8,868.2-12.2z"/>
<g enable-background="new    ">
	<path fill="#FFFFFF" d="M51.5,554.7l-8.7,22.1c0,0-3,11.5-10.8,19.5c-7.9,8.3-46.5,2.8-102-11c-55.5-13.8-124.1-126-156.8-196.5
		s-14.4-150.7,13.2-206.3c27.6-54.6,153.6-85.8,172.3-85.6c19.5,0.4,24.6,5.7,38.5,13.8c13.8,8.3,16.1,30.6,16.1,30.6
		s8.5,60.3,22.5,159.4s22.5,244.6,22.5,244.6L51.5,554.7z"/>
</g>
<g>
	<g>
		<g>
			<path id="SVGID_6_" fill="#DADAD9" d="M-3.2,12.4c0,0,3,31.7-34.8,43.1c-37.6,11.7-120.5,31-151.5,52.7
				c-45.9,31.9-107.5,74.6-85,226.5s71.4,211.6,126.9,249.7c30.8,21.2,84.4,45.7,104.8,50.1s45.7,11.3,54,7.6
				c8.3-3.4,1.7-13.6-4.7-14.2c-48.9-2.5-104.8-22.1-147.7-54c-90.5-67.8-120.9-197.6-120.7-240.5c0.2-88.8-28.9-206.1,205.5-257.5
				c23.8-4.9,41.4,12.7,52.5,6.4C7,76,1.9,81.1-2.7,63c-4.9-17.2,4.7-35.3,4.7-35.3L-3.2,12.4z"/>
		</g>
	</g>
</g>
<g enable-background="new    ">
	<path fill="#CDCCCC" d="M444.8,762.5c0.2,2.8-2.5,5.9-5.1,5.1l-129.2,0.6c-2.8,0.2-5.9-2.5-5.1-5.1l0,0c-0.2-2.8,2.5-5.9,5.1-5.1
		l129.2-0.6C442.6,757.2,444.6,759.5,444.8,762.5L444.8,762.5z"/>
</g>
<g enable-background="new    ">
	<path fill="#CDCCCC" d="M430.7,624.8c0.2,2.8-2.5,5.9-5.1,5.1l-129.2,0.6c-2.8,0.2-5.9-2.5-5.1-5.1l0,0c-0.2-2.8,2.5-5.9,5.1-5.1
		l129.2-0.6C428.2,619.5,430.5,622.1,430.7,624.8L430.7,624.8z"/>
</g>
<g enable-background="new    ">
	<path fill="#CDCCCC" d="M427.1,485.4c0.2,2.8-2.5,5.9-5.1,5.1l-129.2,0.6c-2.8,0.2-5.9-2.5-5.1-5.1l0,0c-0.2-2.8,2.5-5.9,5.1-5.1
		l129.2-0.6C424.8,480.1,427.8,482.9,427.1,485.4L427.1,485.4z"/>
</g>
<g enable-background="new    ">
	<path fill="#CDCCCC" d="M421.4,362.2c0.2,2.8-2.5,5.9-5.1,5.1l-129.2,0.6c-2.8,0.2-5.9-2.5-5.1-5.1l0,0c-0.2-2.8,2.5-5.9,5.1-5.1
		l129.2-0.6C419.3,356,421.4,358.4,421.4,362.2L421.4,362.2z"/>
</g>
<g enable-background="new    ">
	<path fill="#CDCCCC" d="M412.9,252.3c0.2,2.8-2.5,5.9-5.1,5.1l-129.4,0.4c-2.8,0.2-5.9-2.5-5.1-5.1l0,0c-0.2-2.8,2.5-5.9,5.1-5.1
		l129.2-0.6C410.8,246.2,412.9,248.5,412.9,252.3L412.9,252.3z"/>
</g>
<g enable-background="new    ">
	<path fill="#CDCCCC" d="M421.2,274.2c-0.4,1.7-0.6,2.5-2.8,3h-63.5c-1.7-0.4-2.3-1.5-3-2.8l0,0c0.4-1.7,0.6-2.5,2.8-3h63.5
		C420.1,271,420.8,272.1,421.2,274.2L421.2,274.2z"/>
</g>
<g enable-background="new    ">
	<path fill="#CDCCCC" d="M420.8,296.5c-0.4,1.7-0.6,2.5-2.8,3h-63.5c-1.7-0.4-2.3-1.5-3-2.8l0,0c0.4-1.7,0.6-2.5,2.8-3h63.5
		C419.7,294.2,421.2,295.7,420.8,296.5L420.8,296.5z"/>
</g>
<g enable-background="new    ">
	<path fill="#CDCCCC" d="M421.6,318.4c-0.4,1.7-0.6,2.5-2.8,3h-63.5c-1.7-0.4-2.3-1.5-3-2.8l0,0c0.4-1.7,0.6-2.5,2.8-3h63.5
		C419.5,315.9,421,317.1,421.6,318.4L421.6,318.4z"/>
</g>
<g enable-background="new    ">
	<path fill="#CDCCCC" d="M421,342.4c-0.4,1.7-0.6,2.5-2.8,3h-63.5c-1.7-0.4-2.3-1.5-3-2.8l0,0c0.4-1.7,0.6-2.5,2.8-3H418
		C419.7,340.3,421.2,341.6,421,342.4L421,342.4z"/>
</g>
<g enable-background="new    ">
	<path fill="#CDCCCC" d="M421.8,388.5c-0.4,1.7-0.6,2.5-2.8,3h-63.5c-1.7-0.4-2.3-1.5-3-2.8l0,0c0.4-1.7,0.6-2.5,2.8-3h63.5
		C419.7,386,421.2,387.5,421.8,388.5L421.8,388.5z"/>
</g>
<g enable-background="new    ">
	<path fill="#CDCCCC" d="M421.4,411.7c-0.4,1.7-0.6,2.5-2.8,3h-63.5c-1.7-0.4-2.3-1.5-3-2.8l0,0c0.4-1.7,0.6-2.5,2.8-3h63.5
		C420.3,408.7,421.8,410,421.4,411.7L421.4,411.7z"/>
</g>
<g enable-background="new    ">
	<path fill="#CDCCCC" d="M421.2,437c-0.4,1.7-0.6,2.5-2.8,3h-63.5c-1.7-0.4-2.3-1.5-3-2.8l0,0c0.4-1.7,0.6-2.5,2.8-3h63.5
		C420.1,434,421.6,435.3,421.2,437L421.2,437z"/>
</g>
<g enable-background="new    ">
	<path fill="#CDCCCC" d="M422,462.5c-0.4,1.7-0.6,2.5-2.8,3h-63.5c-1.7-0.4-2.3-1.5-3-2.8l0,0c0.4-1.7,0.6-2.5,2.8-3h63.5
		C419.9,460.1,421.4,461.4,422,462.5L422,462.5z"/>
</g>
<g enable-background="new    ">
	<path fill="#CDCCCC" d="M406.9,132.9c0.2,2.8-2.5,5.9-5.1,5.1l-129.2,0.6c-2.8,0.2-5.9-2.5-5.1-5.1l0,0c-0.2-2.8,2.5-5.9,5.1-5.1
		l129.2-0.6C404.6,127.6,407.6,130.2,406.9,132.9L406.9,132.9z"/>
</g>
<g enable-background="new    ">
	<path fill="#CDCCCC" d="M393.8,23.5c0.2,2.8-2.5,5.9-5.1,5.1l-129.2,0.6c-2.8,0.2-5.9-2.5-5.1-5.1l0,0c-0.2-2.8,2.5-5.9,5.1-5.1
		l129.2-0.6C390.4,18,393.6,20.7,393.8,23.5L393.8,23.5z"/>
</g>
<g enable-background="new    ">
	<path fill="#CDCCCC" d="M398.2,45.4c-0.4,1.7-0.6,2.5-2.8,3h-63.5c-1.7-0.4-2.3-1.5-3-2.8l0,0c0.4-1.7,0.6-2.5,2.8-3h63.5
		C397.2,42.2,398.7,43.7,398.2,45.4L398.2,45.4z"/>
</g>
<g enable-background="new    ">
	<path fill="#CDCCCC" d="M398.9,67.9c-0.4,1.7-0.6,2.5-2.8,3h-63.5c-1.7-0.4-2.3-1.5-3-2.8l0,0c0.4-1.7,0.6-2.5,2.8-3h63.3
		C397.6,65.8,398.2,66.8,398.9,67.9L398.9,67.9z"/>
</g>
<g enable-background="new    ">
	<path fill="#CDCCCC" d="M398.4,90.4c-0.4,1.7-0.6,2.5-2.8,3h-63.5c-1.7-0.4-2.3-1.5-3-2.8l0,0c0.4-1.7,0.6-2.5,2.8-3h63.5
		C397.4,87.2,399.1,88.5,398.4,90.4L398.4,90.4z"/>
</g>
<g enable-background="new    ">
	<path fill="#CDCCCC" d="M398.9,113.8c-0.4,1.7-0.6,2.5-2.8,3h-63.5c-1.7-0.4-2.3-1.5-3-2.8l0,0c0.4-1.7,0.6-2.5,2.8-3h63.5
		C397.6,111.7,398.2,112.7,398.9,113.8L398.9,113.8z"/>
</g>
<g enable-background="new    ">
	<path fill="#CDCCCC" d="M404.4,160.3c-0.4,1.7-0.6,2.5-2.8,3h-63.5c-1.7-0.4-2.3-1.5-3-2.8l0,0c0.4-1.7,0.6-2.5,2.8-3h63.5
		C403.3,157.1,404,158.2,404.4,160.3L404.4,160.3z"/>
</g>
<g enable-background="new    ">
	<path fill="#CDCCCC" d="M404.2,182.6c-0.4,1.7-0.6,2.5-2.8,3h-63.5c-1.7-0.4-2.3-1.5-3-2.8l0,0c0.4-1.7,0.6-2.5,2.8-3h63.5
		C402.9,180.3,404.4,181.8,404.2,182.6L404.2,182.6z"/>
</g>
<g enable-background="new    ">
	<path fill="#CDCCCC" d="M404.6,209c-0.4,1.7-0.6,2.5-2.8,3h-63.5c-1.7-0.4-2.3-1.5-3-2.8l0,0c0.4-1.7,0.6-2.5,2.8-3h63.5
		C402.7,205.6,404.2,206.9,404.6,209L404.6,209z"/>
</g>
<g enable-background="new    ">
	<path fill="#CDCCCC" d="M404.6,234.3c-0.4,1.7-0.6,2.5-2.8,3h-63.5c-1.7-0.4-2.3-1.5-3-2.8l0,0c0.4-1.7,0.6-2.5,2.8-3h63.5
		C403.5,231.1,404.2,232.2,404.6,234.3L404.6,234.3z"/>
</g>
<g enable-background="new    ">
	<path fill="#CDCCCC" d="M421.4,517.7c-0.4,1.7-0.6,2.5-2.8,3h-63.5c-1.7-0.4-2.3-1.5-3-2.8l0,0c0.4-1.7,0.6-2.5,2.8-3h63.5
		C420.5,514.5,422,515.8,421.4,517.7L421.4,517.7z"/>
</g>
<g enable-background="new    ">
	<path fill="#CDCCCC" d="M422,540.3c-0.4,1.7-0.6,2.5-2.8,3h-63.5c-1.7-0.4-2.3-1.5-3-2.8l0,0c0.4-1.7,0.6-2.5,2.8-3h63.5
		C421,537.1,421.6,538.1,422,540.3L422,540.3z"/>
</g>
<g enable-background="new    ">
	<path fill="#CDCCCC" d="M422,572.1c-0.4,1.7-0.6,2.5-2.8,3h-63.5c-1.7-0.4-2.3-1.5-3-2.8l0,0c0.4-1.7,0.6-2.5,2.8-3h63.5
		C420.8,569.8,421.4,570.9,422,572.1L422,572.1z"/>
</g>
<g enable-background="new    ">
	<path fill="#CDCCCC" d="M422.5,599.3c-0.4,1.7-0.6,2.5-2.8,3h-63.5c-1.7-0.4-2.3-1.5-3-2.8l0,0c0.4-1.7,0.6-2.5,2.8-3h63.5
		C420.5,595.9,422,597.2,422.5,599.3L422.5,599.3z"/>
</g>
<g enable-background="new    ">
	<path fill="#CDCCCC" d="M436.5,656.3c-0.4,1.7-0.6,2.5-2.8,3h-63.5c-1.7-0.4-2.3-1.5-3-2.8l0,0c0.4-1.7,0.6-2.5,2.8-3h63.5
		C435.4,653.3,436.1,654.4,436.5,656.3L436.5,656.3z"/>
</g>
<g enable-background="new    ">
	<path fill="#CDCCCC" d="M436.1,678.6c-0.4,1.7-0.6,2.5-2.8,3h-63.5c-1.7-0.4-2.3-1.5-3-2.8l0,0c0.4-1.7,0.6-2.5,2.8-3h63.5
		C434.8,676.5,436.3,677.7,436.1,678.6L436.1,678.6z"/>
</g>
<g enable-background="new    ">
	<path fill="#CDCCCC" d="M436.5,797.6c-0.4,1.7-0.6,2.5-2.8,3h-63.5c-1.7-0.4-2.3-1.5-3-2.8l0,0c0.4-1.7,0.6-2.5,2.8-3h63.5
		C435.2,795.4,436.7,796.7,436.5,797.6L436.5,797.6z"/>
</g>
<g enable-background="new    ">
	<path fill="#CDCCCC" d="M436.5,737.6c-0.4,1.7-0.6,2.5-2.8,3h-63.5c-1.7-0.4-2.3-1.5-3-2.8l0,0c0.4-1.7,0.6-2.5,2.8-3h63.5
		C435,735.5,436.7,736.8,436.5,737.6L436.5,737.6z"/>
</g>
<g enable-background="new    ">
	<path fill="#CDCCCC" d="M435.8,711.3c-0.4,1.7-0.6,2.5-2.8,3h-63.5c-1.7-0.4-2.3-1.5-3-2.8l0,0c0.4-1.7,0.6-2.5,2.8-3h63.5
		C434.8,708.3,436.3,709.6,435.8,711.3L435.8,711.3z"/>
</g>
<g enable-background="new    ">
	<path fill="#CDCCCC" d="M436.9,825c-0.4,1.7-0.6,2.5-2.8,3h-63.5c-1.7-0.4-2.3-1.5-3-2.8l0,0c0.4-1.7,0.6-2.5,2.8-3h63.5
		C435.8,821.8,436.5,822.9,436.9,825L436.9,825z"/>
</g>
</svg>
