<?xml version="1.0" encoding="utf-8"?>
<!-- Generator: Adobe Illustrator 17.1.0, SVG Export Plug-In . SVG Version: 6.00 Build 0)  -->
<!DOCTYPE svg PUBLIC "-//W3C//DTD SVG 1.1//EN" "http://www.w3.org/Graphics/SVG/1.1/DTD/svg11.dtd">
<svg version="1.1" id="mash_turn" xmlns="http://www.w3.org/2000/svg" xmlns:xlink="http://www.w3.org/1999/xlink" x="0px" y="0px"
	 viewBox="-294 -204 1200 1200" enable-background="new -294 -204 1200 1200" xml:space="preserve">
<g enable-background="new    ">
	<g>
		<g>
			
				<linearGradient id="SVGID_2_" gradientUnits="userSpaceOnUse" x1="-568.5801" y1="190.2581" x2="1776.4706" y2="190.2581" gradientTransform="matrix(0.51 0 0 -0.51 0 493.92)">
				<stop  offset="1.020408e-02" style="stop-color:#CCCCCC"/>
				<stop  offset="0.4949" style="stop-color:#DEDEDE"/>
				<stop  offset="1" style="stop-color:#999999"/>
			</linearGradient>
			<path id="SVGID_1_" fill="url(#SVGID_2_)" d="M890.3-41.2C882-63.1,835-76.5,835-76.5L-0.3-74c0,0-10.8-8.5-16.2,7.9
				S-7.9-52.5-5-13.3S-32.6,41.3-98.5,50c-66.1,8.7-123.8,61-123.8,61c-52.7,35.9-104,151.6-32.5,335.4S-15.6,643.6,28.8,645.9
				c44.4,2.3,46.4,30,46.4,30s17,109.5,17.4,136.7c0.4,27.2,41.7,55.1,41.7,55.1s568.7,6.8,593.5-1.7c24.7-8.5,21.7-25.1,21.7-25.1
				s74.6-772.8,74.6-794.3c0.2-21.5,13.4-47,30-60.6c16.8-13.4,27.2,10.8,44.4,2.3C915.8-20.1,898.6-19.3,890.3-41.2z"/>
		</g>
	</g>
</g>
<linearGradient id="SVGID_3_" gradientUnits="userSpaceOnUse" x1="8.5969" y1="187.7524" x2="1711.6661" y2="187.7524" gradientTransform="matrix(0.51 0 0 -0.51 0 493.92)">
	<stop  offset="0" style="stop-color:#999999"/>
	<stop  offset="0.4949" style="stop-color:#FFFFFF"/>
	<stop  offset="1" style="stop-color:#CCCCCC"/>
</linearGradient>
<path fill="url(#SVGID_3_)" d="M120.3,818.2c14,14,5.7,27.9,33.2,30.2c27.4,2.6,549.3-1.3,549.3-1.3s13.8,11.3,25.1-16.8
	c10.8-27.2,63.8-788.8,80.4-816.2c16.6-27.4,32.5-52.3,60-35.7c0,0,13.8,11.3-5.7-13.6S843.3-51.4,821-51.8
	C799.5-52,12.9-49.5,12.9-49.5s-5.7,0.4-8.1,16.6c-2.3,16.4,5.5,10.8,8.7,41.7c3.4,30,2.3,19.4,0.2,38.5
	c-2.3,19.1,24.5,88,28.3,123.6c2.8,35.3,34.5,373.4,39.6,403.8C86.7,604,120.3,818.2,120.3,818.2z"/>
<linearGradient id="SVGID_4_" gradientUnits="userSpaceOnUse" x1="150.8067" y1="391.5208" x2="872.9498" y2="391.5208">
	<stop  offset="1.020408e-02" style="stop-color:#8BD2CF"/>
	<stop  offset="0.5264" style="stop-color:#67A4D9"/>
	<stop  offset="1" style="stop-color:#CEEBEE"/>
</linearGradient>
<path fill="url(#SVGID_4_)" d="M868.2-21.6c0,0,13.8,11.3-5.7-13.6S843.3-51.6,821-51.8c-3,0,0.4-33.2-106.8,1.1
	c-153.1,48.9-87.2,61.7-78.7,165.9c8.5,104.2-293.5,125.5-210.5,359.4c144.6,225.4-287.5,338.3-273.9,373.6c0.9,0,1.5,0.2,2.3,0.2
	c27.4,2.6,549.3-1.3,549.3-1.3s13.8,11.3,25.1-16.8c10.8-27.2,63.8-788.8,80.4-816.2C824.8-13.3,840.8-38.2,868.2-21.6z"/>
<g enable-background="new    ">
	<path fill="#FFFFFF" d="M50.7,545.7L42,567.9c0,0-3,11.5-10.8,19.6c-7.9,8.3-46.6,2.8-102.1-11.1s-124.2-126.1-156.9-196.7
		s-14.5-150.8,13.2-206.5C-187,118.5-60.9,87.2-42.2,87.5c19.6,0.4,24.7,5.7,38.5,13.8c13.8,8.3,16.2,30.6,16.2,30.6
		S21,192.3,35,291.4s22.5,244.8,22.5,244.8L50.7,545.7z"/>
</g>
<g>
	<g>
		<g>
			<path id="SVGID_6_" fill="#DADAD9" d="M-3.9,3c0,0,3,31.7-34.9,43.2c-37.6,11.7-120.6,31-151.6,52.7
				c-45.9,31.9-107.6,74.6-85.1,226.7s71.5,211.8,127,249.9c30.8,21.3,84.4,45.7,104.8,50.2c20.4,4.5,45.7,11.3,54,7.7
				c8.3-3.4,1.7-13.6-4.7-14.2c-48.9-2.6-104.8-22.1-147.8-54c-90.6-67.8-121-197.8-120.8-240.7c0.2-88.9-28.9-206.3,205.6-257.7
				c23.8-4.9,41.5,12.8,52.5,6.4c11.1-6.4,6-1.3,1.3-19.4c-4.9-17.2,4.7-35.3,4.7-35.3L-3.9,3z"/>
		</g>
	</g>
</g>
<g enable-background="new    ">
	<path fill="#CDCCCC" d="M444.4,753.7c0.2,2.8-2.6,6-5.1,5.1L310,759.5c-2.8,0.2-6-2.6-5.1-5.1l0,0c-0.2-2.8,2.6-6,5.1-5.1
		l129.3-0.6C442.3,748.4,444.2,750.7,444.4,753.7L444.4,753.7z"/>
</g>
<g enable-background="new    ">
	<path fill="#CDCCCC" d="M430.3,615.9c0.2,2.8-2.6,6-5.1,5.1l-129.3,0.6c-2.8,0.2-6-2.6-5.1-5.1l0,0c-0.2-2.8,2.6-6,5.1-5.1
		l129.3-0.6C427.8,610.6,430.1,613.2,430.3,615.9L430.3,615.9z"/>
</g>
<g enable-background="new    ">
	<path fill="#CDCCCC" d="M426.7,476.4c0.2,2.8-2.6,6-5.1,5.1l-129.3,0.6c-2.8,0.2-6-2.6-5.1-5.1l0,0c-0.2-2.8,2.6-6,5.1-5.1
		l129.3-0.6C424.4,471.1,427.4,473.9,426.7,476.4L426.7,476.4z"/>
</g>
<g enable-background="new    ">
	<path fill="#CDCCCC" d="M421,353.1c0.2,2.8-2.6,6-5.1,5.1l-129.3,0.6c-2.8,0.2-6-2.6-5.1-5.1l0,0c-0.2-2.8,2.6-6,5.1-5.1l129.3-0.6
		C418.9,346.9,421,349.2,421,353.1L421,353.1z"/>
</g>
<g enable-background="new    ">
	<path fill="#CDCCCC" d="M412.5,243.1c0.2,2.8-2.6,6-5.1,5.1l-129.5,0.4c-2.8,0.2-6-2.6-5.1-5.1l0,0c-0.2-2.8,2.6-6,5.1-5.1
		l129.3-0.6C410.4,237,412.5,239.3,412.5,243.1L412.5,243.1z"/>
</g>
<g enable-background="new    ">
	<path fill="#CDCCCC" d="M420.8,265c-0.4,1.7-0.6,2.6-2.8,3h-63.6c-1.7-0.4-2.3-1.5-3-2.8l0,0c0.4-1.7,0.6-2.6,2.8-3h63.6
		C419.7,261.8,420.3,262.9,420.8,265L420.8,265z"/>
</g>
<g enable-background="new    ">
	<path fill="#CDCCCC" d="M420.3,287.4c-0.4,1.7-0.6,2.6-2.8,3H354c-1.7-0.4-2.3-1.5-3-2.8l0,0c0.4-1.7,0.6-2.6,2.8-3h63.6
		C419.3,285,420.8,286.5,420.3,287.4L420.3,287.4z"/>
</g>
<g enable-background="new    ">
	<path fill="#CDCCCC" d="M421.2,309.3c-0.4,1.7-0.6,2.6-2.8,3h-63.6c-1.7-0.4-2.3-1.5-3-2.8l0,0c0.4-1.7,0.6-2.6,2.8-3h63.6
		C419.1,306.7,420.6,308,421.2,309.3L421.2,309.3z"/>
</g>
<g enable-background="new    ">
	<path fill="#CDCCCC" d="M420.6,333.3c-0.4,1.7-0.6,2.6-2.8,3h-63.6c-1.7-0.4-2.3-1.5-3-2.8l0,0c0.4-1.7,0.6-2.6,2.8-3h63.6
		C419.3,331.2,420.8,332.4,420.6,333.3L420.6,333.3z"/>
</g>
<g enable-background="new    ">
	<path fill="#CDCCCC" d="M421.4,379.4c-0.4,1.7-0.6,2.6-2.8,3h-63.6c-1.7-0.4-2.3-1.5-3-2.8l0,0c0.4-1.7,0.6-2.6,2.8-3h63.6
		C419.3,376.9,420.8,378.4,421.4,379.4L421.4,379.4z"/>
</g>
<g enable-background="new    ">
	<path fill="#CDCCCC" d="M421,402.6c-0.4,1.7-0.6,2.6-2.8,3h-63.6c-1.7-0.4-2.3-1.5-3-2.8l0,0c0.4-1.7,0.6-2.6,2.8-3H418
		C419.9,399.6,421.4,400.9,421,402.6L421,402.6z"/>
</g>
<g enable-background="new    ">
	<path fill="#CDCCCC" d="M420.8,427.9c-0.4,1.7-0.6,2.6-2.8,3h-63.6c-1.7-0.4-2.3-1.5-3-2.8l0,0c0.4-1.7,0.6-2.6,2.8-3h63.6
		C419.7,424.9,421.2,426.2,420.8,427.9L420.8,427.9z"/>
</g>
<g enable-background="new    ">
	<path fill="#CDCCCC" d="M421.6,453.4c-0.4,1.7-0.6,2.6-2.8,3h-63.6c-1.7-0.4-2.3-1.5-3-2.8l0,0c0.4-1.7,0.6-2.6,2.8-3h63.6
		C419.5,451.1,421,452.4,421.6,453.4L421.6,453.4z"/>
</g>
<g enable-background="new    ">
	<path fill="#CDCCCC" d="M406.5,123.6c0.2,2.8-2.6,6-5.1,5.1l-129.3,0.6c-2.8,0.2-6-2.6-5.1-5.1l0,0c-0.2-2.8,2.6-6,5.1-5.1
		l129.3-0.6C404.2,118.3,407.2,120.8,406.5,123.6L406.5,123.6z"/>
</g>
<g enable-background="new    ">
	<path fill="#CDCCCC" d="M393.3,14.1c0.2,2.8-2.6,6-5.1,5.1l-129.3,0.6c-2.8,0.2-6-2.6-5.1-5.1l0,0c-0.2-2.8,2.6-6,5.1-5.1L388.2,9
		C389.9,8.6,393.1,11.3,393.3,14.1L393.3,14.1z"/>
</g>
<g enable-background="new    ">
	<path fill="#CDCCCC" d="M397.8,36c-0.4,1.7-0.6,2.6-2.8,3h-63.6c-1.7-0.4-2.3-1.5-3-2.8l0,0c0.4-1.7,0.6-2.6,2.8-3h63.6
		C396.7,32.8,398.2,34.3,397.8,36L397.8,36z"/>
</g>
<g enable-background="new    ">
	<path fill="#CDCCCC" d="M398.4,58.5c-0.4,1.7-0.6,2.6-2.8,3h-63.6c-1.7-0.4-2.3-1.5-3-2.8l0,0c0.4-1.7,0.6-2.6,2.8-3h63.4
		C397.2,56.4,397.8,57.5,398.4,58.5L398.4,58.5z"/>
</g>
<g enable-background="new    ">
	<path fill="#CDCCCC" d="M398,81.1c-0.4,1.7-0.6,2.6-2.8,3h-63.6c-1.7-0.4-2.3-1.5-3-2.8l0,0c0.4-1.7,0.6-2.6,2.8-3H395
		C397,77.9,398.7,79.2,398,81.1L398,81.1z"/>
</g>
<g enable-background="new    ">
	<path fill="#CDCCCC" d="M398.4,104.5c-0.4,1.7-0.6,2.6-2.8,3h-63.6c-1.7-0.4-2.3-1.5-3-2.8l0,0c0.4-1.7,0.6-2.6,2.8-3h63.6
		C397.2,102.3,397.8,103.4,398.4,104.5L398.4,104.5z"/>
</g>
<g enable-background="new    ">
	<path fill="#CDCCCC" d="M404,151c-0.4,1.7-0.6,2.6-2.8,3h-63.6c-1.7-0.4-2.3-1.5-3-2.8l0,0c0.4-1.7,0.6-2.6,2.8-3H401
		C402.9,147.9,403.5,148.9,404,151L404,151z"/>
</g>
<g enable-background="new    ">
	<path fill="#CDCCCC" d="M403.8,173.4c-0.4,1.7-0.6,2.6-2.8,3h-63.6c-1.7-0.4-2.3-1.5-3-2.8l0,0c0.4-1.7,0.6-2.6,2.8-3h63.6
		C402.5,171,404,172.5,403.8,173.4L403.8,173.4z"/>
</g>
<g enable-background="new    ">
	<path fill="#CDCCCC" d="M404.2,199.7c-0.4,1.7-0.6,2.6-2.8,3h-63.6c-1.7-0.4-2.3-1.5-3-2.8l0,0c0.4-1.7,0.6-2.6,2.8-3h63.6
		C402.3,196.3,403.8,197.6,404.2,199.7L404.2,199.7z"/>
</g>
<g enable-background="new    ">
	<path fill="#CDCCCC" d="M404.2,225c-0.4,1.7-0.6,2.6-2.8,3h-63.6c-1.7-0.4-2.3-1.5-3-2.8l0,0c0.4-1.7,0.6-2.6,2.8-3h63.6
		C403.1,221.9,403.8,222.9,404.2,225L404.2,225z"/>
</g>
<g enable-background="new    ">
	<path fill="#CDCCCC" d="M421,508.7c-0.4,1.7-0.6,2.6-2.8,3h-63.6c-1.7-0.4-2.3-1.5-3-2.8l0,0c0.4-1.7,0.6-2.6,2.8-3H418
		C420.1,505.5,421.6,506.8,421,508.7L421,508.7z"/>
</g>
<g enable-background="new    ">
	<path fill="#CDCCCC" d="M421.6,531.3c-0.4,1.7-0.6,2.6-2.8,3h-63.6c-1.7-0.4-2.3-1.5-3-2.8l0,0c0.4-1.7,0.6-2.6,2.8-3h63.6
		C420.6,528.1,421.2,529.2,421.6,531.3L421.6,531.3z"/>
</g>
<g enable-background="new    ">
	<path fill="#CDCCCC" d="M421.6,563.2c-0.4,1.7-0.6,2.6-2.8,3h-63.6c-1.7-0.4-2.3-1.5-3-2.8l0,0c0.4-1.7,0.6-2.6,2.8-3h63.6
		C420.3,560.8,421,561.9,421.6,563.2L421.6,563.2z"/>
</g>
<g enable-background="new    ">
	<path fill="#CDCCCC" d="M422.1,590.4c-0.4,1.7-0.6,2.6-2.8,3h-63.6c-1.7-0.4-2.3-1.5-3-2.8l0,0c0.4-1.7,0.6-2.6,2.8-3h63.6
		C420.1,587,421.6,588.3,422.1,590.4L422.1,590.4z"/>
</g>
<g enable-background="new    ">
	<path fill="#CDCCCC" d="M436.1,647.4c-0.4,1.7-0.6,2.6-2.8,3h-63.6c-1.7-0.4-2.3-1.5-3-2.8l0,0c0.4-1.7,0.6-2.6,2.8-3h63.6
		C435,644.4,435.7,645.5,436.1,647.4L436.1,647.4z"/>
</g>
<g enable-background="new    ">
	<path fill="#CDCCCC" d="M435.7,669.7c-0.4,1.7-0.6,2.6-2.8,3h-63.6c-1.7-0.4-2.3-1.5-3-2.8l0,0c0.4-1.7,0.6-2.6,2.8-3h63.6
		C434.4,667.6,435.9,668.9,435.7,669.7L435.7,669.7z"/>
</g>
<g enable-background="new    ">
	<path fill="#CDCCCC" d="M436.1,788.8c-0.4,1.7-0.6,2.6-2.8,3h-63.6c-1.7-0.4-2.3-1.5-3-2.8l0,0c0.4-1.7,0.6-2.6,2.8-3h63.6
		C434.8,786.7,436.3,788,436.1,788.8L436.1,788.8z"/>
</g>
<g enable-background="new    ">
	<path fill="#CDCCCC" d="M436.1,728.8c-0.4,1.7-0.6,2.6-2.8,3h-63.6c-1.7-0.4-2.3-1.5-3-2.8l0,0c0.4-1.7,0.6-2.6,2.8-3h63.6
		C434.6,726.7,436.3,728,436.1,728.8L436.1,728.8z"/>
</g>
<g enable-background="new    ">
	<path fill="#CDCCCC" d="M435.4,702.5c-0.4,1.7-0.6,2.6-2.8,3h-63.6c-1.7-0.4-2.3-1.5-3-2.8l0,0c0.4-1.7,0.6-2.6,2.8-3h63.6
		C434.4,699.5,435.9,700.8,435.4,702.5L435.4,702.5z"/>
</g>
<g enable-background="new    ">
	<path fill="#CDCCCC" d="M436.5,816.2c-0.4,1.7-0.6,2.6-2.8,3h-63.6c-1.7-0.4-2.3-1.5-3-2.8l0,0c0.4-1.7,0.6-2.6,2.8-3h63.6
		C435.4,813.1,436.1,814.1,436.5,816.2L436.5,816.2z"/>
</g>
</svg>
