<?xml version="1.0" encoding="utf-8"?>
<!-- Generator: Adobe Illustrator 17.1.0, SVG Export Plug-In . SVG Version: 6.00 Build 0)  -->
<!DOCTYPE svg PUBLIC "-//W3C//DTD SVG 1.1//EN" "http://www.w3.org/Graphics/SVG/1.1/DTD/svg11.dtd">
<svg version="1.1" id="Layer_1" xmlns="http://www.w3.org/2000/svg" xmlns:xlink="http://www.w3.org/1999/xlink" x="0px" y="0px"
	 viewBox="0 0 1200 1200" enable-background="new 0 0 1200 1200" xml:space="preserve">
<linearGradient id="SVGID_1_" gradientUnits="userSpaceOnUse" x1="1934.5846" y1="-721.0883" x2="1999.8595" y2="1515.6492" gradientTransform="matrix(-0.5098 -1.487706e-02 1.487706e-02 -0.5098 1100.4475 815.4797)">
	<stop  offset="1.020408e-02" style="stop-color:#8AD1CE"/>
	<stop  offset="0.5264" style="stop-color:#67A4D9"/>
	<stop  offset="1" style="stop-color:#CEEBEE"/>
</linearGradient>
<path fill="url(#SVGID_1_)" d="M63.3,25.9c25.2,0.7,63.4,82.7,73.4,102c11.6,22.4-6.9,56.9,6.7,78.6c8.8,14,10.1,64.8,14.4,83.2
	c5.8,24.8,1.8,45.1,4.1,69.5c1.6,17.2,11.4,58.6,1.4,75.4c-11,18.7-7,59.1,3.2,78.2c8.8,16.5-4.6,58.7-6,77.5
	c-3.2,42.7-17.9,106.4-1.2,148.2c8.7,21.8-5.2,39.5-1.8,59.4c6.6,39.3,13.8,53.9,0.6,95.5c-11.4,35.8,7.9,46.7,6,81.4
	c-1.1,19.2-22.6,45.1-10,62.6c37.7,52.3-27.5,66.6-32.1,116.9C107,1111,98,1054,109.7,1011.9c6.1-21.9-7.4-49.9-4.3-73.1
	c2.7-20.2,18.5-22.1,17.8-45.4c-0.7-20-1.2-37.4-6.8-56.7c-6.7-23,2.7-46.9-3-69.4c-7.9-31.4-13.9-22.8-2.4-56.7
	c20.3-59.5,17.8-124.9,17.1-187.2c-0.2-20.9-16.7-31.1-14.3-56.2c2.9-30.8-6.4-57.4,0-89.5c5.8-29.2,3.2-54.7,6.1-83.6
	c2-19-16-37.9-15.4-60.7c0.6-21.7-14.6-38.9-7.8-57.5c8.7-23.8-19.2-26.8-23.8-46.8C62.2,82.6,46,55.7,37.5,13.1
	C45.5,17,56.5,20.2,63.3,25.9z"/>
</svg>
