<?xml version="1.0" encoding="utf-8"?>
<!-- Generator: Adobe Illustrator 17.1.0, SVG Export Plug-In . SVG Version: 6.00 Build 0)  -->
<!DOCTYPE svg PUBLIC "-//W3C//DTD SVG 1.1//EN" "http://www.w3.org/Graphics/SVG/1.1/DTD/svg11.dtd">
<svg version="1.1" id="Layer_1" xmlns="http://www.w3.org/2000/svg" xmlns:xlink="http://www.w3.org/1999/xlink" x="0px" y="0px"
	 viewBox="0 0 1200 1200" enable-background="new 0 0 1200 1200" xml:space="preserve">
<linearGradient id="SVGID_1_" gradientUnits="userSpaceOnUse" x1="1174.9885" y1="928.373" x2="1200.0312" y2="1121.6472" gradientTransform="matrix(-0.9917 -0.1285 0.1285 -0.9917 1117.0867 1274.0614)">
	<stop  offset="1.020408e-02" style="stop-color:#8AD1CE"/>
	<stop  offset="0.5264" style="stop-color:#67A4D9"/>
	<stop  offset="1" style="stop-color:#CEEBEE"/>
</linearGradient>
<path fill="url(#SVGID_1_)" d="M35,7.5c0,0-7.8,30.1-5,46.1s7.4,12.6,13.8,25.3c6.4,13,5.6,30.5,5.6,30.5s11,0.4,16.4,11
	c5.4,10.6,16.8,31.7,16.8,31.7s9,19,6.2,26.9c-2.8,8,1.8,17,4.4,22.1c2.6,5.2,10.2-7.8,12.4-23.7c2-15.8,8.4-33.1,7.4-41.3
	c-1-8.2,2.4-8-8-26.3s-4-21.5-4.8-29.7c-0.8-8.2-11.2-6.8-16-15.8c-5-9-8.4-9.6-10.2-20.7c-1.8-11.2-1.8-11.2-1.8-11.2
	s-3-3.2-11-5.8C53.1,23.9,35,7.5,35,7.5z"/>
</svg>
