<?xml version="1.0" encoding="utf-8"?>
<!-- Generator: Adobe Illustrator 17.1.0, SVG Export Plug-In . SVG Version: 6.00 Build 0)  -->
<!DOCTYPE svg PUBLIC "-//W3C//DTD SVG 1.1//EN" "http://www.w3.org/Graphics/SVG/1.1/DTD/svg11.dtd">
<svg version="1.1" id="Layer_1" xmlns="http://www.w3.org/2000/svg" xmlns:xlink="http://www.w3.org/1999/xlink" x="0px" y="0px"
	 viewBox="0 0 1200 1200" enable-background="new 0 0 1200 1200" xml:space="preserve">
<linearGradient id="SVGID_1_" gradientUnits="userSpaceOnUse" x1="1849.5438" y1="235.1792" x2="1849.5438" y2="1560.6869" gradientTransform="matrix(-0.51 0 0 -0.51 1045.5991 803.47)">
	<stop  offset="1.020408e-02" style="stop-color:#8AD1CE"/>
	<stop  offset="0.5264" style="stop-color:#67A4D9"/>
	<stop  offset="1" style="stop-color:#CEEBEE"/>
</linearGradient>
<path fill="url(#SVGID_1_)" d="M36.9,7.5c-4.8,12.8-3.3,23.8-2.8,36.8c1.2,28,12.8,16.8,21.6,34.5c5.3,10.7-11.9,28.6,7,36.2
	c16.1,6.4,12.6,35.1,23.5,49.8c12,15.9,16.1,41.8,18.9,60.8c2.1,14.1,0,33.2,0,47.6c0.1,24.4,2.8,49.9,1.6,73.8
	c-0.7,16.8,8.9,31.3-0.5,46.4c-11.8,18.6,5.6,37.2-0.3,60c-4.2,16.5,14.9,23.9,18.2,38.8c3.8,17.5-23.6,35.8,3.7,46.6
	c13.8,5.5,13,39.3,4.8,49.5c-11.2,14,1,46.3-0.4,66.2c-0.4,6,16.5,39.2,24.9,25.5c11.4-18.6-9.9-54.4,1.6-78.3
	c5.4-11.3,11.8-27.9,5.5-39.6c-12.3-23.1,17.5-41.6,0-62c-6-7,7.1-12.3,7.1-18.6c0-13.2-30.3-23.7-11.5-41.7
	c5.3-5.1,8.1-72.9,5.4-81c-7.8-23.7,13.6-77.9-0.8-97.9c-15.7-21.9-5.4-53.9-9.2-77.3c-2-12-16.6-14.6-15.6-25.7
	c2.1-22.3,5.4-14.2-10.8-37.8c-9.8-14.2,8-13.6,1.6-25.1c-7.4-13.4-26.8-17.7-32.2-30.2c-4.3-10-10.8-24-15.3-32.2
	C75.5,19.7,48.2,25.2,36.9,7.5z"/>
</svg>
