<?xml version="1.0" encoding="utf-8"?>
<!-- Generator: Adobe Illustrator 17.1.0, SVG Export Plug-In . SVG Version: 6.00 Build 0)  -->
<!DOCTYPE svg PUBLIC "-//W3C//DTD SVG 1.1//EN" "http://www.w3.org/Graphics/SVG/1.1/DTD/svg11.dtd">
<svg version="1.1" id="mash_turn" xmlns="http://www.w3.org/2000/svg" xmlns:xlink="http://www.w3.org/1999/xlink" x="0px" y="0px"
	 viewBox="-294 -204 1200 1200" enable-background="new -294 -204 1200 1200" xml:space="preserve">
<g enable-background="new    ">
	<g>
		<g>
			
				<linearGradient id="SVGID_2_" gradientUnits="userSpaceOnUse" x1="-567.5983" y1="210.9944" x2="1771.2372" y2="210.9944" gradientTransform="matrix(0.51 0 0 -0.51 0 493.92)">
				<stop  offset="1.020408e-02" style="stop-color:#CCCCCC"/>
				<stop  offset="0.4949" style="stop-color:#DEDEDE"/>
				<stop  offset="1" style="stop-color:#999999"/>
			</linearGradient>
			<path id="SVGID_1_" fill="url(#SVGID_2_)" d="M887.7-50.6c-8.3-21.8-55.1-35.2-55.1-35.2L-0.6-83.3c0,0-10.8-8.5-16.1,7.8
				s8.5,13.6,11.5,52.6s-27.6,54.5-93.3,63.2c-66,8.7-123.4,60.9-123.4,60.9c-52.6,35.8-103.7,151.2-32.5,334.5
				S-15.8,632.3,28.5,634.7s46.2,29.9,46.2,29.9s17,109.2,17.4,136.4c0.4,27.1,41.6,54.9,41.6,54.9s567.1,6.8,592-1.7
				c24.6-8.5,21.6-25,21.6-25S821.7,58.4,821.7,37c0.2-21.4,13.4-46.9,29.9-60.4c16.8-13.4,27.1,10.8,44.3,2.3
				C913.2-29.6,896-28.8,887.7-50.6z"/>
		</g>
	</g>
</g>
<linearGradient id="SVGID_3_" gradientUnits="userSpaceOnUse" x1="8.049" y1="208.4954" x2="1706.6044" y2="208.4954" gradientTransform="matrix(0.51 0 0 -0.51 0 493.92)">
	<stop  offset="0" style="stop-color:#999999"/>
	<stop  offset="0.4949" style="stop-color:#FFFFFF"/>
	<stop  offset="1" style="stop-color:#CCCCCC"/>
</linearGradient>
<path fill="url(#SVGID_3_)" d="M119.7,806.5c14,14,5.7,27.8,33.1,30.1c27.4,2.5,547.8-1.3,547.8-1.3s13.8,11.2,25-16.8
	c10.8-27.1,63.6-786.7,80.2-814c16.5-27.4,32.5-52.2,59.8-35.6c0,0,13.8,11.2-5.7-13.6c-19.5-24.8-19.1-16.1-41.4-16.5
	c-21.4-0.2-806,2.3-806,2.3s-5.7,0.4-8.1,16.5C2.2-26,10-31.5,13.2-0.8c3.4,29.9,2.3,19.3,0.2,38.4c-2.3,19.1,24.4,87.8,28.2,123.2
	c2.8,35.2,34.4,372.4,39.4,402.8C86.2,592.9,119.7,806.5,119.7,806.5z"/>
<linearGradient id="SVGID_4_" gradientUnits="userSpaceOnUse" x1="149.7281" y1="383.8706" x2="870.3683" y2="383.8706">
	<stop  offset="1.020408e-02" style="stop-color:#8BD2CF"/>
	<stop  offset="0.5264" style="stop-color:#67A4D9"/>
	<stop  offset="1" style="stop-color:#CEEBEE"/>
</linearGradient>
<path fill="url(#SVGID_4_)" d="M865.6-31.1c0,0,13.8,11.2-5.7-13.6c-19.5-24.8-19.1-16.3-41.4-16.5c-3,0-54.7-24.6-161.6,9.5
	c-152.7,48.8-333,210-324.5,313.9c8.5,103.9,133.6,233.3,4.2,394.5C318,699.4,136.9,801.2,150.5,836.4c0.8,0,1.5,0.2,2.3,0.2
	c27.4,2.5,547.8-1.3,547.8-1.3s13.8,11.2,25-16.8c10.8-27.1,63.6-786.7,80.2-814C822.4-22.8,838.3-47.6,865.6-31.1z"/>
<g enable-background="new    ">
	<path fill="#FFFFFF" d="M50.3,534.8l-8.7,22.1c0,0-3,11.5-10.8,19.5c-7.8,8.3-46.4,2.8-101.8-11
		c-55.4-13.8-123.9-125.8-156.5-196.2s-14.4-150.4,13.1-205.9c27.6-54.5,153.3-85.7,172-85.5c19.5,0.4,24.6,5.7,38.4,13.8
		C9.8,99.8,12.2,122,12.2,122s8.5,60.2,22.5,159.1s22.5,244.1,22.5,244.1L50.3,534.8z"/>
</g>
<g>
	<g>
		<g>
			<path id="SVGID_6_" fill="#DADAD9" d="M-4.2-6.5c0,0,3,31.6-34.8,43.1c-37.5,11.7-120.3,31-151.2,52.6
				C-236,121-297.5,163.6-275,315.2c22.5,151.6,71.3,211.2,126.6,249.2c30.8,21.2,84.2,45.6,104.6,50.1s45.6,11.2,53.9,7.6
				c8.3-3.4,1.7-13.6-4.7-14.2c-48.8-2.5-104.6-22.1-147.4-53.9c-90.4-67.7-120.7-197.2-120.5-240.1
				c0.2-88.7-28.8-205.7,205.1-257.1C-33.6,52-16,69.6-5,63.3C6,56.9,0.9,62-3.7,44C-8.6,26.8,0.9,8.8,0.9,8.8L-4.2-6.5z"/>
		</g>
	</g>
</g>
<g enable-background="new    ">
	<path fill="#CDCCCC" d="M442.9,742.2c0.2,2.8-2.5,5.9-5.1,5.1l-129,0.6c-2.8,0.2-5.9-2.5-5.1-5.1l0,0c-0.2-2.8,2.5-5.9,5.1-5.1
		l129-0.6C440.8,736.9,442.7,739.2,442.9,742.2L442.9,742.2z"/>
</g>
<g enable-background="new    ">
	<path fill="#CDCCCC" d="M428.9,604.8c0.2,2.8-2.5,5.9-5.1,5.1l-129,0.6c-2.8,0.2-5.9-2.5-5.1-5.1l0,0c-0.2-2.8,2.5-5.9,5.1-5.1
		l129-0.6C426.4,599.5,428.7,602,428.9,604.8L428.9,604.8z"/>
</g>
<g enable-background="new    ">
	<path fill="#CDCCCC" d="M425.3,465.6c0.2,2.8-2.5,5.9-5.1,5.1l-129,0.6c-2.8,0.2-5.9-2.5-5.1-5.1l0,0c-0.2-2.8,2.5-5.9,5.1-5.1
		l129-0.6C423,460.3,426,463.1,425.3,465.6L425.3,465.6z"/>
</g>
<g enable-background="new    ">
	<path fill="#CDCCCC" d="M419.6,342.6c0.2,2.8-2.5,5.9-5.1,5.1l-129,0.6c-2.8,0.2-5.9-2.5-5.1-5.1l0,0c-0.2-2.8,2.5-5.9,5.1-5.1
		l129-0.6C417.5,336.5,419.6,338.8,419.6,342.6L419.6,342.6z"/>
</g>
<g enable-background="new    ">
	<path fill="#CDCCCC" d="M411.1,233c0.2,2.8-2.5,5.9-5.1,5.1l-129.2,0.4c-2.8,0.2-5.9-2.5-5.1-5.1l0,0c-0.2-2.8,2.5-5.9,5.1-5.1
		l129-0.6C409,226.8,411.1,229.1,411.1,233L411.1,233z"/>
</g>
<g enable-background="new    ">
	<path fill="#CDCCCC" d="M419.4,254.8c-0.4,1.7-0.6,2.5-2.8,3h-63.4c-1.7-0.4-2.3-1.5-3-2.8l0,0c0.4-1.7,0.6-2.5,2.8-3h63.4
		C418.3,251.6,419,252.7,419.4,254.8L419.4,254.8z"/>
</g>
<g enable-background="new    ">
	<path fill="#CDCCCC" d="M419,277.1c-0.4,1.7-0.6,2.5-2.8,3h-63.4c-1.7-0.4-2.3-1.5-3-2.8l0,0c0.4-1.7,0.6-2.5,2.8-3H416
		C417.9,274.7,419.4,276.2,419,277.1L419,277.1z"/>
</g>
<g enable-background="new    ">
	<path fill="#CDCCCC" d="M419.8,298.9c-0.4,1.7-0.6,2.5-2.8,3h-63.4c-1.7-0.4-2.3-1.5-3-2.8l0,0c0.4-1.7,0.6-2.5,2.8-3h63.4
		C417.7,296.4,419.2,297.6,419.8,298.9L419.8,298.9z"/>
</g>
<g enable-background="new    ">
	<path fill="#CDCCCC" d="M419.2,322.9c-0.4,1.7-0.6,2.5-2.8,3H353c-1.7-0.4-2.3-1.5-3-2.8l0,0c0.4-1.7,0.6-2.5,2.8-3h63.4
		C417.9,320.8,419.4,322,419.2,322.9L419.2,322.9z"/>
</g>
<g enable-background="new    ">
	<path fill="#CDCCCC" d="M420,368.9c-0.4,1.7-0.6,2.5-2.8,3h-63.4c-1.7-0.4-2.3-1.5-3-2.8l0,0c0.4-1.7,0.6-2.5,2.8-3h63.4
		C417.9,366.4,419.4,367.8,420,368.9L420,368.9z"/>
</g>
<g enable-background="new    ">
	<path fill="#CDCCCC" d="M419.6,392c-0.4,1.7-0.6,2.5-2.8,3h-63.4c-1.7-0.4-2.3-1.5-3-2.8l0,0c0.4-1.7,0.6-2.5,2.8-3h63.4
		C418.5,389.1,420,390.3,419.6,392L419.6,392z"/>
</g>
<g enable-background="new    ">
	<path fill="#CDCCCC" d="M419.4,417.3c-0.4,1.7-0.6,2.5-2.8,3h-63.4c-1.7-0.4-2.3-1.5-3-2.8l0,0c0.4-1.7,0.6-2.5,2.8-3h63.4
		C418.3,414.3,419.8,415.6,419.4,417.3L419.4,417.3z"/>
</g>
<g enable-background="new    ">
	<path fill="#CDCCCC" d="M420.2,442.7c-0.4,1.7-0.6,2.5-2.8,3h-63.4c-1.7-0.4-2.3-1.5-3-2.8l0,0c0.4-1.7,0.6-2.5,2.8-3h63.4
		C418.1,440.4,419.6,441.7,420.2,442.7L420.2,442.7z"/>
</g>
<g enable-background="new    ">
	<path fill="#CDCCCC" d="M405.2,113.8c0.2,2.8-2.5,5.9-5.1,5.1l-129,0.6c-2.8,0.2-5.9-2.5-5.1-5.1l0,0c-0.2-2.8,2.5-5.9,5.1-5.1
		l129-0.6C402.8,108.5,405.8,111,405.2,113.8L405.2,113.8z"/>
</g>
<g enable-background="new    ">
	<path fill="#CDCCCC" d="M392,4.5c0.2,2.8-2.5,5.9-5.1,5.1l-129,0.6c-2.8,0.2-5.9-2.5-5.1-5.1l0,0c-0.2-2.8,2.5-5.9,5.1-5.1l129-0.6
		C388.6-1,391.8,1.8,392,4.5L392,4.5z"/>
</g>
<g enable-background="new    ">
	<path fill="#CDCCCC" d="M396.5,26.4c-0.4,1.7-0.6,2.5-2.8,3h-63.4c-1.7-0.4-2.3-1.5-3-2.8l0,0c0.4-1.7,0.6-2.5,2.8-3h63.4
		C395.4,23.2,396.9,24.7,396.5,26.4L396.5,26.4z"/>
</g>
<g enable-background="new    ">
	<path fill="#CDCCCC" d="M397.1,48.9c-0.4,1.7-0.6,2.5-2.8,3h-63.4c-1.7-0.4-2.3-1.5-3-2.8l0,0c0.4-1.7,0.6-2.5,2.8-3h63.2
		C395.8,46.7,396.5,47.8,397.1,48.9L397.1,48.9z"/>
</g>
<g enable-background="new    ">
	<path fill="#CDCCCC" d="M396.7,71.3c-0.4,1.7-0.6,2.5-2.8,3h-63.4c-1.7-0.4-2.3-1.5-3-2.8l0,0c0.4-1.7,0.6-2.5,2.8-3h63.4
		C395.6,68.2,397.3,69.4,396.7,71.3L396.7,71.3z"/>
</g>
<g enable-background="new    ">
	<path fill="#CDCCCC" d="M397.1,94.7c-0.4,1.7-0.6,2.5-2.8,3h-63.4c-1.7-0.4-2.3-1.5-3-2.8l0,0c0.4-1.7,0.6-2.5,2.8-3h63.4
		C395.8,92.5,396.5,93.6,397.1,94.7L397.1,94.7z"/>
</g>
<g enable-background="new    ">
	<path fill="#CDCCCC" d="M402.6,141.1c-0.4,1.7-0.6,2.5-2.8,3h-63.4c-1.7-0.4-2.3-1.5-3-2.8l0,0c0.4-1.7,0.6-2.5,2.8-3h63.4
		C401.6,137.9,402.2,139,402.6,141.1L402.6,141.1z"/>
</g>
<g enable-background="new    ">
	<path fill="#CDCCCC" d="M402.4,163.4c-0.4,1.7-0.6,2.5-2.8,3h-63.4c-1.7-0.4-2.3-1.5-3-2.8l0,0c0.4-1.7,0.6-2.5,2.8-3h63.4
		C401.2,161.1,402.6,162.5,402.4,163.4L402.4,163.4z"/>
</g>
<g enable-background="new    ">
	<path fill="#CDCCCC" d="M402.8,189.7c-0.4,1.7-0.6,2.5-2.8,3h-63.4c-1.7-0.4-2.3-1.5-3-2.8l0,0c0.4-1.7,0.6-2.5,2.8-3h63.4
		C400.9,186.3,402.4,187.6,402.8,189.7L402.8,189.7z"/>
</g>
<g enable-background="new    ">
	<path fill="#CDCCCC" d="M402.8,214.9c-0.4,1.7-0.6,2.5-2.8,3h-63.4c-1.7-0.4-2.3-1.5-3-2.8l0,0c0.4-1.7,0.6-2.5,2.8-3h63.4
		C401.8,211.7,402.4,212.8,402.8,214.9L402.8,214.9z"/>
</g>
<g enable-background="new    ">
	<path fill="#CDCCCC" d="M419.6,497.9c-0.4,1.7-0.6,2.5-2.8,3h-63.4c-1.7-0.4-2.3-1.5-3-2.8l0,0c0.4-1.7,0.6-2.5,2.8-3h63.4
		C418.8,494.7,420.2,496,419.6,497.9L419.6,497.9z"/>
</g>
<g enable-background="new    ">
	<path fill="#CDCCCC" d="M420.2,520.3c-0.4,1.7-0.6,2.5-2.8,3h-63.4c-1.7-0.4-2.3-1.5-3-2.8l0,0c0.4-1.7,0.6-2.5,2.8-3h63.4
		C419.2,517.2,419.8,518.2,420.2,520.3L420.2,520.3z"/>
</g>
<g enable-background="new    ">
	<path fill="#CDCCCC" d="M420.2,552.2c-0.4,1.7-0.6,2.5-2.8,3h-63.4c-1.7-0.4-2.3-1.5-3-2.8l0,0c0.4-1.7,0.6-2.5,2.8-3h63.4
		C419,549.8,419.6,550.9,420.2,552.2L420.2,552.2z"/>
</g>
<g enable-background="new    ">
	<path fill="#CDCCCC" d="M420.7,579.3c-0.4,1.7-0.6,2.5-2.8,3h-63.4c-1.7-0.4-2.3-1.5-3-2.8l0,0c0.4-1.7,0.6-2.5,2.8-3h63.4
		C418.8,575.9,420.2,577.2,420.7,579.3L420.7,579.3z"/>
</g>
<g enable-background="new    ">
	<path fill="#CDCCCC" d="M434.7,636.1c-0.4,1.7-0.6,2.5-2.8,3h-63.4c-1.7-0.4-2.3-1.5-3-2.8l0,0c0.4-1.7,0.6-2.5,2.8-3h63.4
		C433.6,633.2,434.2,634.2,434.7,636.1L434.7,636.1z"/>
</g>
<g enable-background="new    ">
	<path fill="#CDCCCC" d="M434.2,658.4c-0.4,1.7-0.6,2.5-2.8,3h-63.4c-1.7-0.4-2.3-1.5-3-2.8l0,0c0.4-1.7,0.6-2.5,2.8-3h63.4
		C433,656.3,434.5,657.6,434.2,658.4L434.2,658.4z"/>
</g>
<g enable-background="new    ">
	<path fill="#CDCCCC" d="M434.7,777.2c-0.4,1.7-0.6,2.5-2.8,3h-63.4c-1.7-0.4-2.3-1.5-3-2.8l0,0c0.4-1.7,0.6-2.5,2.8-3h63.4
		C433.4,775.1,434.9,776.3,434.7,777.2L434.7,777.2z"/>
</g>
<g enable-background="new    ">
	<path fill="#CDCCCC" d="M434.7,717.4c-0.4,1.7-0.6,2.5-2.8,3h-63.4c-1.7-0.4-2.3-1.5-3-2.8l0,0c0.4-1.7,0.6-2.5,2.8-3h63.4
		C433.2,715.3,434.9,716.5,434.7,717.4L434.7,717.4z"/>
</g>
<g enable-background="new    ">
	<path fill="#CDCCCC" d="M434,691.1c-0.4,1.7-0.6,2.5-2.8,3h-63.4c-1.7-0.4-2.3-1.5-3-2.8l0,0c0.4-1.7,0.6-2.5,2.8-3h63.4
		C433,688.1,434.5,689.4,434,691.1L434,691.1z"/>
</g>
<g enable-background="new    ">
	<path fill="#CDCCCC" d="M435.1,804.6c-0.4,1.7-0.6,2.5-2.8,3h-63.4c-1.7-0.4-2.3-1.5-3-2.8l0,0c0.4-1.7,0.6-2.5,2.8-3h63.4
		C434,801.4,434.7,802.4,435.1,804.6L435.1,804.6z"/>
</g>
</svg>
