<?xml version="1.0" encoding="utf-8"?>
<!-- Generator: Adobe Illustrator 17.1.0, SVG Export Plug-In . SVG Version: 6.00 Build 0)  -->
<!DOCTYPE svg PUBLIC "-//W3C//DTD SVG 1.1//EN" "http://www.w3.org/Graphics/SVG/1.1/DTD/svg11.dtd">
<svg version="1.1" id="Layer_1" xmlns="http://www.w3.org/2000/svg" xmlns:xlink="http://www.w3.org/1999/xlink" x="0px" y="0px"
	 viewBox="0 0 1200 1200" enable-background="new 0 0 1200 1200" xml:space="preserve">
<linearGradient id="SVGID_1_" gradientUnits="userSpaceOnUse" x1="1899.4617" y1="-790.2643" x2="1964.9905" y2="1520.1901" gradientTransform="matrix(-0.5098 -1.445867e-02 1.445867e-02 -0.5098 1084.2325 814.3569)">
	<stop  offset="1.020408e-02" style="stop-color:#8AD1CE"/>
	<stop  offset="0.5264" style="stop-color:#67A4D9"/>
	<stop  offset="1" style="stop-color:#CEEBEE"/>
</linearGradient>
<path fill="url(#SVGID_1_)" d="M36.1,11.8c4.5,39.3,2.6,55.6,18.2,85.4c9.5,18,23.4,44.9,27.3,62.5c4,18.4,13.6,42.8,19.8,64
	c14.9,51.2,17.9,115.8,15.5,170.6c-1,22.1,1.8,44-0.4,65.2c-3.4,34.2,7.6,48.5,8.4,80.7c2.4,95.4-42.7,194.7-14.1,285.5
	c16.9,53.6-19.2,116.8-7.9,174c4.2,21.4,33.6,39.9,17.6,65.1c-20.6,32.4-14.3,32.9-8.9,70.8c1.3,9.2,9.6,60.8,26.6,53.4
	c26.6-11.7,24.6-10,17.9-38.5c-6.8-29.1,7.6-34.5,12.7-63.7c2.8-16.2-9.7-19.8-14.8-33.1c-3.8-9.9,12.9-17.6,16.3-26.5
	c8.1-21.4-4.9-26.7-10.9-45.7c-5-15.8,1.2-35.7-0.4-52c-1.9-20,10.5-24.5,6.8-47.2c-4.1-25.7,4.2-43.3,2-67.5
	c-3.8-43.2-16.8-78.7-12.7-123.5c2.6-27.2,7.9-54.2,10.2-80.8c1.6-18.5-8.3-37-8.3-55.9c0.1-15.2,10.3-28.9,8.3-44.5
	c-5.1-40.9-10.4-107.6,5.7-139.4c7.2-14.3-19-70.2-20-88.9c-1.1-20.6-9.3-40.6-5.7-62.6c2.4-14.1-11-23.9-8-40.2
	c2.8-15.3-0.6-21.2-0.7-36c-0.2-31.2-18.1-48.6-40.4-69.7C94.4,71.5,40,2.6,36.1,11.8z"/>
</svg>
