<?xml version="1.0" encoding="utf-8"?>
<!-- Generator: Adobe Illustrator 17.1.0, SVG Export Plug-In . SVG Version: 6.00 Build 0)  -->
<!DOCTYPE svg PUBLIC "-//W3C//DTD SVG 1.1//EN" "http://www.w3.org/Graphics/SVG/1.1/DTD/svg11.dtd">
<svg version="1.1" id="Layer_1" xmlns="http://www.w3.org/2000/svg" xmlns:xlink="http://www.w3.org/1999/xlink" x="0px" y="0px"
	 viewBox="0 0 1200 1200" enable-background="new 0 0 1200 1200" xml:space="preserve">
<linearGradient id="SVGID_1_" gradientUnits="userSpaceOnUse" x1="1895.1624" y1="1922.6266" x2="1943.7817" y2="-327.1637" gradientTransform="matrix(-0.5099 -1.101884e-02 -1.101884e-02 0.5099 1094.8373 203.1401)">
	<stop  offset="1.020408e-02" style="stop-color:#8BD2CF"/>
	<stop  offset="0.5264" style="stop-color:#67A4D9"/>
	<stop  offset="1" style="stop-color:#CEEBEE"/>
</linearGradient>
<path fill="url(#SVGID_1_)" d="M36.5,14.9c-3.3,47.7,68.3,88.4,54.7,127.7c-16.6,47.6,13.8,86.3,17,131.8
	c1.4,19.6,30.2,50.3,22.7,67.9c-9.7,22.8-18.4,53.2-13.8,79c5.2,28.5-4.1,56.6,1.5,85.5c4.5,23.3,8.4,61,4.8,83.8
	c-5.2,32.7-14.8,74.2-15.3,106.6c-0.7,24.8,17.9,48.6,17.9,74.9c-0.1,43-20.5,37.9-1.7,80.8c9,21.6-12.1,72.3-17,96.2
	c-5.5,27.3,9.2,42.5,9.1,69.5c-0.1,14.9,2.4,14.5,6,28.5c3.1,12.2-10.4,17.7-10,28.5c0.8,21.5-3.1,64,16.7,79.8
	c7.4,5.9,35.6,14.4,21-3.3c-13.1-15.8,18.4-42.4,20.1-59.8c1.4-13.7-12.1-24.8-9.5-38.1c2-10.5,16.8-12,10.1-25.9
	c-15-29.9,4.7-38.7-0.5-71.5c-3.3-21.1,13.8-66.6-1.7-83.8c-13.4-14.9-1-53.9-0.2-71.4c1.1-23.8-5.6-50.1-8.1-75
	c-3.1-31.3,10.1-74.6,12.9-106.7c2.5-29.6-10-55-8.9-84.7c1.1-29,20.7-44.4,11.6-76.5c-4.8-16.9,2.8-68.7-14.2-77.6
	c-17.5-9.2,5.2-99.9-4.4-120.3c-9.9-21.1,7.4-62.2-2.8-77.8c-13.3-20.5-16.2-55.6-30.3-79.2C98.1,60.3,85.8,29.1,36.5,14.9z"/>
</svg>
