<?xml version="1.0" encoding="utf-8"?>
<!-- Generator: Adobe Illustrator 17.1.0, SVG Export Plug-In . SVG Version: 6.00 Build 0)  -->
<!DOCTYPE svg PUBLIC "-//W3C//DTD SVG 1.1//EN" "http://www.w3.org/Graphics/SVG/1.1/DTD/svg11.dtd">
<svg version="1.1" id="Layer_1" xmlns="http://www.w3.org/2000/svg" xmlns:xlink="http://www.w3.org/1999/xlink" x="0px" y="0px"
	 viewBox="0 0 1200 1200" enable-background="new 0 0 1200 1200" xml:space="preserve">
<linearGradient id="SVGID_1_" gradientUnits="userSpaceOnUse" x1="1907.6226" y1="-769.8418" x2="1984.9506" y2="1506.4855" gradientTransform="matrix(-0.5097 -1.731497e-02 1.731497e-02 -0.5097 1085.8859 817.7415)">
	<stop  offset="1.020408e-02" style="stop-color:#8AD1CE"/>
	<stop  offset="0.5264" style="stop-color:#67A4D9"/>
	<stop  offset="1" style="stop-color:#CEEBEE"/>
</linearGradient>
<path fill="url(#SVGID_1_)" d="M35.5,12.3C33.6,32.3,37.8,57,52,72.2c8.4,9,41.2,39.2,41.3,49.6c0.3,28,13.5,68,9,93.9
	c-4.2,23.7,7.3,19.3,9.3,38.7c1.2,11.9-11.5,38.7-4.3,48.3c20.8,27.8,3.3,59,7,92.7c3.3,29.8,18.1,57.9,20.5,86.2
	c2.4,28.2-28.5,43.1-21.6,66.3c9.1,30.8,7.3,38.8,3.8,70.8c-2.8,26.4,0.2,55.1-6.2,80.6c-6.4,25.7,7.8,49.2,0.1,73.3
	c-10,31.4,4,53,3.9,82c0,13-13.4,21.5-14.8,33.7c-1.6,14.4,9.7,23.3,13.7,35.5c2.2,6.7,0.4,79.1-3,77.2c0.1,0.1,8,45.1,8.3,48
	c1.8,15.6,6.4,50.8-0.6,63.3c-12.8,23.1,11.5,34.4,10.6,45.3c4.2-53.1,23.7-103.9,28-156.6c3-37-9-73.6-7.5-110.8
	c4.6-110.4,1.5-219.8,8.9-328.2c3.4-49.9,14.4-105.5-1.1-154c-17.4-54.5,5.6-105.5-9.5-160.5c-7.7-28-17.2-50.6-16.9-80.5
	c0.3-26.9,3-63.2-17.3-84.9C97.5,64.9,83.2,51.3,79.4,27C77.8,15.9,45.4,15,35.5,12.3z"/>
</svg>
