<?xml version="1.0" encoding="utf-8"?>
<!-- Generator: Adobe Illustrator 17.1.0, SVG Export Plug-In . SVG Version: 6.00 Build 0)  -->
<!DOCTYPE svg PUBLIC "-//W3C//DTD SVG 1.1//EN" "http://www.w3.org/Graphics/SVG/1.1/DTD/svg11.dtd">
<svg version="1.1" id="Layer_1" xmlns="http://www.w3.org/2000/svg" xmlns:xlink="http://www.w3.org/1999/xlink" x="0px" y="0px"
	 viewBox="0 0 1200 1200" enable-background="new 0 0 1200 1200" xml:space="preserve">
<linearGradient id="SVGID_1_" gradientUnits="userSpaceOnUse" x1="1868.2449" y1="-776.6783" x2="1923.0846" y2="1539.0266" gradientTransform="matrix(-0.5098 -1.207429e-02 1.207429e-02 -0.5098 1060.9999 815.4077)">
	<stop  offset="1.020408e-02" style="stop-color:#8AD1CE"/>
	<stop  offset="0.5264" style="stop-color:#67A4D9"/>
	<stop  offset="1" style="stop-color:#CEEBEE"/>
</linearGradient>
<path fill="url(#SVGID_1_)" d="M36.1,7.5C13.6,51.8,64.6,57.7,55.3,98.9c-2,8.6,20.9,14.9,25.1,21.4c14.9,22.9-4.1,41.1,10.6,67.2
	c13.6,24.3,20.8,76.3,22.3,103.3c2,35.8,14.1,60.7-5,94.8c-12,21.4,22.4,34.6,9.1,55.3c-15.2,23.7,17.6,24.5,11.8,51.1
	c-5.5,25.3,3.3,45.2,1.6,69.7c-2.2,31.4-18,54.6-14.2,87.6c4,34.9-11.2,55.2-14.2,85.1c-2.3,22.5,5.7,50.9,9.2,73.7
	c4.3,28.1-13,49.5-8.1,74.6c3.4,17.6,5.8,25.9,3.6,41.1c-6.4,43.6,12.2,69.2,15.5,109.3c3.7,45.7-27.1,110.1,7.7,150.7
	c18.2,21.2,6.8-30.2,6.1-35.3c-4.3-35.4,20.9-58.4,17.2-95.2c-3.8-38.6,19.7-63,3.7-102.7c-11.4-28.2,11.6-31.5,9.3-56.7
	c-4.6-49.8-17.3-101.1-13.8-152.3c3.5-51.1,6-102.4,11.8-151.4c2.4-20.4,5.4-70,1.5-89.8c-4.8-24.3-16.1-46.3-0.9-70.1
	c6.2-9.8-18.3-44.5-11.4-63.6c8.8-24.6-1.1-49.9,0.8-74.8c3.8-52.2-23.1-89.2-22.9-139.5c0.1-18.3,2.1-70-14.3-79.6
	c-5.1-3-44.5-27.1-43.3-32.4C80,13.6,58.9,23,36.1,7.5z"/>
</svg>
