<?xml version="1.0" encoding="utf-8"?>
<!-- Generator: Adobe Illustrator 17.1.0, SVG Export Plug-In . SVG Version: 6.00 Build 0)  -->
<!DOCTYPE svg PUBLIC "-//W3C//DTD SVG 1.1//EN" "http://www.w3.org/Graphics/SVG/1.1/DTD/svg11.dtd">
<svg version="1.1" id="Layer_1" xmlns="http://www.w3.org/2000/svg" xmlns:xlink="http://www.w3.org/1999/xlink" x="0px" y="0px"
	 viewBox="0 0 1200 1200" enable-background="new 0 0 1200 1200" xml:space="preserve">
<linearGradient id="SVGID_1_" gradientUnits="userSpaceOnUse" x1="1903.2567" y1="-706.9988" x2="1951.8909" y2="1543.4698" gradientTransform="matrix(-0.5099 -1.101884e-02 1.101884e-02 -0.5099 1081.592 816.0394)">
	<stop  offset="1.020408e-02" style="stop-color:#8AD1CE"/>
	<stop  offset="0.5264" style="stop-color:#67A4D9"/>
	<stop  offset="1" style="stop-color:#CEEBEE"/>
</linearGradient>
<path fill="url(#SVGID_1_)" d="M32.5,7.5C29.1,55,101.1,96.2,87.2,135.2c-16.8,47.3,13.9,86.5,17,131.8
	c1.3,19.4,30.3,50.5,22.7,67.9c-9.8,22.7-18.4,53.2-13.6,78.9c5,28.6-4.1,56.7,1.4,85.6c4.5,23.3,8.5,61,4.9,83.9
	c-5.3,32.8-14.7,73.9-15.4,106.6c-0.6,25,18,48.7,17.8,75c-0.3,43-20.1,37.9-1.9,80.7c9.1,21.3-11.9,72.6-16.8,96.3
	c-5.7,27.3,9,42.3,9,69.3c0,14.8,2.6,14.7,6.2,28.5c3.2,12.3-10.5,17.7-9.9,28.7c1.1,21.9-3.2,63.6,16.6,79.9
	c7.4,5.9,35.9,14.3,21.2-3.1c-13.3-15.8,18.4-42.3,20.1-59.7c1.3-13.7-12.1-24.8-9.6-38.2c2-10.4,16.8-12.2,10.1-25.9
	c-14.8-29.9,4.7-38.5-0.5-71.3c-3.3-21,13.7-66.5-1.7-83.6c-13.4-15-1-53.7-0.2-71.3c1.1-23.7-5.6-50-8-74.9
	c-3.1-31.6,10.2-74.5,12.7-107c2.3-29.5-10-55-8.8-84.6c1.2-29,20.7-44.3,11.6-76.4c-4.8-17.1,2.9-68.3-14.3-77.6
	c-18-9.7,5.2-99.4-4.6-120.2c-10-21.2,7.3-62-2.8-77.8c-13.3-20.7-16.3-55.6-30.4-79.3C93.5,52.5,80.2,25.6,32.5,7.5z"/>
</svg>
