<?xml version="1.0" encoding="utf-8"?>
<!-- Generator: Adobe Illustrator 17.1.0, SVG Export Plug-In . SVG Version: 6.00 Build 0)  -->
<!DOCTYPE svg PUBLIC "-//W3C//DTD SVG 1.1//EN" "http://www.w3.org/Graphics/SVG/1.1/DTD/svg11.dtd">
<svg version="1.1" id="mash_turn" xmlns="http://www.w3.org/2000/svg" xmlns:xlink="http://www.w3.org/1999/xlink" x="0px" y="0px"
	 viewBox="-294 -204 1200 1200" enable-background="new -294 -204 1200 1200" xml:space="preserve">
<g enable-background="new    ">
	<g>
		<g>
			
				<linearGradient id="SVGID_2_" gradientUnits="userSpaceOnUse" x1="-574.5098" y1="175.9772" x2="1769.4059" y2="175.9772" gradientTransform="matrix(0.51 0 0 -0.51 0 493.92)">
				<stop  offset="1.020408e-02" style="stop-color:#CCCCCC"/>
				<stop  offset="0.4949" style="stop-color:#DEDEDE"/>
				<stop  offset="1" style="stop-color:#999999"/>
			</linearGradient>
			<path id="SVGID_1_" fill="url(#SVGID_2_)" d="M886.7-33.7c-8.2-21.9-55.3-35.2-55.3-35.2l-835,2.6c0,0-10.8-8.5-16.2,7.9
				s8.6,13.6,11.4,52.7s-27.5,54.5-93.5,63.3c-66,8.8-123.8,60.9-123.8,60.9c-52.5,35.8-103.6,151.5-32.2,335.1
				S-18.7,650.7,25.7,653.1c44.3,2.4,46.4,30,46.4,30s17,109.4,17.3,136.6s41.6,55,41.6,55s568.5,6.7,593.2-1.7
				c24.7-8.5,21.7-25.2,21.7-25.2s74.6-772.5,74.7-794c0.1-21.6,13.3-47.1,30-60.5c16.7-13.4,27.1,10.8,44.3,2.4
				C912.3-12.7,895-11.9,886.7-33.7z"/>
		</g>
	</g>
</g>
<linearGradient id="SVGID_3_" gradientUnits="userSpaceOnUse" x1="2.0372" y1="173.5177" x2="1704.7452" y2="173.5177" gradientTransform="matrix(0.51 0 0 -0.51 0 493.92)">
	<stop  offset="0" style="stop-color:#999999"/>
	<stop  offset="0.4949" style="stop-color:#FFFFFF"/>
	<stop  offset="1" style="stop-color:#CCCCCC"/>
</linearGradient>
<path fill="url(#SVGID_3_)" d="M117,825.2c14.1,14,5.7,27.8,33.2,30.2c27.4,2.6,549-1.2,549-1.2s13.9,11.2,25-16.8
	c10.8-27.1,63.9-788.5,80.4-815.9c16.6-27.4,32.5-52.3,60-35.7c0,0,13.9,11.2-5.7-13.7c-19.6-24.8-19.1-16.3-41.5-16.6
	C795.8-44.5,9.6-42.1,9.6-42.1s-5.7,0.3-8.1,16.6S7-14.7,10.2,16.1c3.4,29.9,2.4,19.4,0.1,38.5s24.5,87.9,28.3,123.6
	c2.8,35.3,34.5,373.4,39.6,403.7C83.5,611.3,117,825.2,117,825.2z"/>
<g enable-background="new    ">
	<path fill="#FFFFFF" d="M47.4,552.9l-8.7,22.1c0,0-3,11.4-10.8,19.6s-46.6,2.7-102-10.9s-124-126.3-156.9-196.9
		s-14.5-150.8,13.2-206.3C-190.2,126-64,94.7-45.4,94.9c19.5,0.4,24.7,5.6,38.5,13.9c13.8,8.3,16.3,30.6,16.3,30.6
		s8.5,60.3,22.5,159.5s22.5,244.7,22.5,244.7L47.4,552.9z"/>
</g>
<g>
	<g>
		<g>
			<path id="SVGID_6_" fill="#DADAD9" d="M-7.1,10.5c0,0,2.9,31.7-34.8,43.3c-37.7,11.6-120.6,31-151.6,52.8
				c-45.9,31.9-107.7,74.6-85.1,226.6s71.4,211.7,127,249.8c30.9,21.2,84.3,45.6,104.7,50.1c20.4,4.4,45.7,11.2,54.1,7.7
				c8.3-3.4,1.7-13.6-4.7-14.3c-48.9-2.6-104.7-22-147.8-54c-90.5-67.9-120.9-197.6-120.8-240.7c0.1-88.9-28.9-206.2,205.7-257.6
				c23.7-5,41.5,12.8,52.6,6.4s6-1.2,1.3-19.3C-11.3,44-1.8,25.8-1.8,25.8L-7.1,10.5z"/>
		</g>
	</g>
</g>
<g enable-background="new    ">
	<path fill="#CDCCCC" d="M441.1,760.8c0.2,2.8-2.5,5.9-5.1,5.2l-129.3,0.5c-2.8,0.2-5.9-2.5-5.2-5.1l0,0c-0.2-2.8,2.5-5.9,5.1-5.2
		l129.3-0.5C438.8,755.5,440.9,758,441.1,760.8L441.1,760.8z"/>
</g>
<g enable-background="new    ">
	<path fill="#CDCCCC" d="M426.9,623.2c0.2,2.8-2.5,5.9-5.1,5.2l-129.3,0.5c-2.8,0.2-5.9-2.5-5.2-5.1l0,0c-0.2-2.8,2.5-5.9,5.1-5.2
		l129.3-0.5C424.5,617.9,426.7,620.3,426.9,623.2L426.9,623.2z"/>
</g>
<g enable-background="new    ">
	<path fill="#CDCCCC" d="M423.4,483.7c0.2,2.8-2.5,5.9-5.1,5.2L289,489.4c-2.8,0.2-5.9-2.5-5.2-5.1l0,0c-0.2-2.8,2.5-5.9,5.1-5.2
		l129.3-0.5C421,478.4,424.1,481.1,423.4,483.7L423.4,483.7z"/>
</g>
<g enable-background="new    ">
	<path fill="#CDCCCC" d="M417.6,360.4c0.2,2.8-2.5,5.9-5.1,5.2l-129.3,0.5c-2.8,0.2-5.9-2.5-5.2-5.1l0,0c-0.2-2.8,2.5-5.9,5.1-5.2
		l129.3-0.5C415.4,354.2,417.6,356.6,417.6,360.4L417.6,360.4z"/>
</g>
<g enable-background="new    ">
	<path fill="#CDCCCC" d="M409.1,250.5c0.2,2.8-2.5,5.9-5.1,5.2l-129.4,0.4c-2.8,0.2-5.9-2.5-5.2-5.1l0,0c-0.2-2.8,2.5-5.9,5.1-5.2
		l129.3-0.5C406.9,244.3,409.1,246.7,409.1,250.5L409.1,250.5z"/>
</g>
<g enable-background="new    ">
	<path fill="#CDCCCC" d="M417.3,272.3c-0.4,1.7-0.7,2.6-2.7,3H351c-1.7-0.4-2.4-1.5-3-2.7l0,0c0.4-1.7,0.7-2.6,2.7-3h63.6
		C416.3,269.2,416.9,270.3,417.3,272.3L417.3,272.3z"/>
</g>
<g enable-background="new    ">
	<path fill="#CDCCCC" d="M417,294.7c-0.4,1.7-0.7,2.6-2.7,3h-63.6c-1.7-0.4-2.4-1.5-3-2.7l0,0c0.4-1.7,0.7-2.6,2.7-3H414
		C415.8,292.4,417.3,293.8,417,294.7L417,294.7z"/>
</g>
<g enable-background="new    ">
	<path fill="#CDCCCC" d="M417.9,316.5c-0.4,1.7-0.7,2.6-2.7,3h-63.6c-1.7-0.4-2.4-1.5-3-2.7l0,0c0.4-1.7,0.7-2.6,2.7-3h63.6
		C415.7,314,417.2,315.3,417.9,316.5L417.9,316.5z"/>
</g>
<g enable-background="new    ">
	<path fill="#CDCCCC" d="M417.1,340.6c-0.4,1.7-0.7,2.6-2.7,3h-63.6c-1.7-0.4-2.4-1.5-3-2.7l0,0c0.4-1.7,0.7-2.6,2.7-3h63.6
		C415.8,338.4,417.3,339.7,417.1,340.6L417.1,340.6z"/>
</g>
<g enable-background="new    ">
	<path fill="#CDCCCC" d="M418.1,386.8c-0.4,1.7-0.7,2.6-2.7,3h-63.6c-1.7-0.4-2.4-1.5-3-2.7l0,0c0.4-1.7,0.7-2.6,2.7-3h63.6
		C415.9,384.3,417.5,385.7,418.1,386.8L418.1,386.8z"/>
</g>
<g enable-background="new    ">
	<path fill="#CDCCCC" d="M417.6,410c-0.4,1.7-0.7,2.6-2.7,3h-63.6c-1.7-0.4-2.4-1.5-3-2.7l0,0c0.4-1.7,0.7-2.6,2.7-3h63.6
		C416.5,406.9,418,408.2,417.6,410L417.6,410z"/>
</g>
<g enable-background="new    ">
	<path fill="#CDCCCC" d="M417.5,435.2c-0.4,1.7-0.7,2.6-2.7,3h-63.6c-1.7-0.4-2.4-1.5-3-2.7l0,0c0.4-1.7,0.7-2.6,2.7-3h63.6
		C416.4,432.2,417.9,433.5,417.5,435.2L417.5,435.2z"/>
</g>
<g enable-background="new    ">
	<path fill="#CDCCCC" d="M418.2,460.7c-0.4,1.7-0.7,2.6-2.7,3h-63.6c-1.7-0.4-2.4-1.5-3-2.7l0,0c0.4-1.7,0.7-2.6,2.7-3h63.6
		C416,458.3,417.6,459.6,418.2,460.7L418.2,460.7z"/>
</g>
<g enable-background="new    ">
	<path fill="#CDCCCC" d="M403.1,130.9c0.2,2.8-2.5,5.9-5.1,5.2l-129.3,0.5c-2.8,0.2-5.9-2.5-5.2-5.1l0,0c-0.2-2.8,2.5-5.9,5.1-5.2
		l129.3-0.5C400.9,125.6,403.9,128.3,403.1,130.9L403.1,130.9z"/>
</g>
<g enable-background="new    ">
	<path fill="#CDCCCC" d="M389.9,21.6c0.2,2.8-2.5,5.9-5.1,5.2l-129.3,0.5c-2.8,0.2-5.9-2.5-5.2-5.1l0,0c-0.2-2.8,2.5-5.9,5.1-5.2
		l129.3-0.5C386.7,16.1,389.7,18.7,389.9,21.6L389.9,21.6z"/>
</g>
<g enable-background="new    ">
	<path fill="#CDCCCC" d="M394.5,43.4c-0.4,1.7-0.7,2.6-2.7,3h-63.6c-1.7-0.4-2.4-1.5-3-2.7l0,0c0.4-1.7,0.7-2.6,2.7-3h63.6
		C393.4,40.3,394.9,41.7,394.5,43.4L394.5,43.4z"/>
</g>
<g enable-background="new    ">
	<path fill="#CDCCCC" d="M395,66c-0.4,1.7-0.7,2.6-2.7,3h-63.6c-1.7-0.4-2.4-1.5-3-2.7l0,0c0.4-1.7,0.7-2.6,2.7-3H392
		C393.7,63.8,394.4,64.9,395,66L395,66z"/>
</g>
<g enable-background="new    ">
	<path fill="#CDCCCC" d="M394.7,88.4c-0.4,1.7-0.7,2.6-2.7,3h-63.6c-1.7-0.4-2.4-1.5-3-2.7l0,0c0.4-1.7,0.7-2.6,2.7-3h63.6
		C393.6,85.4,395.2,86.7,394.7,88.4L394.7,88.4z"/>
</g>
<g enable-background="new    ">
	<path fill="#CDCCCC" d="M395.1,111.9c-0.4,1.7-0.7,2.6-2.7,3h-63.6c-1.7-0.4-2.4-1.5-3-2.7l0,0c0.4-1.7,0.7-2.6,2.7-3h63.6
		C393.8,109.7,394.5,110.8,395.1,111.9L395.1,111.9z"/>
</g>
<g enable-background="new    ">
	<path fill="#CDCCCC" d="M400.7,158.3c-0.4,1.7-0.7,2.6-2.7,3h-63.6c-1.7-0.4-2.4-1.5-3-2.7l0,0c0.4-1.7,0.7-2.6,2.7-3h63.6
		C399.6,155.2,400.2,156.4,400.7,158.3L400.7,158.3z"/>
</g>
<g enable-background="new    ">
	<path fill="#CDCCCC" d="M400.3,180.8c-0.4,1.7-0.7,2.6-2.7,3H334c-1.7-0.4-2.4-1.5-3-2.7l0,0c0.4-1.7,0.7-2.6,2.7-3h63.6
		C399,178.5,400.5,179.8,400.3,180.8L400.3,180.8z"/>
</g>
<g enable-background="new    ">
	<path fill="#CDCCCC" d="M400.9,207.1c-0.4,1.7-0.7,2.6-2.7,3h-63.6c-1.7-0.4-2.4-1.5-3-2.7l0,0c0.4-1.7,0.7-2.6,2.7-3h63.6
		C398.9,203.8,400.4,205.1,400.9,207.1L400.9,207.1z"/>
</g>
<g enable-background="new    ">
	<path fill="#CDCCCC" d="M400.8,232.4c-0.4,1.7-0.7,2.6-2.7,3h-63.6c-1.7-0.4-2.4-1.5-3-2.7l0,0c0.4-1.7,0.7-2.6,2.7-3h63.6
		C399.7,229.2,400.3,230.3,400.8,232.4L400.8,232.4z"/>
</g>
<g enable-background="new    ">
	<path fill="#CDCCCC" d="M417.7,515.9c-0.4,1.7-0.7,2.6-2.7,3h-63.6c-1.7-0.4-2.4-1.5-3-2.7l0,0c0.4-1.7,0.7-2.6,2.7-3h63.6
		C416.7,512.7,418.2,514.1,417.7,515.9L417.7,515.9z"/>
</g>
<g enable-background="new    ">
	<path fill="#CDCCCC" d="M418.3,538.5c-0.4,1.7-0.7,2.6-2.7,3H352c-1.7-0.4-2.4-1.5-3-2.7l0,0c0.4-1.7,0.7-2.6,2.7-3h63.6
		C417.2,535.4,417.9,536.5,418.3,538.5L418.3,538.5z"/>
</g>
<g enable-background="new    ">
	<path fill="#CDCCCC" d="M418.3,570.3c-0.4,1.7-0.7,2.6-2.7,3H352c-1.7-0.4-2.4-1.5-3-2.7l0,0c0.4-1.7,0.7-2.6,2.7-3h63.6
		C417,568.1,417.7,569.2,418.3,570.3L418.3,570.3z"/>
</g>
<g enable-background="new    ">
	<path fill="#CDCCCC" d="M418.7,597.6c-0.4,1.7-0.7,2.6-2.7,3h-63.6c-1.7-0.4-2.4-1.5-3-2.7l0,0c0.4-1.7,0.7-2.6,2.7-3h63.6
		C416.7,594.3,418.2,595.6,418.7,597.6L418.7,597.6z"/>
</g>
<g enable-background="new    ">
	<path fill="#CDCCCC" d="M432.6,654.6c-0.4,1.7-0.7,2.6-2.7,3h-63.6c-1.7-0.4-2.4-1.5-3-2.7l0,0c0.4-1.7,0.7-2.6,2.7-3h63.6
		C431.6,651.5,432.2,652.7,432.6,654.6L432.6,654.6z"/>
</g>
<g enable-background="new    ">
	<path fill="#CDCCCC" d="M432.3,677c-0.4,1.7-0.7,2.6-2.7,3H366c-1.7-0.4-2.4-1.5-3-2.7l0,0c0.4-1.7,0.7-2.6,2.7-3h63.6
		C431,674.8,432.5,676.1,432.3,677L432.3,677z"/>
</g>
<g enable-background="new    ">
	<path fill="#CDCCCC" d="M432.7,796c-0.4,1.7-0.7,2.6-2.7,3h-63.6c-1.7-0.4-2.4-1.5-3-2.7l0,0c0.4-1.7,0.7-2.6,2.7-3h63.6
		C431.4,793.8,433,795.1,432.7,796L432.7,796z"/>
</g>
<g enable-background="new    ">
	<path fill="#CDCCCC" d="M432.6,736.1c-0.4,1.7-0.7,2.6-2.7,3h-63.6c-1.7-0.4-2.4-1.5-3-2.7l0,0c0.4-1.7,0.7-2.6,2.7-3h63.6
		C431.3,733.9,432.9,735.2,432.6,736.1L432.6,736.1z"/>
</g>
<g enable-background="new    ">
	<path fill="#CDCCCC" d="M432.1,709.7c-0.4,1.7-0.7,2.6-2.7,3h-63.6c-1.7-0.4-2.4-1.5-3-2.7l0,0c0.4-1.7,0.7-2.6,2.7-3h63.6
		C431,706.7,432.5,708,432.1,709.7L432.1,709.7z"/>
</g>
<g enable-background="new    ">
	<path fill="#CDCCCC" d="M433.1,823.3c-0.4,1.7-0.7,2.6-2.7,3h-63.6c-1.7-0.4-2.4-1.5-3-2.7l0,0c0.4-1.7,0.7-2.6,2.7-3H430
		C432,820.2,432.6,821.3,433.1,823.3L433.1,823.3z"/>
</g>
</svg>
