<!-- Generator: Adobe Illustrator 17.1.0, SVG Export Plug-In  --><svg version="1.1"	 xmlns="http://www.w3.org/2000/svg" xmlns:xlink="http://www.w3.org/1999/xlink" xmlns:a="http://ns.adobe.com/AdobeSVGViewerExtensions/3.0/"	 x="0px" y="0px" width="393.5px" height="193px" viewBox="0 0 393.5 193" enable-background="new 0 0 393.5 193"	 xml:space="preserve"><defs></defs><linearGradient id="SVGID_1_" gradientUnits="userSpaceOnUse" x1="1085.7664" y1="-1228.0471" x2="1085.7664" y2="-945.775" gradientTransform="matrix(-0.3599 0.1805 -0.213 -0.4248 389.3849 -589.4152)">	<stop  offset="0" style="stop-color:#C5AA8B"/>	<stop  offset="0.5" style="stop-color:#AE8D71"/>	<stop  offset="1" style="stop-color:#C3A58C"/></linearGradient><path fill="url(#SVGID_1_)" d="M75.8,95.3l39.3,78.2c8.3,16.8,12.9,20.2,28.5,12.3L389.6,63.7c1.8-0.8,3-2.5,4-4.2	C337.9,68,260.8,50.6,219.8,0l-136,66.7C69.3,73.9,68.2,80.5,75.8,95.3z"/><linearGradient id="SVGID_2_" gradientUnits="userSpaceOnUse" x1="1585.4526" y1="-1127.7931" x2="1585.4526" y2="-1041.7113" gradientTransform="matrix(-0.3599 0.1805 -0.213 -0.4248 389.3849 -589.4152)">	<stop  offset="0" style="stop-color:#C5AA8B"/>	<stop  offset="0.5" style="stop-color:#AE8D71"/>	<stop  offset="1" style="stop-color:#C3A58C"/></linearGradient><path fill="url(#SVGID_2_)" d="M4.3,180.5c5,10.1,7.6,19.1,33.8,5.9c11.9-6.2,38.9-21.7,64.2-38l-13.8-27.6	c-28.1,10.6-56.8,22.9-68.7,28.8C-6.5,162.9-0.8,170.4,4.3,180.5z"/></svg>