<!-- Generator: Adobe Illustrator 17.1.0, SVG Export Plug-In  --><svg version="1.1"	 xmlns="http://www.w3.org/2000/svg" xmlns:xlink="http://www.w3.org/1999/xlink" xmlns:a="http://ns.adobe.com/AdobeSVGViewerExtensions/3.0/"	 x="0px" y="0px" width="36.1px" height="50.1px" viewBox="0 0 36.1 50.1" enable-background="new 0 0 36.1 50.1"	 xml:space="preserve"><defs></defs><g>	<path fill="#A6CE8B" d="M11.7,45.9c-0.2-2.3-1.7-4.2-1.7-4.2l3-4l4-1.3c0,0,1.6,1,2.9,2.3s0.5,3.5,0.1,4.3c-0.5,0.8-0.8,2.2-2,5.1		c-1,2.6-4.4,2-4.4,2S12.2,47.7,11.7,45.9z"/>	<path fill="#A6CE8B" d="M3.2,40.7c0.2-3,2.9-3,3.4-3.8s1.9-0.5,1.9-0.5s0.6,2.5,0.7,4.1C9.3,42.1,7.7,43.8,7,45		c-1.1,0.9-3.2,1.7-3.2,1.7S2.9,43.7,3.2,40.7z"/>	<path fill="#BBDA8B" d="M6.3,45.2c0,0-0.8-2.1-1.1-4.4c-0.2-2.3,1.1-6.2,1.1-6.2l2.9-1.4c0,0,1.9-0.5,3.4,0.5		c1.1,0.7,1.3,1.3,2.2,2.4s1.4,4.6,1.5,6.2s-0.5,1.8-2.8,3.6c-2.2,1.9-3.1,2.4-3.1,2.4L6.3,45.2z"/>	<path fill="#92BA86" d="M20,32.4c1.9-0.5,1.1,0.7,2.5,2c1.3,1.3,0.4,4.5,1,7s-0.7,2.8-2,4.1c-1,1.6-4.2,4.3-3.6,1.5		c1-2.6-2.6-6.9-2.6-6.9S18.7,32.7,20,32.4z"/>	<path fill="#91C270" d="M13.6,37.5c-1.6-1-2.2-7.7-2.2-7.7l2.2-1.9c0,0,1.8-2.1,3.5-3.2c1.3-1.3,2.5-0.6,5.3,1.7		c2.6,2.6,3.3,6.8,2.4,10c-0.9,3.2-7.9,5.2-7.9,5.2S15.2,38.4,13.6,37.5z"/>	<path fill="#92BA86" d="M2.2,36.3c0,0,0.9-3.2,2.4-6.5s4.7-5.1,6.2-5.8c1.5-0.7,4-1.3,5.3-1c1.4,0.4,1.7,3.2,2.5,4.7		c0.7,1.5-0.1,3.7-0.1,3.7s-1.5,3.3-3.4,3.8s-11,5-11,5L2.2,36.3z"/>	<path fill="#A6CE8B" d="M27.6,13.7c1.6,1,2.2,3.4,3.7,8.6c1.6,5.2-1.7,6.4-4.3,8s-6.8,4.3-6.8,4.3l-5.9-9.4c0,0,0.2-3,1.6-7		c1.3-4,3.1-3.4,3.1-3.4S26.8,13.2,27.6,13.7z"/>	<path fill="#BBDA8B" d="M29,23.6c1.7,1.6,1,8,0.5,11.4c-0.2,3-1.5,3.3-2.5,4.9s-2.2,4.5-2.2,4.5s-1.4-2.9-1.7-6.8		c0.1-3.7,2.1-10.4,2.1-10.4S27.3,22,29,23.6z"/>	<path fill="#92BA86" d="M32.5,33.6c0,0,1-1.6,1-4.2s-0.1-6.9-1-9.6c-1.2-2.3-3,4-3,4s0.2,6.5-0.1,8.9c-0.4,2.4-0.4,5-0.4,5		L32.5,33.6z"/>	<path fill="#A6CE8B" d="M6.4,24.1c0.2,0.6,0.4,2.9,0.8,4.7c0.5,1.9-1,4.2-1,4.2l-2.5,3.2l-1.2-2.3c0,0-1.2-2.3-1.4-5.6		c-0.2-3.2,2.2-7.1,2.2-7.1S6.3,23.5,6.4,24.1z"/>	<path fill="#BBDA8B" d="M6.5,13.5c0,0,0.7-1.1,1.9-1.4c1.1-0.9,1.9-1.4,2.8-2c0.8-0.5,1.3,1.3,2.5,2c1.1,0.7,1.4,2.9,1.7,6.8		s-0.7,3.8-1.6,4.3c-0.8,0.5-2.3,2.9-4.2,4.3s-5.5,2-5.5,2s-0.5-0.8-1-2.7c-0.8-2.1-0.5-6.1-0.5-6.1L6.5,13.5z"/>	<path fill="#92BA86" d="M20.9,6.5c0,0,1.9,1.2,4.6,2.8c2.5,2,1.7,3.2,0.8,7.4c-1,4.2-3.7,3.5-6.1,4.7c-2.7,1-5.3,2.6-5.3,2.6		s-2.3-4-2.8-7.6c-0.5-3.5,0.9-5.8,0.9-5.8L20.9,6.5z"/>	<path fill="#92BA86" d="M8.2,8.2C7.4,8.7,6.7,8.9,5.6,9.8S4,11.5,3.1,13c-1,1.6-2.8,4.6-3.1,7.7c-0.2,3,0.8,4.7,0.8,4.7		s0.9-3.2,1.8-4.7c1-1.6,2.8-2,5.8-4.4c3.1-2.4,1.8-4.7,1.8-4.7S9.8,8.1,8.2,8.2z"/>	<path fill="#A6CE8B" d="M18.6,2.4c0,0,2.5-0.6,3.9-0.3c1.4,0.3,2.8,0.7,5,3.1s1.3,4,0.8,7.4c-0.1,3.7-4.3,2.7-4.3,2.7s-3-0.2-6-3.1		c-3.2-2.5-0.9-3.7-0.9-3.7L18.6,2.4z"/>	<path fill="#A6CE8B" d="M20.4,3l-6.8,1.7l-0.4-0.2c-0.4-0.2-1.6,0.1-3.4,1.1C7.2,7.2,6.2,9.7,6.2,9.7l-0.2,2c0,0,0.7,1.5,3,0.2		c2.1-0.8,2,0.2,5.3-1c3.4-1.1,2.7-1,4.9-2.8c2.2-1.9,4.1-3.3,4.1-3.3s-0.1-1.6-2.7-1.6"/>	<path fill="#BBDA8B" d="M19.1,0.6c0,0-2.5,0.6-6.2,1.5S6.1,8,6.1,8s0.8-0.5,3.7-2.5c2.8-2,2.5-0.6,6.2-1.5s4.3-2.7,4.3-2.7		L19.1,0.6z"/>	<path fill="#BBDA8B" d="M29.2,5.1c-1.1-0.7-5.1-2-7.5-2.5c-2.4-0.4-1.3-1.3-1.3-1.3s2.1-0.8,5-1.2c2.9-0.4,2.9,1.3,5.9,4.1		c3.2,2.5,0,2.6,0,2.6S30.1,6.2,29.2,5.1z"/>	<path fill="#A6CE8B" d="M31.6,14c0,0,2.4,0.4,3.1,1.9c0.7,1.5,1.4,5.6,1.3,8.2c0.2,2.3-0.6,4.4-0.6,4.4s-1.6,0.1-1.6-2.6		c-0.4-2.9-2-4.4-2-4.4L31.6,14z"/>	<path fill="#BBDA8B" d="M27.4,4.5c2.7,1.6,3.8,3.4,6.5,6.7c2.8,3.3,1.4,2.9,1.4,5.6c0,2.6-0.2,3-1.7,3.7s-3.7,0.9-3.7,0.9		s-0.8-2.1-1.9-3.8c-0.7-1.5-1.9-2.2-3.4-5.8c-1.5-3.6-1.3-6.6-1.3-6.6S25.4,3.4,27.4,4.5z"/>	<path fill="#A6CE8B" d="M27.5,5.2c-1.1-0.7-5.1-2-7.5-2.5c-2.4-0.4-1.3-1.3-1.3-1.3s2.1-0.8,5-1.2c2.9-0.4,2.9,1.3,5.9,4.1		c3.2,2.5,0,2.6,0,2.6S29,6.1,27.5,5.2z"/></g></svg>