<!-- Generator: Adobe Illustrator 17.1.0, SVG Export Plug-In  --><svg version="1.1"	 xmlns="http://www.w3.org/2000/svg" xmlns:xlink="http://www.w3.org/1999/xlink" xmlns:a="http://ns.adobe.com/AdobeSVGViewerExtensions/3.0/"	 x="0px" y="0px" width="436.2px" height="678.9px" viewBox="0 0 436.2 678.9" enable-background="new 0 0 436.2 678.9"	 xml:space="preserve"><defs></defs><path fill="#8A5925" d="M0,482.9l0,195.9h436.2V482.9c0-9.2-10.9-29.1-29.5-29.1h-1.5c-0.1-8.4-1.2-15.1-11.6-16.9	c-22-19.8-68.6-35.2-116-42.3c-21.8-4.7-21.8-35.7-24.5-51.3c4.2-0.7,7.2-3.9,7.2-7.5c0-4.2-4-7.6-9-7.6h-2.6V0l-61.2,0v328.1	c-4.8,0.2-8.6,3.6-8.6,7.6c0,2.9,1.9,5.3,4.6,6.7c-2.6,15.4-4.7,47.2-27.8,51.2c-5.5,0.9-10.9,2-16,3l-2.2-7l-63.1,19.4l2.1,6.7	c-13.2,6-23.6,12.9-32.2,20.6c-14.6,2.3-14.2,9.8-14.4,17.3h-1.4C9.9,453.7-0.1,473.7,0,482.9z"/><linearGradient id="SVGID_1_" gradientUnits="userSpaceOnUse" x1="804.6611" y1="-598.9216" x2="-230.0235" y2="-598.9216" gradientTransform="matrix(-0.4026 0 0 -0.4026 333.7077 98.2812)">	<stop  offset="5.102041e-02" style="stop-color:#B56A29"/>	<stop  offset="0.5" style="stop-color:#CD8E2A"/>	<stop  offset="0.9397" style="stop-color:#B76C29"/></linearGradient><path fill="url(#SVGID_1_)" d="M9.7,491.5v187.4H218h208.3V491.6c0-9.2-10.6-30-28.3-30l-0.4,0.8c-1.2-7.6-3.8-19-16.8-21.1	c-20.4-19.4-60.4-31.5-114.2-41.3c-22.1-4.1-17.8-42.2-20.2-57.6c2.6-1.3,1.4-2.3,1.4-5.2c0-4.1-0.5-4.6-5.1-4.8V0L218,0l-24.5,0	v332.2c-4.5,0.2-5.1,0.7-5.1,4.8c0,2.8-1.3,3.9,1.4,5.2c-2.4,15.4,1.6,52-20.5,56c-10.9,2-23.8,4.1-33.4,6.4l1.9,6.5l-53.3,16.2	l-1.4-4.7c-11.3,5.5-20.5,11.6-27.7,18.5c-13.1,2.1-15.7,13.5-16.8,21.1l-0.4-0.8C20.4,461.5,9.8,482.3,9.7,491.5z"/></svg>