<!-- Generator: Adobe Illustrator 17.1.0, SVG Export Plug-In  --><svg version="1.1"	 xmlns="http://www.w3.org/2000/svg" xmlns:xlink="http://www.w3.org/1999/xlink" xmlns:a="http://ns.adobe.com/AdobeSVGViewerExtensions/3.0/"	 x="0px" y="0px" width="405px" height="149.5px" viewBox="0 0 405 149.5" enable-background="new 0 0 405 149.5"	 xml:space="preserve"><defs></defs><g>	<path fill="#FCBC22" d="M391.6,2.1c-0.1-0.2-0.5,0.5-0.6,0.3c-0.8-1.4-12.8,0.4-13.6-0.8c0-0.1-0.8,0.7-0.9,0.5		c-4.2-7.1-37.8,5.8-41.3-0.1c-0.1-0.2-0.3,0.3-0.4,0.2c-0.1-0.2-0.7-0.9-0.8-1c-0.1-0.2-1,0.7-1,0.6c-0.8-1.4-14.1,2.3-15.6-0.2		c-0.1-0.1-0.9,0.6-0.9,0.5c-1-1.7-13,0.9-14.1-0.8c-0.1-0.2-1.9,1.2-2,1.1c-1.9-3.2-32.4,3.3-35-1.1c-0.1-0.1-1.2,0.8-1.3,0.7		c-0.7-1.2-8.2,0.5-8.7-0.5c-0.1-0.1-0.9,0.6-0.9,0.5c-2.5-4.3-29.7,3.9-32.5-1c-0.1-0.2-2.1,1.4-2.2,1.3		c-0.7-1.1-16.3,0.3-16.9-0.8c-0.1-0.1-0.3,0.3-0.4,0.2c-1.3-2.2-29.3,4.4-32.2-0.6c-0.1-0.1-0.2,0.3-0.3,0.2		c-2.5-4.3-24.9,5.3-27.5,1c0-0.1-0.7,0.6-0.8,0.4c-1.2-2-23,2.5-25.3-1.4c-0.1-0.2-1.3,0.9-1.4,0.8c-2.6-4.5-30.7,2.3-32.5-0.7		c-0.1-0.1-1.4,0.9-1.5,0.9c-0.8-1.3-18,2.2-19.9-1c-0.1-0.1-2.5,1.5-2.5,1.4C56.1-1.6,26.9,3.6,25.4,1c-0.1-0.1-1.1,0.8-1.2,0.7		c-0.1-0.2-1.7,0.1-1.8,0c-0.1-0.1-0.8,0.7-0.9,0.5C19.5-1.1,9.4,0.4,0,1.8v144.3c0,1.9,1.5,3.4,3.4,3.4h199.1h199.1		c1.9,0,3.4-1.5,3.4-3.4V1.5C399.4,2.3,392.8,4,391.6,2.1z"/></g></svg>