<!-- Generator: Adobe Illustrator 17.1.0, SVG Export Plug-In  --><svg version="1.1"	 xmlns="http://www.w3.org/2000/svg" xmlns:xlink="http://www.w3.org/1999/xlink" xmlns:a="http://ns.adobe.com/AdobeSVGViewerExtensions/3.0/"	 x="0px" y="0px" width="173.6px" height="173.6px" viewBox="0 0 173.6 173.6" enable-background="new 0 0 173.6 173.6"	 xml:space="preserve"><defs></defs><circle fill="#BBBBBB" cx="86.8" cy="86.8" r="86.8"/><circle fill="#818181" cx="86.7" cy="86.9" r="82.2"/><circle fill="#DFDFDE" cx="86.7" cy="86.9" r="76.8"/><circle fill="#FFFFFF" cx="86.7" cy="86.6" r="72.3"/><g>	<path fill="#231F20" d="M63,43.9l-9.3-16.5l-1.6,0.9l9.2,16.5C62,44.5,62.6,44.3,63,43.9z"/>	<path fill="#231F20" d="M54.2,49.9l-12.6-14l-1.4,1.3l12.6,14C53.2,50.8,53.7,50.4,54.2,49.9z"/>	<path fill="#231F20" d="M38.1,77.8l-18.5-3.2l-0.4,1.9l18.5,3.2C37.8,78.9,37.9,78.3,38.1,77.8z"/>	<path fill="#231F20" d="M84,38.3l-1.2-19l-1.9,0.1l1.2,19C82.7,38.4,83.3,38.3,84,38.3z"/>	<path fill="#231F20" d="M134.7,85.3l19.1-1.1l-0.1-1.9l-19.1,1.1C134.5,84.1,134.7,84.7,134.7,85.3z"/>	<path fill="#231F20" d="M41.3,67.3L23.9,60l-0.7,1.8L40.5,69C40.9,68.4,41.1,67.9,41.3,67.3z"/>	<path fill="#231F20" d="M94.8,39.1l3.1-18.7L96,20l-3.1,18.7C93.7,38.9,94.2,39,94.8,39.1z"/>	<path fill="#231F20" d="M133.1,74.6l18.4-5.2l-0.5-1.8l-18.4,5.2C132.8,73.4,132.9,74,133.1,74.6z"/>	<path fill="#231F20" d="M123,55.4l14.3-12.7l-1.3-1.4L121.7,54C122.2,54.4,122.6,54.9,123,55.4z"/>	<path fill="#231F20" d="M114.7,47.7l11-15.7l-1.5-1.1l-11,15.7C113.7,47,114.3,47.4,114.7,47.7z"/>	<path fill="#231F20" d="M125.2,115.9l15.6,11.1l1.1-1.5l-15.6-11.1C125.9,114.9,125.6,115.3,125.2,115.9z"/>	<path fill="#231F20" d="M130.5,106.6l17.7,7.3l0.7-1.8l-17.6-7.3C131.1,105.4,130.8,106,130.5,106.6z"/>	<path fill="#231F20" d="M42.8,109.7l-16.5,9.1l0.9,1.6l16.5-9.1C43.4,110.9,43,110.3,42.8,109.7z"/>	<path fill="#231F20" d="M48.9,118.7l-14,12.5l1.3,1.4l14-12.5C49.7,119.7,49.2,119.2,48.9,118.7z"/>	<path fill="#231F20" d="M38.8,99.4l-18,5.2l0.5,1.8l18.1-5.2C39.1,100.7,38.9,100.1,38.8,99.4z"/>	<g>		<path fill="#FFFFFF" stroke="#231F20" stroke-width="0.5" d="M46.7,120.8c-7.8-9.2-12.5-21-12.5-34c0-29,23.6-52.5,52.5-52.5			s52.5,23.6,52.5,52.5c0,11.2-3.5,21.4-9.4,30l6.2,4.5c6.8-9.8,10.8-21.6,10.8-34.4c0-33.2-27-60.2-60.2-60.2			c-33.2,0-60.2,27-60.2,60.2c0,14.8,5.4,28.5,14.4,39L46.7,120.8z"/>	</g>	<path fill="#231F20" d="M73.3,39.9L68,21.8l-1.8,0.6l5.3,18.1C72,40.3,72.6,40.1,73.3,39.9z"/>	<path fill="#231F20" d="M129.1,64.4l16.7-9.2l-0.9-1.6l-16.7,9.2C128.5,63.3,128.8,63.9,129.1,64.4z"/>	<path fill="#231F20" d="M105.3,42.3l7.2-17.7l-1.8-0.7l-7.2,17.7C104.1,41.8,104.7,42.1,105.3,42.3z"/>	<path fill="#231F20" d="M46.8,58L31.3,47l-1.1,1.5l15.4,11C46.1,59,46.4,58.4,46.8,58z"/>	<path fill="#231F20" d="M134.2,94.4c-0.1,0.6-0.2,1.3-0.4,1.9l18.8,3.3l0.4-1.9L134.2,94.4z"/>	<path fill="#231F20" d="M37.1,88.6l-18.7,0.9l0.1,1.9l18.7-0.9C37.2,89.9,37.2,89.3,37.1,88.6z"/></g></svg>