<!-- Generator: Adobe Illustrator 17.1.0, SVG Export Plug-In  --><svg version="1.1"	 xmlns="http://www.w3.org/2000/svg" xmlns:xlink="http://www.w3.org/1999/xlink" xmlns:a="http://ns.adobe.com/AdobeSVGViewerExtensions/3.0/"	 x="0px" y="0px" width="219.8px" height="99.2px" viewBox="0 0 219.8 99.2" enable-background="new 0 0 219.8 99.2"	 xml:space="preserve"><defs></defs><g>	<path fill="#231F20" d="M1.9,99.2c0-21.6,7.4-31.7,15.9-39.7l9.8-9.1c5.8-5.5,11.5-11,11.5-21.2c0-9.3-5.8-13.9-14.7-13.9		c-7.9,0-12.7,1.7-14.7,2.6v9.6H0V9.9c5.7-2.4,13.7-5.7,24.7-5.7c15.8,0,28.1,6.5,28.1,24.8c0,14.7-8.6,23.1-15.8,29.8l-9.4,8.6		C22.1,72.6,17,79.1,15.9,88.2h27.6V75.5h9.6v23.6L1.9,99.2L1.9,99.2z"/>	<path fill="#231F20" d="M64.9,99.2v-9.6h11.6V20.2l-12.5,2.9l-0.7-8.2l18.7-9.3h7.5v83.8h11.6V99H64.9V99.2z"/>	<path fill="#231F20" d="M110.5,99.2c0-21.6,7.4-31.7,15.9-39.7l9.8-9.1c5.8-5.5,11.5-11,11.5-21.2c0-9.3-5.8-13.9-14.7-13.9		c-7.9,0-12.7,1.7-14.7,2.6v9.6h-9.6V9.9c5.7-2.4,13.7-5.7,24.7-5.7c15.8,0,28.1,6.5,28.1,24.8c0,14.7-8.6,23.1-15.8,29.8l-9.4,8.6		c-5.5,5.1-10.6,11.6-11.6,20.7h27.6V75.5h9.6v23.6L110.5,99.2L110.5,99.2z"/>	<path fill="#231F20" d="M197.3,48.7c-12.8,0-22.4-7.5-22.4-24.3S184.5,0,197.3,0c12.8,0,22.4,7.5,22.4,24.3		C219.8,40.9,210.4,48.7,197.3,48.7z M197.3,9.3c-5.5,0-9.3,3.6-9.3,15.1c0,11.6,3.8,14.7,9.3,14.7s9.3-3.3,9.3-14.7		C206.6,12.7,202.8,9.3,197.3,9.3z"/></g></svg>