<?xml version="1.0" encoding="utf-8"?>
<!-- Generator: Adobe Illustrator 17.1.0, SVG Export Plug-In . SVG Version: 6.00 Build 0)  -->
<!DOCTYPE svg PUBLIC "-//W3C//DTD SVG 1.1//EN" "http://www.w3.org/Graphics/SVG/1.1/DTD/svg11.dtd">
<svg version="1.1" xmlns="http://www.w3.org/2000/svg" xmlns:xlink="http://www.w3.org/1999/xlink" x="0px" y="0px"
	 viewBox="0 0 1200 1200" enable-background="new 0 0 1200 1200" xml:space="preserve">
<g id="fermenter">
	
		<linearGradient id="SVGID_1_" gradientUnits="userSpaceOnUse" x1="82.6915" y1="505.0178" x2="1897.2126" y2="505.0178" gradientTransform="matrix(0.4026 0 0 -0.4026 179.8285 800.7254)">
		<stop  offset="4.081633e-02" style="stop-color:#878787"/>
		<stop  offset="0.5357" style="stop-color:#C4C4C4"/>
		<stop  offset="0.9592" style="stop-color:#878787"/>
	</linearGradient>
	<path fill="url(#SVGID_1_)" d="M933.4,87.3V71.1c-1.3-14.9-18.5-15.4-46-18.8c0.3,0,0.3,0,0.5,0c-2.6-18.3-99-33.7-229.6-38.1V0.4
		h-160v13.9c-127,4.4-221.9,19-229.1,36.8c-29.6-0.3-46-0.3-46,20.1v16.2h-10v613.3h1L542,1194.4h60.4l340.2-493.7h1V87.3H933.4z"/>
	
		<linearGradient id="SVGID_2_" gradientUnits="userSpaceOnUse" x1="136.3421" y1="527.3719" x2="1848.0337" y2="527.3719" gradientTransform="matrix(0.4026 0 0 -0.4026 179.8285 800.7254)">
		<stop  offset="7.142857e-02" style="stop-color:#ACACAC"/>
		<stop  offset="0.4898" style="stop-color:#FFFFFF"/>
		<stop  offset="0.9439" style="stop-color:#ACACAC"/>
	</linearGradient>
	<path fill="url(#SVGID_2_)" d="M914.1,101.7V86.3c-1.3-14.1-17.5-14.7-43.5-17.7c0.3,0,0.3,0,0.5,0
		c-2.6-17.5-107.7-32.1-230.7-36.3V19.2H516.8v13.1c-119.8,4.1-222.2,18.3-229.1,35c-28-0.3-43.5-0.3-43.5,19v15.4h-9.5v49.6v483.7
		v49.6v2.1h1l309.4,470.9h56.8l320.9-470.9h1v-2.1v-49.6V151.4v-49.6H914.1z"/>
	<linearGradient id="SVGID_3_" gradientUnits="userSpaceOnUse" x1="365.3655" y1="1092.1833" x2="677.9484" y2="233.3689">
		<stop  offset="1.020408e-02" style="stop-color:#EDA024"/>
		<stop  offset="0.5" style="stop-color:#FFD97E"/>
		<stop  offset="1" style="stop-color:#FFEFC3"/>
	</linearGradient>
	<path fill="url(#SVGID_3_)" d="M234.7,322v313.1v49.6v2.1h1l309.4,470.9h56.8l320.9-470.9h1v-2.1v-49.6V322.9
		C920.3,324.2,265.7,322.7,234.7,322z"/>
</g>
<g id="Temp">
</g>
<g id="yeast">
</g>
</svg>
