<?xml version="1.0" encoding="utf-8"?>
<!-- Generator: Adobe Illustrator 17.1.0, SVG Export Plug-In . SVG Version: 6.00 Build 0)  -->
<!DOCTYPE svg PUBLIC "-//W3C//DTD SVG 1.1//EN" "http://www.w3.org/Graphics/SVG/1.1/DTD/svg11.dtd">
<svg version="1.1" xmlns="http://www.w3.org/2000/svg" xmlns:xlink="http://www.w3.org/1999/xlink" x="0px" y="0px"
	 viewBox="0 0 740 963.5" enable-background="new 0 0 740 963.5" xml:space="preserve">
<g id="Map">
</g>
<g id="Chart">
</g>
<g id="Inset_map">
</g>
<g id="Art">
</g>
<g id="TEXT">
	<g>
		
			<linearGradient id="SVGID_1_" gradientUnits="userSpaceOnUse" x1="4650.1685" y1="-1116.5076" x2="5478.2549" y2="1158.6421" gradientTransform="matrix(0.3333 0 0 -0.3333 -1361.3333 479.2914)">
			<stop  offset="0" style="stop-color:#CD972E"/>
			<stop  offset="0.4856" style="stop-color:#EEA125"/>
			<stop  offset="1" style="stop-color:#FFD97E"/>
		</linearGradient>
		<path fill="url(#SVGID_1_)" d="M73.4,171.3v276.5v43.8v1.9h0.9l273.2,415.8h50.2L681,493.4h0.9v-1.9v-43.8V172.1
			C678.8,173.3,100.8,171.9,73.4,171.3z"/>
		<g>
			<linearGradient id="SVGID_2_" gradientUnits="userSpaceOnUse" x1="374.4943" y1="189.6954" x2="374.4943" y2="92.3556">
				<stop  offset="1.020408e-02" style="stop-color:#ECD59C"/>
				<stop  offset="0.7391" style="stop-color:#FFFFFF"/>
			</linearGradient>
			<path fill="url(#SVGID_2_)" d="M678.9,189.7l-606.6-0.6c0,0-3.9-14.6-2.7-32.5c2.4-36.7,29.5-87.2,178.1-52.7
				c48.1,11.2,76.4,13.6,152.9,13.7c29.4,0,93.5,18.6,122,6.5c65.4-27.8,143.5-49.2,150.2-6C682.5,180.9,678.9,189.7,678.9,189.7z"
				/>
			<circle opacity="0.15" fill="#FFFFFF" stroke="#FFFFFF" stroke-miterlimit="10" cx="468.1" cy="85.2" r="28.4"/>
			<circle opacity="0.15" fill="#FFFFFF" stroke="#FFFFFF" stroke-miterlimit="10" cx="227" cy="68.7" r="28.4"/>
			<path fill="#FFFFFF" d="M70.8,146l604.6-9.4c0,0-3-34.5-12.7-41.5c-10.9-7.8-41.5-35.6-63-26.3c-54,23.4-58.4-17.5-93-2.1
				c-51,22.6-72-19.4-148.5-19.4c-29.4,0-104.6,34.4-133.1,27.1C159.7,57.5,155,46.7,119,53.9C55.3,66.7,70.8,146,70.8,146z"/>
		</g>
	</g>
</g>
</svg>
