<?xml version="1.0" encoding="utf-8"?>
<!-- Generator: Adobe Illustrator 17.1.0, SVG Export Plug-In . SVG Version: 6.00 Build 0)  -->
<!DOCTYPE svg PUBLIC "-//W3C//DTD SVG 1.1//EN" "http://www.w3.org/Graphics/SVG/1.1/DTD/svg11.dtd">
<svg version="1.1" xmlns="http://www.w3.org/2000/svg" xmlns:xlink="http://www.w3.org/1999/xlink" x="0px" y="0px"
	 viewBox="0 0 692 963.5" enable-background="new 0 0 692 963.5" xml:space="preserve">
<g id="Map">
</g>
<g id="Chart">
</g>
<g id="Inset_map">
</g>
<g id="Art">
</g>
<g id="TEXT">
	<g>
		
			<linearGradient id="SVGID_1_" gradientUnits="userSpaceOnUse" x1="-4426.9219" y1="-1116.5076" x2="-3598.835" y2="1158.6421" gradientTransform="matrix(0.3333 0 0 -0.3333 1630.6666 479.2914)">
			<stop  offset="0" style="stop-color:#CD972E"/>
			<stop  offset="0.4856" style="stop-color:#EEA125"/>
			<stop  offset="1" style="stop-color:#FFD97E"/>
		</linearGradient>
		<path fill="url(#SVGID_1_)" d="M39.7,171.3v276.5v43.8v1.9h0.9l273.2,415.8H364l283.4-415.8h0.9v-1.9v-43.8V172.1
			C645.1,173.3,67.1,171.9,39.7,171.3z"/>
		<g>
			<linearGradient id="SVGID_2_" gradientUnits="userSpaceOnUse" x1="343.61" y1="190.0725" x2="343.61" y2="136.7341">
				<stop  offset="1.020408e-02" style="stop-color:#ECD59C"/>
				<stop  offset="0.7391" style="stop-color:#FFFFFF"/>
			</linearGradient>
			<path fill="url(#SVGID_2_)" d="M40.1,190.1l606.6-0.3c0,0,2.6-8.9,1.5-18.5c-2.2-20.1-27.6-47-177-28
				c-48.1,6.1-76.4,7.4-152.9,7.5c-29.4,0-93.5,10.2-122,3.6c-65.4-15.2-58-15.4-93.1-5.5c-30.5,8.6-61.8,8.7-63.5,19.5
				C37.4,182.8,40.1,190.1,40.1,190.1z"/>
			<path fill="#FFFFFF" d="M40.1,171.2l606.6-4.7c0,0,4.2-12-16.3-21.9c-18.4-8.8-54.8-16-159.1-8.7c-48.1,3.4-76.4-10.6-152.9-10.6
				c-29.4,0-93.5,15.4-122,11.8c-65.4-8.4-58.1-23.6-93.1-17.7C28.8,131.8,40.1,171.2,40.1,171.2z"/>
			<circle opacity="0.15" fill="#FFFFFF" stroke="#FFFFFF" stroke-miterlimit="10" cx="267.6" cy="130.8" r="22.7"/>
			<circle opacity="0.15" fill="#FFFFFF" stroke="#FFFFFF" stroke-miterlimit="10" cx="197.6" cy="131.8" r="22.7"/>
			<circle opacity="0.15" fill="#FFFFFF" stroke="#FFFFFF" stroke-miterlimit="10" cx="471.6" cy="137.7" r="22.7"/>
		</g>
	</g>
</g>
</svg>
