<?xml version="1.0" encoding="utf-8"?>
<!-- Generator: Adobe Illustrator 17.1.0, SVG Export Plug-In . SVG Version: 6.00 Build 0)  -->
<!DOCTYPE svg PUBLIC "-//W3C//DTD SVG 1.1//EN" "http://www.w3.org/Graphics/SVG/1.1/DTD/svg11.dtd">
<svg version="1.1" xmlns="http://www.w3.org/2000/svg" xmlns:xlink="http://www.w3.org/1999/xlink" x="0px" y="0px"
	 viewBox="0 0 696 963.5" enable-background="new 0 0 696 963.5" xml:space="preserve">
<g id="Map">
</g>
<g id="Chart">
</g>
<g id="Inset_map">
</g>
<g id="Art">
</g>
<g id="TEXT">
	<g>
		
			<linearGradient id="SVGID_1_" gradientUnits="userSpaceOnUse" x1="-1418.6925" y1="-1116.5076" x2="-590.6057" y2="1158.6421" gradientTransform="matrix(0.3333 0 0 -0.3333 622.6667 479.2914)">
			<stop  offset="0" style="stop-color:#CD972E"/>
			<stop  offset="0.4856" style="stop-color:#EEA125"/>
			<stop  offset="1" style="stop-color:#FFD97E"/>
		</linearGradient>
		<path fill="url(#SVGID_1_)" d="M34.5,171.3v276.5v43.8v1.9h0.9l273.2,415.8h50.2l283.4-415.8h0.9v-1.9v-43.8V172.1
			C639.9,173.3,61.8,171.9,34.5,171.3z"/>
		<g>
			<linearGradient id="SVGID_2_" gradientUnits="userSpaceOnUse" x1="337.9805" y1="189.694" x2="337.9805" y2="103.2312">
				<stop  offset="1.020408e-02" style="stop-color:#ECD59C"/>
				<stop  offset="0.7391" style="stop-color:#FFFFFF"/>
			</linearGradient>
			<path fill="url(#SVGID_2_)" d="M34.8,189.7l606.6-0.5c0,0,25.2-116.4-175.4-78.2c-48.3,9.2-76.4,12.5-152.9,12.6
				c-29.4,0-160.9,22.5-211.9,17.5c-33.3-3.2-58.3,2-63.2,15C30.5,175.8,34.8,189.7,34.8,189.7z"/>
			<path fill="#FFFFFF" d="M38.8,163.7l602.6-6.9c0,0-11.2-25.1-49.5-31.6c-30-5.1-50.6-19.1-103.8-32.9
				c-53.5-13.9-104.6,22.9-181.2,23c-13,0-42.8-24.1-76.8-23c-42.6,1.5-64.5,39.4-111,25.7C37.4,93.9,38.8,163.7,38.8,163.7z"/>
			<circle opacity="0.15" fill="#FFFFFF" stroke="#FFFFFF" stroke-miterlimit="10" cx="409.4" cy="84.6" r="28.4"/>
			<circle opacity="0.15" fill="#FFFFFF" stroke="#FFFFFF" stroke-miterlimit="10" cx="338.1" cy="101.1" r="28.4"/>
			<circle opacity="0.15" fill="#FFFFFF" stroke="#FFFFFF" stroke-miterlimit="10" cx="574.1" cy="100.4" r="28.4"/>
		</g>
	</g>
</g>
</svg>
