<?xml version="1.0" encoding="utf-8"?>
<!-- Generator: Adobe Illustrator 17.1.0, SVG Export Plug-In . SVG Version: 6.00 Build 0)  -->
<!DOCTYPE svg PUBLIC "-//W3C//DTD SVG 1.1//EN" "http://www.w3.org/Graphics/SVG/1.1/DTD/svg11.dtd">
<svg version="1.1" xmlns="http://www.w3.org/2000/svg" xmlns:xlink="http://www.w3.org/1999/xlink" x="0px" y="0px"
	 viewBox="0 0 684 963.5" enable-background="new 0 0 684 963.5" xml:space="preserve">
<g id="Map">
</g>
<g id="Chart">
</g>
<g id="Inset_map">
</g>
<g id="Art">
</g>
<g id="TEXT">
	<g>
		
			<linearGradient id="SVGID_1_" gradientUnits="userSpaceOnUse" x1="6110.8442" y1="-1116.5076" x2="6938.9312" y2="1158.6421" gradientTransform="matrix(0.3333 0 0 -0.3333 -1889.3333 479.2914)">
			<stop  offset="0" style="stop-color:#CD972E"/>
			<stop  offset="0.4856" style="stop-color:#EEA125"/>
			<stop  offset="1" style="stop-color:#FFD97E"/>
		</linearGradient>
		<path fill="url(#SVGID_1_)" d="M32.3,171.3v276.5v43.8v1.9h0.9l273.2,415.8h50.2l283.4-415.8h0.9v-1.9v-43.8V172.1
			C637.7,173.3,59.7,171.9,32.3,171.3z"/>
		<g>
			<linearGradient id="SVGID_2_" gradientUnits="userSpaceOnUse" x1="336.8396" y1="189.6954" x2="336.8396" y2="92.1379">
				<stop  offset="1.020408e-02" style="stop-color:#ECD59C"/>
				<stop  offset="0.7391" style="stop-color:#FFFFFF"/>
			</linearGradient>
			<path fill="url(#SVGID_2_)" d="M641.5,189.7l-607.6-0.6c0,0-2.6-20.8-1.6-47c1.4-35.1,49.3-68.3,179-38.2
				c48.1,11.2,76.4,13.6,152.9,13.7c29.4,0,93.5,18.6,122,6.5c65.4-27.8,145.6-49.5,150.2-6C642.6,177.4,641.5,189.7,641.5,189.7z"
				/>
			<circle opacity="0.15" fill="#FFFFFF" stroke="#FFFFFF" stroke-miterlimit="10" cx="347.7" cy="46.2" r="28.4"/>
			<circle opacity="0.15" fill="#FFFFFF" stroke="#FFFFFF" stroke-miterlimit="10" cx="425.7" cy="66.6" r="28.4"/>
			<circle opacity="0.15" fill="#FFFFFF" stroke="#FFFFFF" stroke-miterlimit="10" cx="247.4" cy="56.8" r="28.4"/>
			<path fill="#FFFFFF" d="M32.4,138L638,127.9c0,0,3.2-21.4-14.1-42.7c-27.2-33.3-88.7-68.6-177.5-38c-60.7,20.9-50.6,10-127.2,10
				c-29.4,0-66,24.6-94.5,16.7c-65.4-18.1-93.5-0.1-126.9,9.6C33.8,102.4,32.4,138,32.4,138z"/>
		</g>
	</g>
</g>
</svg>
