<?xml version="1.0" encoding="utf-8"?>
<!-- Generator: Adobe Illustrator 17.1.0, SVG Export Plug-In . SVG Version: 6.00 Build 0)  -->
<!DOCTYPE svg PUBLIC "-//W3C//DTD SVG 1.1//EN" "http://www.w3.org/Graphics/SVG/1.1/DTD/svg11.dtd">
<svg version="1.1" xmlns="http://www.w3.org/2000/svg" xmlns:xlink="http://www.w3.org/1999/xlink" x="0px" y="0px"
	 viewBox="0 0 752 963.5" enable-background="new 0 0 752 963.5" xml:space="preserve">
<g id="Map">
</g>
<g id="Chart">
</g>
<g id="Inset_map">
</g>
<g id="Art">
</g>
<g id="TEXT">
	<g>
		
			<linearGradient id="SVGID_1_" gradientUnits="userSpaceOnUse" x1="-2893.5037" y1="-1116.5076" x2="-2065.417" y2="1158.6421" gradientTransform="matrix(0.3333 0 0 -0.3333 1148 479.2914)">
			<stop  offset="0" style="stop-color:#CD972E"/>
			<stop  offset="0.4856" style="stop-color:#EEA125"/>
			<stop  offset="1" style="stop-color:#FFD97E"/>
		</linearGradient>
		<path fill="url(#SVGID_1_)" d="M68.2,171.3v276.5v43.8v1.9h0.9l273.2,415.8h50.2l283.4-415.8h0.9v-1.9v-43.8V172.1
			C673.6,173.3,95.6,171.9,68.2,171.3z"/>
		<g>
			<linearGradient id="SVGID_2_" gradientUnits="userSpaceOnUse" x1="372.4688" y1="189.9105" x2="372.4688" y2="117.1118">
				<stop  offset="1.020408e-02" style="stop-color:#ECD59C"/>
				<stop  offset="0.7391" style="stop-color:#FFFFFF"/>
			</linearGradient>
			<path fill="url(#SVGID_2_)" d="M676.3,189.9l-606.6-0.4c0,0-5.2-19.4-1-35.6c6.8-26,40.3-50.8,176.4-27.5
				c48.1,8.3,76.4,10.1,152.9,10.1c29.4,0,93.5,13.8,122,4.8c65.4-20.5,58-20.9,93.1-7.5c33.9,12.9,61.7,11.8,63.5,23.8
				C679.5,176.9,676.3,189.9,676.3,189.9z"/>
			<path fill="#FFFFFF" d="M676.7,164.3l-609.1-3.8c0,0-2.2-16.8,7.1-21.2c33.3-15.7,29.3-15.7,170.5-12.8
				c48.3,1,76.4-30.2,152.9-30.2c29.4,0,93.5,22.8,122,17.4c65.4-12.4,57.2-19.1,93.1-15.8C696.6,105.8,676.7,164.3,676.7,164.3z"/>
			<circle opacity="0.15" fill="#FFFFFF" stroke="#FFFFFF" stroke-miterlimit="10" cx="498.5" cy="109.9" r="28.4"/>
			<circle opacity="0.15" fill="#FFFFFF" stroke="#FFFFFF" stroke-miterlimit="10" cx="542.8" cy="97.1" r="28.4"/>
			<circle opacity="0.15" fill="#FFFFFF" stroke="#FFFFFF" stroke-miterlimit="10" cx="244.8" cy="109" r="28.4"/>
		</g>
	</g>
</g>
</svg>
