<?xml version="1.0" encoding="utf-8"?>
<!-- Generator: Adobe Illustrator 17.1.0, SVG Export Plug-In . SVG Version: 6.00 Build 0)  -->
<!DOCTYPE svg PUBLIC "-//W3C//DTD SVG 1.1//EN" "http://www.w3.org/Graphics/SVG/1.1/DTD/svg11.dtd">
<svg version="1.1" xmlns="http://www.w3.org/2000/svg" xmlns:xlink="http://www.w3.org/1999/xlink" x="0px" y="0px"
	 viewBox="0 0 732 963.5" enable-background="new 0 0 732 963.5" xml:space="preserve">
<g id="Map">
</g>
<g id="Chart">
</g>
<g id="Inset_map">
</g>
<g id="Art">
</g>
<g id="TEXT">
	<g>
		
			<linearGradient id="SVGID_1_" gradientUnits="userSpaceOnUse" x1="10662.2939" y1="-1116.5076" x2="11490.3809" y2="1158.6421" gradientTransform="matrix(0.3333 0 0 -0.3333 -3377.3333 479.2914)">
			<stop  offset="0" style="stop-color:#CD972E"/>
			<stop  offset="0.4856" style="stop-color:#EEA125"/>
			<stop  offset="1" style="stop-color:#FFD97E"/>
		</linearGradient>
		<path fill="url(#SVGID_1_)" d="M61.5,171.3v276.5v43.8v1.9h0.9l273.2,415.8h50.2l283.4-415.8h0.9v-1.9v-43.8V172.1
			C666.8,173.3,88.8,171.9,61.5,171.3z"/>
		<g>
			<linearGradient id="SVGID_2_" gradientUnits="userSpaceOnUse" x1="364.7858" y1="189.6954" x2="364.7858" y2="91.9501">
				<stop  offset="1.020408e-02" style="stop-color:#ECD59C"/>
				<stop  offset="0.7391" style="stop-color:#FFFFFF"/>
			</linearGradient>
			<path fill="url(#SVGID_2_)" d="M667.3,189.7l-606.6-0.6c0,0,0-17.8,0.3-42.5c0.5-36,37.1-74.8,175.2-42.7
				c48.1,11.2,76.4,13.6,152.9,13.7c29.4,0,93.5,18.6,122,6.5c65.4-27.8,145.5-49.2,152.2-6C672.9,180.9,667.3,189.7,667.3,189.7z"
				/>
			<circle opacity="0.15" fill="#FFFFFF" stroke="#FFFFFF" stroke-miterlimit="10" cx="372.4" cy="46.2" r="28.4"/>
			<circle opacity="0.15" fill="#FFFFFF" stroke="#FFFFFF" stroke-miterlimit="10" cx="450.4" cy="66.6" r="28.4"/>
			<circle opacity="0.15" fill="#FFFFFF" stroke="#FFFFFF" stroke-miterlimit="10" cx="272.2" cy="56.8" r="28.4"/>
			<path fill="#FFFFFF" d="M62.2,138l601.6-10.2c0,0-16.5-127.9-175.4-74.8C441.9,68.6,420.6,68.7,344,68.7
				c-29.4,0-59.7-11.7-88.2-19.6c-65.4-18.1-94.9-8.7-130,3.1C40.2,81.1,62.2,138,62.2,138z"/>
		</g>
	</g>
</g>
</svg>
