<?xml version="1.0" encoding="utf-8"?>
<!-- Generator: Adobe Illustrator 17.1.0, SVG Export Plug-In . SVG Version: 6.00 Build 0)  -->
<!DOCTYPE svg PUBLIC "-//W3C//DTD SVG 1.1//EN" "http://www.w3.org/Graphics/SVG/1.1/DTD/svg11.dtd">
<svg version="1.1" xmlns="http://www.w3.org/2000/svg" xmlns:xlink="http://www.w3.org/1999/xlink" x="0px" y="0px"
	 viewBox="0 0 732 963.5" enable-background="new 0 0 732 963.5" xml:space="preserve">
<g id="Map">
</g>
<g id="Chart">
</g>
<g id="Inset_map">
</g>
<g id="Art">
</g>
<g id="TEXT">
	<g>
		
			<linearGradient id="SVGID_1_" gradientUnits="userSpaceOnUse" x1="1630.8335" y1="-1113.1498" x2="2458.9202" y2="1161.9999" gradientTransform="matrix(0.3333 0 0 -0.3333 -358.6667 479.2914)">
			<stop  offset="0" style="stop-color:#CD972E"/>
			<stop  offset="0.4856" style="stop-color:#EEA125"/>
			<stop  offset="1" style="stop-color:#FFD97E"/>
		</linearGradient>
		<path fill="url(#SVGID_1_)" d="M69.6,170.2v276.5v43.8v1.9h0.9l273.2,415.8h50.2l283.4-415.8h0.9v-1.9v-43.8V171
			C675,172.1,97,170.8,69.6,170.2z"/>
		<linearGradient id="SVGID_2_" gradientUnits="userSpaceOnUse" x1="374.3824" y1="189.6954" x2="374.3824" y2="92.1356">
			<stop  offset="1.020408e-02" style="stop-color:#ECD59C"/>
			<stop  offset="0.7391" style="stop-color:#FFFFFF"/>
		</linearGradient>
		<path fill="url(#SVGID_2_)" d="M678.9,189.7l-605.6-0.6c-3.7,0.6-3.3-18.9-3.5-48.1c-0.2-34.7,50.7-66.9,179-37.2
			c48.1,11.2,76.4,13.6,152.9,13.7c29.4,0,93.5,18.6,122,6.5c65.3-27.8,146.1-49.6,150.2-6C678.1,163.7,678.9,189.7,678.9,189.7z"/>
		<circle opacity="0.15" fill="#FFFFFF" stroke="#FFFFFF" stroke-miterlimit="10" cx="385.1" cy="46.2" r="28.4"/>
		<circle opacity="0.15" fill="#FFFFFF" stroke="#FFFFFF" stroke-miterlimit="10" cx="463.1" cy="66.6" r="28.4"/>
		<circle opacity="0.15" fill="#FFFFFF" stroke="#FFFFFF" stroke-miterlimit="10" cx="284.8" cy="56.8" r="28.4"/>
		<path fill="#FFFFFF" d="M69.8,141l606.6-8.7c0,0,0-122.4-175.4-64c-45.7,15.2-66.3-28.1-144.3-1.8c-27.8,9.4-50.8-22.5-94.2,0
			C201.6,98.3,167,63.9,131.8,74C46.2,98.7,69.8,141,69.8,141z"/>
	</g>
</g>
</svg>
