<?xml version="1.0" encoding="utf-8"?>
<!-- Generator: Adobe Illustrator 17.1.0, SVG Export Plug-In . SVG Version: 6.00 Build 0)  -->
<!DOCTYPE svg PUBLIC "-//W3C//DTD SVG 1.1//EN" "http://www.w3.org/Graphics/SVG/1.1/DTD/svg11.dtd">
<svg version="1.1" xmlns="http://www.w3.org/2000/svg" xmlns:xlink="http://www.w3.org/1999/xlink" x="0px" y="0px"
	 viewBox="0 0 732 963.5" enable-background="new 0 0 732 963.5" xml:space="preserve">
<g id="Map">
</g>
<g id="Chart">
</g>
<g id="Inset_map">
</g>
<g id="Art">
</g>
<g id="TEXT">
	<g>
		
			<linearGradient id="SVGID_1_" gradientUnits="userSpaceOnUse" x1="-7427.6299" y1="-1116.5076" x2="-6599.5435" y2="1158.6421" gradientTransform="matrix(0.3333 0 0 -0.3333 2644 479.2914)">
			<stop  offset="0" style="stop-color:#CD972E"/>
			<stop  offset="0.4856" style="stop-color:#EEA125"/>
			<stop  offset="1" style="stop-color:#FFD97E"/>
		</linearGradient>
		<path fill="url(#SVGID_1_)" d="M52.8,171.3v276.5v43.8v1.9h0.9l273.2,415.8h50.2l283.4-415.8h0.9v-1.9v-43.8V172.1
			C658.2,173.3,80.2,171.9,52.8,171.3z"/>
		<g>
			<path fill="#FFFFFF" d="M660.9,177.8l-606.6-0.1c0,0-45.5-28.2,175.4-18.7c48.1,2.1,76.4-6.5,152.9-6.5c29.4,0,93.5,9.4,122,7.2
				c65.4-5.1,58-14.2,93.1-10.9C683.4,156.9,660.9,177.8,660.9,177.8z"/>
			<circle opacity="0.15" fill="#FFFFFF" stroke="#FFFFFF" stroke-miterlimit="10" cx="199.3" cy="165.1" r="24.6"/>
			<circle opacity="0.15" fill="#FFFFFF" stroke="#FFFFFF" stroke-miterlimit="10" cx="292.3" cy="162.9" r="18"/>
			<circle opacity="0.15" fill="#FFFFFF" stroke="#FFFFFF" stroke-miterlimit="10" cx="518.3" cy="160" r="22.3"/>
		</g>
	</g>
</g>
</svg>
