<?xml version="1.0" encoding="utf-8"?>
<!-- Generator: Adobe Illustrator 17.1.0, SVG Export Plug-In . SVG Version: 6.00 Build 0)  -->
<!DOCTYPE svg PUBLIC "-//W3C//DTD SVG 1.1//EN" "http://www.w3.org/Graphics/SVG/1.1/DTD/svg11.dtd">
<svg version="1.1" xmlns="http://www.w3.org/2000/svg" xmlns:xlink="http://www.w3.org/1999/xlink" x="0px" y="0px"
	 viewBox="0 0 708 963.5" enable-background="new 0 0 708 963.5" xml:space="preserve">
<g id="Map">
</g>
<g id="Chart">
</g>
<g id="Inset_map">
</g>
<g id="Art">
</g>
<g id="TEXT">
	<g>
		
			<linearGradient id="SVGID_1_" gradientUnits="userSpaceOnUse" x1="108.4626" y1="-1113.1498" x2="936.5493" y2="1161.9999" gradientTransform="matrix(0.3333 0 0 -0.3333 134.6667 479.2914)">
			<stop  offset="0" style="stop-color:#CD972E"/>
			<stop  offset="0.4856" style="stop-color:#EEA125"/>
			<stop  offset="1" style="stop-color:#FFD97E"/>
		</linearGradient>
		<path fill="url(#SVGID_1_)" d="M55.5,170.2v276.5v43.8v1.9h0.9l273.2,415.8h50.2l283.4-415.8h0.9v-1.9v-43.8V171
			C660.9,172.1,82.9,170.8,55.5,170.2z"/>
		<g>
			<linearGradient id="SVGID_2_" gradientUnits="userSpaceOnUse" x1="359.5655" y1="189.6954" x2="359.5655" y2="92.3556">
				<stop  offset="1.020408e-02" style="stop-color:#ECD59C"/>
				<stop  offset="0.7391" style="stop-color:#FFFFFF"/>
			</linearGradient>
			<path fill="url(#SVGID_2_)" d="M664.9,189.7l-607.6-0.6c0,0-43.5-136.5,177.4-85.2c48.1,11.2,76.4,13.6,152.9,13.7
				c29.4,0,93.5,18.6,122,6.5c65.4-27.8,138.1-29.9,144.5-7c2.6,9.3,7.2,17.4,8.1,24.7C666.5,175.3,664.9,189.7,664.9,189.7z"/>
			<circle opacity="0.15" fill="#FFFFFF" stroke="#FFFFFF" stroke-miterlimit="10" cx="398.3" cy="89.2" r="28.4"/>
			<circle opacity="0.15" fill="#FFFFFF" stroke="#FFFFFF" stroke-miterlimit="10" cx="214" cy="73.7" r="28.4"/>
			<path fill="#FFFFFF" d="M55.9,146l606.6-8c0,0,7.1-66.1-106.1-34.3c-17.2,4.8-33.4-19-69.4-17.9c-48.4,1.5-116.4,21-191.6,6.6
				c-12.6-2.4-46.8-23.2-119-13.6C48.7,95.6,55.9,146,55.9,146z"/>
		</g>
	</g>
</g>
</svg>
