<?xml version="1.0" encoding="utf-8"?>
<!-- Generator: Adobe Illustrator 17.1.0, SVG Export Plug-In . SVG Version: 6.00 Build 0)  -->
<!DOCTYPE svg PUBLIC "-//W3C//DTD SVG 1.1//EN" "http://www.w3.org/Graphics/SVG/1.1/DTD/svg11.dtd">
<svg version="1.1" xmlns="http://www.w3.org/2000/svg" xmlns:xlink="http://www.w3.org/1999/xlink" x="0px" y="0px"
	 viewBox="0 0 704 963.5" enable-background="new 0 0 704 963.5" xml:space="preserve">
<g id="Map">
</g>
<g id="Chart">
</g>
<g id="Inset_map">
</g>
<g id="Art">
</g>
<g id="TEXT">
	<g>
		
			<linearGradient id="SVGID_1_" gradientUnits="userSpaceOnUse" x1="9130.9863" y1="-1116.5076" x2="9959.0732" y2="1158.6421" gradientTransform="matrix(0.3333 0 0 -0.3333 -2886.6665 479.2914)">
			<stop  offset="0" style="stop-color:#CD972E"/>
			<stop  offset="0.4856" style="stop-color:#EEA125"/>
			<stop  offset="1" style="stop-color:#FFD97E"/>
		</linearGradient>
		<path fill="url(#SVGID_1_)" d="M41.7,171.3v276.5v43.8v1.9h0.9l273.2,415.8h50.2l283.4-415.8h0.9v-1.9v-43.8V172.1
			C647.1,173.3,69.1,171.9,41.7,171.3z"/>
		<g>
			<linearGradient id="SVGID_2_" gradientUnits="userSpaceOnUse" x1="348.0367" y1="189.6954" x2="348.0367" y2="91.6673">
				<stop  offset="1.020408e-02" style="stop-color:#ECD59C"/>
				<stop  offset="0.7391" style="stop-color:#FFFFFF"/>
			</linearGradient>
			<path fill="url(#SVGID_2_)" d="M651.6,189.7l-608.6-0.6c0,0,1.4-15.3-0.1-33.8c-3.3-41.7,32.6-85.6,179.5-51.5
				c48.1,11.2,76.4,13.6,152.9,13.7c29.4,0,93.5,18.6,122,6.5c65.4-27.8,143.5-49.2,150.2-6C657.3,180.9,651.6,189.7,651.6,189.7z"
				/>
			<circle opacity="0.15" fill="#FFFFFF" stroke="#FFFFFF" stroke-miterlimit="10" cx="442.8" cy="85.2" r="28.4"/>
			<circle opacity="0.15" fill="#FFFFFF" stroke="#FFFFFF" stroke-miterlimit="10" cx="201.7" cy="68.7" r="28.4"/>
			<path fill="#FFFFFF" d="M43.6,146l606.6-9.4c0,0,1.7-141.8-165.6-79.7c-48,17.8-12.8-22.4-135.8-11.7
				c-29.3,2.5-69.7,29.6-102.7,39.7c-54.6,16.8-93,8.9-133.5,2C24,71.6,43.6,146,43.6,146z"/>
		</g>
	</g>
</g>
</svg>
