<?xml version="1.0" encoding="utf-8"?>
<!-- Generator: Adobe Illustrator 17.1.0, SVG Export Plug-In . SVG Version: 6.00 Build 0)  -->
<!DOCTYPE svg PUBLIC "-//W3C//DTD SVG 1.1//EN" "http://www.w3.org/Graphics/SVG/1.1/DTD/svg11.dtd">
<svg version="1.1" xmlns="http://www.w3.org/2000/svg" xmlns:xlink="http://www.w3.org/1999/xlink" x="0px" y="0px"
	 viewBox="0 0 780 963.5" enable-background="new 0 0 780 963.5" xml:space="preserve">
<g id="Map">
</g>
<g id="Chart">
</g>
<g id="Inset_map">
</g>
<g id="Art">
</g>
<g id="TEXT">
	<g>
		
			<linearGradient id="SVGID_1_" gradientUnits="userSpaceOnUse" x1="-10414.6836" y1="-1113.1498" x2="-9586.5967" y2="1161.9999" gradientTransform="matrix(0.3333 0 0 -0.3333 3670.6665 479.2914)">
			<stop  offset="0" style="stop-color:#CD972E"/>
			<stop  offset="0.4856" style="stop-color:#EEA125"/>
			<stop  offset="1" style="stop-color:#FFD97E"/>
		</linearGradient>
		<path fill="url(#SVGID_1_)" d="M83.8,170.2v276.5v43.8v1.9h0.9l273.2,415.8H408l283.4-415.8h0.9v-1.9v-43.8V171
			C689.2,172.1,111.2,170.8,83.8,170.2z"/>
		<g>
			<path fill="#FFFFFF" d="M694.2,177.8l-606.6-0.1c0,0-44.6-13.3,175.4-15.7c48.1-0.5,76.4-9.5,152.9-9.5
				c29.4,0,93.5,12.4,122,10.2c65.4-5.1,58-10.2,93.1-6.9C716.7,163.9,694.2,177.8,694.2,177.8z"/>
			<circle opacity="0.15" fill="#FFFFFF" stroke="#FFFFFF" stroke-miterlimit="10" cx="205.9" cy="163.3" r="14.7"/>
			<circle opacity="0.15" fill="#FFFFFF" stroke="#FFFFFF" stroke-miterlimit="10" cx="205.9" cy="168.3" r="14.7"/>
			<circle opacity="0.15" fill="#FFFFFF" stroke="#FFFFFF" stroke-miterlimit="10" cx="421.8" cy="162.5" r="14.7"/>
		</g>
	</g>
</g>
</svg>
