<?xml version="1.0" encoding="utf-8"?>
<!-- Generator: Adobe Illustrator 17.1.0, SVG Export Plug-In . SVG Version: 6.00 Build 0)  -->
<!DOCTYPE svg PUBLIC "-//W3C//DTD SVG 1.1//EN" "http://www.w3.org/Graphics/SVG/1.1/DTD/svg11.dtd">
<svg version="1.1" xmlns="http://www.w3.org/2000/svg" xmlns:xlink="http://www.w3.org/1999/xlink" x="0px" y="0px"
	 viewBox="0 0 420 430.8" enable-background="new 0 0 420 430.8" xml:space="preserve">
<g id="Map">
</g>
<g id="Chart">
</g>
<g id="Inset_map">
</g>
<g id="Art">
</g>
<g id="TEXT">
</g>
<g id="Layer_6">
	<linearGradient id="SVGID_1_" gradientUnits="userSpaceOnUse" x1="200.5505" y1="131.7875" x2="244.6095" y2="162.6379">
		<stop  offset="1.020408e-02" style="stop-color:#D3C08F"/>
		<stop  offset="0.2939" style="stop-color:#F1D89A"/>
		<stop  offset="0.5999" style="stop-color:#EBCD86"/>
		<stop  offset="1" style="stop-color:#FFF0C4"/>
	</linearGradient>
	<path fill="url(#SVGID_1_)" d="M251,65.4c-2,1.4-6.7,12.3-11.8,16.6c-6.7,5.6-3.6,5.9-12.4,14.6c-15.7,15.5-11,19.9-23.4,46.6
		c-14.7,31.7,7.4,29.3-16.5,64.1c-7.8,11.3,12.9,34.7,14.5,12.7c0,0-0.8-9.2,2.3-17.5c6.7-17.6,9.4-24.2,9-38
		c-0.3-8,2.3-10.5,6.6-16.6c5.4-7.6,3.7-12,4.4-14.6c4.7-19,12.4-18.4,15.4-28.3c1.5-5,18.4-35.1,20.2-32.4
		C259.1,72.5,251,65.4,251,65.4z"/>
</g>
</svg>
