<?xml version="1.0" encoding="utf-8"?>
<!-- Generator: Adobe Illustrator 17.1.0, SVG Export Plug-In . SVG Version: 6.00 Build 0)  -->
<!DOCTYPE svg PUBLIC "-//W3C//DTD SVG 1.1//EN" "http://www.w3.org/Graphics/SVG/1.1/DTD/svg11.dtd">
<svg version="1.1" xmlns="http://www.w3.org/2000/svg" xmlns:xlink="http://www.w3.org/1999/xlink" x="0px" y="0px"
	 viewBox="0 0 434 437.8" enable-background="new 0 0 434 437.8" xml:space="preserve">
<g id="Map">
</g>
<g id="Chart">
</g>
<g id="Inset_map">
</g>
<g id="Art">
</g>
<g id="TEXT">
</g>
<g id="Layer_6">
	<linearGradient id="SVGID_1_" gradientUnits="userSpaceOnUse" x1="159.8206" y1="143.5692" x2="305.5228" y2="289.2714">
		<stop  offset="1.020408e-02" style="stop-color:#D3C08F"/>
		<stop  offset="0.2939" style="stop-color:#F1D89A"/>
		<stop  offset="0.5999" style="stop-color:#EBCD86"/>
		<stop  offset="1" style="stop-color:#FFF0C4"/>
	</linearGradient>
	<path fill="url(#SVGID_1_)" d="M267.6,40.8c-2,1.4-6.7,7.3-11.8,11.6c-6.7,5.6-12.6,7.9-21.4,16.6c-17.2,16.9-14.8,50.7-32.8,71.1
		c-24.5,27.7-19.5,75.6-23.8,96.3c-2.2,10.8-12.4,19.1-11,29.7c2.4,18.8-6.1,24-6.3,35.5c-0.5,24.6,5.6,36.4,9.9,48.8
		c8.4,24.4,13.6,37.7,18.4,38.4c23,3.2,16.9-0.9,19.5-7c5.5-12.7,1.3-25.5,1.2-39.9c-0.1-15.2,5.2-29.7,2.7-44
		c-2.8-16.1-0.1-32.1,2.1-48.6c1.3-9.3-1.3-17.7,3.2-27.7c0.7-1.6,2-5.2,2.5-6.8c2.8-8.4,7.9-15,9.5-23.8
		c2.1-12.1,12.2-74.5,17.6-91.5c1.6-4.9,33.1-54.1,34.8-51.5C281.7,47.9,267.6,40.8,267.6,40.8z"/>
</g>
</svg>
