<?xml version="1.0" encoding="utf-8"?>
<!-- Generator: Adobe Illustrator 17.1.0, SVG Export Plug-In . SVG Version: 6.00 Build 0)  -->
<!DOCTYPE svg PUBLIC "-//W3C//DTD SVG 1.1//EN" "http://www.w3.org/Graphics/SVG/1.1/DTD/svg11.dtd">
<svg version="1.1" xmlns="http://www.w3.org/2000/svg" xmlns:xlink="http://www.w3.org/1999/xlink" x="0px" y="0px"
	 viewBox="0 0 430 439.8" enable-background="new 0 0 430 439.8" xml:space="preserve">
<g id="Map">
</g>
<g id="Chart">
</g>
<g id="Inset_map">
</g>
<g id="Art">
</g>
<g id="TEXT">
</g>
<g id="Layer_6">
	<linearGradient id="SVGID_1_" gradientUnits="userSpaceOnUse" x1="163.0544" y1="148.9494" x2="226.4704" y2="193.3538">
		<stop  offset="1.020408e-02" style="stop-color:#D3C08F"/>
		<stop  offset="0.2939" style="stop-color:#F1D89A"/>
		<stop  offset="0.5999" style="stop-color:#EBCD86"/>
		<stop  offset="1" style="stop-color:#FFF0C4"/>
	</linearGradient>
	<path fill="url(#SVGID_1_)" d="M232.9,59.3c-2,1.4-6.7,7.3-11.8,11.6c-6.7,5.6-5.6,7.9-14.4,16.6c-15.7,15.5-7.2,40.3-27.7,61.3
		c-12.3,12.6-23.5,35-21.2,58.4c0.7,6.7-1.4,14-3.3,22.1c-1.2,4.9-4.2,15-5.8,20.5c-4,13.5,8.5,37.5,12.5,35.6
		c6.3-3,5.1-17.6,3.5-32c-1.8-16.2,3.6-13.4,6.6-23.3c0.5-1.6,1.3-5.2,1.7-6.8c1.9-8.4,6.6-12.5,9.7-20.8
		c6.7-17.6-1.2-23.6,13.3-38.3c13-13.2,14.8-43.2,17.3-51.2c1.6-4.9,27.1-49.1,28.8-46.5C242.1,66.4,232.9,59.3,232.9,59.3z"/>
</g>
</svg>
