<?xml version="1.0" encoding="utf-8"?>
<!-- Generator: Adobe Illustrator 17.1.0, SVG Export Plug-In . SVG Version: 6.00 Build 0)  -->
<!DOCTYPE svg PUBLIC "-//W3C//DTD SVG 1.1//EN" "http://www.w3.org/Graphics/SVG/1.1/DTD/svg11.dtd">
<svg version="1.1" xmlns="http://www.w3.org/2000/svg" xmlns:xlink="http://www.w3.org/1999/xlink" x="0px" y="0px"
	 viewBox="0 0 236 204" enable-background="new 0 0 236 204" xml:space="preserve">
<g id="Map">
</g>
<g id="Chart">
</g>
<g id="Inset_map">
</g>
<g id="Art">
</g>
<g id="TEXT">
</g>
<g id="Layer_6">
	<linearGradient id="SVGID_1_" gradientUnits="userSpaceOnUse" x1="97.6839" y1="68.8869" x2="156.1619" y2="127.3649">
		<stop  offset="1.020408e-02" style="stop-color:#D3C08F"/>
		<stop  offset="0.4012" style="stop-color:#EBCD86"/>
		<stop  offset="1" style="stop-color:#FFF0C4"/>
	</linearGradient>
	<path fill="url(#SVGID_1_)" d="M140.2,32.2c-2,1.4-8.6,7.3-13.7,11.6c-6.7,5.6-11.6,7.9-20.4,16.6c-3,3-0.6,12.4-2.7,17.9
		c-2,5.5-9.4,16.2-10.1,19.8c-0.2,1.1-4,40,3.5,42.3c1.9,0.6,3.7,0.5,5.3-0.1c5,13.2,10.8,24.7,13.3,25c13.1,1.5-3.5-33.9,13.2-83.6
		c0.3-1,22.7-38,24-36.1C152.7,45.7,140.2,32.2,140.2,32.2z"/>
</g>
</svg>
