<?xml version="1.0" encoding="utf-8"?>
<!-- Generator: Adobe Illustrator 17.1.0, SVG Export Plug-In . SVG Version: 6.00 Build 0)  -->
<!DOCTYPE svg PUBLIC "-//W3C//DTD SVG 1.1//EN" "http://www.w3.org/Graphics/SVG/1.1/DTD/svg11.dtd">
<svg version="1.1" xmlns="http://www.w3.org/2000/svg" xmlns:xlink="http://www.w3.org/1999/xlink" x="0px" y="0px"
	 viewBox="0 0 362 356" enable-background="new 0 0 362 356" xml:space="preserve">
<g id="Map">
</g>
<g id="Chart">
</g>
<g id="Inset_map">
</g>
<g id="Art">
</g>
<g id="TEXT">
</g>
<g id="Layer_6">
	<linearGradient id="SVGID_1_" gradientUnits="userSpaceOnUse" x1="132.5717" y1="113.678" x2="255.9726" y2="217.2236">
		<stop  offset="1.020408e-02" style="stop-color:#D3C08F"/>
		<stop  offset="0.5999" style="stop-color:#EBCD86"/>
		<stop  offset="1" style="stop-color:#FFF0C4"/>
	</linearGradient>
	<path fill="url(#SVGID_1_)" d="M212.3,30.2c-2,1.4-6.7,7.3-11.8,11.6c-6.7,5.6-12.6,7.9-21.4,16.6c-6,5.9-10.5,16.5-11.7,23.7
		c-0.1,0.9-2.4,20.6-0.1,30.7c-2.2,5.4-3,14.3-7.4,20.1c-13.1,17.2-18.4,36.7-16.6,44.3c2.5,10.8,3.9,8.5,4.9,13
		c3.5,15.7-2.1,30.8,4.6,37.2c8.2,7.8,9.8,26.4,13.4,43.8c4.9,23.3,10.9,44.4,15.5,33.8c1.9-4.5,1-18.2,2.3-21.7
		c4.2-11,7.8-9.4,4-24.3c-5-19.7-6.3-44.6-6.3-55.8s8.1-22.3,11.6-40.2c1.5-7.6,1.5-14.4,0.6-20.4c3.6-4.2-2.4-21.1,11.3-61.9
		c0.3-1,22.1-38.7,24.3-41C229.6,39.7,212.3,30.2,212.3,30.2z"/>
</g>
</svg>
