<?xml version="1.0" encoding="utf-8"?>
<!-- Generator: Adobe Illustrator 17.1.0, SVG Export Plug-In . SVG Version: 6.00 Build 0)  -->
<!DOCTYPE svg PUBLIC "-//W3C//DTD SVG 1.1//EN" "http://www.w3.org/Graphics/SVG/1.1/DTD/svg11.dtd">
<svg version="1.1" xmlns="http://www.w3.org/2000/svg" xmlns:xlink="http://www.w3.org/1999/xlink" x="0px" y="0px"
	 viewBox="0 0 409.4 473.9" enable-background="new 0 0 409.4 473.9" xml:space="preserve">
<g id="Map">
</g>
<g id="Chart">
</g>
<g id="Inset_map">
</g>
<g id="Art">
</g>
<g id="TEXT">
</g>
<g id="Layer_6">
	<linearGradient id="SVGID_1_" gradientUnits="userSpaceOnUse" x1="177.9802" y1="184.2803" x2="291.5761" y2="249.8649">
		<stop  offset="1.020408e-02" style="stop-color:#D3C08F"/>
		<stop  offset="0.2812" style="stop-color:#EED391"/>
		<stop  offset="0.6583" style="stop-color:#EBCD86"/>
		<stop  offset="1" style="stop-color:#FFF0C4"/>
	</linearGradient>
	<path fill="url(#SVGID_1_)" d="M277,40.6c-2,1.4-8.6,4.9-13,9.9c-9.7,10.9-19.2,39.4-37,55.4c-18,16.1-19.7,32.6-25.1,57
		c-1.3,5.7,0.8,14.3-1.1,21c-1.8,6.4-7.6,10.7-10.4,18.2c-1.9,4.8-1.7,11.9-4.6,19.3c-3.2,8.5-9.4,17.3-10.9,22.9
		c-6.9,24.6,6.6,42.7,4.7,54c-5.4,33.7-16.9,50.9-10.8,68.6c8.4,24.4,13.3,19.4,18.1,20c23,3.2,26.9-0.9,29.5-7
		c5.5-12.7,1.3-25.5,1.2-39.9c-0.1-15.2,8.9-20,4.9-34c-5.6-20.1,5.1-49.1-0.1-78.6c-1.6-9.3-1.3-17.7,3.2-27.7
		c0.7-1.6,6.8-13.7,7.4-15.3c2.8-8.4,6.3-38.7,7.9-47.5c2.1-12.1,30.5-20.2,29.3-42.4c-0.3-5.2,18.1-47.9,19.9-45.2
		C289.9,49.1,277,40.6,277,40.6z"/>
</g>
</svg>
