<?xml version="1.0" encoding="utf-8"?>
<!-- Generator: Adobe Illustrator 17.1.0, SVG Export Plug-In . SVG Version: 6.00 Build 0)  -->
<!DOCTYPE svg PUBLIC "-//W3C//DTD SVG 1.1//EN" "http://www.w3.org/Graphics/SVG/1.1/DTD/svg11.dtd">
<svg version="1.1" xmlns="http://www.w3.org/2000/svg" xmlns:xlink="http://www.w3.org/1999/xlink" x="0px" y="0px"
	 viewBox="0 0 443.1 483.9" enable-background="new 0 0 443.1 483.9" xml:space="preserve">
<g id="Map">
</g>
<g id="Chart">
</g>
<g id="Inset_map">
</g>
<g id="Art">
</g>
<g id="TEXT">
</g>
<g id="Layer_6">
	<linearGradient id="SVGID_1_" gradientUnits="userSpaceOnUse" x1="196.8457" y1="98.6088" x2="318.819" y2="360.1814">
		<stop  offset="1.020408e-02" style="stop-color:#D3C08F"/>
		<stop  offset="0.2939" style="stop-color:#F1D89A"/>
		<stop  offset="0.5999" style="stop-color:#EBCD86"/>
		<stop  offset="1" style="stop-color:#FFF0C4"/>
	</linearGradient>
	<path fill="url(#SVGID_1_)" d="M289.6,55.4c-2,1.4-6.7,7.3-11.8,11.6c-6.7,5.6-12.6,7.9-21.4,16.6c-17.2,16.9-10.8,50.7-28.8,71.1
		C203,182.4,204,230.3,199.7,251c-2.2,10.8-11.4,19.1-10,29.7c2.4,18.8,1.2,24.1-0.3,35.5c-4.3,33.7,5.6,36.4,9.9,48.8
		c8.4,24.4,13.6,34.7,18.4,35.4c23,3.2,9.9-0.9,12.5-7c5.5-12.7-6.7-22.5-6.8-36.9c-0.1-15.2,9.2-29.7,6.7-44
		c-2.8-16.1-3.1-32.1-0.9-48.6c1.3-9.3-1.3-17.7,3.2-27.7c0.7-1.6,2-5.2,2.5-6.8c2.8-8.4,12.9-15,14.5-23.8
		c1.1-6.4-5.2-32.6,9.3-47.3c13-13.2,9.8-36.2,12.3-44.2c1.6-4.9,31.1-54.1,32.8-51.5C303.7,62.4,289.6,55.4,289.6,55.4z"/>
</g>
</svg>
