<?xml version="1.0" encoding="utf-8"?>
<!-- Generator: Adobe Illustrator 17.1.0, SVG Export Plug-In . SVG Version: 6.00 Build 0)  -->
<!DOCTYPE svg PUBLIC "-//W3C//DTD SVG 1.1//EN" "http://www.w3.org/Graphics/SVG/1.1/DTD/svg11.dtd">
<svg version="1.1" xmlns="http://www.w3.org/2000/svg" xmlns:xlink="http://www.w3.org/1999/xlink" x="0px" y="0px"
	 viewBox="0 0 426 449.8" enable-background="new 0 0 426 449.8" xml:space="preserve">
<g id="Map">
</g>
<g id="Chart">
</g>
<g id="Inset_map">
</g>
<g id="Art">
</g>
<g id="TEXT">
</g>
<g id="Layer_6">
	<linearGradient id="SVGID_1_" gradientUnits="userSpaceOnUse" x1="158.7454" y1="98.3422" x2="260.6838" y2="316.9498">
		<stop  offset="1.020408e-02" style="stop-color:#D3C08F"/>
		<stop  offset="0.2939" style="stop-color:#F1D89A"/>
		<stop  offset="0.5999" style="stop-color:#EBCD86"/>
		<stop  offset="1" style="stop-color:#FFF0C4"/>
	</linearGradient>
	<path fill="url(#SVGID_1_)" d="M242.5,59.3c-2,1.4-6.7,7.3-11.8,11.6c-6.7,5.6-5.6,7.9-14.4,16.6c-15.7,15.5-12.8,27.3-33.3,48.3
		c-17.1,17.6-10.4,37-15.6,71.4c-1,6.7-6.4,14-8.3,22.1c-1.2,4.9,1.5,10.1-0.2,15.6c-3.1,10.5-3.4,16.9-7,35.2
		c-4.6,23.9,1.8,37.3,4.7,49.7c5.6,24.4,10.1,23.8,13.3,24.5c15.5,3.2,6.6-0.9,8.4-7c3.7-12.7-3.5-22.5-3.6-36.9
		c0-15.2,5.2-17.7,3.5-32c-1.8-16.1-1.1-4.1,0.4-20.6c0.9-9.3-0.9-17.7,2.1-27.7c0.5-1.6,1.3-5.2,1.7-6.8c1.9-8.4,6.6-12.5,9.7-20.8
		c6.7-17.6,4.8-25.6,19.3-40.3c13-13.2,9.8-36.2,12.3-44.2c1.6-4.9,31.1-54.1,32.8-51.5C256.6,66.4,242.5,59.3,242.5,59.3z"/>
</g>
</svg>
